<svg xmlns="http://www.w3.org/2000/svg" xmlns:xlink="http://www.w3.org/1999/xlink" width="600" height="600" viewBox="0 0 166.409 164.949"><style><![CDATA[.B{overflow:visible}.C{stroke:none}.D{stroke-miterlimit:10}.E{fill:none}.F{fill:rgb(0%,0%,0%)}.G{stroke:rgb(0%,0%,0%)}.H{stroke-width:.79701}.I{stroke-width:.3985}]]></style><defs><symbol id="A" class="B"><path d="M2.65625-2.40625c.046875-.203125.234375-.9375.796875-.9375.03125 0 .234375 0 .390625.09375-.21875.046875-.375.25-.375.4375 0 .125.078125.28125.296875.28125.171875 0 .4375-.140625.4375-.46875 0-.40625-.46875-.515625-.75-.515625-.453125 0-.734375.421875-.828125.59375-.203125-.515625-.640625-.59375-.859375-.59375C.9375-3.515625.484375-2.5.484375-2.296875c0 .078125.078125.078125.09375.078125.0625 0 .078125-.015625.09375-.078125C.953125-3.140625 1.46875-3.34375 1.75-3.34375c.140625 0 .421875.0625.421875.53125 0 .25-.125.78125-.421875 1.890625-.125.5-.40625.828125-.765625.828125-.046875 0-.234375 0-.390625-.09375.1875-.046875.375-.203125.375-.4375 0-.21875-.1875-.28125-.296875-.28125-.234375 0-.4375.21875-.4375.46875 0 .359375.390625.53125.75.53125.515625 0 .8125-.5625.828125-.609375.09375.296875.390625.609375.859375.609375.828125 0 1.28125-1.03125 1.28125-1.234375 0-.078125-.078125-.078125-.09375-.078125-.078125 0-.09375.03125-.109375.09375-.265625.84375-.796875 1.03125-1.0625 1.03125-.3125 0-.4375-.25-.4375-.515625 0-.171875.046875-.359375.140625-.703125zm0 0" class="C"/></symbol><symbol id="B" class="B"><path d="M5.890625-3.46875c0-1.28125-.84375-2.15625-2.03125-2.15625-1.71875 0-3.46875 1.8125-3.46875 3.671875 0 1.328125.890625 2.125 2.046875 2.125 1.6875 0 3.453125-1.734375 3.453125-3.640625zm-3.40625 3.4375C1.6875-.03125 1.125-.671875 1.125-1.734375c0-.34375.125-1.515625.734375-2.4375C2.40625-5 3.1875-5.421875 3.8125-5.421875c.65625 0 1.375.453125 1.375 1.640625 0 .5625-.21875 1.8125-1 2.796875C3.796875-.5 3.140625-.03125 2.484375-.03125zm0 0" class="C"/></symbol><symbol id="C" class="B"><path d="M1.421875-.921875c-.3125.546875-.625.65625-.96875.671875C.34375-.234375.28125-.234375.28125-.09375.28125-.046875.3125 0 .375 0l.6875-.03125L1.859375 0c.046875 0 .15625 0 .15625-.15625 0-.078125-.078125-.09375-.125-.09375-.1875-.015625-.375-.078125-.375-.28125 0-.09375.046875-.171875.109375-.296875l.609375-1.015625h2l.125 1.328125c0 .25-.421875.265625-.578125.265625-.109375 0-.1875 0-.1875.15625C3.59375 0 3.6875 0 3.703125 0l1-.03125L5.609375 0C5.65625 0 5.75 0 5.75-.15625 5.75-.25 5.671875-.25 5.5625-.25c-.5 0-.5-.046875-.515625-.28125L4.5625-5.515625c-.015625-.15625-.015625-.1875-.15625-.1875-.125 0-.15625.046875-.203125.140625zM2.375-2.09375l1.578125-2.625.25 2.625zm0 0" class="C"/></symbol><symbol id="D" class="B"><path d="M6.078125-4.828125c.078125-.28125.09375-.375.671875-.375.203125 0 .265625 0 .265625-.15625 0-.078125-.078125-.078125-.109375-.078125l-1.015625.015625c-.234375 0-.796875-.015625-1.03125-.015625-.0625 0-.15625 0-.15625.15625 0 .078125.078125.078125.234375.078125.015625 0 .15625 0 .296875.03125.140625.015625.21875.015625.21875.125 0 .03125-.015625.046875-.03125.140625L4.9375-2.953125H2.515625l.46875-1.875c.0625-.28125.09375-.375.671875-.375.203125 0 .265625 0 .265625-.15625 0-.078125-.09375-.078125-.109375-.078125l-1.03125.015625c-.21875 0-.796875-.015625-1.015625-.015625-.0625 0-.15625 0-.15625.15625 0 .078125.078125.078125.21875.078125.015625 0 .171875 0 .3125.03125.140625.015625.203125.015625.203125.125 0 .03125 0 .046875-.03125.140625L1.25-.625c-.078125.3125-.09375.375-.71875.375C.375-.25.3125-.25.3125-.09375.3125 0 .40625 0 .421875 0L1.4375-.03125l.5.015625L2.46875 0c.0625 0 .15625 0 .15625-.15625C2.625-.25 2.546875-.25 2.40625-.25c-.296875 0-.53125 0-.53125-.140625 0-.046875.015625-.09375.03125-.140625l.546875-2.171875H4.875l-.546875 2.1875C4.25-.25 4.09375-.25 3.609375-.25c-.125 0-.203125 0-.203125.15625C3.40625 0 3.5 0 3.515625 0L4.53125-.03125 5.5625 0c.0625 0 .15625 0 .15625-.15625C5.71875-.25 5.65625-.25 5.5-.25c-.296875 0-.515625 0-.515625-.140625C4.984375-.4375 5-.484375 5-.53125zm0 0" class="C"/></symbol><symbol id="E" class="B"><path d="M1.28125-.625c-.09375.3125-.109375.375-.734375.375-.125 0-.21875 0-.21875.15625C.328125 0 .40625 0 .546875 0h2.84375C4.65625 0 5.59375-.9375 5.59375-1.71875c0-.578125-.46875-1.03125-1.234375-1.125C5.1875-3 6.03125-3.578125 6.03125-4.34375c0-.59375-.53125-1.09375-1.484375-1.09375h-2.6875c-.140625 0-.21875 0-.21875.15625 0 .078125.0625.078125.21875.078125.015625 0 .171875 0 .296875.03125.140625.015625.21875.015625.21875.125 0 .03125-.015625.046875-.03125.140625zm1.203125-2.296875l.484375-1.96875c.078125-.28125.09375-.3125.4375-.3125H4.4375c.6875 0 .859375.484375.859375.828125 0 .703125-.6875 1.453125-1.65625 1.453125zM2.125-.25h-.1875c-.078125-.015625-.09375-.015625-.09375-.078125 0-.03125 0-.046875.03125-.1875l.5625-2.21875h1.5c.765625 0 .921875.578125.921875.921875 0 .796875-.71875 1.5625-1.65625 1.5625zm0 0" class="C"/></symbol><symbol id="F" class="B"><path d="M3.40625-4.84375c.046875-.21875.078125-.265625.171875-.28125.078125-.015625.34375-.015625.515625-.015625.796875 0 1.15625.03125 1.15625.640625 0 .125-.03125.4375-.0625.640625-.015625.03125-.03125.125-.03125.15625 0 .046875.03125.09375.109375.09375s.09375-.0625.109375-.171875l.21875-1.390625c.015625-.03125.015625-.109375.015625-.140625 0-.078125-.078125-.078125-.21875-.078125H.96875c-.1875 0-.203125 0-.25.15625l-.484375 1.40625c0 .015625-.046875.125-.046875.140625 0 .046875.046875.078125.09375.078125.078125 0 .09375-.03125.140625-.15625.4375-1.234375.640625-1.375 1.8125-1.375h.3125c.21875 0 .21875.03125.21875.09375 0 .046875-.015625.140625-.03125.15625L1.671875-.625c-.0625.296875-.09375.375-.953125.375-.28125 0-.328125 0-.328125.15625C.390625 0 .484375 0 .53125 0l.640625-.015625.6875-.015625.65625.015625L3.21875 0c.078125 0 .171875 0 .171875-.15625 0-.09375-.0625-.09375-.28125-.09375-.1875 0-.296875 0-.5-.015625C2.375-.28125 2.3125-.3125 2.3125-.4375c0-.015625 0-.046875.03125-.171875zm0 0" class="C"/></symbol><symbol id="G" class="B"><path d="M3.875-3.03125c.03125-.109375.03125-.125.03125-.1875 0-.140625-.109375-.21875-.234375-.21875-.078125 0-.203125.046875-.28125.171875-.015625.03125-.078125.28125-.109375.421875l-.15625.640625-.359375 1.4375c-.03125.125-.375.671875-.90625.671875-.40625 0-.484375-.34375-.484375-.640625 0-.359375.125-.859375.40625-1.5625.125-.328125.15625-.40625.15625-.578125 0-.359375-.25-.640625-.65625-.640625-.75 0-1.046875 1.15625-1.046875 1.21875 0 .078125.078125.078125.09375.078125.078125 0 .09375-.015625.125-.140625.21875-.75.53125-.984375.8125-.984375.0625 0 .1875 0 .1875.25 0 .203125-.078125.40625-.125.5625C1-1.6875.859375-1.234375.859375-.859375c0 .703125.5.953125.96875.953125.3125 0 .59375-.140625.8125-.359375C2.53125.140625 2.4375.53125 2.125.953125c-.21875.28125-.515625.5-.875.5-.125 0-.484375-.015625-.609375-.328125.125 0 .234375 0 .34375-.09375.078125-.078125.15625-.171875.15625-.328125 0-.25-.21875-.28125-.296875-.28125-.1875 0-.453125.125-.453125.515625 0 .40625.359375.703125.859375.703125.8125 0 1.640625-.734375 1.859375-1.625zm0 0" class="C"/></symbol><symbol id="H" class="B"><path d="M1.375-3.1875h1.140625v-.25H1.375v-1.46875h-.203125C1.171875-4.25.9375-3.390625.15625-3.359375v.171875h.671875v2.203125c0 .96875.734375 1.078125 1.03125 1.078125.5625 0 .78125-.578125.78125-1.078125V-1.4375h-.1875V-1c0 .578125-.25.890625-.546875.890625-.53125 0-.53125-.734375-.53125-.859375zm0 0" class="C"/></symbol><symbol id="I" class="B"><path d="M1.765625-1.375c-.6875 0-.6875-.796875-.6875-.96875 0-.21875 0-.484375.125-.671875.0625-.09375.25-.328125.5625-.328125.703125 0 .703125.796875.703125.984375 0 .21875-.015625.46875-.140625.671875-.0625.09375-.234375.3125-.5625.3125zm-.921875.3125c0-.03125 0-.21875.140625-.375.3125.21875.640625.25.78125.25.75 0 1.296875-.546875 1.296875-1.15625 0-.296875-.125-.59375-.328125-.78125.28125-.265625.578125-.3125.71875-.3125.015625 0 .046875 0 .078125.015625-.09375.03125-.125.109375-.125.203125 0 .140625.09375.234375.234375.234375.078125 0 .21875-.046875.21875-.234375 0-.140625-.09375-.390625-.40625-.390625-.15625 0-.5.046875-.84375.375-.328125-.265625-.671875-.28125-.84375-.28125-.734375 0-1.28125.546875-1.28125 1.15625 0 .34375.171875.65625.375.828125-.109375.109375-.25.375-.25.65625 0 .25.09375.546875.34375.703125C.484375-.03125.21875.3125.21875.625c0 .578125.796875 1.015625 1.765625 1.015625.9375 0 1.765625-.40625 1.765625-1.03125 0-.28125-.109375-.6875-.515625-.90625-.421875-.21875-.890625-.21875-1.375-.21875-.1875 0-.53125 0-.59375-.015625C1.015625-.5625.84375-.8125.84375-1.0625zm1.140625 2.515625c-.796875 0-1.34375-.40625-1.34375-.828125 0-.359375.296875-.65625.65625-.6875h.46875c.6875 0 1.578125 0 1.578125.6875 0 .4375-.578125.828125-1.359375.828125zm0 0" class="C"/></symbol><symbol id="J" class="B"><path d="M2.640625 1.90625c0-.015625 0-.03125-.140625-.171875-1-1-1.25-2.5-1.25-3.71875 0-1.390625.296875-2.78125 1.28125-3.78125.109375-.09375.109375-.109375.109375-.125 0-.0625-.03125-.078125-.078125-.078125-.078125 0-.796875.53125-1.265625 1.546875-.40625.875-.515625 1.765625-.515625 2.4375C.78125-1.375.875-.40625 1.3125.5c.484375.96875 1.171875 1.484375 1.25 1.484375.046875 0 .078125-.015625.078125-.078125zm0 0" class="C"/></symbol><symbol id="K" class="B"><path d="M2.296875-1.984375c0-.625-.078125-1.59375-.515625-2.5-.484375-.96875-1.171875-1.484375-1.25-1.484375-.046875 0-.078125.03125-.078125.078125 0 .015625 0 .03125.15625.171875.78125.796875 1.234375 2.0625 1.234375 3.734375 0 1.359375-.296875 2.75-1.28125 3.765625-.109375.09375-.109375.109375-.109375.125 0 .046875.03125.078125.078125.078125.078125 0 .796875-.53125 1.265625-1.546875.40625-.875.5-1.765625.5-2.421875zm0 0" class="C"/></symbol><symbol id="L" class="B"><path d="M1.65625-1.546875c.171875.03125.828125.15625.828125.734375 0 .40625-.28125.71875-.90625.71875-.65625 0-.953125-.453125-1.09375-1.125-.03125-.109375-.03125-.140625-.125-.140625s-.09375.0625-.09375.203125v1.046875c0 .140625 0 .203125.078125.203125.046875 0 .046875-.015625.203125-.171875C.5625-.09375.5625-.109375.703125-.25c.359375.328125.71875.34375.875.34375C2.5.09375 2.875-.453125 2.875-1.015625c0-.421875-.25-.671875-.34375-.765625-.265625-.25-.578125-.3125-.90625-.375C1.171875-2.25.640625-2.34375.640625-2.8125c0-.28125.21875-.609375.890625-.609375.890625 0 .921875.71875.9375.96875.015625.078125.078125.078125.09375.078125.109375 0 .109375-.046875.109375-.203125V-3.375c0-.140625 0-.1875-.09375-.1875-.03125 0-.046875 0-.15625.09375-.015625.03125-.109375.09375-.140625.125-.296875-.21875-.625-.21875-.75-.21875-.96875 0-1.265625.53125-1.265625.96875 0 .28125.125.5.34375.6875.25.203125.46875.25 1.046875.359375zm0 0" class="C"/></symbol><symbol id="M" class="B"><path d="M1.40625-3.515625L.296875-3.4375v.25c.515625 0 .59375.046875.59375.4375v2.140625C.890625-.25.796875-.25.265625-.25V0l.875-.03125L1.96875 0v-.25c-.53125 0-.5625-.03125-.5625-.34375zM1.4375-4.90625c0-.25-.1875-.421875-.421875-.421875-.25 0-.421875.21875-.421875.421875 0 .21875.171875.421875.421875.421875.234375 0 .421875-.171875.421875-.421875zm0 0" class="C"/></symbol><symbol id="N" class="B"><path d="M.875-2.734375v2.125C.875-.25.78125-.25.25-.25V0l.90625-.03125L2.046875 0v-.25c-.53125 0-.625 0-.625-.359375v-1.46875c0-.828125.5625-1.265625 1.078125-1.265625.5 0 .59375.421875.59375.875v1.859375C3.09375-.25 3-.25 2.46875-.25V0L3.375-.03125 4.265625 0v-.25c-.421875 0-.609375 0-.625-.234375v-1.53125c0-.671875 0-.921875-.25-1.21875-.109375-.125-.375-.28125-.828125-.28125-.59375 0-.953125.34375-1.1875.828125v-.828125L.25-3.4375v.25c.5625 0 .625.0625.625.453125zm0 0" class="C"/></symbol><clipPath id="O"><path d="M9.667969 24H142v131.757813H9.667969zm0 0"/></clipPath></defs><g clip-path="url(#O)" class="D E G H"><path d="M130.140625 148.671875c0-62.621094-50.765625-113.386719-113.38671875-113.386719S-96.632813 86.050781-96.632813 148.671875-45.867188 262.058594 16.75390625 262.058594 130.140625 211.296875 130.140625 148.671875zm0 0"/></g><path d="M16.753906 148.671875h13.605469c0-3.289062-1.195312-6.472656-3.359375-8.953125zm0 0" fill="rgb(79.998779%,79.998779%,79.998779%)"/><path d="M30.359375 148.671875c0-3.289062-1.195313-6.472656-3.359375-8.953125" class="D E G I"/><use xlink:href="#A" x="32.31" y="143.695" class="F"/><g class="E D"><g class="G I"><path d="M16.75390625 148.671875L130.140625 49.460938v99.210937zm0 0"/><path d="M16.75390625 148.671875L102.078125 74.121094l28.0625 74.550781zm0 0"/></g><path d="M130.140625 148.671875c0-27.46875-9.980469-54.015625-28.078125-74.683594" stroke="rgb(25.097656%,66.273499%,25.097656%)" class="H"/></g><use xlink:href="#A" x="110.855" y="78.672" fill="rgb(25.097656%,66.273499%,25.097656%)"/><path d="M130.140625 148.671875V49.460938" stroke="rgb(84.70459%,18.824768%,19.216919%)" class="D E H"/><g fill="rgb(84.70459%,18.824768%,19.216919%)"><use xlink:href="#H" x="133.115" y="58.413"/><use xlink:href="#I" x="136.214564" y="58.413"/><use xlink:href="#J" x="140.311185" y="58.413"/><use xlink:href="#A" x="143.4102" y="58.413"/><use xlink:href="#K" x="147.9654" y="58.413"/></g><path d="M102.078125 148.671875V74.121094" stroke="rgb(0%,62.353516%,95.684814%)" class="D E H"/><g fill="rgb(0%,62.353516%,95.684814%)"><use xlink:href="#L" x="78.562" y="113.39"/><use xlink:href="#M" x="81.7054" y="113.39"/><use xlink:href="#N" x="83.919488" y="113.39"/><use xlink:href="#J" x="88.347664" y="113.39"/><use xlink:href="#A" x="91.4468" y="113.39"/><use xlink:href="#K" x="96.002" y="113.39"/></g><g class="F"><use xlink:href="#B" x="7.638" y="156.935"/><use xlink:href="#C" x="89.299" y="76.845"/><use xlink:href="#D" x="98.441" y="156.935"/><use xlink:href="#E" x="132.956" y="156.935"/><use xlink:href="#F" x="127.258" y="46.645"/></g><g class="D G I"><path d="M16.75390625 155.757813V11.523438" class="E"/><path d="M3.760081.00009375C3.299144.113375 1.267894.750094-.0016375 1.445406v-2.890625C1.267894-.749906 3.299144-.113187 3.760081.00009375zm0 0" transform="matrix(0 -1 -1 0 16.754 11.521799999999999)" class="F"/></g><use xlink:href="#G" x="8.549" y="11.07" class="F"/><g class="D G I"><path d="M9.667969 148.671875H153.90625" class="E"/><path d="M157.667969 148.671875c-.464844-.113281-2.492188-.75-3.761719-1.445312v2.894531c1.269531-.695313 3.296875-1.335938 3.761719-1.449219zm0 0" class="F"/></g><use xlink:href="#A" x="154.216" y="157.311" class="F"/></svg>