<svg xmlns="http://www.w3.org/2000/svg" xmlns:xlink="http://www.w3.org/1999/xlink" width="311.3413" height="160.232" viewBox="0 0 233.506 120.174"><defs><symbol overflow="visible" id="a"><path d="M3.3281-3.0156c.0625-.25.2969-1.1719.9844-1.1719.0469 0 .2969 0 .5.125-.2813.0625-.4688.2969-.4688.5469 0 .1562.1094.3437.375.3437.2188 0 .5313-.1719.5313-.5781 0-.5156-.5781-.6563-.9219-.6563-.5781 0-.9219.5313-1.0469.75-.25-.6562-.7812-.75-1.078-.75C1.1718-4.4063.5937-3.125.5937-2.875c0 .1094.1093.1094.125.1094.078 0 .1093-.0313.125-.1094.3437-1.0625 1-1.3125 1.3437-1.3125.1875 0 .5313.0938.5313.6719 0 .3125-.172.9687-.5313 2.375-.1563.6094-.5156 1.0312-.9531 1.0312-.0625 0-.2813 0-.5-.125.25-.0625.4687-.2656.4687-.5469 0-.2656-.2187-.3437-.3594-.3437-.3125 0-.5468.25-.5468.5781 0 .4532.4844.6563.9219.6563.6718 0 1.0312-.7031 1.0468-.75.125.3593.4844.75 1.0781.75 1.0313 0 1.5938-1.2813 1.5938-1.5313 0-.1094-.0781-.1094-.1094-.1094-.0937 0-.1094.047-.1406.1094-.3281 1.0781-1 1.3125-1.3125 1.3125-.3906 0-.5469-.3125-.5469-.6562 0-.2188.0469-.4375.1563-.875zm0 0"/></symbol><symbol overflow="visible" id="c"><path d="M4.8438-3.7969c.0468-.1406.0468-.1562.0468-.2344 0-.1718-.1406-.2656-.2969-.2656-.0937 0-.25.0625-.3437.2031-.0156.0625-.1094.3594-.1406.547-.0781.25-.1406.5312-.2031.7968L3.453-.9531c-.0312.1406-.4687.8437-1.125.8437-.5 0-.6094-.4375-.6094-.8125 0-.4531.172-1.0781.5-1.9531.1563-.4063.2032-.5156.2032-.7188 0-.4375-.3125-.8125-.8125-.8125C.6563-4.4063.2969-2.953.2969-2.875c0 .1094.0937.1094.1094.1094.1093 0 .1093-.0313.1562-.1875.2813-.9375.6719-1.2344 1.0156-1.2344.0781 0 .25 0 .25.3125 0 .25-.1094.5156-.1719.7031-.4062 1.0625-.578 1.625-.578 2.0938 0 .8906.625 1.1875 1.2187 1.1875.3906 0 .7187-.1719 1-.4531-.125.5156-.25 1.0156-.6406 1.5468-.2657.3281-.6407.625-1.0938.625-.1406 0-.5938-.0312-.7656-.4219.1562 0 .2968 0 .4218-.125.1094-.078.2032-.2187.2032-.4062 0-.3125-.2656-.3438-.3594-.3438C.8281.5313.5.6875.5 1.172c0 .5.4375.875 1.0625.875 1.0156 0 2.0469-.9063 2.3281-2.0313zm0 0"/></symbol><symbol overflow="visible" id="d"><path d="M3.8906-2.5469c0-.8437-.0781-1.3594-.3437-1.875-.3438-.7031-1-.875-1.4375-.875-1 0-1.375.75-1.4844.9688C.3437-3.75.3281-2.9531.3281-2.547c0 .5313.0156 1.3281.4063 1.9688.3593.5937.9531.75 1.375.75.3906 0 1.0625-.125 1.4687-.9063.2969-.5781.3125-1.2969.3125-1.8125zM2.1094-.0625c-.2656 0-.8125-.125-.9844-.9531-.0938-.4531-.0938-1.2031-.0938-1.625 0-.5469 0-1.1094.0938-1.5469.1719-.8125.7813-.8906.9844-.8906.2656 0 .8281.1406.9844.8594.0937.4375.0937 1.0468.0937 1.578 0 .4688 0 1.1876-.0938 1.6407-.1718.8281-.7187.9375-.9843.9375zm0 0"/></symbol><symbol overflow="visible" id="e"><path d="M2.5-5.0781c0-.2188-.0156-.2188-.2344-.2188-.3281.3125-.75.5-1.5.5v.2656c.2188 0 .6407 0 1.1094-.203v4.078c0 .297-.0313.3907-.7813.3907H.8125V0c.3281-.0313 1.0156-.0313 1.375-.0313.3594 0 1.0469 0 1.375.0313v-.2656h-.2813c-.75 0-.7812-.0938-.7812-.3906zm0 0"/></symbol><symbol overflow="visible" id="f"><path d="M2.0781-1.9375c.2188.0469 1.0313.2031 1.0313.9219 0 .5-.3438.9062-1.125.9062-.8438 0-1.2031-.5625-1.3906-1.4219-.0313-.125-.0313-.1562-.1407-.1562-.125 0-.125.0625-.125.2344V-.125c0 .1719 0 .2344.1094.2344.0469 0 .0625-.0156.25-.2031.0156-.0157.0156-.0313.2031-.2188.4375.4063.8907.4219 1.0938.4219 1.1406 0 1.6094-.6719 1.6094-1.3906 0-.5157-.297-.8282-.422-.9376-.328-.328-.7187-.4062-1.1406-.4843-.5625-.1094-1.2187-.2344-1.2187-.8125 0-.3594.25-.7656 1.1094-.7656 1.0937 0 1.1562.9062 1.1719 1.203 0 .0938.0937.0938.1093.0938.1406 0 .1406-.0469.1406-.2344v-1.0156c0-.1562 0-.2344-.1093-.2344-.0469 0-.0781 0-.2031.125-.0313.0313-.125.125-.172.1563-.375-.2813-.7812-.2813-.9374-.2813-1.2188 0-1.5938.672-1.5938 1.2344 0 .3438.1563.625.4219.8438.3281.25.6094.3125 1.3281.4531zm0 0"/></symbol><symbol overflow="visible" id="g"><path d="M2.2188-1.7188c-.875 0-.875-1-.875-1.2187 0-.2656.0156-.5938.1562-.8438.0781-.1093.3125-.3906.7188-.3906.8593 0 .8593.9844.8593 1.2188 0 .2656 0 .5937-.1562.8437-.0781.1094-.3125.3906-.7031.3906zm-1.1563.3907c0-.0313 0-.2656.1563-.4688.3906.2813.8124.3125 1 .3125.9218 0 1.6093-.6875 1.6093-1.4531 0-.375-.1562-.7344-.4062-.9688.3594-.3437.7187-.3906.8906-.3906.0313 0 .0781 0 .1094.0156-.1094.0313-.1719.1407-.1719.2657 0 .1719.1406.2812.2969.2812.0937 0 .2812-.0625.2812-.2969 0-.1718-.1094-.4843-.5-.4843-.2031 0-.6406.0625-1.0625.4687-.4219-.3281-.8281-.3594-1.0469-.3594-.9375 0-1.625.6875-1.625 1.4532 0 .4375.2188.8125.4688 1.0312-.125.1406-.3125.4688-.3125.8281 0 .3126.1406.6876.4531.8907C.5937-.047.2812.3906.2812.7813c0 .7187.9844 1.2656 2.2032 1.2656 1.1719 0 2.2031-.5 2.2031-1.2813 0-.3437-.125-.8593-.6406-1.1406-.5313-.2656-1.1094-.2656-1.7188-.2656-.25 0-.6719 0-.75-.0157C1.2656-.703 1.0625-1 1.0625-1.328zM2.5 1.828C1.4844 1.8281.7969 1.3125.7969.7812c0-.453.375-.828.8125-.8437h.5937c.8594 0 1.9688 0 1.9688.8438 0 .5468-.7031 1.0468-1.6719 1.0468zm0 0"/></symbol><symbol overflow="visible" id="h"><path d="M1.0938-3.4219V-.75c0 .4375-.1094.4375-.7813.4375V0c.3594-.0156.8594-.0313 1.1406-.0313.25 0 .7656.0157 1.1094.0313v-.3125c-.6719 0-.7813 0-.7813-.4375v-1.8438c0-1.0312.7188-1.5937 1.3438-1.5937.6406 0 .75.5313.75 1.1094V-.75c0 .4375-.1094.4375-.7813.4375V0c.3438-.0156.8594-.0313 1.125-.0313.25 0 .7813.0157 1.1094.0313v-.3125c-.5156 0-.7656 0-.7656-.2969v-1.9062c0-.8594 0-1.1563-.3125-1.5156-.1406-.172-.4688-.375-1.0469-.375-.7344 0-1.2031.4218-1.4844 1.0468v-1.0469l-1.4062.1094v.3125c.7031 0 .7813.0625.7813.5625zm0 0"/></symbol><symbol overflow="visible" id="i"><path d="M3.2969 2.3906c0-.0312 0-.0469-.1719-.2187C1.8906.9219 1.5625-.9687 1.5625-2.5c0-1.7344.375-3.4688 1.6094-4.7031.125-.125.125-.1406.125-.1719 0-.0781-.0313-.1094-.0938-.1094-.1094 0-1 .6875-1.5937 1.9531-.5 1.0938-.625 2.2032-.625 3.0313 0 .7813.1093 1.9844.6562 3.125C2.25 1.8438 3.0937 2.5 3.2031 2.5c.0625 0 .0938-.0313.0938-.1094zm0 0"/></symbol><symbol overflow="visible" id="j"><path d="M2.875-2.5c0-.7656-.1094-1.9688-.6563-3.1094C1.625-6.828.7657-7.4844.672-7.4844a.1068.1068 0 00-.1094.1094c0 .0313 0 .0469.1875.2344.9844.9844 1.5469 2.5625 1.5469 4.6406 0 1.7188-.3594 3.4688-1.5938 4.7188-.1406.125-.1406.1406-.1406.1718 0 .0625.0469.1094.1094.1094.0937 0 1-.6875 1.5781-1.9531.5156-1.0938.625-2.2031.625-3.0469zm0 0"/></symbol><symbol overflow="visible" id="k"><path d="M5.5625-1.8125c.1406 0 .3125 0 .3125-.1719 0-.1875-.1719-.1875-.3125-.1875H1c-.125 0-.2969 0-.2969.1875 0 .1719.1719.1719.2969.1719zm0 0"/></symbol><clipPath id="b"><path d="M113 10h2v110.1758h-2zm0 0"/></clipPath></defs><path d="M.5664 63.129H222.918" fill="none" stroke-width=".7087" stroke="#000" stroke-miterlimit="10"/><path d="M227.3398 63.129c-1.3085-.2462-3.4414-.9845-4.914-1.8438v3.6835c1.4726-.8593 3.6054-1.5976 4.914-1.8398"/><use xlink:href="#a" x="224.492" y="71.091"/><g clip-path="url(#b)"><path d="M113.9531 119.8203V10.8555" fill="none" stroke-width=".7087" stroke="#000" stroke-miterlimit="10"/></g><path d="M113.9531 6.4336c-.246 1.3125-.9844 3.4414-1.8437 4.914h3.6875c-.8594-1.4726-1.5977-3.6015-1.8438-4.914"/><use xlink:href="#c" x="117.628" y="7.61"/><path d="M116.789 63.129c0-1.5665-1.2695-2.836-2.8359-2.836s-2.836 1.2695-2.836 2.836c0 1.5624 1.2696 2.832 2.836 2.832 1.5664 0 2.836-1.2696 2.836-2.832zm0 0" fill="#00f" stroke-width=".3985" stroke="#00f" stroke-miterlimit="10"/><use xlink:href="#d" x="117.473" y="59.607"/><path d="M113.9531 34.7813h113.3867" fill="none" stroke-width="1.1339" stroke="#00f" stroke-miterlimit="10"/><use xlink:href="#e" x="105.831" y="37.348"/><g fill="#00f"><use xlink:href="#f" x="156.701" y="28.402"/><use xlink:href="#g" x="160.6302" y="28.402"/><use xlink:href="#h" x="165.6115" y="28.402"/><use xlink:href="#i" x="171.1468" y="28.402"/></g><use xlink:href="#a" x="175.022" y="28.402" fill="#00f"/><use xlink:href="#j" x="180.715" y="28.402" fill="#00f"/><path d="M113.9531 91.4727H.5664" fill="none" stroke-width="1.1339" stroke="#00f" stroke-miterlimit="10"/><use xlink:href="#k" x="117.84" y="93.626"/><use xlink:href="#e" x="124.427" y="93.626"/></svg>