<svg xmlns="http://www.w3.org/2000/svg" xmlns:xlink="http://www.w3.org/1999/xlink" width="259.559" height="215.724" viewBox="0 0 194.669 161.793" xmlns:v="https://vecta.io/nano"><style><![CDATA[.B{overflow:visible}.C{stroke:none}.D{stroke-miterlimit:10}.E{stroke-width:.399}.F{fill:rgb(0%,0%,0%)}.G{stroke:rgb(0%,0%,0%)}.H{stroke:rgb(0%,62.353516%,95.684814%)}]]></style><defs><symbol id="A" class="B"><path d="M2.938-6.375c0-.25 0-.266-.234-.266C2.078-6 1.203-6 .89-6v.313c.203 0 .78 0 1.297-.266V-.78c0 .36-.03.47-.922.47H.953V0c.344-.03 1.203-.03 1.61-.03l1.61.03v-.312H3.86c-.906 0-.922-.11-.922-.47zm0 0" class="C"/></symbol><symbol id="B" class="B"><path d="M1.266-.766l1.063-1.03c1.547-1.375 2.14-1.906 2.14-2.906 0-1.14-.89-1.937-2.11-1.937C1.234-6.64.5-5.72.5-4.828c0 .547.5.547.53.547.172 0 .516-.11.516-.53a.51.51 0 0 0-.531-.516c-.078 0-.094 0-.125.016.22-.656.766-1.016 1.344-1.016.906 0 1.328.813 1.328 1.625 0 .797-.484 1.578-1.047 2.203L.61-.375C.5-.266.5-.234.5 0h3.703l.266-1.734h-.234C4.172-1.437 4.11-1 4-.844c-.062.078-.72.078-.937.078zm0 0" class="C"/></symbol><symbol id="C" class="B"><path d="M2.89-3.516c.813-.266 1.39-.953 1.39-1.75 0-.812-.875-1.375-1.828-1.375-1 0-1.766.594-1.766 1.36a.48.48 0 0 0 .516.516c.297 0 .5-.22.5-.516 0-.484-.47-.484-.61-.484.297-.5.953-.625 1.313-.625.422 0 .97.22.97 1.11 0 .125-.03.703-.28 1.14a.93.93 0 0 1-.891.516 3.29 3.29 0 0 1-.391.031c-.078.016-.14.03-.14.125 0 .11.063.11.234.11h.438c.813 0 1.188.672 1.188 1.656 0 1.36-.687 1.64-1.125 1.64S1.22-.234.875-.812c.344.047.656-.172.656-.547 0-.36-.266-.562-.547-.562a.53.53 0 0 0-.562.578C.422-.437 1.344.22 2.438.22c1.22 0 2.125-.906 2.125-1.922 0-.812-.64-1.594-1.672-1.812zm0 0" class="C"/></symbol><symbol id="D" class="B"><path d="M2.547 2.5v-.406h-.97v-9.172h.97v-.406H1.172V2.5zm0 0" class="C"/></symbol><symbol id="E" class="B"><path d="M1.578-7.484H.22v.406h.97v9.172H.22V2.5h1.36zm0 0" class="C"/></symbol><symbol id="F" class="B"><path d="M3.328-3.016c.063-.25.297-1.172.984-1.172.047 0 .297 0 .5.125-.28.063-.47.297-.47.547 0 .156.11.344.375.344.22 0 .53-.172.53-.578 0-.516-.578-.656-.922-.656-.578 0-.922.53-1.047.75a1.09 1.09 0 0 0-1.078-.75c-1.03 0-1.61 1.28-1.61 1.53 0 .11.11.11.125.11.078 0 .11-.03.125-.11.344-1.062 1-1.312 1.344-1.312.188 0 .53.094.53.672 0 .313-.172.97-.53 2.375-.156.61-.516 1.03-.953 1.03-.062 0-.28 0-.5-.125.25-.062.47-.266.47-.547 0-.266-.22-.344-.36-.344-.312 0-.547.25-.547.578 0 .453.484.656.922.656.672 0 1.03-.703 1.047-.75a1.12 1.12 0 0 0 1.078.75c1.03 0 1.594-1.28 1.594-1.53 0-.11-.078-.11-.11-.11-.094 0-.11.047-.14.11C4.36-.344 3.688-.11 3.375-.11c-.39 0-.547-.312-.547-.656 0-.22.047-.437.156-.875zm0 0" class="C"/></symbol><clipPath id="G"><path d="M191 79h3.668v4H191zm0 0"/></clipPath><clipPath id="H"><path d="M97 1h1v160.793h-1zm0 0"/></clipPath><path id="I" d="M38.305 141.418a1.49 1.49 0 0 0-1.492-1.492c-.828 0-1.496.668-1.496 1.492s.668 1.496 1.496 1.496 1.492-.668 1.492-1.496zm0 0"/><path id="J" d="M58.48 121.246c0-.828-.668-1.496-1.496-1.496s-1.492.668-1.492 1.496a1.49 1.49 0 0 0 1.492 1.492c.828 0 1.496-.668 1.496-1.492zm0 0"/><path id="K" d="M58.48 141.418c0-.824-.668-1.492-1.496-1.492a1.49 1.49 0 0 0-1.492 1.492c0 .828.668 1.496 1.492 1.496s1.496-.668 1.496-1.496zm0 0"/><path id="L" d="M98.828 101.07c0-.824-.668-1.496-1.492-1.496s-1.496.672-1.496 1.496.668 1.496 1.496 1.496 1.492-.672 1.492-1.496zm0 0"/></defs><g fill="none" class="D"><path d="M117.508 83.023V78.77m20.176 4.254V78.77m20.176 4.254V78.77M95.207 60.723h4.254m-4.254-20.176h4.254M95.207 20.37h4.254" stroke-width=".199" stroke="rgb(50%,50%,50%)"/><path d="M.2 80.895h192.28" class="E G"/></g><g clip-path="url(#G)" class="F"><path d="M194.473 80.895l-3.19-1.594 1.2 1.594-1.2 1.594"/></g><g clip-path="url(#H)" class="D E G"><path d="M97.336 161.594V2.19" fill="none"/></g><g class="F"><path d="M97.336.2l-1.594 3.188 1.594-1.195 1.594 1.195"/><use xlink:href="#A" x="115.018" y="92.963"/><use xlink:href="#B" x="135.192" y="92.963"/><use xlink:href="#C" x="155.366" y="92.963"/><use xlink:href="#A" x="86.707" y="63.933"/><use xlink:href="#B" x="86.707" y="43.758"/><use xlink:href="#C" x="86.707" y="23.584"/></g><path d="M36.813 141.418h20.172m-.001-20.172H77.16m0-20.176h20.176m0-20.175h20.172m0-20.172h20.176m0-20.176h20.176m0-20.177h20.172" fill="none" stroke-width=".797" class="D H"/><g fill="rgb(0%,62.353516%,95.684814%)"><use xlink:href="#I"/><use xlink:href="#J"/><path d="M78.656 101.07a1.5 1.5 0 0 0-1.496-1.496 1.5 1.5 0 0 0-1.496 1.496 1.5 1.5 0 0 0 1.496 1.496 1.5 1.5 0 0 0 1.496-1.496zm0 0"/><use xlink:href="#I" x="60.523" y="-60.523"/><use xlink:href="#J" x="60.524" y="-60.523"/><path d="M139.18 40.547a1.5 1.5 0 0 0-1.496-1.496c-.824 0-1.492.672-1.492 1.496s.668 1.496 1.492 1.496a1.5 1.5 0 0 0 1.496-1.496zm0 0"/><use xlink:href="#I" x="121.047" y="-121.048"/></g><g fill="rgb(100%,100%,100%)" class="D E H"><use xlink:href="#K"/><path d="M78.656 121.246c0-.828-.672-1.496-1.496-1.496s-1.496.668-1.496 1.496.672 1.492 1.496 1.492 1.496-.668 1.496-1.492zm0 0"/><use xlink:href="#L"/><use xlink:href="#K" x="60.524" y="-60.523"/><path d="M139.18 60.723c0-.828-.672-1.496-1.496-1.496s-1.492.668-1.492 1.496a1.49 1.49 0 0 0 1.492 1.492c.824 0 1.496-.668 1.496-1.492zm0 0"/><use xlink:href="#L" x="60.524" y="-60.523"/><use xlink:href="#K" x="121.047" y="-121.048"/></g><g class="F"><use xlink:href="#F" x="185.256" y="77.377"/><use xlink:href="#D" x="100.854" y="11.191"/><use xlink:href="#F" x="103.621" y="11.191"/><use xlink:href="#E" x="109.315" y="11.191"/></g></svg>