<svg xmlns="http://www.w3.org/2000/svg" xmlns:xlink="http://www.w3.org/1999/xlink" width="144.047" height="90.484" viewBox="0 0 108.035 67.863" xmlns:v="https://vecta.io/nano"><style><![CDATA[.B{overflow:visible}.C{stroke:none}.D{fill:rgb(0%,0%,0%)}.E{stroke:rgb(0%,0%,0%)}.F{stroke-miterlimit:10}.G{stroke-width:.399}]]></style><defs><symbol id="A" class="B"><path d="M.89-.578C.688-.234.5-.172.28-.156c-.062 0-.11 0-.11.094 0 .03.03.063.063.063l.438-.016.5.016c.03 0 .094 0 .094-.094 0-.062-.047-.062-.078-.062C1.063-.172.953-.203.953-.328c0-.062.03-.11.063-.187l.375-.64h1.25l.078.844c0 .14-.25.156-.344.156-.078 0-.125 0-.125.094 0 .063.063.063.063.063l.625-.016L3.5 0c.03 0 .094 0 .094-.094 0-.062-.047-.062-.11-.062-.312 0-.312-.03-.328-.172l-.312-3.125c0-.094 0-.11-.094-.11-.078 0-.094.03-.125.078zm.594-.734l.984-1.64.156 1.64zm0 0" class="C"/></symbol><symbol id="B" class="B"><path d="M.797-.39C.75-.187.734-.156.344-.156c-.078 0-.14 0-.14.094C.203 0 .25 0 .344 0h1.78C2.906 0 3.5-.594 3.5-1.078c0-.36-.297-.64-.78-.703.53-.094 1.047-.47 1.047-.937 0-.36-.328-.687-.922-.687H1.172c-.094 0-.156 0-.156.11 0 .047.047.047.14.047.016 0 .11 0 .188.016.094 0 .14.016.14.078 0 .016 0 .03-.016.094zm.75-1.437l.313-1.234c.047-.172.047-.187.266-.187h.64c.438 0 .547.297.547.516 0 .438-.422.906-1.03.906zm-.22 1.672h-.11c-.047-.016-.062-.016-.062-.047 0-.016 0-.03.016-.125l.344-1.39h.953c.47 0 .563.375.563.594 0 .484-.437.97-1.03.97zm0 0" class="C"/></symbol><symbol id="C" class="B"><path d="M3.78-3.47c0-.016 0-.047-.047-.047-.016 0-.016 0-.078.063l-.344.375c-.047-.062-.28-.437-.828-.437C1.375-3.516.25-2.406.25-1.25.25-.437.844.11 1.594.11c.438 0 .813-.203 1.078-.422.47-.422.547-.875.547-.89 0-.047-.047-.047-.047-.047-.03 0-.062.016-.078.047-.03.156-.156.5-.5.797-.344.28-.656.36-.906.36-.453 0-.984-.25-.984-1.03 0-.28.11-1.094.61-1.672.297-.36.766-.61 1.203-.61.516 0 .813.39.813.97 0 .188-.016.203-.016.25s.047.047.078.047c.063 0 .063-.016.078-.094zm0 0" class="C"/></symbol><symbol id="D" class="B"><path d="M.797-.39C.75-.187.734-.156.344-.156c-.094 0-.14 0-.14.094C.203 0 .25 0 .344 0h1.64C3.03 0 4-1.047 4-2.14c0-.703-.422-1.266-1.156-1.266H1.156c-.094 0-.14 0-.14.094 0 .063.047.063.14.063.063 0 .156 0 .22.016.078 0 .11.016.11.078 0 .016-.016.03-.03.094zm1.078-2.672c.03-.172.047-.187.266-.187h.53c.484 0 .906.266.906.922 0 .25-.11 1.063-.53 1.61-.14.188-.53.563-1.14.563H1.22c-.047-.016-.062-.016-.062-.047 0-.016 0-.03.03-.125zm0 0" class="C"/></symbol><symbol id="E" class="B"><path d="M1.86-1.89c-.094-.172-.234-.312-.453-.312C.813-2.203.203-1.47.203-.75c0 .47.266.813.656.813.11 0 .36-.03.656-.375.03.203.203.375.453.375.172 0 .28-.125.36-.28a2.22 2.22 0 0 0 .156-.5c0-.047-.047-.047-.062-.047-.047 0-.047.016-.062.094-.094.328-.187.61-.39.61-.125 0-.14-.125-.14-.22 0-.11 0-.156.063-.375L2-1.094l.172-.703c.047-.14.047-.156.047-.172 0-.078-.062-.14-.156-.14-.11 0-.187.11-.203.22zM1.53-.594c-.016.094-.016.094-.094.188-.22.266-.422.344-.562.344-.25 0-.328-.266-.328-.453 0-.25.172-.875.28-1.094.156-.297.375-.484.578-.484.328 0 .39.406.39.438s0 .063-.016.094zm0 0" class="C"/></symbol><symbol id="F" class="B"><path d="M1.438-3.406s0-.047-.078-.047c-.11 0-.47.03-.61.047-.03 0-.094 0-.094.094 0 .063.047.063.125.063.234 0 .25.03.25.078l-.016.11-.72 2.875C.28-.125.28-.11.28-.078c0 .11.094.14.14.14C.5.063.578 0 .61-.078l.094-.375.11-.453.078-.328c.016-.03.047-.203.063-.22.016-.047.156-.328.328-.47a.81.81 0 0 1 .484-.172c.22 0 .266.172.266.344 0 .28-.187.813-.312 1.125-.03.11-.062.172-.062.266 0 .234.172.422.406.422.47 0 .656-.734.656-.78s-.047-.047-.062-.047c-.047 0-.047.016-.062.094-.078.266-.234.61-.516.61-.078 0-.125-.047-.125-.156 0-.125.047-.25.094-.36.078-.203.313-.797.313-1.094 0-.328-.203-.53-.578-.53-.312 0-.562.156-.734.39zm0 0" class="C"/></symbol><symbol id="G" class="B"><path d="M1.672-1.5c.016-.14.14-.594.484-.594.03 0 .14 0 .25.063-.14.03-.234.156-.234.266 0 .078.047.188.188.188.11 0 .266-.094.266-.297 0-.266-.297-.328-.47-.328-.28 0-.453.266-.516.375-.125-.328-.39-.375-.547-.375-.516 0-.797.64-.797.766 0 .047.047.047.063.047.047 0 .047 0 .063-.047.172-.53.5-.656.672-.656.094 0 .266.047.266.328 0 .156-.078.5-.266 1.188-.078.313-.25.516-.47.516-.03 0-.156 0-.25-.062a.27.27 0 0 0 .234-.266C.61-.516.5-.562.422-.562a.28.28 0 0 0-.281.281c0 .234.25.344.47.344.328 0 .516-.36.53-.39a.55.55 0 0 0 .531.391c.516 0 .797-.656.797-.78 0-.047-.047-.047-.062-.047-.03 0-.047.016-.062.063-.156.53-.5.64-.656.64-.203 0-.28-.156-.28-.328 0-.11.03-.22.094-.437zm0 0" class="C"/></symbol><symbol id="H" class="B"><path d="M.656-1.64v-.11c0-1.266.625-1.437.875-1.437.125 0 .328.016.438.188-.078 0-.28 0-.28.234 0 .156.125.22.234.22.078 0 .234-.047.234-.234 0-.297-.22-.53-.64-.53-.64 0-1.312.64-1.312 1.734C.203-.25.78.11 1.25.11c.547 0 1.03-.47 1.03-1.125 0-.64-.453-1.11-1-1.11-.344 0-.53.25-.625.484zM1.25-.03c-.312 0-.47-.297-.5-.375C.672-.64.672-1.03.672-1.125c0-.39.156-.89.61-.89.078 0 .297 0 .453.313.094.188.094.438.094.688 0 .234 0 .484-.078.656-.156.297-.39.328-.5.328zm0 0" class="C"/></symbol><symbol id="I" class="B"><path d="M.813-2.28c-.234-.14-.25-.312-.25-.406 0-.297.328-.5.672-.5.375 0 .688.25.688.61 0 .28-.187.53-.484.703zm.734.484c.36-.187.594-.453.594-.78 0-.453-.437-.734-.89-.734-.5 0-.906.36-.906.828 0 .094.016.313.22.547.063.063.234.188.36.266-.28.14-.72.422-.72.922 0 .53.516.86 1.03.86.563 0 1.047-.406 1.047-.953 0-.172-.062-.39-.25-.61-.094-.11-.172-.156-.484-.344zm-.5.203l.61.39c.14.094.375.234.375.547 0 .36-.375.625-.78.625-.437 0-.797-.312-.797-.72 0-.297.172-.61.594-.844zm0 0" class="C"/></symbol><symbol id="J" class="B"><path d="M1.797-1.922c-.14 0-.234.078-.234.22s.094.234.22.234c.156 0 .234-.11.234-.25v-.03c-.047-.36-.47-.484-.766-.484-.61 0-1.078.53-1.078 1.156C.172-.516.61.047 1.25.047c.328 0 .656-.172.78-.53.016-.03.03-.062.03-.11 0-.03-.016-.047-.047-.047-.078 0-.125.188-.156.25-.125.188-.328.313-.547.313C.766-.078.61-.61.578-1v-.062c0-.39.094-1 .64-1.047h.047a.85.85 0 0 1 .531.188zm0 0" class="C"/></symbol><symbol id="K" class="B"><path d="M.156-2.14v.11h.11c.14 0 .266.016.266.203v1.313c0 .313-.156.406-.375.406V0h.906v-.11c-.187 0-.39-.078-.39-.39l.016-1.484c.016.078.047.14.078.203L1.47-.11c.016.047.047.094.094.094.063 0 .078-.062.11-.11l.14-.36.563-1.328c.03-.078.078-.14.094-.22v1.72c0 .188-.156.203-.36.203h-.03V0h1.094v-.11h-.11c-.14 0-.28-.03-.28-.234v-1.47c0-.22.125-.22.39-.22v-.11h-.656c-.11 0-.125.063-.156.14l-.14.344-.375.875-.172.406L.984-2c-.03-.078-.047-.14-.172-.14zm0 0" class="C"/></symbol></defs><g class="D"><use xlink:href="#A" x="1.66" y="60.175"/><use xlink:href="#B" x="33.488" y="5.064"/><use xlink:href="#C" x="102.458" y="56.714"/><use xlink:href="#D" x="33.37" y="60.175"/></g><path d="M7.156 55.012L35.5 6.824" fill="none" class="E F G"/><g class="D"><use xlink:href="#H" x="9.885" y="29.158"/><use xlink:href="#J" x="14.036" y="29.158"/><use xlink:href="#K" x="16.249" y="29.158"/></g><g fill="none" class="E F G"><path d="M7.156 55.012H100.7"/><path d="M35.5 6.824l65.2 48.187" stroke-dasharray="2.98883,2.98883"/></g><use xlink:href="#E" x="69.86" y="29.158" class="D"/><path d="M35.5 6.824v48.187" fill="none" class="E F G"/><use xlink:href="#F" x="37.261" y="32.647" class="D"/><path d="M14.13 55.012c0-2.473-1.31-4.758-3.437-6.012" fill="none" class="E F G"/><use xlink:href="#G" x="16.338" y="50.022" class="D"/><path d="M7.156 55.012v7.652m93.544-7.652v7.652M9.246 61.25H98.6" fill="none" stroke-width=".34" class="E F"/><g class="D"><path d="M7.855 61.25a7.41 7.41 0 0 1 1.391.551v-1.105a7.49 7.49 0 0 1-1.391.555zm92.145 0a7.49 7.49 0 0 1-1.391-.555V61.8a7.41 7.41 0 0 1 1.391-.55zm0 0" stroke-width=".34" class="E F"/><use xlink:href="#I" x="49.085" y="66.203"/><use xlink:href="#J" x="53.236" y="66.203"/><use xlink:href="#K" x="55.449" y="66.203"/></g></svg>