<svg xmlns="http://www.w3.org/2000/svg" xmlns:xlink="http://www.w3.org/1999/xlink" width="165.527" height="50.517" viewBox="0 0 124.145 37.888" xmlns:v="https://vecta.io/nano"><style><![CDATA[.B{stroke-miterlimit:10}.C{stroke-width:.399}.D{fill:none}.E{stroke:rgb(25.097656%,66.273499%,25.097656%)}.F{stroke:rgb(0%,62.353516%,95.684814%)}.G{stroke:rgb(0%,0%,0%)}.H{overflow:visible}.I{stroke:none}.J{fill:rgb(0%,0%,0%)}.K{fill:rgb(100%,100%,100%)}]]></style><defs><symbol id="A" class="H"><path d="M4.578-3.187c0-.797-.047-1.594-.39-2.328-.453-.97-1.28-1.125-1.687-1.125-.61 0-1.328.266-1.75 1.188-.312.688-.36 1.47-.36 2.266 0 .75.03 1.64.453 2.406a1.83 1.83 0 0 0 1.641 1C3.016.22 3.78.016 4.22-.937c.313-.687.36-1.47.36-2.25zM2.484 0c-.39 0-.984-.25-1.156-1.203-.11-.594-.11-1.516-.11-2.11l.078-1.828c.188-1.187.938-1.28 1.188-1.28.328 0 .984.188 1.172 1.172.11.563.11 1.313.11 1.938 0 .75 0 1.422-.11 2.063C3.5-.297 2.938 0 2.484 0zm0 0" class="I"/></symbol><symbol id="B" class="H"><path d="M2.938-6.375c0-.25 0-.266-.234-.266C2.078-6 1.203-6 .89-6v.313c.203 0 .78 0 1.297-.266V-.78c0 .36-.03.47-.922.47H.953V0c.344-.03 1.203-.03 1.61-.03l1.61.03v-.312H3.86c-.906 0-.922-.11-.922-.47zm0 0" class="I"/></symbol><symbol id="C" class="H"><path d="M2.328-4.437c0-.187 0-.187-.203-.187-.453.438-1.078.438-1.36.438v.25c.156 0 .625 0 1-.187v3.547c0 .234 0 .328-.687.328H.813V0l1.234-.03 1.25.03v-.25H3.03c-.703 0-.703-.094-.703-.328zm0 0" class="I"/></symbol><symbol id="D" class="H"><path d="M3.516-1.266H3.28c-.016.156-.094.563-.187.625-.047.047-.578.047-.687.047h-1.28l1.39-1.172c.516-.406 1-.844 1-1.5 0-.844-.734-1.36-1.625-1.36-.86 0-1.453.61-1.453 1.25 0 .344.297.39.375.39.156 0 .36-.125.36-.375 0-.125-.047-.375-.406-.375.22-.484.688-.64 1.016-.64.703 0 1.063.547 1.063 1.11 0 .61-.437 1.078-.656 1.328L.516-.266C.438-.203.438-.187.438 0h2.875zm0 0" class="I"/></symbol><clipPath id="E"><path d="M5.38 7.004h1.594v2.23H5.38zm0 0"/></clipPath><clipPath id="F"><path d="M5.38 7.004H9.96v2.23H5.38zm0 0"/></clipPath><clipPath id="G"><path d="M7.97 7.004h4.984v2.23H7.97zm0 0"/></clipPath><clipPath id="H"><path d="M10.96 7.004h4.98v2.23h-4.98zm0 0"/></clipPath><clipPath id="I"><path d="M13.95 7.004h4.98v2.23h-4.98zm0 0"/></clipPath><clipPath id="J"><path d="M16.938 7.004h4.98v2.23h-4.98zm0 0"/></clipPath><clipPath id="K"><path d="M19.926 7.004h4.98v2.23h-4.98zm0 0"/></clipPath><clipPath id="L"><path d="M22.914 7.004h4.98v2.23h-4.98zm0 0"/></clipPath><clipPath id="M"><path d="M25.902 7.004h4.98v2.23h-4.98zm0 0"/></clipPath><clipPath id="N"><path d="M28.89 7.004h4.836v2.23H28.89zm0 0"/></clipPath><clipPath id="O"><path d="M31.88 7.004h1.848v2.23H31.88zm0 0"/></clipPath><clipPath id="P"><path d="M5.38 4.98h1.594v4.016H5.38zm0 0"/></clipPath><clipPath id="Q"><path d="M5.38 4.98H9.96v4.016H5.38zm0 0"/></clipPath><clipPath id="R"><path d="M7.97 4.98h4.984v4.016H7.97zm0 0"/></clipPath><clipPath id="S"><path d="M10.96 4.98h4.98v4.016h-4.98zm0 0"/></clipPath><clipPath id="T"><path d="M13.95 4.98h4.98v4.016h-4.98zm0 0"/></clipPath><clipPath id="U"><path d="M16.938 4.98h4.98v4.016h-4.98zm0 0"/></clipPath><clipPath id="V"><path d="M19.926 4.98h4.98v4.016h-4.98zm0 0"/></clipPath><clipPath id="W"><path d="M22.914 4.98h4.98v4.016h-4.98zm0 0"/></clipPath><clipPath id="X"><path d="M25.902 4.98h4.98v4.016h-4.98zm0 0"/></clipPath><clipPath id="Y"><path d="M28.89 4.98h4.836v4.016H28.89zm0 0"/></clipPath><clipPath id="Z"><path d="M31.88 4.98h1.848v4.016H31.88zm0 0"/></clipPath><clipPath id="a"><path d="M5.38 4.98h1.594v1.027H5.38zm0 0"/></clipPath><clipPath id="b"><path d="M5.38 4.98H9.96v1.027H5.38zm0 0"/></clipPath><clipPath id="c"><path d="M7.97 4.98h4.984v1.027H7.97zm0 0"/></clipPath><clipPath id="d"><path d="M10.96 4.98h4.98v1.027h-4.98zm0 0"/></clipPath><clipPath id="e"><path d="M13.95 4.98h4.98v1.027h-4.98zm0 0"/></clipPath><clipPath id="f"><path d="M16.938 4.98h4.98v1.027h-4.98zm0 0"/></clipPath><clipPath id="g"><path d="M19.926 4.98h4.98v1.027h-4.98zm0 0"/></clipPath><clipPath id="h"><path d="M22.914 4.98h4.98v1.027h-4.98zm0 0"/></clipPath><clipPath id="i"><path d="M25.902 4.98h4.98v1.027h-4.98zm0 0"/></clipPath><clipPath id="j"><path d="M28.89 4.98h4.836v1.027H28.89zm0 0"/></clipPath><clipPath id="k"><path d="M31.88 4.98h1.848v1.027H31.88zm0 0"/></clipPath><clipPath id="l"><path d="M62.074 7.004h1.688v2.23h-1.687zm0 0"/></clipPath><clipPath id="m"><path d="M62.074 7.004h4.676v2.23h-4.676zm0 0"/></clipPath><clipPath id="n"><path d="M64.758 7.004h4.98v2.23h-4.98zm0 0"/></clipPath><clipPath id="o"><path d="M67.746 7.004h4.98v2.23h-4.98zm0 0"/></clipPath><clipPath id="p"><path d="M70.734 7.004h4.984v2.23h-4.984zm0 0"/></clipPath><clipPath id="q"><path d="M73.723 7.004h4.984v2.23h-4.984zm0 0"/></clipPath><clipPath id="r"><path d="M76.715 7.004h4.98v2.23h-4.98zm0 0"/></clipPath><clipPath id="s"><path d="M79.703 7.004h4.98v2.23h-4.98zm0 0"/></clipPath><clipPath id="t"><path d="M82.69 7.004h4.98v2.23h-4.98zm0 0"/></clipPath><clipPath id="u"><path d="M85.68 7.004h4.98v2.23h-4.98zm0 0"/></clipPath><clipPath id="v"><path d="M88.668 7.004h4.98v2.23h-4.98zm0 0"/></clipPath><clipPath id="w"><path d="M91.656 7.004h4.984v2.23h-4.984zm0 0"/></clipPath><clipPath id="x"><path d="M94.645 7.004h4.984v2.23h-4.984zm0 0"/></clipPath><clipPath id="y"><path d="M97.637 7.004h4.98v2.23h-4.98zm0 0"/></clipPath><clipPath id="z"><path d="M100.625 7.004h4.98v2.23h-4.98zm0 0"/></clipPath><clipPath id="AA"><path d="M103.613 7.004h4.98v2.23h-4.98zm0 0"/></clipPath><clipPath id="AB"><path d="M106.602 7.004h4.98v2.23h-4.98zm0 0"/></clipPath><clipPath id="AC"><path d="M109.6 7.004h3.508v2.23H109.6zm0 0"/></clipPath><clipPath id="AD"><path d="M112.578 7.004h.52v2.23h-.52zm0 0"/></clipPath><clipPath id="AE"><path d="M62.074 4.98h1.688v4.016h-1.687zm0 0"/></clipPath><clipPath id="AF"><path d="M62.074 4.98h4.676v4.016h-4.676zm0 0"/></clipPath><clipPath id="AG"><path d="M64.758 4.98h4.98v4.016h-4.98zm0 0"/></clipPath><clipPath id="AH"><path d="M67.746 4.98h4.98v4.016h-4.98zm0 0"/></clipPath><clipPath id="AI"><path d="M70.734 4.98h4.984v4.016h-4.984zm0 0"/></clipPath><clipPath id="AJ"><path d="M73.723 4.98h4.984v4.016h-4.984zm0 0"/></clipPath><clipPath id="AK"><path d="M76.715 4.98h4.98v4.016h-4.98zm0 0"/></clipPath><clipPath id="AL"><path d="M79.703 4.98h4.98v4.016h-4.98zm0 0"/></clipPath><clipPath id="AM"><path d="M82.69 4.98h4.98v4.016h-4.98zm0 0"/></clipPath><clipPath id="AN"><path d="M85.68 4.98h4.98v4.016h-4.98zm0 0"/></clipPath><clipPath id="AO"><path d="M88.668 4.98h4.98v4.016h-4.98zm0 0"/></clipPath><clipPath id="AP"><path d="M91.656 4.98h4.984v4.016h-4.984zm0 0"/></clipPath><clipPath id="AQ"><path d="M94.645 4.98h4.984v4.016h-4.984zm0 0"/></clipPath><clipPath id="AR"><path d="M97.637 4.98h4.98v4.016h-4.98zm0 0"/></clipPath><clipPath id="AS"><path d="M100.625 4.98h4.98v4.016h-4.98zm0 0"/></clipPath><clipPath id="AT"><path d="M103.613 4.98h4.98v4.016h-4.98zm0 0"/></clipPath><clipPath id="AU"><path d="M106.602 4.98h4.98v4.016h-4.98zm0 0"/></clipPath><clipPath id="AV"><path d="M109.6 4.98h3.508v4.016H109.6zm0 0"/></clipPath><clipPath id="AW"><path d="M112.578 4.98h.52v4.016h-.52zm0 0"/></clipPath><clipPath id="AX"><path d="M62.074 4.98h1.688v1.027h-1.687zm0 0"/></clipPath><clipPath id="AY"><path d="M62.074 4.98h4.676v1.027h-4.676zm0 0"/></clipPath><clipPath id="AZ"><path d="M64.758 4.98h4.98v1.027h-4.98zm0 0"/></clipPath><clipPath id="Aa"><path d="M67.746 4.98h4.98v1.027h-4.98zm0 0"/></clipPath><clipPath id="Ab"><path d="M70.734 4.98h4.984v1.027h-4.984zm0 0"/></clipPath><clipPath id="Ac"><path d="M73.723 4.98h4.984v1.027h-4.984zm0 0"/></clipPath><clipPath id="Ad"><path d="M76.715 4.98h4.98v1.027h-4.98zm0 0"/></clipPath><clipPath id="Ae"><path d="M79.703 4.98h4.98v1.027h-4.98zm0 0"/></clipPath><clipPath id="Af"><path d="M82.69 4.98h4.98v1.027h-4.98zm0 0"/></clipPath><clipPath id="Ag"><path d="M85.68 4.98h4.98v1.027h-4.98zm0 0"/></clipPath><clipPath id="Ah"><path d="M88.668 4.98h4.98v1.027h-4.98zm0 0"/></clipPath><clipPath id="Ai"><path d="M91.656 4.98h4.984v1.027h-4.984zm0 0"/></clipPath><clipPath id="Aj"><path d="M94.645 4.98h4.984v1.027h-4.984zm0 0"/></clipPath><clipPath id="Ak"><path d="M97.637 4.98h4.98v1.027h-4.98zm0 0"/></clipPath><clipPath id="Al"><path d="M100.625 4.98h4.98v1.027h-4.98zm0 0"/></clipPath><clipPath id="Am"><path d="M103.613 4.98h4.98v1.027h-4.98zm0 0"/></clipPath><clipPath id="An"><path d="M106.602 4.98h4.98v1.027h-4.98zm0 0"/></clipPath><clipPath id="Ao"><path d="M109.6 4.98h3.508v1.027H109.6zm0 0"/></clipPath><clipPath id="Ap"><path d="M112.578 4.98h.52v1.027h-.52zm0 0"/></clipPath><clipPath id="Aq"><path d="M5.38 12.98h1.594v.504H5.38zm0 0"/></clipPath><clipPath id="Ar"><path d="M5.38 12.98H9.96v.504H5.38zm0 0"/></clipPath><clipPath id="As"><path d="M7.97 12.98h4.984v.504H7.97zm0 0"/></clipPath><clipPath id="At"><path d="M10.96 12.98h4.98v.504h-4.98zm0 0"/></clipPath><clipPath id="Au"><path d="M13.95 12.98h4.98v.504h-4.98zm0 0"/></clipPath><clipPath id="Av"><path d="M16.938 12.98h4.98v.504h-4.98zm0 0"/></clipPath><clipPath id="Aw"><path d="M19.926 12.98h4.98v.504h-4.98zm0 0"/></clipPath><clipPath id="Ax"><path d="M22.914 12.98h4.98v.504h-4.98zm0 0"/></clipPath><clipPath id="Ay"><path d="M25.902 12.98h4.98v.504h-4.98zm0 0"/></clipPath><clipPath id="Az"><path d="M28.89 12.98h4.984v.504H28.89zm0 0"/></clipPath><clipPath id="BA"><path d="M31.88 12.98h4.984v.504H31.88zm0 0"/></clipPath><clipPath id="BB"><path d="M34.87 12.98h4.98v.504h-4.98zm0 0"/></clipPath><clipPath id="BC"><path d="M37.86 12.98h4.98v.504h-4.98zm0 0"/></clipPath><clipPath id="BD"><path d="M40.848 12.98h4.98v.504h-4.98zm0 0"/></clipPath><clipPath id="BE"><path d="M43.836 12.98h4.98v.504h-4.98zm0 0"/></clipPath><clipPath id="BF"><path d="M46.824 12.98h4.98v.504h-4.98zm0 0"/></clipPath><clipPath id="BG"><path d="M49.813 12.98h4.984v.504h-4.984zm0 0"/></clipPath><clipPath id="BH"><path d="M52.8 12.98h4.984v.504H52.8zm0 0"/></clipPath><clipPath id="BI"><path d="M55.793 12.98h4.98v.504h-4.98zm0 0"/></clipPath><clipPath id="BJ"><path d="M58.78 12.98h3.293v.504H58.78zm0 0"/></clipPath><clipPath id="BK"><path d="M61.77 12.98h.305v.504h-.305zm0 0"/></clipPath><clipPath id="BL"><path d="M5.38 9.992h1.594v3.492H5.38zm0 0"/></clipPath><clipPath id="BM"><path d="M5.38 9.992H9.96v3.492H5.38zm0 0"/></clipPath><clipPath id="BN"><path d="M7.97 9.992h4.984v3.492H7.97zm0 0"/></clipPath><clipPath id="BO"><path d="M10.96 9.992h4.98v3.492h-4.98zm0 0"/></clipPath><clipPath id="BP"><path d="M13.95 9.992h4.98v3.492h-4.98zm0 0"/></clipPath><clipPath id="BQ"><path d="M16.938 9.992h4.98v3.492h-4.98zm0 0"/></clipPath><clipPath id="BR"><path d="M19.926 9.992h4.98v3.492h-4.98zm0 0"/></clipPath><clipPath id="BS"><path d="M22.914 9.992h4.98v3.492h-4.98zm0 0"/></clipPath><clipPath id="BT"><path d="M25.902 9.992h4.98v3.492h-4.98zm0 0"/></clipPath><clipPath id="BU"><path d="M28.89 9.992h4.984v3.492H28.89zm0 0"/></clipPath><clipPath id="BV"><path d="M31.88 9.992h4.984v3.492H31.88zm0 0"/></clipPath><clipPath id="BW"><path d="M34.87 9.992h4.98v3.492h-4.98zm0 0"/></clipPath><clipPath id="BX"><path d="M37.86 9.992h4.98v3.492h-4.98zm0 0"/></clipPath><clipPath id="BY"><path d="M40.848 9.992h4.98v3.492h-4.98zm0 0"/></clipPath><clipPath id="BZ"><path d="M43.836 9.992h4.98v3.492h-4.98zm0 0"/></clipPath><clipPath id="Ba"><path d="M46.824 9.992h4.98v3.492h-4.98zm0 0"/></clipPath><clipPath id="Bb"><path d="M49.813 9.992h4.984v3.492h-4.984zm0 0"/></clipPath><clipPath id="Bc"><path d="M52.8 9.992h4.984v3.492H52.8zm0 0"/></clipPath><clipPath id="Bd"><path d="M55.793 9.992h4.98v3.492h-4.98zm0 0"/></clipPath><clipPath id="Be"><path d="M58.78 9.992h3.293v3.492H58.78zm0 0"/></clipPath><clipPath id="Bf"><path d="M61.77 9.992h.305v3.492h-.305zm0 0"/></clipPath><clipPath id="Bg"><path d="M5.38 9.234h1.594v2.75H5.38zm0 0"/></clipPath><clipPath id="Bh"><path d="M5.38 9.234H9.96v2.75H5.38zm0 0"/></clipPath><clipPath id="Bi"><path d="M7.97 9.234h4.984v2.75H7.97zm0 0"/></clipPath><clipPath id="Bj"><path d="M10.96 9.234h4.98v2.75h-4.98zm0 0"/></clipPath><clipPath id="Bk"><path d="M13.95 9.234h4.98v2.75h-4.98zm0 0"/></clipPath><clipPath id="Bl"><path d="M16.938 9.234h4.98v2.75h-4.98zm0 0"/></clipPath><clipPath id="Bm"><path d="M19.926 9.234h4.98v2.75h-4.98zm0 0"/></clipPath><clipPath id="Bn"><path d="M22.914 9.234h4.98v2.75h-4.98zm0 0"/></clipPath><clipPath id="Bo"><path d="M25.902 9.234h4.98v2.75h-4.98zm0 0"/></clipPath><clipPath id="Bp"><path d="M28.89 9.234h4.984v2.75H28.89zm0 0"/></clipPath><clipPath id="Bq"><path d="M31.88 9.234h4.984v2.75H31.88zm0 0"/></clipPath><clipPath id="Br"><path d="M34.87 9.234h4.98v2.75h-4.98zm0 0"/></clipPath><clipPath id="Bs"><path d="M37.86 9.234h4.98v2.75h-4.98zm0 0"/></clipPath><clipPath id="Bt"><path d="M40.848 9.234h4.98v2.75h-4.98zm0 0"/></clipPath><clipPath id="Bu"><path d="M43.836 9.234h4.98v2.75h-4.98zm0 0"/></clipPath><clipPath id="Bv"><path d="M46.824 9.234h4.98v2.75h-4.98zm0 0"/></clipPath><clipPath id="Bw"><path d="M49.813 9.234h4.984v2.75h-4.984zm0 0"/></clipPath><clipPath id="Bx"><path d="M52.8 9.234h4.984v2.75H52.8zm0 0"/></clipPath><clipPath id="By"><path d="M55.793 9.234h4.98v2.75h-4.98zm0 0"/></clipPath><clipPath id="Bz"><path d="M58.78 9.234h3.293v2.75H58.78zm0 0"/></clipPath><clipPath id="CA"><path d="M61.77 9.234h.305v2.75h-.305zm0 0"/></clipPath><clipPath id="CB"><path d="M90.418 12.98h.242v.504h-.242zm0 0"/></clipPath><clipPath id="CC"><path d="M90.418 12.98h3.23v.504h-3.23zm0 0"/></clipPath><clipPath id="CD"><path d="M91.656 12.98h4.984v.504h-4.984zm0 0"/></clipPath><clipPath id="CE"><path d="M94.645 12.98h4.984v.504h-4.984zm0 0"/></clipPath><clipPath id="CF"><path d="M97.637 12.98h4.98v.504h-4.98zm0 0"/></clipPath><clipPath id="CG"><path d="M100.625 12.98h4.98v.504h-4.98zm0 0"/></clipPath><clipPath id="CH"><path d="M103.613 12.98h4.98v.504h-4.98zm0 0"/></clipPath><clipPath id="CI"><path d="M106.602 12.98h4.98v.504h-4.98zm0 0"/></clipPath><clipPath id="CJ"><path d="M109.6 12.98h3.508v.504H109.6zm0 0"/></clipPath><clipPath id="CK"><path d="M112.578 12.98h.52v.504h-.52zm0 0"/></clipPath><clipPath id="CL"><path d="M90.418 9.992h.242v3.492h-.242zm0 0"/></clipPath><clipPath id="CM"><path d="M90.418 9.992h3.23v3.492h-3.23zm0 0"/></clipPath><clipPath id="CN"><path d="M91.656 9.992h4.984v3.492h-4.984zm0 0"/></clipPath><clipPath id="CO"><path d="M94.645 9.992h4.984v3.492h-4.984zm0 0"/></clipPath><clipPath id="CP"><path d="M97.637 9.992h4.98v3.492h-4.98zm0 0"/></clipPath><clipPath id="CQ"><path d="M100.625 9.992h4.98v3.492h-4.98zm0 0"/></clipPath><clipPath id="CR"><path d="M103.613 9.992h4.98v3.492h-4.98zm0 0"/></clipPath><clipPath id="CS"><path d="M106.602 9.992h4.98v3.492h-4.98zm0 0"/></clipPath><clipPath id="CT"><path d="M109.6 9.992h3.508v3.492H109.6zm0 0"/></clipPath><clipPath id="CU"><path d="M112.578 9.992h.52v3.492h-.52zm0 0"/></clipPath><clipPath id="CV"><path d="M90.418 9.234h.242v2.75h-.242zm0 0"/></clipPath><clipPath id="CW"><path d="M90.418 9.234h3.23v2.75h-3.23zm0 0"/></clipPath><clipPath id="CX"><path d="M91.656 9.234h4.984v2.75h-4.984zm0 0"/></clipPath><clipPath id="CY"><path d="M94.645 9.234h4.984v2.75h-4.984zm0 0"/></clipPath><clipPath id="CZ"><path d="M97.637 9.234h4.98v2.75h-4.98zm0 0"/></clipPath><clipPath id="Ca"><path d="M100.625 9.234h4.98v2.75h-4.98zm0 0"/></clipPath><clipPath id="Cb"><path d="M103.613 9.234h4.98v2.75h-4.98zm0 0"/></clipPath><clipPath id="Cc"><path d="M106.602 9.234h4.98v2.75h-4.98zm0 0"/></clipPath><clipPath id="Cd"><path d="M109.6 9.234h3.508v2.75H109.6zm0 0"/></clipPath><clipPath id="Ce"><path d="M112.578 9.234h.52v2.75h-.52zm0 0"/></clipPath><path id="Cf" d="M11.957 10.988l3.086-3.1"/></defs><g clip-path="url(#E)" class="B C D F"><path d="M2.988 8l3.1 3.1"/></g><g clip-path="url(#F)" class="B C D F"><path d="M5.977 8l3.1 3.1"/></g><g clip-path="url(#G)" class="B C D F"><path d="M8.965 8l3.1 3.1"/></g><g clip-path="url(#H)" class="B C D F"><path d="M11.957 8l3.086 3.1"/></g><g clip-path="url(#I)" class="B C D F"><path d="M14.945 8l3.086 3.1"/></g><g clip-path="url(#J)" class="B C D F"><path d="M17.934 8l3.086 3.1"/></g><g clip-path="url(#K)" class="B C D F"><path d="M20.922 8l3.1 3.1"/></g><g clip-path="url(#L)" class="B C D F"><path d="M23.9 8l3.1 3.1"/></g><g clip-path="url(#M)" class="B C D F"><path d="M26.898 8l3.1 3.1"/></g><g clip-path="url(#N)" class="B C D F"><path d="M29.887 8l3.1 3.1"/></g><g clip-path="url(#O)" class="B C D F"><path d="M32.88 8l3.086 3.1"/></g><g clip-path="url(#P)" class="B C D F"><path d="M2.988 5.012l3.1 3.086"/></g><g clip-path="url(#Q)" class="B C D F"><path d="M5.977 5.012l3.1 3.086"/></g><g clip-path="url(#R)" class="B C D F"><path d="M8.965 5.012l3.1 3.086"/></g><g clip-path="url(#S)" class="B C D F"><path d="M11.957 5.012l3.086 3.086"/></g><g clip-path="url(#T)" class="B C D F"><path d="M14.945 5.012l3.086 3.086"/></g><g clip-path="url(#U)" class="B C D F"><path d="M17.934 5.012l3.086 3.086"/></g><g clip-path="url(#V)" class="B C D F"><path d="M20.922 5.012l3.1 3.086"/></g><g clip-path="url(#W)" class="B C D F"><path d="M23.9 5.012L27 8.098"/></g><g clip-path="url(#X)" class="B C D F"><path d="M26.898 5.012l3.1 3.086"/></g><g clip-path="url(#Y)" class="B C D F"><path d="M29.887 5.012l3.1 3.086"/></g><g clip-path="url(#Z)" class="B C D F"><path d="M32.88 5.012l3.086 3.086"/></g><g clip-path="url(#a)" class="B C D F"><path d="M2.988 2.023l3.1 3.086"/></g><g clip-path="url(#b)" class="B C D F"><path d="M5.977 2.023l3.1 3.086"/></g><g clip-path="url(#c)" class="B C D F"><path d="M8.965 2.023l3.1 3.086"/></g><g clip-path="url(#d)" class="B C D F"><path d="M11.957 2.023l3.086 3.086"/></g><g clip-path="url(#e)" class="B C D F"><path d="M14.945 2.023L18.03 5.11"/></g><g clip-path="url(#f)" class="B C D F"><path d="M17.934 2.023L21.02 5.11"/></g><g clip-path="url(#g)" class="B C D F"><path d="M20.922 2.023l3.1 3.086"/></g><g clip-path="url(#h)" class="B C D F"><path d="M23.9 2.023L27 5.11"/></g><g clip-path="url(#i)" class="B C D F"><path d="M26.898 2.023l3.1 3.086"/></g><g clip-path="url(#j)" class="B C D F"><path d="M29.887 2.023l3.1 3.086"/></g><g clip-path="url(#k)" class="B C D F"><path d="M32.88 2.023l3.086 3.086"/></g><g clip-path="url(#l)" class="B C D F"><path d="M59.777 8l3.086 3.1"/></g><g clip-path="url(#m)" class="B C D F"><path d="M62.766 8l3.1 3.1"/></g><g clip-path="url(#n)" class="B C D F"><path d="M65.754 8l3.1 3.1"/></g><g clip-path="url(#o)" class="B C D F"><path d="M68.742 8l3.1 3.1"/></g><g clip-path="url(#p)" class="B C D F"><path d="M71.73 8l3.1 3.1"/></g><g clip-path="url(#q)" class="B C D F"><path d="M74.723 8l3.086 3.1"/></g><g clip-path="url(#r)" class="B C D F"><path d="M77.71 8l3.086 3.1"/></g><g clip-path="url(#s)" class="B C D F"><path d="M80.7 8l3.086 3.1"/></g><g clip-path="url(#t)" class="B C D F"><path d="M83.688 8l3.1 3.1"/></g><g clip-path="url(#u)" class="B C D F"><path d="M86.676 8l3.1 3.1"/></g><g clip-path="url(#v)" class="B C D F"><path d="M89.664 8l3.1 3.1"/></g><g clip-path="url(#w)" class="B C D F"><path d="M92.652 8l3.1 3.1"/></g><g clip-path="url(#x)" class="B C D F"><path d="M95.64 8l3.1 3.1"/></g><g clip-path="url(#y)" class="B C D F"><path d="M98.633 8l3.086 3.1"/></g><g clip-path="url(#z)" class="B C D F"><path d="M101.62 8l3.086 3.1"/></g><g clip-path="url(#AA)" class="B C D F"><path d="M104.61 8l3.1 3.1"/></g><g clip-path="url(#AB)" class="B C D F"><path d="M107.598 8l3.1 3.1"/></g><g clip-path="url(#AC)" class="B C D F"><path d="M110.586 8l3.1 3.1"/></g><g clip-path="url(#AD)" class="B C D F"><path d="M113.574 8l3.1 3.1"/></g><g clip-path="url(#AE)" class="B C D F"><path d="M59.777 5.012l3.086 3.086"/></g><g clip-path="url(#AF)" class="B C D F"><path d="M62.766 5.012l3.1 3.086"/></g><g clip-path="url(#AG)" class="B C D F"><path d="M65.754 5.012l3.1 3.086"/></g><g clip-path="url(#AH)" class="B C D F"><path d="M68.742 5.012l3.1 3.086"/></g><g clip-path="url(#AI)" class="B C D F"><path d="M71.73 5.012l3.1 3.086"/></g><g clip-path="url(#AJ)" class="B C D F"><path d="M74.723 5.012l3.086 3.086"/></g><g clip-path="url(#AK)" class="B C D F"><path d="M77.71 5.012l3.086 3.086"/></g><g clip-path="url(#AL)" class="B C D F"><path d="M80.7 5.012l3.086 3.086"/></g><g clip-path="url(#AM)" class="B C D F"><path d="M83.688 5.012l3.1 3.086"/></g><g clip-path="url(#AN)" class="B C D F"><path d="M86.676 5.012l3.1 3.086"/></g><g clip-path="url(#AO)" class="B C D F"><path d="M89.664 5.012l3.1 3.086"/></g><g clip-path="url(#AP)" class="B C D F"><path d="M92.652 5.012l3.1 3.086"/></g><g clip-path="url(#AQ)" class="B C D F"><path d="M95.64 5.012l3.1 3.086"/></g><g clip-path="url(#AR)" class="B C D F"><path d="M98.633 5.012l3.086 3.086"/></g><g clip-path="url(#AS)" class="B C D F"><path d="M101.62 5.012l3.086 3.086"/></g><g clip-path="url(#AT)" class="B C D F"><path d="M104.61 5.012l3.1 3.086"/></g><g clip-path="url(#AU)" class="B C D F"><path d="M107.598 5.012l3.1 3.086"/></g><g clip-path="url(#AV)" class="B C D F"><path d="M110.586 5.012l3.1 3.086"/></g><g clip-path="url(#AW)" class="B C D F"><path d="M113.574 5.012l3.1 3.086"/></g><g clip-path="url(#AX)" class="B C D F"><path d="M59.777 2.023l3.086 3.086"/></g><g clip-path="url(#AY)" class="B C D F"><path d="M62.766 2.023l3.1 3.086"/></g><g clip-path="url(#AZ)" class="B C D F"><path d="M65.754 2.023l3.1 3.086"/></g><g clip-path="url(#Aa)" class="B C D F"><path d="M68.742 2.023l3.1 3.086"/></g><g clip-path="url(#Ab)" class="B C D F"><path d="M71.73 2.023l3.1 3.086"/></g><g clip-path="url(#Ac)" class="B C D F"><path d="M74.723 2.023L77.81 5.11"/></g><g clip-path="url(#Ad)" class="B C D F"><path d="M77.71 2.023l3.086 3.086"/></g><g clip-path="url(#Ae)" class="B C D F"><path d="M80.7 2.023l3.086 3.086"/></g><g clip-path="url(#Af)" class="B C D F"><path d="M83.688 2.023l3.1 3.086"/></g><g clip-path="url(#Ag)" class="B C D F"><path d="M86.676 2.023l3.1 3.086"/></g><g clip-path="url(#Ah)" class="B C D F"><path d="M89.664 2.023l3.1 3.086"/></g><g clip-path="url(#Ai)" class="B C D F"><path d="M92.652 2.023l3.1 3.086"/></g><g clip-path="url(#Aj)" class="B C D F"><path d="M95.64 2.023l3.1 3.086"/></g><g clip-path="url(#Ak)" class="B C D F"><path d="M98.633 2.023l3.086 3.086"/></g><g clip-path="url(#Al)" class="B C D F"><path d="M101.62 2.023l3.086 3.086"/></g><g clip-path="url(#Am)" class="B C D F"><path d="M104.61 2.023l3.1 3.086"/></g><g clip-path="url(#An)" class="B C D F"><path d="M107.598 2.023l3.1 3.086"/></g><g clip-path="url(#Ao)" class="B C D F"><path d="M110.586 2.023l3.1 3.086"/></g><g clip-path="url(#Ap)" class="B C D F"><path d="M113.574 2.023l3.1 3.086"/></g><g clip-path="url(#Aq)" class="B C D E"><path d="M2.988 16.965l3.1-3.086"/></g><g clip-path="url(#Ar)" class="B C D E"><path d="M5.977 16.965l3.1-3.086"/></g><g clip-path="url(#As)" class="B C D E"><path d="M8.965 16.965l3.1-3.086"/></g><g clip-path="url(#At)" class="B C D E"><path d="M11.957 16.965l3.086-3.086"/></g><g clip-path="url(#Au)" class="B C D E"><path d="M14.945 16.965l3.086-3.086"/></g><g clip-path="url(#Av)" class="B C D E"><path d="M17.934 16.965l3.086-3.086"/></g><g clip-path="url(#Aw)" class="B C D E"><path d="M20.922 16.965l3.1-3.086"/></g><g clip-path="url(#Ax)" class="B C D E"><path d="M23.9 16.965L27 13.88"/></g><g clip-path="url(#Ay)" class="B C D E"><path d="M26.898 16.965l3.1-3.086"/></g><g clip-path="url(#Az)" class="B C D E"><path d="M29.887 16.965l3.1-3.086"/></g><g clip-path="url(#BA)" class="B C D E"><path d="M32.88 16.965l3.086-3.086"/></g><g clip-path="url(#BB)" class="B C D E"><path d="M35.867 16.965l3.086-3.086"/></g><g clip-path="url(#BC)" class="B C D E"><path d="M38.855 16.965l3.086-3.086"/></g><g clip-path="url(#BD)" class="B C D E"><path d="M41.844 16.965l3.1-3.086"/></g><g clip-path="url(#BE)" class="B C D E"><path d="M44.832 16.965l3.1-3.086"/></g><g clip-path="url(#BF)" class="B C D E"><path d="M47.82 16.965l3.1-3.086"/></g><g clip-path="url(#BG)" class="B C D E"><path d="M50.81 16.965l3.1-3.086"/></g><g clip-path="url(#BH)" class="B C D E"><path d="M53.8 16.965l3.086-3.086"/></g><g clip-path="url(#BI)" class="B C D E"><path d="M56.79 16.965l3.086-3.086"/></g><g clip-path="url(#BJ)" class="B C D E"><path d="M59.777 16.965l3.086-3.086"/></g><g clip-path="url(#BK)" class="B C D E"><path d="M62.766 16.965l3.1-3.086"/></g><g clip-path="url(#BL)" class="B C D E"><path d="M2.988 13.977l3.1-3.086"/></g><g clip-path="url(#BM)" class="B C D E"><path d="M5.977 13.977l3.1-3.086"/></g><g clip-path="url(#BN)" class="B C D E"><path d="M8.965 13.977l3.1-3.086"/></g><g clip-path="url(#BO)" class="B C D E"><path d="M11.957 13.977l3.086-3.086"/></g><g clip-path="url(#BP)" class="B C D E"><path d="M14.945 13.977l3.086-3.086"/></g><g clip-path="url(#BQ)" class="B C D E"><path d="M17.934 13.977l3.086-3.086"/></g><g clip-path="url(#BR)" class="B C D E"><path d="M20.922 13.977l3.1-3.086"/></g><g clip-path="url(#BS)" class="B C D E"><path d="M23.9 13.977L27 10.89"/></g><g clip-path="url(#BT)" class="B C D E"><path d="M26.898 13.977l3.1-3.086"/></g><g clip-path="url(#BU)" class="B C D E"><path d="M29.887 13.977l3.1-3.086"/></g><g clip-path="url(#BV)" class="B C D E"><path d="M32.88 13.977l3.086-3.086"/></g><g clip-path="url(#BW)" class="B C D E"><path d="M35.867 13.977l3.086-3.086"/></g><g clip-path="url(#BX)" class="B C D E"><path d="M38.855 13.977l3.086-3.086"/></g><g clip-path="url(#BY)" class="B C D E"><path d="M41.844 13.977l3.1-3.086"/></g><g clip-path="url(#BZ)" class="B C D E"><path d="M44.832 13.977l3.1-3.086"/></g><g clip-path="url(#Ba)" class="B C D E"><path d="M47.82 13.977l3.1-3.086"/></g><g clip-path="url(#Bb)" class="B C D E"><path d="M50.81 13.977l3.1-3.086"/></g><g clip-path="url(#Bc)" class="B C D E"><path d="M53.8 13.977l3.086-3.086"/></g><g clip-path="url(#Bd)" class="B C D E"><path d="M56.79 13.977l3.086-3.086"/></g><g clip-path="url(#Be)" class="B C D E"><path d="M59.777 13.977l3.086-3.086"/></g><g clip-path="url(#Bf)" class="B C D E"><path d="M62.766 13.977l3.1-3.086"/></g><g clip-path="url(#Bg)" class="B C D E"><path d="M2.988 10.988l3.1-3.1"/></g><g clip-path="url(#Bh)" class="B C D E"><path d="M5.977 10.988l3.1-3.1"/></g><g clip-path="url(#Bi)" class="B C D E"><path d="M8.965 10.988l3.1-3.1"/></g><g clip-path="url(#Bj)" class="B C D E"><use xlink:href="#Cf"/></g><g clip-path="url(#Bk)" class="B C D E"><path d="M14.945 10.988l3.086-3.1"/></g><g clip-path="url(#Bl)" class="B C D E"><path d="M17.934 10.988l3.086-3.1"/></g><g clip-path="url(#Bm)" class="B C D E"><path d="M20.922 10.988l3.1-3.1"/></g><g clip-path="url(#Bn)" class="B C D E"><path d="M23.9 10.988l3.1-3.1"/></g><g clip-path="url(#Bo)" class="B C D E"><path d="M26.898 10.988l3.1-3.1"/></g><g clip-path="url(#Bp)" class="B C D E"><path d="M29.887 10.988l3.1-3.1"/></g><g clip-path="url(#Bq)" class="B C D E"><path d="M32.88 10.988l3.086-3.1"/></g><g clip-path="url(#Br)" class="B C D E"><path d="M35.867 10.988l3.086-3.1"/></g><g clip-path="url(#Bs)" class="B C D E"><path d="M38.855 10.988l3.086-3.1"/></g><g clip-path="url(#Bt)" class="B C D E"><path d="M41.844 10.988l3.1-3.1"/></g><g clip-path="url(#Bu)" class="B C D E"><path d="M44.832 10.988l3.1-3.1"/></g><g clip-path="url(#Bv)" class="B C D E"><path d="M47.82 10.988l3.1-3.1"/></g><g clip-path="url(#Bw)" class="B C D E"><path d="M50.81 10.988l3.1-3.1"/></g><g clip-path="url(#Bx)" class="B C D E"><path d="M53.8 10.988l3.086-3.1"/></g><g clip-path="url(#By)" class="B C D E"><path d="M56.79 10.988l3.086-3.1"/></g><g clip-path="url(#Bz)" class="B C D E"><path d="M59.777 10.988l3.086-3.1"/></g><g clip-path="url(#CA)" class="B C D E"><path d="M62.766 10.988l3.1-3.1"/></g><g clip-path="url(#CB)" class="B C D E"><path d="M86.676 16.965l3.1-3.086"/></g><g clip-path="url(#CC)" class="B C D E"><path d="M89.664 16.965l3.1-3.086"/></g><g clip-path="url(#CD)" class="B C D E"><path d="M92.652 16.965l3.1-3.086"/></g><g clip-path="url(#CE)" class="B C D E"><path d="M95.64 16.965l3.1-3.086"/></g><g clip-path="url(#CF)" class="B C D E"><path d="M98.633 16.965l3.086-3.086"/></g><g clip-path="url(#CG)" class="B C D E"><path d="M101.62 16.965l3.086-3.086"/></g><g clip-path="url(#CH)" class="B C D E"><path d="M104.61 16.965l3.1-3.086"/></g><g clip-path="url(#CI)" class="B C D E"><path d="M107.598 16.965l3.1-3.086"/></g><g clip-path="url(#CJ)" class="B C D E"><path d="M110.586 16.965l3.1-3.086"/></g><g clip-path="url(#CK)" class="B C D E"><path d="M113.574 16.965l3.1-3.086"/></g><g clip-path="url(#CL)" class="B C D E"><path d="M86.676 13.977l3.1-3.086"/></g><g clip-path="url(#CM)" class="B C D E"><path d="M89.664 13.977l3.1-3.086"/></g><g clip-path="url(#CN)" class="B C D E"><path d="M92.652 13.977l3.1-3.086"/></g><g clip-path="url(#CO)" class="B C D E"><path d="M95.64 13.977l3.1-3.086"/></g><g clip-path="url(#CP)" class="B C D E"><path d="M98.633 13.977l3.086-3.086"/></g><g clip-path="url(#CQ)" class="B C D E"><path d="M101.62 13.977l3.086-3.086"/></g><g clip-path="url(#CR)" class="B C D E"><path d="M104.61 13.977l3.1-3.086"/></g><g clip-path="url(#CS)" class="B C D E"><path d="M107.598 13.977l3.1-3.086"/></g><g clip-path="url(#CT)" class="B C D E"><path d="M110.586 13.977l3.1-3.086"/></g><g clip-path="url(#CU)" class="B C D E"><path d="M113.574 13.977l3.1-3.086"/></g><g clip-path="url(#CV)" class="B C D E"><path d="M86.676 10.988l3.1-3.1"/></g><g clip-path="url(#CW)" class="B C D E"><path d="M89.664 10.988l3.1-3.1"/></g><g clip-path="url(#CX)" class="B C D E"><path d="M92.652 10.988l3.1-3.1"/></g><g clip-path="url(#CY)" class="B C D E"><path d="M95.64 10.988l3.1-3.1"/></g><g clip-path="url(#CZ)" class="B C D E"><path d="M98.633 10.988l3.086-3.1"/></g><g clip-path="url(#Ca)" class="B C D E"><path d="M101.62 10.988l3.086-3.1"/></g><g clip-path="url(#Cb)" class="B C D E"><path d="M104.61 10.988l3.1-3.1"/></g><g clip-path="url(#Cc)" class="B C D E"><path d="M107.598 10.988l3.1-3.1"/></g><g clip-path="url(#Cd)" class="B C D E"><path d="M110.586 10.988l3.1-3.1"/></g><g clip-path="url(#Ce)" class="B C D E"><path d="M113.574 10.988l3.1-3.1"/></g><g stroke-width=".797" class="B D G"><path d="M5.38 9.234h112.6"/><path d="M115.816 6.12c.47 1.867 1.504 2.75 2.55 3.113-1.047.363-2.082 1.242-2.55 3.11" stroke-linecap="round" stroke-linejoin="round"/></g><path d="M35.72 9.234a1.99 1.99 0 1 0-3.984 0c0 1.098.89 1.992 1.992 1.992s1.992-.895 1.992-1.992zm0 0" class="B C G K"/><use xlink:href="#A" x="31.236" y="24.154" class="J"/><path d="M64.066 9.234c0-1.102-.895-1.992-1.992-1.992a1.99 1.99 0 0 0-1.992 1.992c0 1.098.89 1.992 1.992 1.992s1.992-.895 1.992-1.992zm0 0" class="B C G K"/><use xlink:href="#C" x="60.087" y="22.228" class="J"/><path d="M60.086 23.66h3.973" stroke-width=".398" class="B D G"/><use xlink:href="#D" x="60.087" y="29.586" class="J"/><path d="M92.414 9.234c0-1.102-.895-1.992-1.996-1.992s-1.992.89-1.992 1.992.895 1.992 1.992 1.992 1.996-.895 1.996-1.992zm0 0" class="B C G K"/><use xlink:href="#B" x="87.928" y="24.154" class="J"/></svg>