<svg xmlns="http://www.w3.org/2000/svg" viewBox="0 0 192 192"><defs><linearGradient id="A" x1="250.23" y1="164.49" x2="250.23" y2="314.49" gradientUnits="userSpaceOnUse"><stop offset="0" stop-color="#3fa9f5"/><stop offset="0" stop-color="#0aa2f4"/><stop offset=".5" stop-color="#009ff4"/><stop offset="1" stop-color="#1e6fd2"/></linearGradient><linearGradient id="B" x1="250.23" y1="356.49" x2="250.23" y2="308.49" gradientUnits="userSpaceOnUse"><stop offset="0" stop-color="#3fa9f5"/><stop offset="0" stop-color="#0095e6"/><stop offset="1" stop-color="#009ff4"/><stop offset="1" stop-color="#0095e6"/></linearGradient></defs><g transform="translate(-154.23 -164.49)"><path d="M319.13,314.49H181.33a5,5,0,0,1-4.91-6l28-140a5,5,0,0,1,4.9-4h81.79a5,5,0,0,1,4.9,4l28,140A5,5,0,0,1,319.13,314.49Z" fill="url(#A)"/><path d="M341.23,308.49h-182a5,5,0,0,0-5,5v38a5,5,0,0,0,5,5H171a5,5,0,0,0,5-5V338a5,5,0,0,1,5-5H319a5,5,0,0,1,5,5v13.49a5,5,0,0,0,5,5h12.23a5,5,0,0,0,5-5v-38A5,5,0,0,0,341.23,308.49Z" fill="url(#B)"/></g><path d="M148.34 75.03c.034581902829 6.002614464712-2.622104257188 11.70494912309-7.24 15.54q-7.26 6.42-18.37 6.43c-5.139611736644.060067840432-10.20727417684-1.211154076925-14.71-3.69q-6.65-3.68-12.28-11.74c-3.133855080888 4.498373722921-7.169372169624 8.295505835952-11.85 11.15-4.312640137663 2.587502855814-9.25070945083 3.946509326454-14.28 3.93q-11.39 0-18.67-6c-4.624058875657-3.908399453363-7.291415738114-9.655455692409-7.291415738114-15.71S46.315941124343 63.138399453363 50.94 59.23q7.29-6.22 18.67-6.22 15.71 0 26.3 15.22 10.77-14.94 26.82-14.94 11.55 0 18.58 6.08c4.606677127558 3.87643209632 7.194747193206 9.641606666453 7.03 15.66zm-78 13c3.716089085549.024685625561 7.352469946675-1.077036667935 10.43-3.16q4.72-3.17 9.42-10.12c-2.33206907255-3.900493481018-5.414935095852-7.299463738242-9.07-10-3.246630314596-2.18358737475-7.088222830762-3.311618631769-11-3.23-3.968695670493-.150702801771-7.856837574187 1.146529186208-10.94 3.65-2.737331718559 2.420810460283-4.3155307231 5.891843155577-4.340336852452 9.545976825545S56.34578644953 81.862249545723 59.05 84.32q4.21 3.71 11.25 3.71zm51.39-26.2c-3.730398867411-.028282524898-7.380247080892 1.084816500055-10.46 3.19-3.739498247404 2.738059700489-6.957181418235 6.125094617153-9.5 10 2.391130983455 3.896914477916 5.515508600354 7.29297710498 9.2 10 3.22203882673 2.192422885613 7.043324887513 3.334617165207 10.94 3.27 3.950147464278.132739176703 7.812555945658-1.183182681594 10.86-3.7 2.841641968356-2.349193530641 4.445632413786-5.87428517623 4.35-9.56.104434348362-3.676136679877-1.50241575364-7.192737362879-4.35-9.52-3.131163113843-2.518185930792-7.064461745834-3.824552263439-11.08-3.68z" fill="#fff"/></svg>