<svg xmlns="http://www.w3.org/2000/svg" xmlns:xlink="http://www.w3.org/1999/xlink" viewBox="0 0 176.6 48.11"><defs><symbol overflow="visible" id="a"><path d="M3.33-3.02c.06-.25.3-1.17.98-1.17a1 1 0 01.5.13.58.58 0 00-.47.54c0 .16.11.35.38.35.22 0 .53-.17.53-.58 0-.52-.58-.66-.92-.66-.58 0-.92.54-1.05.75A1.1 1.1 0 002.2-4.4C1.17-4.4.6-3.12.6-2.87c0 .1.1.1.12.1.08 0 .1-.03.12-.1.35-1.07 1-1.32 1.35-1.32.19 0 .53.1.53.67 0 .32-.17.97-.53 2.38-.16.6-.52 1.03-.96 1.03-.06 0-.28 0-.5-.12.25-.07.47-.27.47-.55 0-.27-.22-.34-.36-.34-.3 0-.54.25-.54.57 0 .46.48.66.92.66.67 0 1.03-.7 1.05-.75.12.36.48.75 1.07.75 1.04 0 1.6-1.28 1.6-1.53 0-.11-.08-.11-.11-.11-.1 0-.11.05-.14.1C4.36-.33 3.69-.1 3.37-.1c-.39 0-.54-.31-.54-.66 0-.21.04-.43.15-.87zm0 0"/></symbol><symbol overflow="visible" id="b"><path d="M9.45-3.3c.25 0 .5 0 .5-.28 0-.3-.25-.3-.5-.3H1.7c-.24 0-.5 0-.5.3 0 .28.26.28.5.28zm0 0"/></symbol><symbol overflow="visible" id="c"><path d="M5.72-3.31h3.97c.2 0 .45 0 .45-.27 0-.26-.25-.26-.45-.26H5.72V-7.8c0-.2 0-.47-.25-.47-.28 0-.28.25-.28.47v3.96H1.23c-.2 0-.45 0-.45.26 0 .27.24.27.45.27H5.2V.64c0 .2 0 .47.26.47.27 0 .27-.25.27-.47zm0 0"/></symbol><symbol overflow="visible" id="d"><path d="M4.58-3.19c0-.8-.05-1.6-.4-2.33a1.86 1.86 0 00-3.44.06A5.44 5.44 0 00.4-3.18c0 .75.03 1.64.45 2.4.43.8 1.16 1 1.64 1 .54 0 1.3-.2 1.74-1.15.31-.69.36-1.47.36-2.25zM2.48 0C2.1 0 1.5-.25 1.33-1.2c-.11-.6-.11-1.52-.11-2.11 0-.64 0-1.3.08-1.83.18-1.19.93-1.28 1.18-1.28.33 0 .99.19 1.18 1.17.1.56.1 1.31.1 1.94 0 .75 0 1.42-.1 2.06C3.5-.3 2.94 0 2.48 0zm0 0"/></symbol><symbol overflow="visible" id="e"><path d="M3.52-1.27h-.24c-.01.16-.1.57-.19.63-.04.05-.57.05-.68.05H1.12c.74-.64.99-.85 1.4-1.18.51-.4 1-.84 1-1.5 0-.84-.74-1.35-1.63-1.35-.86 0-1.45.6-1.45 1.25 0 .34.3.39.37.39.16 0 .36-.13.36-.38 0-.12-.04-.37-.4-.37a1.1 1.1 0 011.01-.65c.7 0 1.06.55 1.06 1.11 0 .61-.43 1.08-.65 1.33L.52-.27C.44-.2.44-.19.44 0H3.3zm0 0"/></symbol><symbol overflow="visible" id="f"><path d="M1.9-2.33c.55 0 .94.38.94 1.13 0 .86-.51 1.12-.9 1.12-.28 0-.9-.08-1.19-.5.33 0 .4-.23.4-.39 0-.22-.17-.37-.38-.37-.2 0-.4.12-.4.4C.38-.28 1.1.14 1.95.14c.97 0 1.64-.66 1.64-1.34 0-.55-.44-1.1-1.2-1.25.71-.27.98-.78.98-1.22 0-.55-.63-.96-1.4-.96-.77 0-1.37.38-1.37.94 0 .24.16.36.36.36.22 0 .36-.15.36-.34 0-.2-.14-.36-.36-.38.25-.3.72-.37.99-.37.31 0 .75.15.75.75 0 .3-.1.62-.28.83-.22.26-.43.28-.77.3l-.22.02c-.01 0-.08.02-.08.1 0 .1.07.1.2.1zm0 0"/></symbol></defs><path d="M.35 22.18h165.66" fill="none" stroke-width=".71" stroke="#000" stroke-miterlimit="10"/><path d="M170.43 22.18c-1.3-.25-3.44-.99-4.91-1.85v3.69c1.47-.86 3.6-1.6 4.91-1.84"/><use xlink:href="#a" x="167.59" y="30.14"/><use xlink:href="#b" x="79.81" y="39.94"/><use xlink:href="#c" x="23.24" y="11.59"/><use xlink:href="#c" x="136.62" y="11.59"/><path d="M57.05 22.18h56.7" fill="none" stroke-width="2.69" stroke="#000" stroke-miterlimit="10"/><path d="M61.3 22.18a4.25 4.25 0 10-8.5 0 4.25 4.25 0 008.5 0zm0 0" fill="#fff" stroke-width=".71" stroke="#000" stroke-miterlimit="10"/><use xlink:href="#d" x="54.56" y="39.36"/><path d="M118 22.18a4.25 4.25 0 10-8.5 0 4.25 4.25 0 008.5 0zm0 0" fill="#fff" stroke-width=".71" stroke="#000" stroke-miterlimit="10"/><use xlink:href="#e" x="111.75" y="37.43"/><path d="M111.75 38.86h3.98" fill="none" stroke-width=".4" stroke="#000" stroke-miterlimit="10"/><use xlink:href="#f" x="111.75" y="44.79"/></svg>