<svg xmlns="http://www.w3.org/2000/svg" xmlns:xlink="http://www.w3.org/1999/xlink" width="214.696" height="104.192" viewBox="0 0 161.022 78.144" xmlns:v="https://vecta.io/nano"><style><![CDATA[.B{stroke:rgb(0%,0%,0%)}.C{stroke-miterlimit:10}.D{fill:none}.E{stroke-width:.1}.F{overflow:visible}.G{stroke:none}.H{fill:rgb(0%,0%,0%)}.I{stroke-width:.227}.J{stroke-width:.399}.K{fill:rgb(100%,100%,100%)}]]></style><defs><symbol id="A" class="F"><path d="M1.156-.75C.906-.312.64-.22.36-.203.28-.187.22-.187.22-.078.22-.03.266 0 .313 0L.86-.016 1.516 0c.03 0 .125 0 .125-.125 0-.062-.062-.078-.11-.078-.14-.016-.297-.062-.297-.22 0-.078.03-.156.078-.25l.5-.828h1.625L3.53-.406c0 .188-.328.203-.453.203-.094 0-.156 0-.156.125C2.922 0 3 0 3.016 0l.797-.016.734.016c.047 0 .11 0 .11-.125 0-.078-.062-.078-.14-.078-.406 0-.406-.047-.422-.234l-.39-4.03c-.016-.14-.016-.156-.125-.156s-.125.03-.172.11zm.78-.937l1.266-2.14.22 2.14zm0 0" class="G"/></symbol><symbol id="B" class="F"><path d="M1.03-.5C.97-.25.953-.203.438-.203c-.11 0-.172 0-.172.125C.266 0 .313 0 .438 0h2.14c1.344 0 2.625-1.36 2.625-2.78 0-.906-.547-1.64-1.516-1.64H1.5c-.11 0-.187 0-.187.125 0 .078.063.078.188.078.078 0 .203 0 .28.016.094.016.14.03.14.11 0 .016 0 .03-.03.11zm1.39-3.47c.063-.234.078-.25.36-.25h.688c.625 0 1.172.344 1.172 1.203 0 .313-.125 1.375-.687 2.078-.187.25-.687.734-1.484.734h-.875C1.53-.22 1.5-.22 1.5-.266c0-.03 0-.03.047-.156zm0 0" class="G"/></symbol><symbol id="C" class="F"><path d="M1.03-.5C.97-.25.953-.203.453-.203c-.11 0-.187 0-.187.125C.266 0 .328 0 .453 0H2.75c1.03 0 1.797-.766 1.797-1.39 0-.47-.375-.844-1.016-.922.688-.125 1.36-.594 1.36-1.22 0-.47-.422-.89-1.203-.89H1.516c-.125 0-.187 0-.187.14 0 .063.063.063.172.063.016 0 .14 0 .25.016.125.016.172.016.172.11 0 .016 0 .03-.016.11zm.984-1.875l.39-1.594c.063-.234.078-.25.36-.25h.828c.578 0 .703.375.703.672 0 .563-.547 1.172-1.344 1.172zM1.72-.203h-.14C1.516-.22 1.5-.22 1.5-.266c0-.03 0-.03.03-.156L1.97-2.22h1.234c.61 0 .734.47.734.75 0 .64-.578 1.266-1.344 1.266zm0 0" class="G"/></symbol><symbol id="D" class="F"><path d="M4.922-4.5c0-.016-.016-.062-.078-.062-.016 0-.03.016-.094.078l-.453.5c-.062-.094-.36-.578-1.078-.578-1.437 0-2.89 1.438-2.89 2.938A1.69 1.69 0 0 0 2.078.141c.563 0 1.047-.25 1.39-.547.61-.53.72-1.125.72-1.14 0-.078-.062-.078-.078-.078-.047 0-.078.016-.078.078-.062.188-.22.64-.656 1.016-.453.36-.86.47-1.187.47-.594 0-1.28-.328-1.28-1.344 0-.36.14-1.422.78-2.172.406-.453 1.016-.78 1.578-.78.672 0 1.047.5 1.047 1.25l-.016.328c0 .063.063.063.094.063.078 0 .078-.016.125-.125zm0 0" class="G"/></symbol><symbol id="E" class="F"><path d="M2.766-3.922c.047-.187.063-.22.14-.25h.406c.656 0 .953.016.953.53 0 .094-.03.344-.047.516a.29.29 0 0 0-.031.109c0 .047.03.094.078.094.078 0 .094-.047.094-.156l.188-1.125v-.11c0-.062-.062-.062-.172-.062H.797c-.156 0-.172 0-.22.125l-.39 1.14c0 .016-.03.094-.03.11 0 .047.03.078.078.078.063 0 .063-.03.11-.14.344-1 .516-1.11 1.47-1.11h.25c.188 0 .188.016.188.078 0 .03-.016.11-.03.125L1.36-.516c-.062.25-.078.313-.766.313-.234 0-.28 0-.28.125C.313 0 .39 0 .422 0l.53-.016h1.094L2.61 0c.063 0 .14 0 .14-.125 0-.078-.047-.078-.22-.078-.156 0-.25 0-.422-.016-.187-.016-.234-.03-.234-.14 0 0 0-.03.03-.125zm0 0" class="G"/></symbol><symbol id="F" class="F"><path d="M4.938-3.922C5-4.156 5-4.22 5.484-4.22c.156 0 .22 0 .22-.125 0-.078-.078-.078-.094-.078l-.828.016c-.187 0-.64-.016-.828-.016-.062 0-.125 0-.125.14 0 .063.047.063.172.063.016 0 .14 0 .25.016s.172.016.172.11c0 .016 0 .03-.016.11l-.39 1.578H2.03l.39-1.516c.063-.234.078-.297.547-.297.156 0 .22 0 .22-.125 0-.078-.078-.078-.094-.078l-.828.016c-.187 0-.64-.016-.844-.016-.047 0-.11 0-.11.14 0 .063.047.063.172.063.016 0 .14 0 .25.016s.172.016.172.11c0 .016 0 .03-.03.11L1.016-.5c-.062.25-.078.297-.594.297-.11 0-.172 0-.172.125C.25 0 .328 0 .344 0l.828-.016h.406L2 0c.047 0 .125 0 .125-.125 0-.078-.062-.078-.172-.078-.25 0-.422 0-.422-.11 0-.047.016-.078.016-.11l.438-1.78h1.97L3.516-.406c-.062.203-.187.203-.594.203-.094 0-.156 0-.156.125 0 .078.078.078.094.078l.828-.016h.406L4.516 0c.047 0 .125 0 .125-.125 0-.078-.047-.078-.172-.078-.25 0-.422 0-.422-.11 0-.047.016-.078.016-.11zm0 0" class="G"/></symbol><symbol id="G" class="F"><path d="M4.89-3.734c.063-.266.188-.47.703-.484.03 0 .11 0 .11-.125 0-.016 0-.078-.094-.078l-.64.016c-.234 0-.453-.016-.672-.016-.03 0-.11 0-.11.14 0 .063.063.063.11.063.375 0 .438.14.438.28 0 .03 0 .125-.016.14L4-.922 2.563-4.297c-.047-.11-.047-.125-.203-.125H1.5c-.14 0-.187 0-.187.14 0 .063.047.063.172.063.03 0 .438 0 .438.063l-.86 3.47C1-.422.89-.22.36-.203c-.03 0-.11.016-.11.125C.25-.03.28 0 .344 0l.64-.016.672.016c.03 0 .11 0 .11-.125 0-.062-.062-.078-.125-.078-.375-.016-.437-.156-.437-.28 0-.047.016-.078.03-.156l.86-3.406c.016.03.016.047.047.11L3.766-.125c.03.11.063.125.11.125.078 0 .078-.016.11-.14zm0 0" class="G"/></symbol><symbol id="H" class="F"><path d="M5.984-3.922c.063-.234.078-.297.563-.297.14 0 .203 0 .203-.125 0-.078-.062-.078-.172-.078h-.86c-.156 0-.172 0-.25.125L3.11-.61l-.5-3.656c-.016-.156-.03-.156-.203-.156h-.89c-.125 0-.187 0-.187.125 0 .078.063.078.188.078.078 0 .203 0 .28.016.094.016.14.03.14.11 0 .016-.016.03-.03.11L1.094-.687c-.078.266-.187.47-.703.484-.03 0-.125.016-.125.125C.266-.016.313 0 .36 0l.656-.016.656.016c.03 0 .125 0 .125-.125 0-.078-.078-.078-.125-.078-.36 0-.437-.14-.437-.28 0-.047 0-.078.03-.156l.875-3.516.563 4c.016.078.016.156.094.156s.11-.078.14-.11l2.625-4.11L4.64-.5c-.062.25-.078.297-.594.297-.11 0-.172 0-.172.125 0 .078.078.078.094.078l.797-.016.813.016c.03 0 .125 0 .125-.125 0-.078-.062-.078-.187-.078-.234 0-.422 0-.422-.11 0-.03 0-.047.03-.156zm0 0" class="G"/></symbol><symbol id="I" class="F"><path d="M1.86-4.422s0-.062-.094-.062c-.14 0-.61.047-.78.063-.047 0-.125.016-.125.125 0 .078.063.078.156.078.313 0 .328.047.328.11l-.03.125L.375-.25C.36-.156.36-.156.36-.11c0 .14.125.188.188.188C.64.078.75 0 .78-.094l.125-.5.14-.578a3.58 3.58 0 0 0 .109-.437c.016-.03.063-.25.078-.28a1.78 1.78 0 0 1 .438-.594c.14-.11.344-.234.625-.234.266 0 .344.22.344.453 0 .344-.25 1.063-.406 1.453-.047.14-.078.22-.078.36 0 .297.22.53.53.53.61 0 .844-.953.844-1 0-.062-.062-.062-.078-.062-.062 0-.062.016-.094.11-.094.344-.312.797-.656.797-.11 0-.156-.062-.156-.203 0-.172.047-.328.11-.47.11-.266.39-1.047.39-1.422 0-.422-.25-.687-.734-.687-.406 0-.72.203-.953.5zm0 0" class="G"/></symbol><symbol id="J" class="F"><path d="M1.547-4.422s0-.062-.078-.062c-.156 0-.625.047-.797.063-.047 0-.125.016-.125.125 0 .078.063.078.156.078.313 0 .328.047.328.11 0 .047-.062.266-.094.406l-.53 2.11c-.078.313-.11.422-.11.656 0 .61.344 1.016.828 1.016.766 0 1.563-.97 1.563-1.906 0-.578-.344-1.03-.86-1.03-.297 0-.562.188-.766.39zM.938-1.97c.047-.14.047-.156.094-.234.328-.422.61-.516.78-.516.234 0 .406.203.406.61 0 .375-.22 1.125-.328 1.375-.22.438-.516.656-.766.656-.22 0-.437-.172-.437-.64 0-.125 0-.25.11-.656zm0 0" class="G"/></symbol><symbol id="K" class="F"><path d="M2.156-1.953c.047-.172.188-.766.64-.766.03 0 .188 0 .328.094-.187.03-.312.188-.312.344 0 .094.078.22.25.22.14 0 .344-.11.344-.375 0-.328-.375-.422-.594-.422-.375 0-.61.344-.687.484-.156-.422-.5-.484-.703-.484-.672 0-1.03.828-1.03 1 0 .063.063.063.078.063.047 0 .063-.016.078-.078.22-.687.656-.844.875-.844.125 0 .344.063.344.438 0 .203-.11.625-.344 1.53-.11.406-.328.672-.625.672-.03 0-.187 0-.312-.078C.64-.187.78-.328.78-.5S.64-.734.547-.734c-.203 0-.36.172-.36.375 0 .297.328.438.61.438.422 0 .656-.453.672-.5a.73.73 0 0 0 .703.5c.672 0 1.03-.844 1.03-1 0-.062-.047-.062-.078-.062-.047 0-.062.016-.078.063-.22.703-.656.844-.86.844-.25 0-.36-.203-.36-.422 0-.14.047-.28.11-.562zm0 0" class="G"/></symbol><symbol id="L" class="F"><path d="M2.406-2.437c-.11-.25-.297-.422-.594-.422-.75 0-1.547.953-1.547 1.89 0 .61.344 1.047.86 1.047.125 0 .453-.03.828-.484.063.266.28.484.594.484.234 0 .375-.156.484-.36.11-.234.188-.625.188-.64 0-.062-.062-.062-.078-.062-.062 0-.062.016-.094.11-.11.422-.22.797-.484.797-.172 0-.187-.156-.187-.297s0-.187.078-.47l.14-.578.234-.906.047-.234c0-.11-.078-.172-.187-.172-.156 0-.25.14-.28.297zM2-.766c-.047.11-.047.125-.14.234-.28.36-.547.453-.734.453C.813-.078.72-.422.72-.672c0-.328.203-1.125.36-1.422.203-.39.484-.625.75-.625.422 0 .5.53.5.578 0 .03 0 .078-.016.11zm0 0" class="G"/></symbol><clipPath id="M"><path d="M9 64.277h1.188V66H9zm0 0"/></clipPath><clipPath id="N"><path d="M9.305 65.563l19.84-26.36v26.36"/></clipPath><clipPath id="O"><path d="M9.19 64.277h2.836V66H9.19zm0 0"/></clipPath><clipPath id="P"><path d="M9.305 65.563l19.84-26.36v26.36"/></clipPath><clipPath id="Q"><path d="M11.03 64.277h2.832V66H11.03zm0 0"/></clipPath><clipPath id="R"><path d="M9.305 65.563l19.84-26.36v26.36"/></clipPath><clipPath id="S"><path d="M12.867 64.277h2.836V66h-2.836zm0 0"/></clipPath><clipPath id="T"><path d="M9.305 65.563l19.84-26.36v26.36"/></clipPath><clipPath id="U"><path d="M14.707 64.277h2.836V66h-2.836zm0 0"/></clipPath><clipPath id="V"><path d="M9.305 65.563l19.84-26.36v26.36"/></clipPath><clipPath id="W"><path d="M16.547 64.277h2.832V66h-2.832zm0 0"/></clipPath><clipPath id="X"><path d="M9.305 65.563l19.84-26.36v26.36"/></clipPath><clipPath id="Y"><path d="M18.383 64.277h2.836V66h-2.836zm0 0"/></clipPath><clipPath id="Z"><path d="M9.305 65.563l19.84-26.36v26.36"/></clipPath><clipPath id="a"><path d="M20.223 64.277h2.836V66h-2.836zm0 0"/></clipPath><clipPath id="b"><path d="M9.305 65.563l19.84-26.36v26.36"/></clipPath><clipPath id="c"><path d="M22.063 64.277h2.832V66h-2.832zm0 0"/></clipPath><clipPath id="d"><path d="M9.305 65.563l19.84-26.36v26.36"/></clipPath><clipPath id="e"><path d="M23.898 64.277h2.836V66h-2.836zm0 0"/></clipPath><clipPath id="f"><path d="M9.305 65.563l19.84-26.36v26.36"/></clipPath><clipPath id="g"><path d="M25.738 64.277h2.832V66h-2.832zm0 0"/></clipPath><clipPath id="h"><path d="M9.305 65.563l19.84-26.36v26.36"/></clipPath><clipPath id="i"><path d="M27.574 64.277H30V66h-2.426zm0 0"/></clipPath><clipPath id="j"><path d="M9.305 65.563l19.84-26.36v26.36"/></clipPath><clipPath id="k"><path d="M9 62.44h1.188v2.832H9zm0 0"/></clipPath><clipPath id="l"><path d="M9.305 65.563l19.84-26.36v26.36"/></clipPath><clipPath id="m"><path d="M9.19 62.44h2.836v2.832H9.19zm0 0"/></clipPath><clipPath id="n"><path d="M9.305 65.563l19.84-26.36v26.36"/></clipPath><clipPath id="o"><path d="M11.03 62.44h2.832v2.832H11.03zm0 0"/></clipPath><clipPath id="p"><path d="M9.305 65.563l19.84-26.36v26.36"/></clipPath><clipPath id="q"><path d="M12.867 62.44h2.836v2.832h-2.836zm0 0"/></clipPath><clipPath id="r"><path d="M9.305 65.563l19.84-26.36v26.36"/></clipPath><clipPath id="s"><path d="M14.707 62.44h2.836v2.832h-2.836zm0 0"/></clipPath><clipPath id="t"><path d="M9.305 65.563l19.84-26.36v26.36"/></clipPath><clipPath id="u"><path d="M16.547 62.44h2.832v2.832h-2.832zm0 0"/></clipPath><clipPath id="v"><path d="M9.305 65.563l19.84-26.36v26.36"/></clipPath><clipPath id="w"><path d="M18.383 62.44h2.836v2.832h-2.836zm0 0"/></clipPath><clipPath id="x"><path d="M9.305 65.563l19.84-26.36v26.36"/></clipPath><clipPath id="y"><path d="M20.223 62.44h2.836v2.832h-2.836zm0 0"/></clipPath><clipPath id="z"><path d="M9.305 65.563l19.84-26.36v26.36"/></clipPath><clipPath id="AA"><path d="M22.063 62.44h2.832v2.832h-2.832zm0 0"/></clipPath><clipPath id="AB"><path d="M9.305 65.563l19.84-26.36v26.36"/></clipPath><clipPath id="AC"><path d="M23.898 62.44h2.836v2.832h-2.836zm0 0"/></clipPath><clipPath id="AD"><path d="M9.305 65.563l19.84-26.36v26.36"/></clipPath><clipPath id="AE"><path d="M25.738 62.44h2.832v2.832h-2.832zm0 0"/></clipPath><clipPath id="AF"><path d="M9.305 65.563l19.84-26.36v26.36"/></clipPath><clipPath id="AG"><path d="M27.574 62.44H30v2.832h-2.426zm0 0"/></clipPath><clipPath id="AH"><path d="M9.305 65.563l19.84-26.36v26.36"/></clipPath><clipPath id="AI"><path d="M9 60.602h1.188v2.836H9zm0 0"/></clipPath><clipPath id="AJ"><path d="M9.305 65.563l19.84-26.36v26.36"/></clipPath><clipPath id="AK"><path d="M9.19 60.602h2.836v2.836H9.19zm0 0"/></clipPath><clipPath id="AL"><path d="M9.305 65.563l19.84-26.36v26.36"/></clipPath><clipPath id="AM"><path d="M11.03 60.602h2.832v2.836H11.03zm0 0"/></clipPath><clipPath id="AN"><path d="M9.305 65.563l19.84-26.36v26.36"/></clipPath><clipPath id="AO"><path d="M12.867 60.602h2.836v2.836h-2.836zm0 0"/></clipPath><clipPath id="AP"><path d="M9.305 65.563l19.84-26.36v26.36"/></clipPath><clipPath id="AQ"><path d="M14.707 60.602h2.836v2.836h-2.836zm0 0"/></clipPath><clipPath id="AR"><path d="M9.305 65.563l19.84-26.36v26.36"/></clipPath><clipPath id="AS"><path d="M16.547 60.602h2.832v2.836h-2.832zm0 0"/></clipPath><clipPath id="AT"><path d="M9.305 65.563l19.84-26.36v26.36"/></clipPath><clipPath id="AU"><path d="M18.383 60.602h2.836v2.836h-2.836zm0 0"/></clipPath><clipPath id="AV"><path d="M9.305 65.563l19.84-26.36v26.36"/></clipPath><clipPath id="AW"><path d="M20.223 60.602h2.836v2.836h-2.836zm0 0"/></clipPath><clipPath id="AX"><path d="M9.305 65.563l19.84-26.36v26.36"/></clipPath><clipPath id="AY"><path d="M22.063 60.602h2.832v2.836h-2.832zm0 0"/></clipPath><clipPath id="AZ"><path d="M9.305 65.563l19.84-26.36v26.36"/></clipPath><clipPath id="Aa"><path d="M23.898 60.602h2.836v2.836h-2.836zm0 0"/></clipPath><clipPath id="Ab"><path d="M9.305 65.563l19.84-26.36v26.36"/></clipPath><clipPath id="Ac"><path d="M25.738 60.602h2.832v2.836h-2.832zm0 0"/></clipPath><clipPath id="Ad"><path d="M9.305 65.563l19.84-26.36v26.36"/></clipPath><clipPath id="Ae"><path d="M27.574 60.602H30v2.836h-2.426zm0 0"/></clipPath><clipPath id="Af"><path d="M9.305 65.563l19.84-26.36v26.36"/></clipPath><clipPath id="Ag"><path d="M9 58.766h1.188v2.832H9zm0 0"/></clipPath><clipPath id="Ah"><path d="M9.305 65.563l19.84-26.36v26.36"/></clipPath><clipPath id="Ai"><path d="M9.19 58.766h2.836v2.832H9.19zm0 0"/></clipPath><clipPath id="Aj"><path d="M9.305 65.563l19.84-26.36v26.36"/></clipPath><clipPath id="Ak"><path d="M11.03 58.766h2.832v2.832H11.03zm0 0"/></clipPath><clipPath id="Al"><path d="M9.305 65.563l19.84-26.36v26.36"/></clipPath><clipPath id="Am"><path d="M12.867 58.766h2.836v2.832h-2.836zm0 0"/></clipPath><clipPath id="An"><path d="M9.305 65.563l19.84-26.36v26.36"/></clipPath><clipPath id="Ao"><path d="M14.707 58.766h2.836v2.832h-2.836zm0 0"/></clipPath><clipPath id="Ap"><path d="M9.305 65.563l19.84-26.36v26.36"/></clipPath><clipPath id="Aq"><path d="M16.547 58.766h2.832v2.832h-2.832zm0 0"/></clipPath><clipPath id="Ar"><path d="M9.305 65.563l19.84-26.36v26.36"/></clipPath><clipPath id="As"><path d="M18.383 58.766h2.836v2.832h-2.836zm0 0"/></clipPath><clipPath id="At"><path d="M9.305 65.563l19.84-26.36v26.36"/></clipPath><clipPath id="Au"><path d="M20.223 58.766h2.836v2.832h-2.836zm0 0"/></clipPath><clipPath id="Av"><path d="M9.305 65.563l19.84-26.36v26.36"/></clipPath><clipPath id="Aw"><path d="M22.063 58.766h2.832v2.832h-2.832zm0 0"/></clipPath><clipPath id="Ax"><path d="M9.305 65.563l19.84-26.36v26.36"/></clipPath><clipPath id="Ay"><path d="M23.898 58.766h2.836v2.832h-2.836zm0 0"/></clipPath><clipPath id="Az"><path d="M9.305 65.563l19.84-26.36v26.36"/></clipPath><clipPath id="BA"><path d="M25.738 58.766h2.832v2.832h-2.832zm0 0"/></clipPath><clipPath id="BB"><path d="M9.305 65.563l19.84-26.36v26.36"/></clipPath><clipPath id="BC"><path d="M27.574 58.766H30v2.832h-2.426zm0 0"/></clipPath><clipPath id="BD"><path d="M9.305 65.563l19.84-26.36v26.36"/></clipPath><clipPath id="BE"><path d="M9 56.926h1.188v2.836H9zm0 0"/></clipPath><clipPath id="BF"><path d="M9.305 65.563l19.84-26.36v26.36"/></clipPath><clipPath id="BG"><path d="M9.19 56.926h2.836v2.836H9.19zm0 0"/></clipPath><clipPath id="BH"><path d="M9.305 65.563l19.84-26.36v26.36"/></clipPath><clipPath id="BI"><path d="M11.03 56.926h2.832v2.836H11.03zm0 0"/></clipPath><clipPath id="BJ"><path d="M9.305 65.563l19.84-26.36v26.36"/></clipPath><clipPath id="BK"><path d="M12.867 56.926h2.836v2.836h-2.836zm0 0"/></clipPath><clipPath id="BL"><path d="M9.305 65.563l19.84-26.36v26.36"/></clipPath><clipPath id="BM"><path d="M14.707 56.926h2.836v2.836h-2.836zm0 0"/></clipPath><clipPath id="BN"><path d="M9.305 65.563l19.84-26.36v26.36"/></clipPath><clipPath id="BO"><path d="M16.547 56.926h2.832v2.836h-2.832zm0 0"/></clipPath><clipPath id="BP"><path d="M9.305 65.563l19.84-26.36v26.36"/></clipPath><clipPath id="BQ"><path d="M18.383 56.926h2.836v2.836h-2.836zm0 0"/></clipPath><clipPath id="BR"><path d="M9.305 65.563l19.84-26.36v26.36"/></clipPath><clipPath id="BS"><path d="M20.223 56.926h2.836v2.836h-2.836zm0 0"/></clipPath><clipPath id="BT"><path d="M9.305 65.563l19.84-26.36v26.36"/></clipPath><clipPath id="BU"><path d="M22.063 56.926h2.832v2.836h-2.832zm0 0"/></clipPath><clipPath id="BV"><path d="M9.305 65.563l19.84-26.36v26.36"/></clipPath><clipPath id="BW"><path d="M23.898 56.926h2.836v2.836h-2.836zm0 0"/></clipPath><clipPath id="BX"><path d="M9.305 65.563l19.84-26.36v26.36"/></clipPath><clipPath id="BY"><path d="M25.738 56.926h2.832v2.836h-2.832zm0 0"/></clipPath><clipPath id="BZ"><path d="M9.305 65.563l19.84-26.36v26.36"/></clipPath><clipPath id="Ba"><path d="M27.574 56.926H30v2.836h-2.426zm0 0"/></clipPath><clipPath id="Bb"><path d="M9.305 65.563l19.84-26.36v26.36"/></clipPath><clipPath id="Bc"><path d="M9 55.086h1.188v2.836H9zm0 0"/></clipPath><clipPath id="Bd"><path d="M9.305 65.563l19.84-26.36v26.36"/></clipPath><clipPath id="Be"><path d="M9.19 55.086h2.836v2.836H9.19zm0 0"/></clipPath><clipPath id="Bf"><path d="M9.305 65.563l19.84-26.36v26.36"/></clipPath><clipPath id="Bg"><path d="M11.03 55.086h2.832v2.836H11.03zm0 0"/></clipPath><clipPath id="Bh"><path d="M9.305 65.563l19.84-26.36v26.36"/></clipPath><clipPath id="Bi"><path d="M12.867 55.086h2.836v2.836h-2.836zm0 0"/></clipPath><clipPath id="Bj"><path d="M9.305 65.563l19.84-26.36v26.36"/></clipPath><clipPath id="Bk"><path d="M14.707 55.086h2.836v2.836h-2.836zm0 0"/></clipPath><clipPath id="Bl"><path d="M9.305 65.563l19.84-26.36v26.36"/></clipPath><clipPath id="Bm"><path d="M16.547 55.086h2.832v2.836h-2.832zm0 0"/></clipPath><clipPath id="Bn"><path d="M9.305 65.563l19.84-26.36v26.36"/></clipPath><clipPath id="Bo"><path d="M18.383 55.086h2.836v2.836h-2.836zm0 0"/></clipPath><clipPath id="Bp"><path d="M9.305 65.563l19.84-26.36v26.36"/></clipPath><clipPath id="Bq"><path d="M20.223 55.086h2.836v2.836h-2.836zm0 0"/></clipPath><clipPath id="Br"><path d="M9.305 65.563l19.84-26.36v26.36"/></clipPath><clipPath id="Bs"><path d="M22.063 55.086h2.832v2.836h-2.832zm0 0"/></clipPath><clipPath id="Bt"><path d="M9.305 65.563l19.84-26.36v26.36"/></clipPath><clipPath id="Bu"><path d="M23.898 55.086h2.836v2.836h-2.836zm0 0"/></clipPath><clipPath id="Bv"><path d="M9.305 65.563l19.84-26.36v26.36"/></clipPath><clipPath id="Bw"><path d="M25.738 55.086h2.832v2.836h-2.832zm0 0"/></clipPath><clipPath id="Bx"><path d="M9.305 65.563l19.84-26.36v26.36"/></clipPath><clipPath id="By"><path d="M27.574 55.086H30v2.836h-2.426zm0 0"/></clipPath><clipPath id="Bz"><path d="M9.305 65.563l19.84-26.36v26.36"/></clipPath><clipPath id="CA"><path d="M9 53.25h1.188v2.832H9zm0 0"/></clipPath><clipPath id="CB"><path d="M9.305 65.563l19.84-26.36v26.36"/></clipPath><clipPath id="CC"><path d="M9.19 53.25h2.836v2.832H9.19zm0 0"/></clipPath><clipPath id="CD"><path d="M9.305 65.563l19.84-26.36v26.36"/></clipPath><clipPath id="CE"><path d="M11.03 53.25h2.832v2.832H11.03zm0 0"/></clipPath><clipPath id="CF"><path d="M9.305 65.563l19.84-26.36v26.36"/></clipPath><clipPath id="CG"><path d="M12.867 53.25h2.836v2.832h-2.836zm0 0"/></clipPath><clipPath id="CH"><path d="M9.305 65.563l19.84-26.36v26.36"/></clipPath><clipPath id="CI"><path d="M14.707 53.25h2.836v2.832h-2.836zm0 0"/></clipPath><clipPath id="CJ"><path d="M9.305 65.563l19.84-26.36v26.36"/></clipPath><clipPath id="CK"><path d="M16.547 53.25h2.832v2.832h-2.832zm0 0"/></clipPath><clipPath id="CL"><path d="M9.305 65.563l19.84-26.36v26.36"/></clipPath><clipPath id="CM"><path d="M18.383 53.25h2.836v2.832h-2.836zm0 0"/></clipPath><clipPath id="CN"><path d="M9.305 65.563l19.84-26.36v26.36"/></clipPath><clipPath id="CO"><path d="M20.223 53.25h2.836v2.832h-2.836zm0 0"/></clipPath><clipPath id="CP"><path d="M9.305 65.563l19.84-26.36v26.36"/></clipPath><clipPath id="CQ"><path d="M22.063 53.25h2.832v2.832h-2.832zm0 0"/></clipPath><clipPath id="CR"><path d="M9.305 65.563l19.84-26.36v26.36"/></clipPath><clipPath id="CS"><path d="M23.898 53.25h2.836v2.832h-2.836zm0 0"/></clipPath><clipPath id="CT"><path d="M9.305 65.563l19.84-26.36v26.36"/></clipPath><clipPath id="CU"><path d="M25.738 53.25h2.832v2.832h-2.832zm0 0"/></clipPath><clipPath id="CV"><path d="M9.305 65.563l19.84-26.36v26.36"/></clipPath><clipPath id="CW"><path d="M27.574 53.25H30v2.832h-2.426zm0 0"/></clipPath><clipPath id="CX"><path d="M9.305 65.563l19.84-26.36v26.36"/></clipPath><clipPath id="CY"><path d="M9 51.4h1.188v2.836H9zm0 0"/></clipPath><clipPath id="CZ"><path d="M9.305 65.563l19.84-26.36v26.36"/></clipPath><clipPath id="Ca"><path d="M9.19 51.4h2.836v2.836H9.19zm0 0"/></clipPath><clipPath id="Cb"><path d="M9.305 65.563l19.84-26.36v26.36"/></clipPath><clipPath id="Cc"><path d="M11.03 51.4h2.832v2.836H11.03zm0 0"/></clipPath><clipPath id="Cd"><path d="M9.305 65.563l19.84-26.36v26.36"/></clipPath><clipPath id="Ce"><path d="M12.867 51.4h2.836v2.836h-2.836zm0 0"/></clipPath><clipPath id="Cf"><path d="M9.305 65.563l19.84-26.36v26.36"/></clipPath><clipPath id="Cg"><path d="M14.707 51.4h2.836v2.836h-2.836zm0 0"/></clipPath><clipPath id="Ch"><path d="M9.305 65.563l19.84-26.36v26.36"/></clipPath><clipPath id="Ci"><path d="M16.547 51.4h2.832v2.836h-2.832zm0 0"/></clipPath><clipPath id="Cj"><path d="M9.305 65.563l19.84-26.36v26.36"/></clipPath><clipPath id="Ck"><path d="M18.383 51.4h2.836v2.836h-2.836zm0 0"/></clipPath><clipPath id="Cl"><path d="M9.305 65.563l19.84-26.36v26.36"/></clipPath><clipPath id="Cm"><path d="M20.223 51.4h2.836v2.836h-2.836zm0 0"/></clipPath><clipPath id="Cn"><path d="M9.305 65.563l19.84-26.36v26.36"/></clipPath><clipPath id="Co"><path d="M22.063 51.4h2.832v2.836h-2.832zm0 0"/></clipPath><clipPath id="Cp"><path d="M9.305 65.563l19.84-26.36v26.36"/></clipPath><clipPath id="Cq"><path d="M23.898 51.4h2.836v2.836h-2.836zm0 0"/></clipPath><clipPath id="Cr"><path d="M9.305 65.563l19.84-26.36v26.36"/></clipPath><clipPath id="Cs"><path d="M25.738 51.4h2.832v2.836h-2.832zm0 0"/></clipPath><clipPath id="Ct"><path d="M9.305 65.563l19.84-26.36v26.36"/></clipPath><clipPath id="Cu"><path d="M27.574 51.4H30v2.836h-2.426zm0 0"/></clipPath><clipPath id="Cv"><path d="M9.305 65.563l19.84-26.36v26.36"/></clipPath><clipPath id="Cw"><path d="M9 49.57h1.188v2.836H9zm0 0"/></clipPath><clipPath id="Cx"><path d="M9.305 65.563l19.84-26.36v26.36"/></clipPath><clipPath id="Cy"><path d="M9.19 49.57h2.836v2.836H9.19zm0 0"/></clipPath><clipPath id="Cz"><path d="M9.305 65.563l19.84-26.36v26.36"/></clipPath><clipPath id="DA"><path d="M11.03 49.57h2.832v2.836H11.03zm0 0"/></clipPath><clipPath id="DB"><path d="M9.305 65.563l19.84-26.36v26.36"/></clipPath><clipPath id="DC"><path d="M12.867 49.57h2.836v2.836h-2.836zm0 0"/></clipPath><clipPath id="DD"><path d="M9.305 65.563l19.84-26.36v26.36"/></clipPath><clipPath id="DE"><path d="M14.707 49.57h2.836v2.836h-2.836zm0 0"/></clipPath><clipPath id="DF"><path d="M9.305 65.563l19.84-26.36v26.36"/></clipPath><clipPath id="DG"><path d="M16.547 49.57h2.832v2.836h-2.832zm0 0"/></clipPath><clipPath id="DH"><path d="M9.305 65.563l19.84-26.36v26.36"/></clipPath><clipPath id="DI"><path d="M18.383 49.57h2.836v2.836h-2.836zm0 0"/></clipPath><clipPath id="DJ"><path d="M9.305 65.563l19.84-26.36v26.36"/></clipPath><clipPath id="DK"><path d="M20.223 49.57h2.836v2.836h-2.836zm0 0"/></clipPath><clipPath id="DL"><path d="M9.305 65.563l19.84-26.36v26.36"/></clipPath><clipPath id="DM"><path d="M22.063 49.57h2.832v2.836h-2.832zm0 0"/></clipPath><clipPath id="DN"><path d="M9.305 65.563l19.84-26.36v26.36"/></clipPath><clipPath id="DO"><path d="M23.898 49.57h2.836v2.836h-2.836zm0 0"/></clipPath><clipPath id="DP"><path d="M9.305 65.563l19.84-26.36v26.36"/></clipPath><clipPath id="DQ"><path d="M25.738 49.57h2.832v2.836h-2.832zm0 0"/></clipPath><clipPath id="DR"><path d="M9.305 65.563l19.84-26.36v26.36"/></clipPath><clipPath id="DS"><path d="M27.574 49.57H30v2.836h-2.426zm0 0"/></clipPath><clipPath id="DT"><path d="M9.305 65.563l19.84-26.36v26.36"/></clipPath><clipPath id="DU"><path d="M9 47.734h1.188v2.832H9zm0 0"/></clipPath><clipPath id="DV"><path d="M9.305 65.563l19.84-26.36v26.36"/></clipPath><clipPath id="DW"><path d="M9.19 47.734h2.836v2.832H9.19zm0 0"/></clipPath><clipPath id="DX"><path d="M9.305 65.563l19.84-26.36v26.36"/></clipPath><clipPath id="DY"><path d="M11.03 47.734h2.832v2.832H11.03zm0 0"/></clipPath><clipPath id="DZ"><path d="M9.305 65.563l19.84-26.36v26.36"/></clipPath><clipPath id="Da"><path d="M12.867 47.734h2.836v2.832h-2.836zm0 0"/></clipPath><clipPath id="Db"><path d="M9.305 65.563l19.84-26.36v26.36"/></clipPath><clipPath id="Dc"><path d="M14.707 47.734h2.836v2.832h-2.836zm0 0"/></clipPath><clipPath id="Dd"><path d="M9.305 65.563l19.84-26.36v26.36"/></clipPath><clipPath id="De"><path d="M16.547 47.734h2.832v2.832h-2.832zm0 0"/></clipPath><clipPath id="Df"><path d="M9.305 65.563l19.84-26.36v26.36"/></clipPath><clipPath id="Dg"><path d="M18.383 47.734h2.836v2.832h-2.836zm0 0"/></clipPath><clipPath id="Dh"><path d="M9.305 65.563l19.84-26.36v26.36"/></clipPath><clipPath id="Di"><path d="M20.223 47.734h2.836v2.832h-2.836zm0 0"/></clipPath><clipPath id="Dj"><path d="M9.305 65.563l19.84-26.36v26.36"/></clipPath><clipPath id="Dk"><path d="M22.063 47.734h2.832v2.832h-2.832zm0 0"/></clipPath><clipPath id="Dl"><path d="M9.305 65.563l19.84-26.36v26.36"/></clipPath><clipPath id="Dm"><path d="M23.898 47.734h2.836v2.832h-2.836zm0 0"/></clipPath><clipPath id="Dn"><path d="M9.305 65.563l19.84-26.36v26.36"/></clipPath><clipPath id="Do"><path d="M25.738 47.734h2.832v2.832h-2.832zm0 0"/></clipPath><clipPath id="Dp"><path d="M9.305 65.563l19.84-26.36v26.36"/></clipPath><clipPath id="Dq"><path d="M27.574 47.734H30v2.832h-2.426zm0 0"/></clipPath><clipPath id="Dr"><path d="M9.305 65.563l19.84-26.36v26.36"/></clipPath><clipPath id="Ds"><path d="M9 45.895h1.188v2.836H9zm0 0"/></clipPath><clipPath id="Dt"><path d="M9.305 65.563l19.84-26.36v26.36"/></clipPath><clipPath id="Du"><path d="M9.19 45.895h2.836v2.836H9.19zm0 0"/></clipPath><clipPath id="Dv"><path d="M9.305 65.563l19.84-26.36v26.36"/></clipPath><clipPath id="Dw"><path d="M11.03 45.895h2.832v2.836H11.03zm0 0"/></clipPath><clipPath id="Dx"><path d="M9.305 65.563l19.84-26.36v26.36"/></clipPath><clipPath id="Dy"><path d="M12.867 45.895h2.836v2.836h-2.836zm0 0"/></clipPath><clipPath id="Dz"><path d="M9.305 65.563l19.84-26.36v26.36"/></clipPath><clipPath id="EA"><path d="M14.707 45.895h2.836v2.836h-2.836zm0 0"/></clipPath><clipPath id="EB"><path d="M9.305 65.563l19.84-26.36v26.36"/></clipPath><clipPath id="EC"><path d="M16.547 45.895h2.832v2.836h-2.832zm0 0"/></clipPath><clipPath id="ED"><path d="M9.305 65.563l19.84-26.36v26.36"/></clipPath><clipPath id="EE"><path d="M18.383 45.895h2.836v2.836h-2.836zm0 0"/></clipPath><clipPath id="EF"><path d="M9.305 65.563l19.84-26.36v26.36"/></clipPath><clipPath id="EG"><path d="M20.223 45.895h2.836v2.836h-2.836zm0 0"/></clipPath><clipPath id="EH"><path d="M9.305 65.563l19.84-26.36v26.36"/></clipPath><clipPath id="EI"><path d="M22.063 45.895h2.832v2.836h-2.832zm0 0"/></clipPath><clipPath id="EJ"><path d="M9.305 65.563l19.84-26.36v26.36"/></clipPath><clipPath id="EK"><path d="M23.898 45.895h2.836v2.836h-2.836zm0 0"/></clipPath><clipPath id="EL"><path d="M9.305 65.563l19.84-26.36v26.36"/></clipPath><clipPath id="EM"><path d="M25.738 45.895h2.832v2.836h-2.832zm0 0"/></clipPath><clipPath id="EN"><path d="M9.305 65.563l19.84-26.36v26.36"/></clipPath><clipPath id="EO"><path d="M27.574 45.895H30v2.836h-2.426zm0 0"/></clipPath><clipPath id="EP"><path d="M9.305 65.563l19.84-26.36v26.36"/></clipPath><clipPath id="EQ"><path d="M9 44.06h1.188v2.832H9zm0 0"/></clipPath><clipPath id="ER"><path d="M9.305 65.563l19.84-26.36v26.36"/></clipPath><clipPath id="ES"><path d="M9.19 44.06h2.836v2.832H9.19zm0 0"/></clipPath><clipPath id="ET"><path d="M9.305 65.563l19.84-26.36v26.36"/></clipPath><clipPath id="EU"><path d="M11.03 44.06h2.832v2.832H11.03zm0 0"/></clipPath><clipPath id="EV"><path d="M9.305 65.563l19.84-26.36v26.36"/></clipPath><clipPath id="EW"><path d="M12.867 44.06h2.836v2.832h-2.836zm0 0"/></clipPath><clipPath id="EX"><path d="M9.305 65.563l19.84-26.36v26.36"/></clipPath><clipPath id="EY"><path d="M14.707 44.06h2.836v2.832h-2.836zm0 0"/></clipPath><clipPath id="EZ"><path d="M9.305 65.563l19.84-26.36v26.36"/></clipPath><clipPath id="Ea"><path d="M16.547 44.06h2.832v2.832h-2.832zm0 0"/></clipPath><clipPath id="Eb"><path d="M9.305 65.563l19.84-26.36v26.36"/></clipPath><clipPath id="Ec"><path d="M18.383 44.06h2.836v2.832h-2.836zm0 0"/></clipPath><clipPath id="Ed"><path d="M9.305 65.563l19.84-26.36v26.36"/></clipPath><clipPath id="Ee"><path d="M20.223 44.06h2.836v2.832h-2.836zm0 0"/></clipPath><clipPath id="Ef"><path d="M9.305 65.563l19.84-26.36v26.36"/></clipPath><clipPath id="Eg"><path d="M22.063 44.06h2.832v2.832h-2.832zm0 0"/></clipPath><clipPath id="Eh"><path d="M9.305 65.563l19.84-26.36v26.36"/></clipPath><clipPath id="Ei"><path d="M23.898 44.06h2.836v2.832h-2.836zm0 0"/></clipPath><clipPath id="Ej"><path d="M9.305 65.563l19.84-26.36v26.36"/></clipPath><clipPath id="Ek"><path d="M25.738 44.06h2.832v2.832h-2.832zm0 0"/></clipPath><clipPath id="El"><path d="M9.305 65.563l19.84-26.36v26.36"/></clipPath><clipPath id="Em"><path d="M27.574 44.06H30v2.832h-2.426zm0 0"/></clipPath><clipPath id="En"><path d="M9.305 65.563l19.84-26.36v26.36"/></clipPath><clipPath id="Eo"><path d="M9 42.22h1.188v2.836H9zm0 0"/></clipPath><clipPath id="Ep"><path d="M9.305 65.563l19.84-26.36v26.36"/></clipPath><clipPath id="Eq"><path d="M9.19 42.22h2.836v2.836H9.19zm0 0"/></clipPath><clipPath id="Er"><path d="M9.305 65.563l19.84-26.36v26.36"/></clipPath><clipPath id="Es"><path d="M11.03 42.22h2.832v2.836H11.03zm0 0"/></clipPath><clipPath id="Et"><path d="M9.305 65.563l19.84-26.36v26.36"/></clipPath><clipPath id="Eu"><path d="M12.867 42.22h2.836v2.836h-2.836zm0 0"/></clipPath><clipPath id="Ev"><path d="M9.305 65.563l19.84-26.36v26.36"/></clipPath><clipPath id="Ew"><path d="M14.707 42.22h2.836v2.836h-2.836zm0 0"/></clipPath><clipPath id="Ex"><path d="M9.305 65.563l19.84-26.36v26.36"/></clipPath><clipPath id="Ey"><path d="M16.547 42.22h2.832v2.836h-2.832zm0 0"/></clipPath><clipPath id="Ez"><path d="M9.305 65.563l19.84-26.36v26.36"/></clipPath><clipPath id="FA"><path d="M18.383 42.22h2.836v2.836h-2.836zm0 0"/></clipPath><clipPath id="FB"><path d="M9.305 65.563l19.84-26.36v26.36"/></clipPath><clipPath id="FC"><path d="M20.223 42.22h2.836v2.836h-2.836zm0 0"/></clipPath><clipPath id="FD"><path d="M9.305 65.563l19.84-26.36v26.36"/></clipPath><clipPath id="FE"><path d="M22.063 42.22h2.832v2.836h-2.832zm0 0"/></clipPath><clipPath id="FF"><path d="M9.305 65.563l19.84-26.36v26.36"/></clipPath><clipPath id="FG"><path d="M23.898 42.22h2.836v2.836h-2.836zm0 0"/></clipPath><clipPath id="FH"><path d="M9.305 65.563l19.84-26.36v26.36"/></clipPath><clipPath id="FI"><path d="M25.738 42.22h2.832v2.836h-2.832zm0 0"/></clipPath><clipPath id="FJ"><path d="M9.305 65.563l19.84-26.36v26.36"/></clipPath><clipPath id="FK"><path d="M27.574 42.22H30v2.836h-2.426zm0 0"/></clipPath><clipPath id="FL"><path d="M9.305 65.563l19.84-26.36v26.36"/></clipPath><clipPath id="FM"><path d="M9 40.38h1.188v2.836H9zm0 0"/></clipPath><clipPath id="FN"><path d="M9.305 65.563l19.84-26.36v26.36"/></clipPath><clipPath id="FO"><path d="M9.19 40.38h2.836v2.836H9.19zm0 0"/></clipPath><clipPath id="FP"><path d="M9.305 65.563l19.84-26.36v26.36"/></clipPath><clipPath id="FQ"><path d="M11.03 40.38h2.832v2.836H11.03zm0 0"/></clipPath><clipPath id="FR"><path d="M9.305 65.563l19.84-26.36v26.36"/></clipPath><clipPath id="FS"><path d="M12.867 40.38h2.836v2.836h-2.836zm0 0"/></clipPath><clipPath id="FT"><path d="M9.305 65.563l19.84-26.36v26.36"/></clipPath><clipPath id="FU"><path d="M14.707 40.38h2.836v2.836h-2.836zm0 0"/></clipPath><clipPath id="FV"><path d="M9.305 65.563l19.84-26.36v26.36"/></clipPath><clipPath id="FW"><path d="M16.547 40.38h2.832v2.836h-2.832zm0 0"/></clipPath><clipPath id="FX"><path d="M9.305 65.563l19.84-26.36v26.36"/></clipPath><clipPath id="FY"><path d="M18.383 40.38h2.836v2.836h-2.836zm0 0"/></clipPath><clipPath id="FZ"><path d="M9.305 65.563l19.84-26.36v26.36"/></clipPath><clipPath id="Fa"><path d="M20.223 40.38h2.836v2.836h-2.836zm0 0"/></clipPath><clipPath id="Fb"><path d="M9.305 65.563l19.84-26.36v26.36"/></clipPath><clipPath id="Fc"><path d="M22.063 40.38h2.832v2.836h-2.832zm0 0"/></clipPath><clipPath id="Fd"><path d="M9.305 65.563l19.84-26.36v26.36"/></clipPath><clipPath id="Fe"><path d="M23.898 40.38h2.836v2.836h-2.836zm0 0"/></clipPath><clipPath id="Ff"><path d="M9.305 65.563l19.84-26.36v26.36"/></clipPath><clipPath id="Fg"><path d="M25.738 40.38h2.832v2.836h-2.832zm0 0"/></clipPath><clipPath id="Fh"><path d="M9.305 65.563l19.84-26.36v26.36"/></clipPath><clipPath id="Fi"><path d="M27.574 40.38H30v2.836h-2.426zm0 0"/></clipPath><clipPath id="Fj"><path d="M9.305 65.563l19.84-26.36v26.36"/></clipPath><clipPath id="Fk"><path d="M9 39h1.188v2.375H9zm0 0"/></clipPath><clipPath id="Fl"><path d="M9.305 65.563l19.84-26.36v26.36"/></clipPath><clipPath id="Fm"><path d="M9.19 39h2.836v2.375H9.19zm0 0"/></clipPath><clipPath id="Fn"><path d="M9.305 65.563l19.84-26.36v26.36"/></clipPath><clipPath id="Fo"><path d="M11.03 39h2.832v2.375H11.03zm0 0"/></clipPath><clipPath id="Fp"><path d="M9.305 65.563l19.84-26.36v26.36"/></clipPath><clipPath id="Fq"><path d="M12.867 39h2.836v2.375h-2.836zm0 0"/></clipPath><clipPath id="Fr"><path d="M9.305 65.563l19.84-26.36v26.36"/></clipPath><clipPath id="Fs"><path d="M14.707 39h2.836v2.375h-2.836zm0 0"/></clipPath><clipPath id="Ft"><path d="M9.305 65.563l19.84-26.36v26.36"/></clipPath><clipPath id="Fu"><path d="M16.547 39h2.832v2.375h-2.832zm0 0"/></clipPath><clipPath id="Fv"><path d="M9.305 65.563l19.84-26.36v26.36"/></clipPath><clipPath id="Fw"><path d="M18.383 39h2.836v2.375h-2.836zm0 0"/></clipPath><clipPath id="Fx"><path d="M9.305 65.563l19.84-26.36v26.36"/></clipPath><clipPath id="Fy"><path d="M20.223 39h2.836v2.375h-2.836zm0 0"/></clipPath><clipPath id="Fz"><path d="M9.305 65.563l19.84-26.36v26.36"/></clipPath><clipPath id="GA"><path d="M22.063 39h2.832v2.375h-2.832zm0 0"/></clipPath><clipPath id="GB"><path d="M9.305 65.563l19.84-26.36v26.36"/></clipPath><clipPath id="GC"><path d="M23.898 39h2.836v2.375h-2.836zm0 0"/></clipPath><clipPath id="GD"><path d="M9.305 65.563l19.84-26.36v26.36"/></clipPath><clipPath id="GE"><path d="M25.738 39h2.832v2.375h-2.832zm0 0"/></clipPath><clipPath id="GF"><path d="M9.305 65.563l19.84-26.36v26.36"/></clipPath><clipPath id="GG"><path d="M27.574 39H30v2.375h-2.426zm0 0"/></clipPath><clipPath id="GH"><path d="M9.305 65.563l19.84-26.36v26.36"/></clipPath><clipPath id="GI"><path d="M9 39h1.188v.54H9zm0 0"/></clipPath><clipPath id="GJ"><path d="M9.305 65.563l19.84-26.36v26.36"/></clipPath><clipPath id="GK"><path d="M9.19 39h2.836v.54H9.19zm0 0"/></clipPath><clipPath id="GL"><path d="M9.305 65.563l19.84-26.36v26.36"/></clipPath><clipPath id="GM"><path d="M11.03 39h2.832v.54H11.03zm0 0"/></clipPath><clipPath id="GN"><path d="M9.305 65.563l19.84-26.36v26.36"/></clipPath><clipPath id="GO"><path d="M12.867 39h2.836v.54h-2.836zm0 0"/></clipPath><clipPath id="GP"><path d="M9.305 65.563l19.84-26.36v26.36"/></clipPath><clipPath id="GQ"><path d="M14.707 39h2.836v.54h-2.836zm0 0"/></clipPath><clipPath id="GR"><path d="M9.305 65.563l19.84-26.36v26.36"/></clipPath><clipPath id="GS"><path d="M16.547 39h2.832v.54h-2.832zm0 0"/></clipPath><clipPath id="GT"><path d="M9.305 65.563l19.84-26.36v26.36"/></clipPath><clipPath id="GU"><path d="M18.383 39h2.836v.54h-2.836zm0 0"/></clipPath><clipPath id="GV"><path d="M9.305 65.563l19.84-26.36v26.36"/></clipPath><clipPath id="GW"><path d="M20.223 39h2.836v.54h-2.836zm0 0"/></clipPath><clipPath id="GX"><path d="M9.305 65.563l19.84-26.36v26.36"/></clipPath><clipPath id="GY"><path d="M22.063 39h2.832v.54h-2.832zm0 0"/></clipPath><clipPath id="GZ"><path d="M9.305 65.563l19.84-26.36v26.36"/></clipPath><clipPath id="Ga"><path d="M23.898 39h2.836v.54h-2.836zm0 0"/></clipPath><clipPath id="Gb"><path d="M9.305 65.563l19.84-26.36v26.36"/></clipPath><clipPath id="Gc"><path d="M25.738 39h2.832v.54h-2.832zm0 0"/></clipPath><clipPath id="Gd"><path d="M9.305 65.563l19.84-26.36v26.36"/></clipPath><clipPath id="Ge"><path d="M27.574 39H30v.54h-2.426zm0 0"/></clipPath><clipPath id="Gf"><path d="M9.305 65.563l19.84-26.36v26.36"/></clipPath><clipPath id="Gg"><path d="M6 71h9v7.145H6zm0 0"/></clipPath><clipPath id="Gh"><path d="M145 71h9v7.145h-9zm0 0"/></clipPath><clipPath id="Gi"><path d="M77 72h6v6.145h-6zm0 0"/></clipPath><path id="Gj" d="M52.29 4.617c.176.043.945.29 1.426.555v-1.11c-.48.27-1.25.512-1.426.555zm0 0"/><path id="Gk" d="M108.05 4.617c-.176-.043-.945-.285-1.426-.555v1.11c.48-.266 1.25-.512 1.426-.555zm0 0"/></defs><g class="B C D J"><path d="M9.305 65.563l42.52-56.69h56.69l42.52 56.69zm0 0"/><path d="M51.824 8.87v56.7m56.692-56.7v56.7m-79.37-26.357v26.36"/></g><g clip-path="url(#M)" class="B C D E"><g clip-path="url(#N)"><path d="M10.188 67.113l-2.832-2.836"/></g></g><g clip-path="url(#O)" class="B C D E"><g clip-path="url(#P)"><path d="M12.027 67.113L9.19 64.277"/></g></g><g clip-path="url(#Q)" class="B C D E"><g clip-path="url(#R)"><path d="M13.863 67.113l-2.832-2.836"/></g></g><g clip-path="url(#S)" class="B C D E"><g clip-path="url(#T)"><path d="M15.703 67.113l-2.836-2.836"/></g></g><g clip-path="url(#U)" class="B C D E"><g clip-path="url(#V)"><path d="M17.543 67.113l-2.836-2.836"/></g></g><g clip-path="url(#W)" class="B C D E"><g clip-path="url(#X)"><path d="M19.38 67.113l-2.832-2.836"/></g></g><g clip-path="url(#Y)" class="B C D E"><g clip-path="url(#Z)"><path d="M21.22 67.113l-2.836-2.836"/></g></g><g clip-path="url(#a)" class="B C D E"><g clip-path="url(#b)"><path d="M23.06 67.113l-2.836-2.836"/></g></g><g clip-path="url(#c)" class="B C D E"><g clip-path="url(#d)"><path d="M24.895 67.113l-2.832-2.836"/></g></g><g clip-path="url(#e)" class="B C D E"><g clip-path="url(#f)"><path d="M26.734 67.113l-2.836-2.836"/></g></g><g clip-path="url(#g)" class="B C D E"><g clip-path="url(#h)"><path d="M28.57 67.113l-2.832-2.836"/></g></g><g clip-path="url(#i)" class="B C D E"><g clip-path="url(#j)"><path d="M30.4 67.113l-2.836-2.836"/></g></g><g clip-path="url(#k)" class="B C D E"><g clip-path="url(#l)"><path d="M10.188 65.273L7.355 62.44"/></g></g><g clip-path="url(#m)" class="B C D E"><g clip-path="url(#n)"><path d="M12.027 65.273L9.19 62.44"/></g></g><g clip-path="url(#o)" class="B C D E"><g clip-path="url(#p)"><path d="M13.863 65.273L11.03 62.44"/></g></g><g clip-path="url(#q)" class="B C D E"><g clip-path="url(#r)"><path d="M15.703 65.273l-2.836-2.832"/></g></g><g clip-path="url(#s)" class="B C D E"><g clip-path="url(#t)"><path d="M17.543 65.273l-2.836-2.832"/></g></g><g clip-path="url(#u)" class="B C D E"><g clip-path="url(#v)"><path d="M19.38 65.273l-2.832-2.832"/></g></g><g clip-path="url(#w)" class="B C D E"><g clip-path="url(#x)"><path d="M21.22 65.273l-2.836-2.832"/></g></g><g clip-path="url(#y)" class="B C D E"><g clip-path="url(#z)"><path d="M23.06 65.273l-2.836-2.832"/></g></g><g clip-path="url(#AA)" class="B C D E"><g clip-path="url(#AB)"><path d="M24.895 65.273l-2.832-2.832"/></g></g><g clip-path="url(#AC)" class="B C D E"><g clip-path="url(#AD)"><path d="M26.734 65.273l-2.836-2.832"/></g></g><g clip-path="url(#AE)" class="B C D E"><g clip-path="url(#AF)"><path d="M28.57 65.273l-2.832-2.832"/></g></g><g clip-path="url(#AG)" class="B C D E"><g clip-path="url(#AH)"><path d="M30.4 65.273l-2.836-2.832"/></g></g><g clip-path="url(#AI)" class="B C D E"><g clip-path="url(#AJ)"><path d="M10.188 63.438l-2.832-2.836"/></g></g><g clip-path="url(#AK)" class="B C D E"><g clip-path="url(#AL)"><path d="M12.027 63.438L9.19 60.602"/></g></g><g clip-path="url(#AM)" class="B C D E"><g clip-path="url(#AN)"><path d="M13.863 63.438l-2.832-2.836"/></g></g><g clip-path="url(#AO)" class="B C D E"><g clip-path="url(#AP)"><path d="M15.703 63.438l-2.836-2.836"/></g></g><g clip-path="url(#AQ)" class="B C D E"><g clip-path="url(#AR)"><path d="M17.543 63.438l-2.836-2.836"/></g></g><g clip-path="url(#AS)" class="B C D E"><g clip-path="url(#AT)"><path d="M19.38 63.438l-2.832-2.836"/></g></g><g clip-path="url(#AU)" class="B C D E"><g clip-path="url(#AV)"><path d="M21.22 63.438l-2.836-2.836"/></g></g><g clip-path="url(#AW)" class="B C D E"><g clip-path="url(#AX)"><path d="M23.06 63.438l-2.836-2.836"/></g></g><g clip-path="url(#AY)" class="B C D E"><g clip-path="url(#AZ)"><path d="M24.895 63.438l-2.832-2.836"/></g></g><g clip-path="url(#Aa)" class="B C D E"><g clip-path="url(#Ab)"><path d="M26.734 63.438l-2.836-2.836"/></g></g><g clip-path="url(#Ac)" class="B C D E"><g clip-path="url(#Ad)"><path d="M28.57 63.438l-2.832-2.836"/></g></g><g clip-path="url(#Ae)" class="B C D E"><g clip-path="url(#Af)"><path d="M30.4 63.438l-2.836-2.836"/></g></g><g clip-path="url(#Ag)" class="B C D E"><g clip-path="url(#Ah)"><path d="M10.188 61.598l-2.832-2.832"/></g></g><g clip-path="url(#Ai)" class="B C D E"><g clip-path="url(#Aj)"><path d="M12.027 61.598L9.19 58.766"/></g></g><g clip-path="url(#Ak)" class="B C D E"><g clip-path="url(#Al)"><path d="M13.863 61.598l-2.832-2.832"/></g></g><g clip-path="url(#Am)" class="B C D E"><g clip-path="url(#An)"><path d="M15.703 61.598l-2.836-2.832"/></g></g><g clip-path="url(#Ao)" class="B C D E"><g clip-path="url(#Ap)"><path d="M17.543 61.598l-2.836-2.832"/></g></g><g clip-path="url(#Aq)" class="B C D E"><g clip-path="url(#Ar)"><path d="M19.38 61.598l-2.832-2.832"/></g></g><g clip-path="url(#As)" class="B C D E"><g clip-path="url(#At)"><path d="M21.22 61.598l-2.836-2.832"/></g></g><g clip-path="url(#Au)" class="B C D E"><g clip-path="url(#Av)"><path d="M23.06 61.598l-2.836-2.832"/></g></g><g clip-path="url(#Aw)" class="B C D E"><g clip-path="url(#Ax)"><path d="M24.895 61.598l-2.832-2.832"/></g></g><g clip-path="url(#Ay)" class="B C D E"><g clip-path="url(#Az)"><path d="M26.734 61.598l-2.836-2.832"/></g></g><g clip-path="url(#BA)" class="B C D E"><g clip-path="url(#BB)"><path d="M28.57 61.598l-2.832-2.832"/></g></g><g clip-path="url(#BC)" class="B C D E"><g clip-path="url(#BD)"><path d="M30.4 61.598l-2.836-2.832"/></g></g><g clip-path="url(#BE)" class="B C D E"><g clip-path="url(#BF)"><path d="M10.188 59.762l-2.832-2.836"/></g></g><g clip-path="url(#BG)" class="B C D E"><g clip-path="url(#BH)"><path d="M12.027 59.762L9.19 56.926"/></g></g><g clip-path="url(#BI)" class="B C D E"><g clip-path="url(#BJ)"><path d="M13.863 59.762l-2.832-2.836"/></g></g><g clip-path="url(#BK)" class="B C D E"><g clip-path="url(#BL)"><path d="M15.703 59.762l-2.836-2.836"/></g></g><g clip-path="url(#BM)" class="B C D E"><g clip-path="url(#BN)"><path d="M17.543 59.762l-2.836-2.836"/></g></g><g clip-path="url(#BO)" class="B C D E"><g clip-path="url(#BP)"><path d="M19.38 59.762l-2.832-2.836"/></g></g><g clip-path="url(#BQ)" class="B C D E"><g clip-path="url(#BR)"><path d="M21.22 59.762l-2.836-2.836"/></g></g><g clip-path="url(#BS)" class="B C D E"><g clip-path="url(#BT)"><path d="M23.06 59.762l-2.836-2.836"/></g></g><g clip-path="url(#BU)" class="B C D E"><g clip-path="url(#BV)"><path d="M24.895 59.762l-2.832-2.836"/></g></g><g clip-path="url(#BW)" class="B C D E"><g clip-path="url(#BX)"><path d="M26.734 59.762l-2.836-2.836"/></g></g><g clip-path="url(#BY)" class="B C D E"><g clip-path="url(#BZ)"><path d="M28.57 59.762l-2.832-2.836"/></g></g><g clip-path="url(#Ba)" class="B C D E"><g clip-path="url(#Bb)"><path d="M30.4 59.762l-2.836-2.836"/></g></g><g clip-path="url(#Bc)" class="B C D E"><g clip-path="url(#Bd)"><path d="M10.188 57.922l-2.832-2.836"/></g></g><g clip-path="url(#Be)" class="B C D E"><g clip-path="url(#Bf)"><path d="M12.027 57.922L9.19 55.086"/></g></g><g clip-path="url(#Bg)" class="B C D E"><g clip-path="url(#Bh)"><path d="M13.863 57.922l-2.832-2.836"/></g></g><g clip-path="url(#Bi)" class="B C D E"><g clip-path="url(#Bj)"><path d="M15.703 57.922l-2.836-2.836"/></g></g><g clip-path="url(#Bk)" class="B C D E"><g clip-path="url(#Bl)"><path d="M17.543 57.922l-2.836-2.836"/></g></g><g clip-path="url(#Bm)" class="B C D E"><g clip-path="url(#Bn)"><path d="M19.38 57.922l-2.832-2.836"/></g></g><g clip-path="url(#Bo)" class="B C D E"><g clip-path="url(#Bp)"><path d="M21.22 57.922l-2.836-2.836"/></g></g><g clip-path="url(#Bq)" class="B C D E"><g clip-path="url(#Br)"><path d="M23.06 57.922l-2.836-2.836"/></g></g><g clip-path="url(#Bs)" class="B C D E"><g clip-path="url(#Bt)"><path d="M24.895 57.922l-2.832-2.836"/></g></g><g clip-path="url(#Bu)" class="B C D E"><g clip-path="url(#Bv)"><path d="M26.734 57.922l-2.836-2.836"/></g></g><g clip-path="url(#Bw)" class="B C D E"><g clip-path="url(#Bx)"><path d="M28.57 57.922l-2.832-2.836"/></g></g><g clip-path="url(#By)" class="B C D E"><g clip-path="url(#Bz)"><path d="M30.4 57.922l-2.836-2.836"/></g></g><g clip-path="url(#CA)" class="B C D E"><g clip-path="url(#CB)"><path d="M10.188 56.082L7.355 53.25"/></g></g><g clip-path="url(#CC)" class="B C D E"><g clip-path="url(#CD)"><path d="M12.027 56.082L9.19 53.25"/></g></g><g clip-path="url(#CE)" class="B C D E"><g clip-path="url(#CF)"><path d="M13.863 56.082L11.03 53.25"/></g></g><g clip-path="url(#CG)" class="B C D E"><g clip-path="url(#CH)"><path d="M15.703 56.082l-2.836-2.832"/></g></g><g clip-path="url(#CI)" class="B C D E"><g clip-path="url(#CJ)"><path d="M17.543 56.082l-2.836-2.832"/></g></g><g clip-path="url(#CK)" class="B C D E"><g clip-path="url(#CL)"><path d="M19.38 56.082l-2.832-2.832"/></g></g><g clip-path="url(#CM)" class="B C D E"><g clip-path="url(#CN)"><path d="M21.22 56.082l-2.836-2.832"/></g></g><g clip-path="url(#CO)" class="B C D E"><g clip-path="url(#CP)"><path d="M23.06 56.082l-2.836-2.832"/></g></g><g clip-path="url(#CQ)" class="B C D E"><g clip-path="url(#CR)"><path d="M24.895 56.082l-2.832-2.832"/></g></g><g clip-path="url(#CS)" class="B C D E"><g clip-path="url(#CT)"><path d="M26.734 56.082l-2.836-2.832"/></g></g><g clip-path="url(#CU)" class="B C D E"><g clip-path="url(#CV)"><path d="M28.57 56.082l-2.832-2.832"/></g></g><g clip-path="url(#CW)" class="B C D E"><g clip-path="url(#CX)"><path d="M30.4 56.082l-2.836-2.832"/></g></g><g clip-path="url(#CY)" class="B C D E"><g clip-path="url(#CZ)"><path d="M10.188 54.246L7.355 51.4"/></g></g><g clip-path="url(#Ca)" class="B C D E"><g clip-path="url(#Cb)"><path d="M12.027 54.246L9.19 51.4"/></g></g><g clip-path="url(#Cc)" class="B C D E"><g clip-path="url(#Cd)"><path d="M13.863 54.246L11.03 51.4"/></g></g><g clip-path="url(#Ce)" class="B C D E"><g clip-path="url(#Cf)"><path d="M15.703 54.246L12.867 51.4"/></g></g><g clip-path="url(#Cg)" class="B C D E"><g clip-path="url(#Ch)"><path d="M17.543 54.246L14.707 51.4"/></g></g><g clip-path="url(#Ci)" class="B C D E"><g clip-path="url(#Cj)"><path d="M19.38 54.246L16.547 51.4"/></g></g><g clip-path="url(#Ck)" class="B C D E"><g clip-path="url(#Cl)"><path d="M21.22 54.246L18.383 51.4"/></g></g><g clip-path="url(#Cm)" class="B C D E"><g clip-path="url(#Cn)"><path d="M23.06 54.246L20.223 51.4"/></g></g><g clip-path="url(#Co)" class="B C D E"><g clip-path="url(#Cp)"><path d="M24.895 54.246L22.063 51.4"/></g></g><g clip-path="url(#Cq)" class="B C D E"><g clip-path="url(#Cr)"><path d="M26.734 54.246L23.898 51.4"/></g></g><g clip-path="url(#Cs)" class="B C D E"><g clip-path="url(#Ct)"><path d="M28.57 54.246L25.738 51.4"/></g></g><g clip-path="url(#Cu)" class="B C D E"><g clip-path="url(#Cv)"><path d="M30.4 54.246L27.574 51.4"/></g></g><g clip-path="url(#Cw)" class="B C D E"><g clip-path="url(#Cx)"><path d="M10.188 52.406L7.355 49.57"/></g></g><g clip-path="url(#Cy)" class="B C D E"><g clip-path="url(#Cz)"><path d="M12.027 52.406L9.19 49.57"/></g></g><g clip-path="url(#DA)" class="B C D E"><g clip-path="url(#DB)"><path d="M13.863 52.406L11.03 49.57"/></g></g><g clip-path="url(#DC)" class="B C D E"><g clip-path="url(#DD)"><path d="M15.703 52.406l-2.836-2.836"/></g></g><g clip-path="url(#DE)" class="B C D E"><g clip-path="url(#DF)"><path d="M17.543 52.406l-2.836-2.836"/></g></g><g clip-path="url(#DG)" class="B C D E"><g clip-path="url(#DH)"><path d="M19.38 52.406l-2.832-2.836"/></g></g><g clip-path="url(#DI)" class="B C D E"><g clip-path="url(#DJ)"><path d="M21.22 52.406l-2.836-2.836"/></g></g><g clip-path="url(#DK)" class="B C D E"><g clip-path="url(#DL)"><path d="M23.06 52.406l-2.836-2.836"/></g></g><g clip-path="url(#DM)" class="B C D E"><g clip-path="url(#DN)"><path d="M24.895 52.406l-2.832-2.836"/></g></g><g clip-path="url(#DO)" class="B C D E"><g clip-path="url(#DP)"><path d="M26.734 52.406l-2.836-2.836"/></g></g><g clip-path="url(#DQ)" class="B C D E"><g clip-path="url(#DR)"><path d="M28.57 52.406l-2.832-2.836"/></g></g><g clip-path="url(#DS)" class="B C D E"><g clip-path="url(#DT)"><path d="M30.4 52.406l-2.836-2.836"/></g></g><g clip-path="url(#DU)" class="B C D E"><g clip-path="url(#DV)"><path d="M10.188 50.566l-2.832-2.832"/></g></g><g clip-path="url(#DW)" class="B C D E"><g clip-path="url(#DX)"><path d="M12.027 50.566L9.19 47.734"/></g></g><g clip-path="url(#DY)" class="B C D E"><g clip-path="url(#DZ)"><path d="M13.863 50.566l-2.832-2.832"/></g></g><g clip-path="url(#Da)" class="B C D E"><g clip-path="url(#Db)"><path d="M15.703 50.566l-2.836-2.832"/></g></g><g clip-path="url(#Dc)" class="B C D E"><g clip-path="url(#Dd)"><path d="M17.543 50.566l-2.836-2.832"/></g></g><g clip-path="url(#De)" class="B C D E"><g clip-path="url(#Df)"><path d="M19.38 50.566l-2.832-2.832"/></g></g><g clip-path="url(#Dg)" class="B C D E"><g clip-path="url(#Dh)"><path d="M21.22 50.566l-2.836-2.832"/></g></g><g clip-path="url(#Di)" class="B C D E"><g clip-path="url(#Dj)"><path d="M23.06 50.566l-2.836-2.832"/></g></g><g clip-path="url(#Dk)" class="B C D E"><g clip-path="url(#Dl)"><path d="M24.895 50.566l-2.832-2.832"/></g></g><g clip-path="url(#Dm)" class="B C D E"><g clip-path="url(#Dn)"><path d="M26.734 50.566l-2.836-2.832"/></g></g><g clip-path="url(#Do)" class="B C D E"><g clip-path="url(#Dp)"><path d="M28.57 50.566l-2.832-2.832"/></g></g><g clip-path="url(#Dq)" class="B C D E"><g clip-path="url(#Dr)"><path d="M30.4 50.566l-2.836-2.832"/></g></g><g clip-path="url(#Ds)" class="B C D E"><g clip-path="url(#Dt)"><path d="M10.188 48.73l-2.832-2.836"/></g></g><g clip-path="url(#Du)" class="B C D E"><g clip-path="url(#Dv)"><path d="M12.027 48.73L9.19 45.895"/></g></g><g clip-path="url(#Dw)" class="B C D E"><g clip-path="url(#Dx)"><path d="M13.863 48.73l-2.832-2.836"/></g></g><g clip-path="url(#Dy)" class="B C D E"><g clip-path="url(#Dz)"><path d="M15.703 48.73l-2.836-2.836"/></g></g><g clip-path="url(#EA)" class="B C D E"><g clip-path="url(#EB)"><path d="M17.543 48.73l-2.836-2.836"/></g></g><g clip-path="url(#EC)" class="B C D E"><g clip-path="url(#ED)"><path d="M19.38 48.73l-2.832-2.836"/></g></g><g clip-path="url(#EE)" class="B C D E"><g clip-path="url(#EF)"><path d="M21.22 48.73l-2.836-2.836"/></g></g><g clip-path="url(#EG)" class="B C D E"><g clip-path="url(#EH)"><path d="M23.06 48.73l-2.836-2.836"/></g></g><g clip-path="url(#EI)" class="B C D E"><g clip-path="url(#EJ)"><path d="M24.895 48.73l-2.832-2.836"/></g></g><g clip-path="url(#EK)" class="B C D E"><g clip-path="url(#EL)"><path d="M26.734 48.73l-2.836-2.836"/></g></g><g clip-path="url(#EM)" class="B C D E"><g clip-path="url(#EN)"><path d="M28.57 48.73l-2.832-2.836"/></g></g><g clip-path="url(#EO)" class="B C D E"><g clip-path="url(#EP)"><path d="M30.4 48.73l-2.836-2.836"/></g></g><g clip-path="url(#EQ)" class="B C D E"><g clip-path="url(#ER)"><path d="M10.188 46.89L7.355 44.06"/></g></g><g clip-path="url(#ES)" class="B C D E"><g clip-path="url(#ET)"><path d="M12.027 46.89L9.19 44.06"/></g></g><g clip-path="url(#EU)" class="B C D E"><g clip-path="url(#EV)"><path d="M13.863 46.89L11.03 44.06"/></g></g><g clip-path="url(#EW)" class="B C D E"><g clip-path="url(#EX)"><path d="M15.703 46.89l-2.836-2.832"/></g></g><g clip-path="url(#EY)" class="B C D E"><g clip-path="url(#EZ)"><path d="M17.543 46.89l-2.836-2.832"/></g></g><g clip-path="url(#Ea)" class="B C D E"><g clip-path="url(#Eb)"><path d="M19.38 46.89l-2.832-2.832"/></g></g><g clip-path="url(#Ec)" class="B C D E"><g clip-path="url(#Ed)"><path d="M21.22 46.89l-2.836-2.832"/></g></g><g clip-path="url(#Ee)" class="B C D E"><g clip-path="url(#Ef)"><path d="M23.06 46.89l-2.836-2.832"/></g></g><g clip-path="url(#Eg)" class="B C D E"><g clip-path="url(#Eh)"><path d="M24.895 46.89l-2.832-2.832"/></g></g><g clip-path="url(#Ei)" class="B C D E"><g clip-path="url(#Ej)"><path d="M26.734 46.89l-2.836-2.832"/></g></g><g clip-path="url(#Ek)" class="B C D E"><g clip-path="url(#El)"><path d="M28.57 46.89l-2.832-2.832"/></g></g><g clip-path="url(#Em)" class="B C D E"><g clip-path="url(#En)"><path d="M30.4 46.89l-2.836-2.832"/></g></g><g clip-path="url(#Eo)" class="B C D E"><g clip-path="url(#Ep)"><path d="M10.188 45.055L7.355 42.22"/></g></g><g clip-path="url(#Eq)" class="B C D E"><g clip-path="url(#Er)"><path d="M12.027 45.055L9.19 42.22"/></g></g><g clip-path="url(#Es)" class="B C D E"><g clip-path="url(#Et)"><path d="M13.863 45.055L11.03 42.22"/></g></g><g clip-path="url(#Eu)" class="B C D E"><g clip-path="url(#Ev)"><path d="M15.703 45.055l-2.836-2.836"/></g></g><g clip-path="url(#Ew)" class="B C D E"><g clip-path="url(#Ex)"><path d="M17.543 45.055l-2.836-2.836"/></g></g><g clip-path="url(#Ey)" class="B C D E"><g clip-path="url(#Ez)"><path d="M19.38 45.055l-2.832-2.836"/></g></g><g clip-path="url(#FA)" class="B C D E"><g clip-path="url(#FB)"><path d="M21.22 45.055l-2.836-2.836"/></g></g><g clip-path="url(#FC)" class="B C D E"><g clip-path="url(#FD)"><path d="M23.06 45.055l-2.836-2.836"/></g></g><g clip-path="url(#FE)" class="B C D E"><g clip-path="url(#FF)"><path d="M24.895 45.055l-2.832-2.836"/></g></g><g clip-path="url(#FG)" class="B C D E"><g clip-path="url(#FH)"><path d="M26.734 45.055l-2.836-2.836"/></g></g><g clip-path="url(#FI)" class="B C D E"><g clip-path="url(#FJ)"><path d="M28.57 45.055l-2.832-2.836"/></g></g><g clip-path="url(#FK)" class="B C D E"><g clip-path="url(#FL)"><path d="M30.4 45.055l-2.836-2.836"/></g></g><g clip-path="url(#FM)" class="B C D E"><g clip-path="url(#FN)"><path d="M10.188 43.215L7.355 40.38"/></g></g><g clip-path="url(#FO)" class="B C D E"><g clip-path="url(#FP)"><path d="M12.027 43.215L9.19 40.38"/></g></g><g clip-path="url(#FQ)" class="B C D E"><g clip-path="url(#FR)"><path d="M13.863 43.215L11.03 40.38"/></g></g><g clip-path="url(#FS)" class="B C D E"><g clip-path="url(#FT)"><path d="M15.703 43.215l-2.836-2.836"/></g></g><g clip-path="url(#FU)" class="B C D E"><g clip-path="url(#FV)"><path d="M17.543 43.215l-2.836-2.836"/></g></g><g clip-path="url(#FW)" class="B C D E"><g clip-path="url(#FX)"><path d="M19.38 43.215l-2.832-2.836"/></g></g><g clip-path="url(#FY)" class="B C D E"><g clip-path="url(#FZ)"><path d="M21.22 43.215l-2.836-2.836"/></g></g><g clip-path="url(#Fa)" class="B C D E"><g clip-path="url(#Fb)"><path d="M23.06 43.215l-2.836-2.836"/></g></g><g clip-path="url(#Fc)" class="B C D E"><g clip-path="url(#Fd)"><path d="M24.895 43.215l-2.832-2.836"/></g></g><g clip-path="url(#Fe)" class="B C D E"><g clip-path="url(#Ff)"><path d="M26.734 43.215l-2.836-2.836"/></g></g><g clip-path="url(#Fg)" class="B C D E"><g clip-path="url(#Fh)"><path d="M28.57 43.215l-2.832-2.836"/></g></g><g clip-path="url(#Fi)" class="B C D E"><g clip-path="url(#Fj)"><path d="M30.4 43.215l-2.836-2.836"/></g></g><g clip-path="url(#Fk)" class="B C D E"><g clip-path="url(#Fl)"><path d="M10.188 41.375l-2.832-2.832"/></g></g><g clip-path="url(#Fm)" class="B C D E"><g clip-path="url(#Fn)"><path d="M12.027 41.375L9.19 38.543"/></g></g><g clip-path="url(#Fo)" class="B C D E"><g clip-path="url(#Fp)"><path d="M13.863 41.375l-2.832-2.832"/></g></g><g clip-path="url(#Fq)" class="B C D E"><g clip-path="url(#Fr)"><path d="M15.703 41.375l-2.836-2.832"/></g></g><g clip-path="url(#Fs)" class="B C D E"><g clip-path="url(#Ft)"><path d="M17.543 41.375l-2.836-2.832"/></g></g><g clip-path="url(#Fu)" class="B C D E"><g clip-path="url(#Fv)"><path d="M19.38 41.375l-2.832-2.832"/></g></g><g clip-path="url(#Fw)" class="B C D E"><g clip-path="url(#Fx)"><path d="M21.22 41.375l-2.836-2.832"/></g></g><g clip-path="url(#Fy)" class="B C D E"><g clip-path="url(#Fz)"><path d="M23.06 41.375l-2.836-2.832"/></g></g><g clip-path="url(#GA)" class="B C D E"><g clip-path="url(#GB)"><path d="M24.895 41.375l-2.832-2.832"/></g></g><g clip-path="url(#GC)" class="B C D E"><g clip-path="url(#GD)"><path d="M26.734 41.375l-2.836-2.832"/></g></g><g clip-path="url(#GE)" class="B C D E"><g clip-path="url(#GF)"><path d="M28.57 41.375l-2.832-2.832"/></g></g><g clip-path="url(#GG)" class="B C D E"><g clip-path="url(#GH)"><path d="M30.4 41.375l-2.836-2.832"/></g></g><g clip-path="url(#GI)" class="B C D E"><g clip-path="url(#GJ)"><path d="M10.188 39.54l-2.832-2.836"/></g></g><g clip-path="url(#GK)" class="B C D E"><g clip-path="url(#GL)"><path d="M12.027 39.54L9.19 36.703"/></g></g><g clip-path="url(#GM)" class="B C D E"><g clip-path="url(#GN)"><path d="M13.863 39.54l-2.832-2.836"/></g></g><g clip-path="url(#GO)" class="B C D E"><g clip-path="url(#GP)"><path d="M15.703 39.54l-2.836-2.836"/></g></g><g clip-path="url(#GQ)" class="B C D E"><g clip-path="url(#GR)"><path d="M17.543 39.54l-2.836-2.836"/></g></g><g clip-path="url(#GS)" class="B C D E"><g clip-path="url(#GT)"><path d="M19.38 39.54l-2.832-2.836"/></g></g><g clip-path="url(#GU)" class="B C D E"><g clip-path="url(#GV)"><path d="M21.22 39.54l-2.836-2.836"/></g></g><g clip-path="url(#GW)" class="B C D E"><g clip-path="url(#GX)"><path d="M23.06 39.54l-2.836-2.836"/></g></g><g clip-path="url(#GY)" class="B C D E"><g clip-path="url(#GZ)"><path d="M24.895 39.54l-2.832-2.836"/></g></g><g clip-path="url(#Ga)" class="B C D E"><g clip-path="url(#Gb)"><path d="M26.734 39.54l-2.836-2.836"/></g></g><g clip-path="url(#Gc)" class="B C D E"><g clip-path="url(#Gd)"><path d="M28.57 39.54l-2.832-2.836"/></g></g><g clip-path="url(#Ge)" class="B C D E"><g clip-path="url(#Gf)"><path d="M30.4 39.54l-2.836-2.836"/></g></g><g class="H"><use xlink:href="#A" x="2.158" y="67.777"/><use xlink:href="#B" x="153.323" y="67.777"/><use xlink:href="#C" x="44.298" y="6.584"/><use xlink:href="#D" x="110.803" y="6.584"/><use xlink:href="#E" x="110.803" y="63.277"/><use xlink:href="#F" x="48.868" y="72.277"/><use xlink:href="#G" x="31.433" y="41.415"/><use xlink:href="#H" x="31.433" y="63.276"/></g><g class="B C I"><path d="M56.074 10.762v52.9" class="D"/><g class="H"><path d="M1.426.001C1.25.044.48.3 0 .555v-1.11c.48.266 1.25.512 1.426.555zm0 0" transform="matrix(0 -1 -1 0 56.07503 10.76165)"/><path d="M1.425-.001C1.25.042.48.288-.001.554v-1.11c.48.266 1.25.512 1.426.555zm0 0" transform="matrix(0 1 1 0 56.07503 63.67275)"/></g></g><path d="M59.453 37.22a3.38 3.38 0 0 0-3.379-3.379c-1.863 0-3.375 1.512-3.375 3.38s1.512 3.375 3.375 3.375 3.38-1.512 3.38-3.375zm0 0" class="K"/><use xlink:href="#I" x="54.209" y="39.466" class="H"/><g class="D B C"><path d="M51.824 8.87V3.2m56.692 5.67V3.2" class="J"/><path d="M53.715 4.617h52.9" class="I"/></g><g class="H B C I"><use xlink:href="#Gj"/><use xlink:href="#Gk"/></g><path d="M83.262 4.617a3.09 3.09 0 1 0-6.184 0c0 1.707 1.383 3.094 3.094 3.094s3.1-1.387 3.1-3.094zm0 0" class="K"/><use xlink:href="#J" x="78.779" y="6.868" class="H"/><g class="D B C"><path d="M9.305 65.563v5.672m19.84-5.672v5.672" class="J"/><path d="M11.195 69.816h16.06" class="I"/></g><path d="M9.77 69.816a7.87 7.87 0 0 1 1.426.555v-1.1c-.48.266-1.25.512-1.426.555zm18.9 0a7.87 7.87 0 0 1-1.426-.555v1.1c.48-.266 1.25-.512 1.426-.555zm0 0" class="H B C I"/><path d="M21.992 69.816a2.77 2.77 0 0 0-2.77-2.77 2.77 2.77 0 0 0-2.77 2.77c0 1.527 1.242 2.77 2.77 2.77a2.77 2.77 0 0 0 2.77-2.77zm0 0" class="K"/><use xlink:href="#K" x="17.374" y="71.21" class="H"/><g class="D B C"><path d="M9.305 65.563v11.34m141.73-11.34v11.34" class="J"/><path d="M11.195 75.484h137.95" class="I"/></g><use xlink:href="#Gj" x="-42.52" y="70.867" class="H"/><g clip-path="url(#Gg)" class="B C D I"><path d="M9.77 75.484c.176.043.945.29 1.426.555v-1.11c-.48.27-1.25.512-1.426.555zm0 0"/></g><use xlink:href="#Gk" x="42.52" y="70.867" class="H"/><g clip-path="url(#Gh)" class="B C D I"><path d="M150.57 75.484c-.176-.043-.945-.285-1.426-.555v1.11c.48-.266 1.25-.512 1.426-.555zm0 0"/></g><g clip-path="url(#Gi)" class="K"><path d="M82.828 75.484c0-1.47-1.19-2.656-2.656-2.656a2.66 2.66 0 0 0-2.66 2.656 2.66 2.66 0 0 0 2.66 2.66 2.66 2.66 0 0 0 2.656-2.66zm0 0"/></g><use xlink:href="#L" x="78.458" y="76.88" class="H"/></svg>