<svg xmlns="http://www.w3.org/2000/svg" xmlns:xlink="http://www.w3.org/1999/xlink" width="259.557" height="243.216" viewBox="0 0 194.668 182.412" xmlns:v="https://vecta.io/nano"><style><![CDATA[.B{stroke-miterlimit:10}.C{fill:none}.D{overflow:visible}.E{stroke:none}.F{fill:rgb(0%,0%,0%)}.G{stroke-width:.399}.H{stroke:rgb(50%,50%,50%)}.I{stroke:rgb(0%,0%,0%)}.J{stroke-dasharray:2.98883,2.98883}.K{stroke-width:.398}.L{stroke-width:.199}.M{stroke-width:.797}.N{stroke:rgb(0%,62.353516%,95.684814%)}.O{stroke:rgb(84.70459%,18.824768%,19.216919%)}]]></style><defs><symbol id="A" class="D"><path d="M4.47-2c0-1.187-.812-2.187-1.89-2.187-.47 0-.906.156-1.266.516v-1.953c.203.063.53.125.844.125 1.234 0 1.938-.906 1.938-1.03 0-.062-.03-.11-.11-.11 0 0-.03 0-.078.03a3.22 3.22 0 0 1-1.359.297c-.39 0-.86-.078-1.328-.28-.078-.03-.094-.03-.11-.03-.11 0-.11.078-.11.234v2.953c0 .172 0 .25.14.25.078 0 .094-.016.14-.078.11-.156.47-.703 1.28-.703.516 0 .766.453.844.64.156.375.188.75.188 1.25 0 .36 0 .953-.25 1.375-.234.39-.61.64-1.062.64-.72 0-1.297-.53-1.47-1.11.03 0 .063.016.172.016a.48.48 0 0 0 .5-.484c0-.25-.172-.5-.5-.5-.14 0-.484.078-.484.53C.5-.75 1.188.22 2.297.22 3.453.22 4.47-.734 4.47-2zm0 0" class="E"/></symbol><symbol id="B" class="D"><path d="M4.75-6.078c.078-.11.078-.125.078-.344H2.406c-1.203 0-1.234-.125-1.266-.312H.89L.563-4.687h.25c.03-.156.11-.78.25-.906.063-.062.844-.062.97-.062h2.063l-1.11 1.578C2.078-2.734 1.75-1.344 1.75-.328c0 .094 0 .547.47.547.453 0 .453-.453.453-.547v-.516c0-.547.03-1.094.11-1.625.047-.234.172-1.094.625-1.703zm0 0" class="E"/></symbol><symbol id="C" class="D"><path d="M4.078-2.297h2.78c.14 0 .328 0 .328-.203 0-.187-.187-.187-.328-.187h-2.78v-2.797c0-.14 0-.328-.203-.328s-.203.188-.203.328v2.797H.89c-.14 0-.328 0-.328.188 0 .203.188.203.328.203h2.78V.5c0 .14 0 .328.203.328S4.078.64 4.078.5zm0 0" class="E"/></symbol><symbol id="D" class="D"><path d="M2.938-1.64v.86c0 .36-.03.47-.766.47H1.97V0c.406-.03.922-.03 1.344-.03l1.36.03v-.312h-.22c-.734 0-.75-.11-.75-.47v-.86h.984v-.312h-.984v-4.53c0-.203 0-.266-.172-.266-.078 0-.11 0-.187.125L.28-1.953v.313zm.047-.312H.563l2.422-3.72zm0 0" class="E"/></symbol><symbol id="E" class="D"><path d="M3.297 2.39c0-.03 0-.047-.172-.22C1.89.922 1.563-.97 1.563-2.5c0-1.734.375-3.47 1.61-4.703.125-.125.125-.14.125-.172 0-.078-.03-.11-.094-.11-.11 0-1 .688-1.594 1.953C1.11-4.437.984-3.328.984-2.5c0 .78.11 1.984.656 3.125C2.25 1.844 3.094 2.5 3.203 2.5c.063 0 .094-.03.094-.11zm0 0" class="E"/></symbol><symbol id="F" class="D"><path d="M2.875-2.5c0-.766-.11-1.97-.656-3.11C1.625-6.828.766-7.484.672-7.484c-.062 0-.11.047-.11.11 0 .03 0 .047.188.234.984.984 1.547 2.563 1.547 4.64 0 1.72-.36 3.47-1.594 4.72-.14.125-.14.14-.14.172 0 .063.047.11.11.11.094 0 1-.687 1.578-1.953.516-1.094.625-2.203.625-3.047zm0 0" class="E"/></symbol><symbol id="G" class="D"><path d="M1.906-2.328c.547 0 .938.375.938 1.125 0 .86-.516 1.125-.906 1.125-.28 0-.906-.078-1.187-.5.328 0 .406-.234.406-.39 0-.22-.172-.375-.39-.375a.38.38 0 0 0-.391.406C.375-.28 1.094.14 1.938.14c.97 0 1.64-.656 1.64-1.344 0-.547-.437-1.094-1.203-1.25.72-.266.984-.78.984-1.22 0-.547-.625-.953-1.406-.953-.766 0-1.36.375-1.36.938 0 .234.156.36.36.36a.34.34 0 0 0 .359-.344c0-.203-.14-.36-.36-.375.25-.297.72-.375.984-.375.313 0 .75.156.75.75 0 .297-.094.625-.28.828-.22.266-.422.28-.766.313l-.22.016c-.016 0-.078.016-.078.094 0 .094.063.094.188.094zm0 0" class="E"/></symbol><symbol id="H" class="D"><path d="M3.516-1.266H3.28c-.016.156-.094.563-.187.625-.047.047-.578.047-.687.047h-1.28l1.39-1.172c.516-.406 1-.844 1-1.5 0-.844-.734-1.36-1.625-1.36-.86 0-1.453.61-1.453 1.25 0 .344.297.39.375.39.156 0 .36-.125.36-.375 0-.125-.047-.375-.406-.375.22-.484.688-.64 1.016-.64.703 0 1.063.547 1.063 1.11 0 .61-.437 1.078-.656 1.328L.516-.266C.438-.203.438-.187.438 0h2.875zm0 0" class="E"/></symbol><symbol id="I" class="D"><path d="M3.734-4.203c.063-.094.063-.11.063-.28H1.97c-.28 0-.36-.016-.61-.03-.36-.03-.375-.078-.39-.187H.734L.484-3.22H.72c.016-.11.094-.562.203-.64.047-.03.625-.03.72-.03h1.516l-.72.922c-.906 1.188-1 2.297-1 2.703 0 .078 0 .406.328.406.344 0 .344-.312.344-.406v-.28c0-1.344.28-1.97.578-2.344zm0 0" class="E"/></symbol><symbol id="J" class="D"><path d="M3.328-3.016c.063-.25.297-1.172.984-1.172.047 0 .297 0 .5.125-.28.063-.47.297-.47.547 0 .156.11.344.375.344.22 0 .53-.172.53-.578 0-.516-.578-.656-.922-.656-.578 0-.922.53-1.047.75a1.09 1.09 0 0 0-1.078-.75c-1.03 0-1.61 1.28-1.61 1.53 0 .11.11.11.125.11.078 0 .11-.03.125-.11.344-1.062 1-1.312 1.344-1.312.188 0 .53.094.53.672 0 .313-.172.97-.53 2.375-.156.61-.516 1.03-.953 1.03-.062 0-.28 0-.5-.125.25-.062.47-.266.47-.547 0-.266-.22-.344-.36-.344-.312 0-.547.25-.547.578 0 .453.484.656.922.656.672 0 1.03-.703 1.047-.75a1.12 1.12 0 0 0 1.078.75c1.03 0 1.594-1.28 1.594-1.53 0-.11-.078-.11-.11-.11-.094 0-.11.047-.14.11C4.36-.344 3.688-.11 3.375-.11c-.39 0-.547-.312-.547-.656 0-.22.047-.437.156-.875zm0 0" class="E"/></symbol><symbol id="K" class="D"><path d="M6.438-6.922a.12.12 0 0 0-.125-.109c-.047 0-.047.016-.172.156l-.484.563c-.25-.47-.766-.72-1.422-.72-1.266 0-2.453 1.156-2.453 2.36a1.4 1.4 0 0 0 1.031 1.406l1.063.28c.375.094.922.25.922 1.063 0 .89-.812 1.828-1.797 1.828-.64 0-1.75-.22-1.75-1.453 0-.234.063-.484.063-.53.016-.047.016-.062.016-.078 0-.094-.062-.11-.11-.11s-.078.016-.11.047S.516.094.516.125c0 .047.047.094.11.094C.672.22.688.203.813.063L1.297-.5c.422.578 1.11.72 1.688.72 1.36 0 2.53-1.328 2.53-2.562 0-.687-.344-1.03-.484-1.172-.234-.22-.39-.266-1.266-.484l-.672-.187c-.266-.094-.61-.375-.61-.906 0-.812.797-1.656 1.75-1.656.813 0 1.422.438 1.422 1.547 0 .313-.03.5-.03.563 0 0 0 .094.11.094s.125-.03.156-.203zm0 0" class="E"/></symbol><clipPath id="L"><path d="M191 160h3.668v4H191zm0 0"/></clipPath><clipPath id="M"><path d="M76 20h2v141.594h-2zm0 0"/></clipPath><clipPath id="N"><path d="M117 20h1v141.594h-1zm0 0"/></clipPath><clipPath id="O"><path d="M147 20h1v141.594h-1zm0 0"/></clipPath><clipPath id="P"><path d="M35 120h54v41.594H35zm0 0"/></clipPath><clipPath id="Q"><path d="M21 71h82v90.594H21zm0 0"/></clipPath></defs><g class="C B"><path d="M147.77 163.72v-4.25M44.773 20.37h4.25" class="H L"/><path d="M.2 161.594h192.277" class="G I"/></g><g clip-path="url(#L)" class="F"><path d="M194.473 161.594L191.28 160l1.195 1.594-1.195 1.594"/></g><path d="M46.898 161.594V2.188" class="B C G I"/><g class="F"><path d="M46.898.195l-1.594 3.188 1.594-1.195 1.594 1.195"/><use xlink:href="#A" x="145.279" y="173.659"/><use xlink:href="#B" x="36.271" y="23.584"/></g><path d="M77.16 163.72v-4.25m40.348 4.25v-4.25" class="B C H L"/><use xlink:href="#G" x="75.174" y="171.733" class="F"/><path d="M75.176 173.164h3.97" class="B C I K"/><g class="F"><use xlink:href="#H" x="75.174" y="179.091"/><use xlink:href="#I" x="115.523" y="171.733"/></g><path d="M115.523 173.164h3.97" class="B C I K"/><use xlink:href="#H" x="115.523" y="179.091" class="F"/><path d="M44.773 131.332h4.25m-4.25-80.7h4.25" class="B C H L"/><use xlink:href="#G" x="36.086" y="129.9" class="F"/><path d="M36.086 131.332h3.973" class="B C I K"/><g class="F"><use xlink:href="#H" x="36.086" y="137.258"/><use xlink:href="#G" x="18.928" y="49.203"/></g><path d="M18.93 50.637h3.97" class="B C I K"/><g class="F"><use xlink:href="#H" x="18.928" y="56.561"/><use xlink:href="#C" x="26.309" y="53.125"/><use xlink:href="#D" x="36.27" y="53.125"/></g><path d="M46.898 131.332h100.87m-100.87-80.7h100.87M46.898 20.37h100.87" class="B C G H J"/><g clip-path="url(#M)" class="B C G H J"><path d="M77.16 161.594V20.37"/></g><g clip-path="url(#N)" class="B C G H J"><path d="M117.508 161.594V20.37"/></g><g clip-path="url(#O)" class="B C G H J"><path d="M147.77 161.594V20.37"/></g><g clip-path="url(#P)" class="B C M N"><path d="M46.898 161.594l1.262-.055 1.262-.156 1.258-.262 1.262-.367 1.262-.473 1.262-.578 1.262-.684 1.258-.79 1.262-.895 1.262-.996 1.262-1.105 1.262-1.207 1.258-1.312 1.262-1.418 1.262-1.523 1.262-1.63 1.262-1.734 1.258-1.84 1.262-1.94 1.262-2.05 1.262-2.152 1.258-2.262 1.262-2.363 1.262-2.47"/></g><g clip-path="url(#Q)" class="B C G J N"><path d="M26.723 148.145l2.945 3.637 2.94 3.063 2.94 2.492 2.94 1.922 2.94 1.348 2.94.777 2.945.203 2.94-.367 2.94-.937 2.94-1.512 2.94-2.086 2.945-2.656 2.94-3.227 2.94-3.8 2.94-4.37 2.94-4.945 2.94-5.516 2.945-6.1 2.94-6.66 2.94-7.234 2.94-7.805 2.94-8.375 2.945-8.95 2.94-9.52"/></g><g class="B C"><path d="M97.336 104.434l2.94-9.523 2.94-8.945 2.94-8.38 2.94-7.805 2.945-7.23 2.94-6.664 2.94-6.086 2.94-5.516 2.94-4.945 2.945-4.37 2.94-3.8 2.94-3.23 2.94-2.656 2.94-2.082 2.94-1.512 2.945-.94 2.94-.367 2.94.203 2.94.777 2.94 1.348 2.945 1.922 2.94 2.492 2.94 3.066 2.94 3.637" class="G J O"/><g class="M"><path d="M77.16 131.332l1.68-3.363 38.668-77.336" stroke="rgb(25.097656%,66.273499%,25.097656%)"/><path d="M117.508 50.633l1.262-2.47 1.262-2.363 1.262-2.258 1.262-2.156 1.258-2.047 1.262-1.945 1.262-1.84 1.262-1.73 1.262-1.63 1.258-1.523 1.262-1.418 1.262-1.316 1.262-1.207 1.262-1.105 1.258-.996 1.262-.895 1.262-.785 1.262-.684 1.258-.578 1.262-.473 1.262-.367 1.262-.266 1.262-.156 1.258-.05" class="O"/></g></g><g class="F"><use xlink:href="#J" x="185.255" y="158.074"/><use xlink:href="#K" x="50.418" y="11.191"/><use xlink:href="#E" x="57.102" y="11.191"/><use xlink:href="#J" x="60.976" y="11.191"/><use xlink:href="#F" x="66.67" y="11.191"/></g></svg>