<svg xmlns="http://www.w3.org/2000/svg" xmlns:xlink="http://www.w3.org/1999/xlink" width="214.696" height="96.632" viewBox="0 0 161.022 72.474" xmlns:v="https://vecta.io/nano"><style><![CDATA[.B{overflow:visible}.C{stroke:none}.D{stroke:rgb(0%,0%,0%)}.E{stroke-miterlimit:10}.F{fill:rgb(0%,0%,0%)}.G{fill:none}.H{stroke-width:.227}.I{stroke-width:.399}.J{fill:rgb(100%,100%,100%)}]]></style><defs><symbol id="A" class="B"><path d="M2.766-3.922c.047-.187.063-.22.14-.25h.406c.656 0 .953.016.953.53 0 .094-.03.344-.047.516a.29.29 0 0 0-.031.109c0 .047.03.094.078.094.078 0 .094-.047.094-.156l.188-1.125v-.11c0-.062-.062-.062-.172-.062H.797c-.156 0-.172 0-.22.125l-.39 1.14c0 .016-.03.094-.03.11 0 .047.03.078.078.078.063 0 .063-.03.11-.14.344-1 .516-1.11 1.47-1.11h.25c.188 0 .188.016.188.078 0 .03-.016.11-.03.125L1.36-.516c-.062.25-.078.313-.766.313-.234 0-.28 0-.28.125C.313 0 .39 0 .422 0l.53-.016h1.094L2.61 0c.063 0 .14 0 .14-.125 0-.078-.047-.078-.22-.078-.156 0-.25 0-.422-.016-.187-.016-.234-.03-.234-.14 0 0 0-.03.03-.125zm0 0" class="C"/></symbol><symbol id="B" class="B"><path d="M1.156-.75C.906-.312.64-.22.36-.203.28-.187.22-.187.22-.078.22-.03.266 0 .313 0L.86-.016 1.516 0c.03 0 .125 0 .125-.125 0-.062-.062-.078-.11-.078-.14-.016-.297-.062-.297-.22 0-.078.03-.156.078-.25l.5-.828h1.625L3.53-.406c0 .188-.328.203-.453.203-.094 0-.156 0-.156.125C2.922 0 3 0 3.016 0l.797-.016.734.016c.047 0 .11 0 .11-.125 0-.078-.062-.078-.14-.078-.406 0-.406-.047-.422-.234l-.39-4.03c-.016-.14-.016-.156-.125-.156s-.125.03-.172.11zm.78-.937l1.266-2.14.22 2.14zm0 0" class="C"/></symbol><symbol id="C" class="B"><path d="M1.03-.5C.97-.25.953-.203.438-.203c-.11 0-.172 0-.172.125C.266 0 .313 0 .438 0h2.14c1.344 0 2.625-1.36 2.625-2.78 0-.906-.547-1.64-1.516-1.64H1.5c-.11 0-.187 0-.187.125 0 .078.063.078.188.078.078 0 .203 0 .28.016.094.016.14.03.14.11 0 .016 0 .03-.03.11zm1.39-3.47c.063-.234.078-.25.36-.25h.688c.625 0 1.172.344 1.172 1.203 0 .313-.125 1.375-.687 2.078-.187.25-.687.734-1.484.734h-.875C1.53-.22 1.5-.22 1.5-.266c0-.03 0-.03.047-.156zm0 0" class="C"/></symbol><symbol id="D" class="B"><path d="M1.03-.5C.97-.25.953-.203.453-.203c-.11 0-.187 0-.187.125C.266 0 .328 0 .453 0H2.75c1.03 0 1.797-.766 1.797-1.39 0-.47-.375-.844-1.016-.922.688-.125 1.36-.594 1.36-1.22 0-.47-.422-.89-1.203-.89H1.516c-.125 0-.187 0-.187.14 0 .063.063.063.172.063.016 0 .14 0 .25.016.125.016.172.016.172.11 0 .016 0 .03-.016.11zm.984-1.875l.39-1.594c.063-.234.078-.25.36-.25h.828c.578 0 .703.375.703.672 0 .563-.547 1.172-1.344 1.172zM1.72-.203h-.14C1.516-.22 1.5-.22 1.5-.266c0-.03 0-.03.03-.156L1.97-2.22h1.234c.61 0 .734.47.734.75 0 .64-.578 1.266-1.344 1.266zm0 0" class="C"/></symbol><symbol id="E" class="B"><path d="M4.922-4.5c0-.016-.016-.062-.078-.062-.016 0-.03.016-.094.078l-.453.5c-.062-.094-.36-.578-1.078-.578-1.437 0-2.89 1.438-2.89 2.938A1.69 1.69 0 0 0 2.078.141c.563 0 1.047-.25 1.39-.547.61-.53.72-1.125.72-1.14 0-.078-.062-.078-.078-.078-.047 0-.078.016-.078.078-.062.188-.22.64-.656 1.016-.453.36-.86.47-1.187.47-.594 0-1.28-.328-1.28-1.344 0-.36.14-1.422.78-2.172.406-.453 1.016-.78 1.578-.78.672 0 1.047.5 1.047 1.25l-.016.328c0 .063.063.063.094.063.078 0 .078-.016.125-.125zm0 0" class="C"/></symbol><symbol id="F" class="B"><path d="M4.938-3.922C5-4.156 5-4.22 5.484-4.22c.156 0 .22 0 .22-.125 0-.078-.078-.078-.094-.078l-.828.016c-.187 0-.64-.016-.828-.016-.062 0-.125 0-.125.14 0 .063.047.063.172.063.016 0 .14 0 .25.016s.172.016.172.11c0 .016 0 .03-.016.11l-.39 1.578H2.03l.39-1.516c.063-.234.078-.297.547-.297.156 0 .22 0 .22-.125 0-.078-.078-.078-.094-.078l-.828.016c-.187 0-.64-.016-.844-.016-.047 0-.11 0-.11.14 0 .063.047.063.172.063.016 0 .14 0 .25.016s.172.016.172.11c0 .016 0 .03-.03.11L1.016-.5c-.062.25-.078.297-.594.297-.11 0-.172 0-.172.125C.25 0 .328 0 .344 0l.828-.016h.406L2 0c.047 0 .125 0 .125-.125 0-.078-.062-.078-.172-.078-.25 0-.422 0-.422-.11 0-.047.016-.078.016-.11l.438-1.78h1.97L3.516-.406c-.062.203-.187.203-.594.203-.094 0-.156 0-.156.125 0 .078.078.078.094.078l.828-.016h.406L4.516 0c.047 0 .125 0 .125-.125 0-.078-.047-.078-.172-.078-.25 0-.422 0-.422-.11 0-.047.016-.078.016-.11zm0 0" class="C"/></symbol><symbol id="G" class="B"><path d="M4.89-3.734c.063-.266.188-.47.703-.484.03 0 .11 0 .11-.125 0-.016 0-.078-.094-.078l-.64.016c-.234 0-.453-.016-.672-.016-.03 0-.11 0-.11.14 0 .063.063.063.11.063.375 0 .438.14.438.28 0 .03 0 .125-.016.14L4-.922 2.563-4.297c-.047-.11-.047-.125-.203-.125H1.5c-.14 0-.187 0-.187.14 0 .063.047.063.172.063.03 0 .438 0 .438.063l-.86 3.47C1-.422.89-.22.36-.203c-.03 0-.11.016-.11.125C.25-.03.28 0 .344 0l.64-.016.672.016c.03 0 .11 0 .11-.125 0-.062-.062-.078-.125-.078-.375-.016-.437-.156-.437-.28 0-.047.016-.078.03-.156l.86-3.406c.016.03.016.047.047.11L3.766-.125c.03.11.063.125.11.125.078 0 .078-.016.11-.14zm0 0" class="C"/></symbol><symbol id="H" class="B"><path d="M5.984-3.922c.063-.234.078-.297.563-.297.14 0 .203 0 .203-.125 0-.078-.062-.078-.172-.078h-.86c-.156 0-.172 0-.25.125L3.11-.61l-.5-3.656c-.016-.156-.03-.156-.203-.156h-.89c-.125 0-.187 0-.187.125 0 .078.063.078.188.078.078 0 .203 0 .28.016.094.016.14.03.14.11 0 .016-.016.03-.03.11L1.094-.687c-.078.266-.187.47-.703.484-.03 0-.125.016-.125.125C.266-.016.313 0 .36 0l.656-.016.656.016c.03 0 .125 0 .125-.125 0-.078-.078-.078-.125-.078-.36 0-.437-.14-.437-.28 0-.047 0-.078.03-.156l.875-3.516.563 4c.016.078.016.156.094.156s.11-.078.14-.11l2.625-4.11L4.64-.5c-.062.25-.078.297-.594.297-.11 0-.172 0-.172.125 0 .078.078.078.094.078l.797-.016.813.016c.03 0 .125 0 .125-.125 0-.078-.062-.078-.187-.078-.234 0-.422 0-.422-.11 0-.03 0-.047.03-.156zm0 0" class="C"/></symbol><symbol id="I" class="B"><path d="M1.86-4.422s0-.062-.094-.062c-.14 0-.61.047-.78.063-.047 0-.125.016-.125.125 0 .078.063.078.156.078.313 0 .328.047.328.11l-.03.125L.375-.25C.36-.156.36-.156.36-.11c0 .14.125.188.188.188C.64.078.75 0 .78-.094l.125-.5.14-.578a3.58 3.58 0 0 0 .109-.437c.016-.03.063-.25.078-.28a1.78 1.78 0 0 1 .438-.594c.14-.11.344-.234.625-.234.266 0 .344.22.344.453 0 .344-.25 1.063-.406 1.453-.047.14-.078.22-.078.36 0 .297.22.53.53.53.61 0 .844-.953.844-1 0-.062-.062-.062-.078-.062-.062 0-.062.016-.094.11-.094.344-.312.797-.656.797-.11 0-.156-.062-.156-.203 0-.172.047-.328.11-.47.11-.266.39-1.047.39-1.422 0-.422-.25-.687-.734-.687-.406 0-.72.203-.953.5zm0 0" class="C"/></symbol><symbol id="J" class="B"><path d="M1.547-4.422s0-.062-.078-.062c-.156 0-.625.047-.797.063-.047 0-.125.016-.125.125 0 .078.063.078.156.078.313 0 .328.047.328.11 0 .047-.062.266-.094.406l-.53 2.11c-.078.313-.11.422-.11.656 0 .61.344 1.016.828 1.016.766 0 1.563-.97 1.563-1.906 0-.578-.344-1.03-.86-1.03-.297 0-.562.188-.766.39zM.938-1.97c.047-.14.047-.156.094-.234.328-.422.61-.516.78-.516.234 0 .406.203.406.61 0 .375-.22 1.125-.328 1.375-.22.438-.516.656-.766.656-.22 0-.437-.172-.437-.64 0-.125 0-.25.11-.656zm0 0" class="C"/></symbol><symbol id="K" class="B"><path d="M2.406-2.437c-.11-.25-.297-.422-.594-.422-.75 0-1.547.953-1.547 1.89 0 .61.344 1.047.86 1.047.125 0 .453-.03.828-.484.063.266.28.484.594.484.234 0 .375-.156.484-.36.11-.234.188-.625.188-.64 0-.062-.062-.062-.078-.062-.062 0-.062.016-.094.11-.11.422-.22.797-.484.797-.172 0-.187-.156-.187-.297s0-.187.078-.47l.14-.578.234-.906.047-.234c0-.11-.078-.172-.187-.172-.156 0-.25.14-.28.297zM2-.766c-.047.11-.047.125-.14.234-.28.36-.547.453-.734.453C.813-.078.72-.422.72-.672c0-.328.203-1.125.36-1.422.203-.39.484-.625.75-.625.422 0 .5.53.5.578 0 .03 0 .078-.016.11zm0 0" class="C"/></symbol><clipPath id="L"><path d="M6 66h9v6.473H6zm0 0"/></clipPath><clipPath id="M"><path d="M145 66h9v6.473h-9zm0 0"/></clipPath><clipPath id="N"><path d="M77 67h6v5.473h-6zm0 0"/></clipPath><path id="O" d="M9.77 69.816c.176.043.945.29 1.426.555v-1.11c-.48.266-1.25.512-1.426.555zm0 0"/><path id="P" d="M150.57 69.816c-.176-.043-.945-.29-1.426-.555v1.11c.48-.266 1.25-.512 1.426-.555zm0 0"/></defs><g class="D E G I"><path d="M9.305 65.563l42.52-56.69h56.69l42.52 56.69zm0 0"/><path d="M51.824 8.87v56.7m39.684-56.7v56.7"/><path d="M108.516 8.87v56.69" stroke-dasharray="2.98883,2.98883"/></g><g class="F"><use xlink:href="#A" x="110.803" y="63.276"/><use xlink:href="#B" x="2.158" y="67.776"/><use xlink:href="#C" x="153.323" y="67.776"/><use xlink:href="#D" x="44.298" y="6.583"/><use xlink:href="#E" x="110.803" y="6.583"/><use xlink:href="#F" x="43.626" y="63.276"/><use xlink:href="#G" x="93.795" y="15.584"/><use xlink:href="#H" x="93.795" y="63.276"/></g><g class="D E H"><path d="M56.074 10.762v52.9" class="G"/><g class="F"><path d="M1.426.001C1.25.044.48.3 0 .555v-1.11c.48.266 1.25.512 1.426.555zm0 0" transform="matrix(0 -1 -1 0 56.07503 10.76165)"/><path d="M1.425-.001C1.25.042.48.288-.001.554v-1.11c.48.266 1.25.512 1.426.555zm0 0" transform="matrix(0 1 1 0 56.07503 63.67275)"/></g></g><path d="M59.453 37.22a3.38 3.38 0 0 0-3.379-3.379c-1.863 0-3.375 1.512-3.375 3.38s1.512 3.375 3.375 3.375 3.38-1.512 3.38-3.375zm0 0" class="J"/><use xlink:href="#I" x="54.209" y="39.466" class="F"/><g class="G D E"><path d="M51.824 8.87V3.2m56.692 5.67V3.2" class="I"/><path d="M53.715 4.617h52.9" class="H"/></g><path d="M52.3 4.617a7.87 7.87 0 0 1 1.426.555v-1.1c-.48.27-1.25.512-1.426.555zm55.76 0c-.176-.043-.945-.285-1.426-.555v1.1c.48-.266 1.25-.512 1.426-.555zm0 0" class="F D E H"/><path d="M83.262 4.617a3.09 3.09 0 1 0-6.184 0c0 1.707 1.383 3.094 3.094 3.094s3.1-1.387 3.1-3.094zm0 0" class="J"/><use xlink:href="#J" x="78.779" y="6.868" class="F"/><g class="G D E"><path d="M9.305 65.563v5.672m141.73-5.672v5.672" class="I"/><path d="M11.195 69.816h137.95" class="H"/></g><use xlink:href="#O" class="F"/><g clip-path="url(#L)" class="D E G H"><use xlink:href="#O"/></g><use xlink:href="#P" class="F"/><g clip-path="url(#M)" class="D E G H"><use xlink:href="#P"/></g><g clip-path="url(#N)" class="J"><path d="M82.828 69.816a2.66 2.66 0 0 0-2.656-2.66 2.66 2.66 0 0 0-2.66 2.66 2.66 2.66 0 0 0 2.66 2.656c1.465 0 2.656-1.187 2.656-2.656zm0 0"/></g><use xlink:href="#K" x="78.457" y="71.21" class="F"/></svg>