<svg xmlns="http://www.w3.org/2000/svg" xmlns:xlink="http://www.w3.org/1999/xlink" width="163.051" height="82.449" viewBox="0 0 122.288 61.837" xmlns:v="https://vecta.io/nano"><style><![CDATA[.B{fill:none}.C{stroke-miterlimit:10}.D{stroke:rgb(0%,0%,0%)}.E{stroke-width:.1}.F{overflow:visible}.G{stroke:none}.H{stroke-width:.399}.I{stroke-dasharray:2.98883,2.98883}.J{stroke-width:1.395}.K{stroke:rgb(25.097656%,66.273499%,25.097656%)}.L{stroke-width:.598}.M{stroke:rgb(100%,100%,100%)}]]></style><defs><symbol id="A" class="F"><path d="M.89-.578C.688-.234.5-.172.28-.156c-.062 0-.11 0-.11.094 0 .03.03.063.063.063l.438-.016.5.016c.03 0 .094 0 .094-.094 0-.062-.047-.062-.078-.062C1.063-.172.953-.203.953-.328c0-.062.03-.11.063-.187l.375-.64h1.25l.078.844c0 .14-.25.156-.344.156-.078 0-.125 0-.125.094 0 .063.063.063.063.063l.625-.016L3.5 0c.03 0 .094 0 .094-.094 0-.062-.047-.062-.11-.062-.312 0-.312-.03-.328-.172l-.312-3.125c0-.094 0-.11-.094-.11-.078 0-.094.03-.125.078zm.594-.734l.984-1.64.156 1.64zm0 0" class="G"/></symbol><symbol id="B" class="F"><path d="M.797-.39C.75-.187.734-.156.344-.156c-.078 0-.14 0-.14.094C.203 0 .25 0 .344 0h1.78C2.906 0 3.5-.594 3.5-1.078c0-.36-.297-.64-.78-.703.53-.094 1.047-.47 1.047-.937 0-.36-.328-.687-.922-.687H1.172c-.094 0-.156 0-.156.11 0 .047.047.047.14.047.016 0 .11 0 .188.016.094 0 .14.016.14.078 0 .016 0 .03-.016.094zm.75-1.437l.313-1.234c.047-.172.047-.187.266-.187h.64c.438 0 .547.297.547.516 0 .438-.422.906-1.03.906zm-.22 1.672h-.11c-.047-.016-.062-.016-.062-.047 0-.016 0-.03.016-.125l.344-1.39h.953c.47 0 .563.375.563.594 0 .484-.437.97-1.03.97zm0 0" class="G"/></symbol><symbol id="C" class="F"><path d="M3.78-3.47c0-.016 0-.047-.047-.047-.016 0-.016 0-.078.063l-.344.375c-.047-.062-.28-.437-.828-.437C1.375-3.516.25-2.406.25-1.25.25-.437.844.11 1.594.11c.438 0 .813-.203 1.078-.422.47-.422.547-.875.547-.89 0-.047-.047-.047-.047-.047-.03 0-.062.016-.078.047-.03.156-.156.5-.5.797-.344.28-.656.36-.906.36-.453 0-.984-.25-.984-1.03 0-.28.11-1.094.61-1.672.297-.36.766-.61 1.203-.61.516 0 .813.39.813.97 0 .188-.016.203-.016.25s.047.047.078.047c.063 0 .063-.016.078-.094zm0 0" class="G"/></symbol><symbol id="D" class="F"><path d="M2.53-2.016c0-.016-.016-.047-.016-.062s.094-.078.14-.125l.875-.672c.47-.344.656-.36.813-.375.03 0 .094-.016.094-.094 0-.03-.016-.062-.062-.062l-.36.016c-.172 0-.36-.016-.547-.016-.03 0-.094 0-.094.11 0 .03.03.047.063.047.11.016.156.03.156.11s-.156.203-.187.22l-1.937 1.5.39-1.594c.047-.187.063-.234.422-.234.125 0 .172 0 .172-.094 0-.047-.047-.062-.078-.062l-.625.016c-.156 0-.5-.016-.656-.016-.03 0-.094 0-.094.094 0 .063.047.063.14.063a.96.96 0 0 1 .219.016c.078 0 .11.016.11.078 0 .016 0 .03-.016.094L.78-.39C.734-.187.72-.156.328-.156c-.078 0-.14 0-.14.094C.188 0 .25 0 .266 0L.89-.016h.328L1.547 0c.03 0 .094 0 .094-.094 0-.062-.047-.062-.14-.062-.187 0-.328 0-.328-.094 0-.03.03-.14.047-.22l.203-.78.734-.578.578 1.344c.063.14.063.14.063.172 0 .156-.203.156-.25.156-.062 0-.11 0-.11.094C2.438 0 2.5 0 2.5 0l.61-.016.484.016c.03 0 .094 0 .094-.094 0-.062-.047-.062-.094-.062-.203 0-.28-.047-.344-.22zm0 0" class="G"/></symbol><symbol id="E" class="F"><path d="M3.766-2.875c.047-.203.14-.36.547-.375.016 0 .078 0 .078-.094 0-.016 0-.062-.062-.062l-.5.016c-.172 0-.344-.016-.516-.016-.03 0-.094 0-.094.11 0 .047.063.047.094.047.28 0 .344.11.344.22 0 .016-.016.094-.016.11l-.562 2.22-1.094-2.61c-.047-.094-.047-.094-.172-.094h-.656c-.11 0-.156 0-.156.11 0 .047.047.047.14.047.03 0 .344 0 .344.047L.813-.53c-.047.203-.125.36-.53.375-.03 0-.094 0-.094.094 0 .047.03.063.078.063L.75-.016 1.266 0c.03 0 .094 0 .094-.094 0-.062-.047-.062-.094-.062C.97-.172.938-.28.938-.375c0-.03 0-.062.016-.11l.656-2.64c.016.03.016.047.047.094L2.89-.094c.047.078.063.094.094.094.063 0 .063-.016.094-.11zm0 0" class="G"/></symbol><symbol id="F" class="F"><path d="M1.86-3.016c.047-.172.063-.234.53-.234.156 0 .188 0 .188-.094 0-.062-.047-.062-.078-.062l-.734.016c-.156 0-.516-.016-.672-.016-.03 0-.094 0-.094.11 0 .047.047.047.14.047.016 0 .11 0 .188.016.094 0 .14.016.14.078 0 .016 0 .03-.016.094L.78-.39C.734-.187.72-.156.328-.156c-.078 0-.14 0-.14.094C.188 0 .234 0 .328 0H2.64c.11 0 .125 0 .156-.078l.39-1.078.016-.078c0-.016-.016-.047-.062-.047s-.047.016-.078.094c-.172.47-.39 1.03-1.25 1.03h-.578c-.047-.016-.062-.016-.062-.047 0-.016 0-.03.016-.125zm0 0" class="G"/></symbol><symbol id="G" class="F"><path d="M4.61-3.016c.047-.187.063-.234.438-.234.11 0 .156 0 .156-.094 0-.062-.047-.062-.14-.062h-.656c-.125 0-.125 0-.187.094L2.39-.47l-.375-2.828c-.016-.11-.03-.11-.156-.11h-.687c-.094 0-.156 0-.156.094 0 .063.047.063.156.063.063 0 .156 0 .203.016.078 0 .11.016.11.078 0 .016 0 .03-.016.094L.844-.53c-.062.203-.14.36-.547.375-.016 0-.094 0-.094.094 0 .047.03.063.078.063l.5-.016.516.016c.016 0 .078 0 .078-.094 0-.062-.047-.062-.078-.062-.297 0-.344-.11-.344-.22 0-.03 0-.062.016-.11l.688-2.72.422 3.094c.016.047.016.11.078.11s.094-.062.11-.094L4.28-3.25 3.578-.39c-.047.203-.062.234-.453.234-.094 0-.14 0-.14.094 0 .063.063.063.078.063l.61-.016.625.016c.03 0 .094 0 .094-.094 0-.062-.047-.062-.14-.062-.187 0-.328 0-.328-.094 0-.016 0-.03.03-.11zm0 0" class="G"/></symbol><symbol id="H" class="F"><path d="M.797-.39C.75-.187.734-.156.344-.156c-.094 0-.14 0-.14.094C.203 0 .25 0 .344 0h1.64C3.03 0 4-1.047 4-2.14c0-.703-.422-1.266-1.156-1.266H1.156c-.094 0-.14 0-.14.094 0 .063.047.063.14.063.063 0 .156 0 .22.016.078 0 .11.016.11.078 0 .016-.016.03-.03.094zm1.078-2.672c.03-.172.047-.187.266-.187h.53c.484 0 .906.266.906.922 0 .25-.11 1.063-.53 1.61-.14.188-.53.563-1.14.563H1.22c-.047-.016-.062-.016-.062-.047 0-.016 0-.03.03-.125zm0 0" class="G"/></symbol><clipPath id="I"><path d="M107 54h15.29v2H107zm0 0"/></clipPath><clipPath id="J"><path d="M30.53 53.488h1.72v1.523h-1.72zm0 0"/></clipPath><clipPath id="K"><path d="M30.53 53.488h3.555v1.523H30.53zm0 0"/></clipPath><clipPath id="L"><path d="M32.094 53.488h3.832v1.523h-3.832zm0 0"/></clipPath><clipPath id="M"><path d="M33.934 53.488h3.832v1.523h-3.832zm0 0"/></clipPath><clipPath id="N"><path d="M35.77 53.488h3.832v1.523H35.77zm0 0"/></clipPath><clipPath id="O"><path d="M37.61 53.488h3.832v1.523H37.61zm0 0"/></clipPath><clipPath id="P"><path d="M39.45 53.488h3.828v1.523H39.45zm0 0"/></clipPath><clipPath id="Q"><path d="M41.285 53.488h3.832v1.523h-3.832zm0 0"/></clipPath><clipPath id="R"><path d="M43.125 53.488h3.832v1.523h-3.832zm0 0"/></clipPath><clipPath id="S"><path d="M44.965 53.488h3.828v1.523h-3.828zm0 0"/></clipPath><clipPath id="T"><path d="M46.8 53.488h3.832v1.523H46.8zm0 0"/></clipPath><clipPath id="U"><path d="M48.64 53.488h3.832v1.523H48.64zm0 0"/></clipPath><clipPath id="V"><path d="M50.477 53.488h3.832v1.523h-3.832zm0 0"/></clipPath><clipPath id="W"><path d="M52.316 53.488h3.832v1.523h-3.832zm0 0"/></clipPath><clipPath id="X"><path d="M54.156 53.488h3.828v1.523h-3.828zm0 0"/></clipPath><clipPath id="Y"><path d="M55.992 53.488h3.832v1.523h-3.832zm0 0"/></clipPath><clipPath id="Z"><path d="M57.832 53.488h3.832v1.523h-3.832zm0 0"/></clipPath><clipPath id="a"><path d="M59.672 53.488H63.5v1.523h-3.828zm0 0"/></clipPath><clipPath id="b"><path d="M61.508 53.488h3.832v1.523h-3.832zm0 0"/></clipPath><clipPath id="c"><path d="M63.348 53.488h3.832v1.523h-3.832zm0 0"/></clipPath><clipPath id="d"><path d="M65.184 53.488h3.832v1.523h-3.832zm0 0"/></clipPath><clipPath id="e"><path d="M67.023 53.488h3.832v1.523h-3.832zm0 0"/></clipPath><clipPath id="f"><path d="M68.863 53.488h2.203v1.523h-2.203zm0 0"/></clipPath><clipPath id="g"><path d="M70.7 53.488h.367v1.523H70.7zm0 0"/></clipPath><clipPath id="h"><path d="M30.53 51.648h1.72v3.363h-1.72zm0 0"/></clipPath><clipPath id="i"><path d="M30.53 51.648h3.555v3.363H30.53zm0 0"/></clipPath><clipPath id="j"><path d="M32.094 51.648h3.832v3.363h-3.832zm0 0"/></clipPath><clipPath id="k"><path d="M33.934 51.648h3.832v3.363h-3.832zm0 0"/></clipPath><clipPath id="l"><path d="M35.77 51.648h3.832v3.363H35.77zm0 0"/></clipPath><clipPath id="m"><path d="M37.61 51.648h3.832v3.363H37.61zm0 0"/></clipPath><clipPath id="n"><path d="M39.45 51.648h3.828v3.363H39.45zm0 0"/></clipPath><clipPath id="o"><path d="M41.285 51.648h3.832v3.363h-3.832zm0 0"/></clipPath><clipPath id="p"><path d="M43.125 51.648h3.832v3.363h-3.832zm0 0"/></clipPath><clipPath id="q"><path d="M44.965 51.648h3.828v3.363h-3.828zm0 0"/></clipPath><clipPath id="r"><path d="M46.8 51.648h3.832v3.363H46.8zm0 0"/></clipPath><clipPath id="s"><path d="M48.64 51.648h3.832v3.363H48.64zm0 0"/></clipPath><clipPath id="t"><path d="M50.477 51.648h3.832v3.363h-3.832zm0 0"/></clipPath><clipPath id="u"><path d="M52.316 51.648h3.832v3.363h-3.832zm0 0"/></clipPath><clipPath id="v"><path d="M54.156 51.648h3.828v3.363h-3.828zm0 0"/></clipPath><clipPath id="w"><path d="M55.992 51.648h3.832v3.363h-3.832zm0 0"/></clipPath><clipPath id="x"><path d="M57.832 51.648h3.832v3.363h-3.832zm0 0"/></clipPath><clipPath id="y"><path d="M59.672 51.648H63.5v3.363h-3.828zm0 0"/></clipPath><clipPath id="z"><path d="M61.508 51.648h3.832v3.363h-3.832zm0 0"/></clipPath><clipPath id="AA"><path d="M63.348 51.648h3.832v3.363h-3.832zm0 0"/></clipPath><clipPath id="AB"><path d="M65.184 51.648h3.832v3.363h-3.832zm0 0"/></clipPath><clipPath id="AC"><path d="M67.023 51.648h3.832v3.363h-3.832zm0 0"/></clipPath><clipPath id="AD"><path d="M68.863 51.648h2.203v3.363h-2.203zm0 0"/></clipPath><clipPath id="AE"><path d="M70.7 51.648h.367v3.363H70.7zm0 0"/></clipPath><clipPath id="AF"><path d="M30.53 49.81h1.72v3.832h-1.72zm0 0"/></clipPath><clipPath id="AG"><path d="M30.53 49.81h3.555v3.832H30.53zm0 0"/></clipPath><clipPath id="AH"><path d="M32.094 49.81h3.832v3.832h-3.832zm0 0"/></clipPath><clipPath id="AI"><path d="M33.934 49.81h3.832v3.832h-3.832zm0 0"/></clipPath><clipPath id="AJ"><path d="M35.77 49.81h3.832v3.832H35.77zm0 0"/></clipPath><clipPath id="AK"><path d="M37.61 49.81h3.832v3.832H37.61zm0 0"/></clipPath><clipPath id="AL"><path d="M39.45 49.81h3.828v3.832H39.45zm0 0"/></clipPath><clipPath id="AM"><path d="M41.285 49.81h3.832v3.832h-3.832zm0 0"/></clipPath><clipPath id="AN"><path d="M43.125 49.81h3.832v3.832h-3.832zm0 0"/></clipPath><clipPath id="AO"><path d="M44.965 49.81h3.828v3.832h-3.828zm0 0"/></clipPath><clipPath id="AP"><path d="M46.8 49.81h3.832v3.832H46.8zm0 0"/></clipPath><clipPath id="AQ"><path d="M48.64 49.81h3.832v3.832H48.64zm0 0"/></clipPath><clipPath id="AR"><path d="M50.477 49.81h3.832v3.832h-3.832zm0 0"/></clipPath><clipPath id="AS"><path d="M52.316 49.81h3.832v3.832h-3.832zm0 0"/></clipPath><clipPath id="AT"><path d="M54.156 49.81h3.828v3.832h-3.828zm0 0"/></clipPath><clipPath id="AU"><path d="M55.992 49.81h3.832v3.832h-3.832zm0 0"/></clipPath><clipPath id="AV"><path d="M57.832 49.81h3.832v3.832h-3.832zm0 0"/></clipPath><clipPath id="AW"><path d="M59.672 49.81H63.5v3.832h-3.828zm0 0"/></clipPath><clipPath id="AX"><path d="M61.508 49.81h3.832v3.832h-3.832zm0 0"/></clipPath><clipPath id="AY"><path d="M63.348 49.81h3.832v3.832h-3.832zm0 0"/></clipPath><clipPath id="AZ"><path d="M65.184 49.81h3.832v3.832h-3.832zm0 0"/></clipPath><clipPath id="Aa"><path d="M67.023 49.81h3.832v3.832h-3.832zm0 0"/></clipPath><clipPath id="Ab"><path d="M68.863 49.81h2.203v3.832h-2.203zm0 0"/></clipPath><clipPath id="Ac"><path d="M70.7 49.81h.367v3.832H70.7zm0 0"/></clipPath><clipPath id="Ad"><path d="M30.53 47.973h1.72v3.832h-1.72zm0 0"/></clipPath><clipPath id="Ae"><path d="M30.53 47.973h3.555v3.832H30.53zm0 0"/></clipPath><clipPath id="Af"><path d="M32.094 47.973h3.832v3.832h-3.832zm0 0"/></clipPath><clipPath id="Ag"><path d="M33.934 47.973h3.832v3.832h-3.832zm0 0"/></clipPath><clipPath id="Ah"><path d="M35.77 47.973h3.832v3.832H35.77zm0 0"/></clipPath><clipPath id="Ai"><path d="M37.61 47.973h3.832v3.832H37.61zm0 0"/></clipPath><clipPath id="Aj"><path d="M39.45 47.973h3.828v3.832H39.45zm0 0"/></clipPath><clipPath id="Ak"><path d="M41.285 47.973h3.832v3.832h-3.832zm0 0"/></clipPath><clipPath id="Al"><path d="M43.125 47.973h3.832v3.832h-3.832zm0 0"/></clipPath><clipPath id="Am"><path d="M44.965 47.973h3.828v3.832h-3.828zm0 0"/></clipPath><clipPath id="An"><path d="M46.8 47.973h3.832v3.832H46.8zm0 0"/></clipPath><clipPath id="Ao"><path d="M48.64 47.973h3.832v3.832H48.64zm0 0"/></clipPath><clipPath id="Ap"><path d="M50.477 47.973h3.832v3.832h-3.832zm0 0"/></clipPath><clipPath id="Aq"><path d="M52.316 47.973h3.832v3.832h-3.832zm0 0"/></clipPath><clipPath id="Ar"><path d="M54.156 47.973h3.828v3.832h-3.828zm0 0"/></clipPath><clipPath id="As"><path d="M55.992 47.973h3.832v3.832h-3.832zm0 0"/></clipPath><clipPath id="At"><path d="M57.832 47.973h3.832v3.832h-3.832zm0 0"/></clipPath><clipPath id="Au"><path d="M59.672 47.973H63.5v3.832h-3.828zm0 0"/></clipPath><clipPath id="Av"><path d="M61.508 47.973h3.832v3.832h-3.832zm0 0"/></clipPath><clipPath id="Aw"><path d="M63.348 47.973h3.832v3.832h-3.832zm0 0"/></clipPath><clipPath id="Ax"><path d="M65.184 47.973h3.832v3.832h-3.832zm0 0"/></clipPath><clipPath id="Ay"><path d="M67.023 47.973h3.832v3.832h-3.832zm0 0"/></clipPath><clipPath id="Az"><path d="M68.863 47.973h2.203v3.832h-2.203zm0 0"/></clipPath><clipPath id="BA"><path d="M70.7 47.973h.367v3.832H70.7zm0 0"/></clipPath><clipPath id="BB"><path d="M30.53 46.133h1.72v3.832h-1.72zm0 0"/></clipPath><clipPath id="BC"><path d="M30.53 46.133h3.555v3.832H30.53zm0 0"/></clipPath><clipPath id="BD"><path d="M32.094 46.133h3.832v3.832h-3.832zm0 0"/></clipPath><clipPath id="BE"><path d="M33.934 46.133h3.832v3.832h-3.832zm0 0"/></clipPath><clipPath id="BF"><path d="M35.77 46.133h3.832v3.832H35.77zm0 0"/></clipPath><clipPath id="BG"><path d="M37.61 46.133h3.832v3.832H37.61zm0 0"/></clipPath><clipPath id="BH"><path d="M39.45 46.133h3.828v3.832H39.45zm0 0"/></clipPath><clipPath id="BI"><path d="M41.285 46.133h3.832v3.832h-3.832zm0 0"/></clipPath><clipPath id="BJ"><path d="M43.125 46.133h3.832v3.832h-3.832zm0 0"/></clipPath><clipPath id="BK"><path d="M44.965 46.133h3.828v3.832h-3.828zm0 0"/></clipPath><clipPath id="BL"><path d="M46.8 46.133h3.832v3.832H46.8zm0 0"/></clipPath><clipPath id="BM"><path d="M48.64 46.133h3.832v3.832H48.64zm0 0"/></clipPath><clipPath id="BN"><path d="M50.477 46.133h3.832v3.832h-3.832zm0 0"/></clipPath><clipPath id="BO"><path d="M52.316 46.133h3.832v3.832h-3.832zm0 0"/></clipPath><clipPath id="BP"><path d="M54.156 46.133h3.828v3.832h-3.828zm0 0"/></clipPath><clipPath id="BQ"><path d="M55.992 46.133h3.832v3.832h-3.832zm0 0"/></clipPath><clipPath id="BR"><path d="M57.832 46.133h3.832v3.832h-3.832zm0 0"/></clipPath><clipPath id="BS"><path d="M59.672 46.133H63.5v3.832h-3.828zm0 0"/></clipPath><clipPath id="BT"><path d="M61.508 46.133h3.832v3.832h-3.832zm0 0"/></clipPath><clipPath id="BU"><path d="M63.348 46.133h3.832v3.832h-3.832zm0 0"/></clipPath><clipPath id="BV"><path d="M65.184 46.133h3.832v3.832h-3.832zm0 0"/></clipPath><clipPath id="BW"><path d="M67.023 46.133h3.832v3.832h-3.832zm0 0"/></clipPath><clipPath id="BX"><path d="M68.863 46.133h2.203v3.832h-2.203zm0 0"/></clipPath><clipPath id="BY"><path d="M70.7 46.133h.367v3.832H70.7zm0 0"/></clipPath><clipPath id="BZ"><path d="M30.53 44.297h1.72v3.828h-1.72zm0 0"/></clipPath><clipPath id="Ba"><path d="M30.53 44.297h3.555v3.828H30.53zm0 0"/></clipPath><clipPath id="Bb"><path d="M32.094 44.297h3.832v3.828h-3.832zm0 0"/></clipPath><clipPath id="Bc"><path d="M33.934 44.297h3.832v3.828h-3.832zm0 0"/></clipPath><clipPath id="Bd"><path d="M35.77 44.297h3.832v3.828H35.77zm0 0"/></clipPath><clipPath id="Be"><path d="M37.61 44.297h3.832v3.828H37.61zm0 0"/></clipPath><clipPath id="Bf"><path d="M39.45 44.297h3.828v3.828H39.45zm0 0"/></clipPath><clipPath id="Bg"><path d="M41.285 44.297h3.832v3.828h-3.832zm0 0"/></clipPath><clipPath id="Bh"><path d="M43.125 44.297h3.832v3.828h-3.832zm0 0"/></clipPath><clipPath id="Bi"><path d="M44.965 44.297h3.828v3.828h-3.828zm0 0"/></clipPath><clipPath id="Bj"><path d="M46.8 44.297h3.832v3.828H46.8zm0 0"/></clipPath><clipPath id="Bk"><path d="M48.64 44.297h3.832v3.828H48.64zm0 0"/></clipPath><clipPath id="Bl"><path d="M50.477 44.297h3.832v3.828h-3.832zm0 0"/></clipPath><clipPath id="Bm"><path d="M52.316 44.297h3.832v3.828h-3.832zm0 0"/></clipPath><clipPath id="Bn"><path d="M54.156 44.297h3.828v3.828h-3.828zm0 0"/></clipPath><clipPath id="Bo"><path d="M55.992 44.297h3.832v3.828h-3.832zm0 0"/></clipPath><clipPath id="Bp"><path d="M57.832 44.297h3.832v3.828h-3.832zm0 0"/></clipPath><clipPath id="Bq"><path d="M59.672 44.297H63.5v3.828h-3.828zm0 0"/></clipPath><clipPath id="Br"><path d="M61.508 44.297h3.832v3.828h-3.832zm0 0"/></clipPath><clipPath id="Bs"><path d="M63.348 44.297h3.832v3.828h-3.832zm0 0"/></clipPath><clipPath id="Bt"><path d="M65.184 44.297h3.832v3.828h-3.832zm0 0"/></clipPath><clipPath id="Bu"><path d="M67.023 44.297h3.832v3.828h-3.832zm0 0"/></clipPath><clipPath id="Bv"><path d="M68.863 44.297h2.203v3.828h-2.203zm0 0"/></clipPath><clipPath id="Bw"><path d="M70.7 44.297h.367v3.828H70.7zm0 0"/></clipPath><clipPath id="Bx"><path d="M30.53 42.457h1.72v3.832h-1.72zm0 0"/></clipPath><clipPath id="By"><path d="M30.53 42.457h3.555v3.832H30.53zm0 0"/></clipPath><clipPath id="Bz"><path d="M32.094 42.457h3.832v3.832h-3.832zm0 0"/></clipPath><clipPath id="CA"><path d="M33.934 42.457h3.832v3.832h-3.832zm0 0"/></clipPath><clipPath id="CB"><path d="M35.77 42.457h3.832v3.832H35.77zm0 0"/></clipPath><clipPath id="CC"><path d="M37.61 42.457h3.832v3.832H37.61zm0 0"/></clipPath><clipPath id="CD"><path d="M39.45 42.457h3.828v3.832H39.45zm0 0"/></clipPath><clipPath id="CE"><path d="M41.285 42.457h3.832v3.832h-3.832zm0 0"/></clipPath><clipPath id="CF"><path d="M43.125 42.457h3.832v3.832h-3.832zm0 0"/></clipPath><clipPath id="CG"><path d="M44.965 42.457h3.828v3.832h-3.828zm0 0"/></clipPath><clipPath id="CH"><path d="M46.8 42.457h3.832v3.832H46.8zm0 0"/></clipPath><clipPath id="CI"><path d="M48.64 42.457h3.832v3.832H48.64zm0 0"/></clipPath><clipPath id="CJ"><path d="M50.477 42.457h3.832v3.832h-3.832zm0 0"/></clipPath><clipPath id="CK"><path d="M52.316 42.457h3.832v3.832h-3.832zm0 0"/></clipPath><clipPath id="CL"><path d="M54.156 42.457h3.828v3.832h-3.828zm0 0"/></clipPath><clipPath id="CM"><path d="M55.992 42.457h3.832v3.832h-3.832zm0 0"/></clipPath><clipPath id="CN"><path d="M57.832 42.457h3.832v3.832h-3.832zm0 0"/></clipPath><clipPath id="CO"><path d="M59.672 42.457H63.5v3.832h-3.828zm0 0"/></clipPath><clipPath id="CP"><path d="M61.508 42.457h3.832v3.832h-3.832zm0 0"/></clipPath><clipPath id="CQ"><path d="M63.348 42.457h3.832v3.832h-3.832zm0 0"/></clipPath><clipPath id="CR"><path d="M65.184 42.457h3.832v3.832h-3.832zm0 0"/></clipPath><clipPath id="CS"><path d="M67.023 42.457h3.832v3.832h-3.832zm0 0"/></clipPath><clipPath id="CT"><path d="M68.863 42.457h2.203v3.832h-2.203zm0 0"/></clipPath><clipPath id="CU"><path d="M70.7 42.457h.367v3.832H70.7zm0 0"/></clipPath><clipPath id="CV"><path d="M30.53 40.617h1.72v3.832h-1.72zm0 0"/></clipPath><clipPath id="CW"><path d="M30.53 40.617h3.555v3.832H30.53zm0 0"/></clipPath><clipPath id="CX"><path d="M32.094 40.617h3.832v3.832h-3.832zm0 0"/></clipPath><clipPath id="CY"><path d="M33.934 40.617h3.832v3.832h-3.832zm0 0"/></clipPath><clipPath id="CZ"><path d="M35.77 40.617h3.832v3.832H35.77zm0 0"/></clipPath><clipPath id="Ca"><path d="M37.61 40.617h3.832v3.832H37.61zm0 0"/></clipPath><clipPath id="Cb"><path d="M39.45 40.617h3.828v3.832H39.45zm0 0"/></clipPath><clipPath id="Cc"><path d="M41.285 40.617h3.832v3.832h-3.832zm0 0"/></clipPath><clipPath id="Cd"><path d="M43.125 40.617h3.832v3.832h-3.832zm0 0"/></clipPath><clipPath id="Ce"><path d="M44.965 40.617h3.828v3.832h-3.828zm0 0"/></clipPath><clipPath id="Cf"><path d="M46.8 40.617h3.832v3.832H46.8zm0 0"/></clipPath><clipPath id="Cg"><path d="M48.64 40.617h3.832v3.832H48.64zm0 0"/></clipPath><clipPath id="Ch"><path d="M50.477 40.617h3.832v3.832h-3.832zm0 0"/></clipPath><clipPath id="Ci"><path d="M52.316 40.617h3.832v3.832h-3.832zm0 0"/></clipPath><clipPath id="Cj"><path d="M54.156 40.617h3.828v3.832h-3.828zm0 0"/></clipPath><clipPath id="Ck"><path d="M55.992 40.617h3.832v3.832h-3.832zm0 0"/></clipPath><clipPath id="Cl"><path d="M57.832 40.617h3.832v3.832h-3.832zm0 0"/></clipPath><clipPath id="Cm"><path d="M59.672 40.617H63.5v3.832h-3.828zm0 0"/></clipPath><clipPath id="Cn"><path d="M61.508 40.617h3.832v3.832h-3.832zm0 0"/></clipPath><clipPath id="Co"><path d="M63.348 40.617h3.832v3.832h-3.832zm0 0"/></clipPath><clipPath id="Cp"><path d="M65.184 40.617h3.832v3.832h-3.832zm0 0"/></clipPath><clipPath id="Cq"><path d="M67.023 40.617h3.832v3.832h-3.832zm0 0"/></clipPath><clipPath id="Cr"><path d="M68.863 40.617h2.203v3.832h-2.203zm0 0"/></clipPath><clipPath id="Cs"><path d="M70.7 40.617h.367v3.832H70.7zm0 0"/></clipPath><clipPath id="Ct"><path d="M30.53 38.78h1.72v3.828h-1.72zm0 0"/></clipPath><clipPath id="Cu"><path d="M30.53 38.78h3.555v3.828H30.53zm0 0"/></clipPath><clipPath id="Cv"><path d="M32.094 38.78h3.832v3.828h-3.832zm0 0"/></clipPath><clipPath id="Cw"><path d="M33.934 38.78h3.832v3.828h-3.832zm0 0"/></clipPath><clipPath id="Cx"><path d="M35.77 38.78h3.832v3.828H35.77zm0 0"/></clipPath><clipPath id="Cy"><path d="M37.61 38.78h3.832v3.828H37.61zm0 0"/></clipPath><clipPath id="Cz"><path d="M39.45 38.78h3.828v3.828H39.45zm0 0"/></clipPath><clipPath id="DA"><path d="M41.285 38.78h3.832v3.828h-3.832zm0 0"/></clipPath><clipPath id="DB"><path d="M43.125 38.78h3.832v3.828h-3.832zm0 0"/></clipPath><clipPath id="DC"><path d="M44.965 38.78h3.828v3.828h-3.828zm0 0"/></clipPath><clipPath id="DD"><path d="M46.8 38.78h3.832v3.828H46.8zm0 0"/></clipPath><clipPath id="DE"><path d="M48.64 38.78h3.832v3.828H48.64zm0 0"/></clipPath><clipPath id="DF"><path d="M50.477 38.78h3.832v3.828h-3.832zm0 0"/></clipPath><clipPath id="DG"><path d="M52.316 38.78h3.832v3.828h-3.832zm0 0"/></clipPath><clipPath id="DH"><path d="M54.156 38.78h3.828v3.828h-3.828zm0 0"/></clipPath><clipPath id="DI"><path d="M55.992 38.78h3.832v3.828h-3.832zm0 0"/></clipPath><clipPath id="DJ"><path d="M57.832 38.78h3.832v3.828h-3.832zm0 0"/></clipPath><clipPath id="DK"><path d="M59.672 38.78H63.5v3.828h-3.828zm0 0"/></clipPath><clipPath id="DL"><path d="M61.508 38.78h3.832v3.828h-3.832zm0 0"/></clipPath><clipPath id="DM"><path d="M63.348 38.78h3.832v3.828h-3.832zm0 0"/></clipPath><clipPath id="DN"><path d="M65.184 38.78h3.832v3.828h-3.832zm0 0"/></clipPath><clipPath id="DO"><path d="M67.023 38.78h3.832v3.828h-3.832zm0 0"/></clipPath><clipPath id="DP"><path d="M68.863 38.78h2.203v3.828h-2.203zm0 0"/></clipPath><clipPath id="DQ"><path d="M70.7 38.78h.367v3.828H70.7zm0 0"/></clipPath><clipPath id="DR"><path d="M30.53 36.94h1.72v3.832h-1.72zm0 0"/></clipPath><clipPath id="DS"><path d="M30.53 36.94h3.555v3.832H30.53zm0 0"/></clipPath><clipPath id="DT"><path d="M32.094 36.94h3.832v3.832h-3.832zm0 0"/></clipPath><clipPath id="DU"><path d="M33.934 36.94h3.832v3.832h-3.832zm0 0"/></clipPath><clipPath id="DV"><path d="M35.77 36.94h3.832v3.832H35.77zm0 0"/></clipPath><clipPath id="DW"><path d="M37.61 36.94h3.832v3.832H37.61zm0 0"/></clipPath><clipPath id="DX"><path d="M39.45 36.94h3.828v3.832H39.45zm0 0"/></clipPath><clipPath id="DY"><path d="M41.285 36.94h3.832v3.832h-3.832zm0 0"/></clipPath><clipPath id="DZ"><path d="M43.125 36.94h3.832v3.832h-3.832zm0 0"/></clipPath><clipPath id="Da"><path d="M44.965 36.94h3.828v3.832h-3.828zm0 0"/></clipPath><clipPath id="Db"><path d="M46.8 36.94h3.832v3.832H46.8zm0 0"/></clipPath><clipPath id="Dc"><path d="M48.64 36.94h3.832v3.832H48.64zm0 0"/></clipPath><clipPath id="Dd"><path d="M50.477 36.94h3.832v3.832h-3.832zm0 0"/></clipPath><clipPath id="De"><path d="M52.316 36.94h3.832v3.832h-3.832zm0 0"/></clipPath><clipPath id="Df"><path d="M54.156 36.94h3.828v3.832h-3.828zm0 0"/></clipPath><clipPath id="Dg"><path d="M55.992 36.94h3.832v3.832h-3.832zm0 0"/></clipPath><clipPath id="Dh"><path d="M57.832 36.94h3.832v3.832h-3.832zm0 0"/></clipPath><clipPath id="Di"><path d="M59.672 36.94H63.5v3.832h-3.828zm0 0"/></clipPath><clipPath id="Dj"><path d="M61.508 36.94h3.832v3.832h-3.832zm0 0"/></clipPath><clipPath id="Dk"><path d="M63.348 36.94h3.832v3.832h-3.832zm0 0"/></clipPath><clipPath id="Dl"><path d="M65.184 36.94h3.832v3.832h-3.832zm0 0"/></clipPath><clipPath id="Dm"><path d="M67.023 36.94h3.832v3.832h-3.832zm0 0"/></clipPath><clipPath id="Dn"><path d="M68.863 36.94h2.203v3.832h-2.203zm0 0"/></clipPath><clipPath id="Do"><path d="M70.7 36.94h.367v3.832H70.7zm0 0"/></clipPath><clipPath id="Dp"><path d="M30.53 35.102h1.72v3.832h-1.72zm0 0"/></clipPath><clipPath id="Dq"><path d="M30.53 35.102h3.555v3.832H30.53zm0 0"/></clipPath><clipPath id="Dr"><path d="M32.094 35.102h3.832v3.832h-3.832zm0 0"/></clipPath><clipPath id="Ds"><path d="M33.934 35.102h3.832v3.832h-3.832zm0 0"/></clipPath><clipPath id="Dt"><path d="M35.77 35.102h3.832v3.832H35.77zm0 0"/></clipPath><clipPath id="Du"><path d="M37.61 35.102h3.832v3.832H37.61zm0 0"/></clipPath><clipPath id="Dv"><path d="M39.45 35.102h3.828v3.832H39.45zm0 0"/></clipPath><clipPath id="Dw"><path d="M41.285 35.102h3.832v3.832h-3.832zm0 0"/></clipPath><clipPath id="Dx"><path d="M43.125 35.102h3.832v3.832h-3.832zm0 0"/></clipPath><clipPath id="Dy"><path d="M44.965 35.102h3.828v3.832h-3.828zm0 0"/></clipPath><clipPath id="Dz"><path d="M46.8 35.102h3.832v3.832H46.8zm0 0"/></clipPath><clipPath id="EA"><path d="M48.64 35.102h3.832v3.832H48.64zm0 0"/></clipPath><clipPath id="EB"><path d="M50.477 35.102h3.832v3.832h-3.832zm0 0"/></clipPath><clipPath id="EC"><path d="M52.316 35.102h3.832v3.832h-3.832zm0 0"/></clipPath><clipPath id="ED"><path d="M54.156 35.102h3.828v3.832h-3.828zm0 0"/></clipPath><clipPath id="EE"><path d="M55.992 35.102h3.832v3.832h-3.832zm0 0"/></clipPath><clipPath id="EF"><path d="M57.832 35.102h3.832v3.832h-3.832zm0 0"/></clipPath><clipPath id="EG"><path d="M59.672 35.102H63.5v3.832h-3.828zm0 0"/></clipPath><clipPath id="EH"><path d="M61.508 35.102h3.832v3.832h-3.832zm0 0"/></clipPath><clipPath id="EI"><path d="M63.348 35.102h3.832v3.832h-3.832zm0 0"/></clipPath><clipPath id="EJ"><path d="M65.184 35.102h3.832v3.832h-3.832zm0 0"/></clipPath><clipPath id="EK"><path d="M67.023 35.102h3.832v3.832h-3.832zm0 0"/></clipPath><clipPath id="EL"><path d="M68.863 35.102h2.203v3.832h-2.203zm0 0"/></clipPath><clipPath id="EM"><path d="M70.7 35.102h.367v3.832H70.7zm0 0"/></clipPath><clipPath id="EN"><path d="M30.53 33.266h1.72v3.832h-1.72zm0 0"/></clipPath><clipPath id="EO"><path d="M30.53 33.266h3.555v3.832H30.53zm0 0"/></clipPath><clipPath id="EP"><path d="M32.094 33.266h3.832v3.832h-3.832zm0 0"/></clipPath><clipPath id="EQ"><path d="M33.934 33.266h3.832v3.832h-3.832zm0 0"/></clipPath><clipPath id="ER"><path d="M35.77 33.266h3.832v3.832H35.77zm0 0"/></clipPath><clipPath id="ES"><path d="M37.61 33.266h3.832v3.832H37.61zm0 0"/></clipPath><clipPath id="ET"><path d="M39.45 33.266h3.828v3.832H39.45zm0 0"/></clipPath><clipPath id="EU"><path d="M41.285 33.266h3.832v3.832h-3.832zm0 0"/></clipPath><clipPath id="EV"><path d="M43.125 33.266h3.832v3.832h-3.832zm0 0"/></clipPath><clipPath id="EW"><path d="M44.965 33.266h3.828v3.832h-3.828zm0 0"/></clipPath><clipPath id="EX"><path d="M46.8 33.266h3.832v3.832H46.8zm0 0"/></clipPath><clipPath id="EY"><path d="M48.64 33.266h3.832v3.832H48.64zm0 0"/></clipPath><clipPath id="EZ"><path d="M50.477 33.266h3.832v3.832h-3.832zm0 0"/></clipPath><clipPath id="Ea"><path d="M52.316 33.266h3.832v3.832h-3.832zm0 0"/></clipPath><clipPath id="Eb"><path d="M54.156 33.266h3.828v3.832h-3.828zm0 0"/></clipPath><clipPath id="Ec"><path d="M55.992 33.266h3.832v3.832h-3.832zm0 0"/></clipPath><clipPath id="Ed"><path d="M57.832 33.266h3.832v3.832h-3.832zm0 0"/></clipPath><clipPath id="Ee"><path d="M59.672 33.266H63.5v3.832h-3.828zm0 0"/></clipPath><clipPath id="Ef"><path d="M61.508 33.266h3.832v3.832h-3.832zm0 0"/></clipPath><clipPath id="Eg"><path d="M63.348 33.266h3.832v3.832h-3.832zm0 0"/></clipPath><clipPath id="Eh"><path d="M65.184 33.266h3.832v3.832h-3.832zm0 0"/></clipPath><clipPath id="Ei"><path d="M67.023 33.266h3.832v3.832h-3.832zm0 0"/></clipPath><clipPath id="Ej"><path d="M68.863 33.266h2.203v3.832h-2.203zm0 0"/></clipPath><clipPath id="Ek"><path d="M70.7 33.266h.367v3.832H70.7zm0 0"/></clipPath><clipPath id="El"><path d="M30.53 31.426h1.72v3.832h-1.72zm0 0"/></clipPath><clipPath id="Em"><path d="M30.53 31.426h3.555v3.832H30.53zm0 0"/></clipPath><clipPath id="En"><path d="M32.094 31.426h3.832v3.832h-3.832zm0 0"/></clipPath><clipPath id="Eo"><path d="M33.934 31.426h3.832v3.832h-3.832zm0 0"/></clipPath><clipPath id="Ep"><path d="M35.77 31.426h3.832v3.832H35.77zm0 0"/></clipPath><clipPath id="Eq"><path d="M37.61 31.426h3.832v3.832H37.61zm0 0"/></clipPath><clipPath id="Er"><path d="M39.45 31.426h3.828v3.832H39.45zm0 0"/></clipPath><clipPath id="Es"><path d="M41.285 31.426h3.832v3.832h-3.832zm0 0"/></clipPath><clipPath id="Et"><path d="M43.125 31.426h3.832v3.832h-3.832zm0 0"/></clipPath><clipPath id="Eu"><path d="M44.965 31.426h3.828v3.832h-3.828zm0 0"/></clipPath><clipPath id="Ev"><path d="M46.8 31.426h3.832v3.832H46.8zm0 0"/></clipPath><clipPath id="Ew"><path d="M48.64 31.426h3.832v3.832H48.64zm0 0"/></clipPath><clipPath id="Ex"><path d="M50.477 31.426h3.832v3.832h-3.832zm0 0"/></clipPath><clipPath id="Ey"><path d="M52.316 31.426h3.832v3.832h-3.832zm0 0"/></clipPath><clipPath id="Ez"><path d="M54.156 31.426h3.828v3.832h-3.828zm0 0"/></clipPath><clipPath id="FA"><path d="M55.992 31.426h3.832v3.832h-3.832zm0 0"/></clipPath><clipPath id="FB"><path d="M57.832 31.426h3.832v3.832h-3.832zm0 0"/></clipPath><clipPath id="FC"><path d="M59.672 31.426H63.5v3.832h-3.828zm0 0"/></clipPath><clipPath id="FD"><path d="M61.508 31.426h3.832v3.832h-3.832zm0 0"/></clipPath><clipPath id="FE"><path d="M63.348 31.426h3.832v3.832h-3.832zm0 0"/></clipPath><clipPath id="FF"><path d="M65.184 31.426h3.832v3.832h-3.832zm0 0"/></clipPath><clipPath id="FG"><path d="M67.023 31.426h3.832v3.832h-3.832zm0 0"/></clipPath><clipPath id="FH"><path d="M68.863 31.426h2.203v3.832h-2.203zm0 0"/></clipPath><clipPath id="FI"><path d="M70.7 31.426h.367v3.832H70.7zm0 0"/></clipPath><clipPath id="FJ"><path d="M30.53 29.6h1.72v3.828h-1.72zm0 0"/></clipPath><clipPath id="FK"><path d="M30.53 29.6h3.555v3.828H30.53zm0 0"/></clipPath><clipPath id="FL"><path d="M32.094 29.6h3.832v3.828h-3.832zm0 0"/></clipPath><clipPath id="FM"><path d="M33.934 29.6h3.832v3.828h-3.832zm0 0"/></clipPath><clipPath id="FN"><path d="M35.77 29.6h3.832v3.828H35.77zm0 0"/></clipPath><clipPath id="FO"><path d="M37.61 29.6h3.832v3.828H37.61zm0 0"/></clipPath><clipPath id="FP"><path d="M39.45 29.6h3.828v3.828H39.45zm0 0"/></clipPath><clipPath id="FQ"><path d="M41.285 29.6h3.832v3.828h-3.832zm0 0"/></clipPath><clipPath id="FR"><path d="M43.125 29.6h3.832v3.828h-3.832zm0 0"/></clipPath><clipPath id="FS"><path d="M44.965 29.6h3.828v3.828h-3.828zm0 0"/></clipPath><clipPath id="FT"><path d="M46.8 29.6h3.832v3.828H46.8zm0 0"/></clipPath><clipPath id="FU"><path d="M48.64 29.6h3.832v3.828H48.64zm0 0"/></clipPath><clipPath id="FV"><path d="M50.477 29.6h3.832v3.828h-3.832zm0 0"/></clipPath><clipPath id="FW"><path d="M52.316 29.6h3.832v3.828h-3.832zm0 0"/></clipPath><clipPath id="FX"><path d="M54.156 29.6h3.828v3.828h-3.828zm0 0"/></clipPath><clipPath id="FY"><path d="M55.992 29.6h3.832v3.828h-3.832zm0 0"/></clipPath><clipPath id="FZ"><path d="M57.832 29.6h3.832v3.828h-3.832zm0 0"/></clipPath><clipPath id="Fa"><path d="M59.672 29.6H63.5v3.828h-3.828zm0 0"/></clipPath><clipPath id="Fb"><path d="M61.508 29.6h3.832v3.828h-3.832zm0 0"/></clipPath><clipPath id="Fc"><path d="M63.348 29.6h3.832v3.828h-3.832zm0 0"/></clipPath><clipPath id="Fd"><path d="M65.184 29.6h3.832v3.828h-3.832zm0 0"/></clipPath><clipPath id="Fe"><path d="M67.023 29.6h3.832v3.828h-3.832zm0 0"/></clipPath><clipPath id="Ff"><path d="M68.863 29.6h2.203v3.828h-2.203zm0 0"/></clipPath><clipPath id="Fg"><path d="M70.7 29.6h.367v3.828H70.7zm0 0"/></clipPath><clipPath id="Fh"><path d="M30.53 28.082h1.72v3.5h-1.72zm0 0"/></clipPath><clipPath id="Fi"><path d="M30.53 28.082h3.555v3.5H30.53zm0 0"/></clipPath><clipPath id="Fj"><path d="M32.094 28.082h3.832v3.5h-3.832zm0 0"/></clipPath><clipPath id="Fk"><path d="M33.934 28.082h3.832v3.5h-3.832zm0 0"/></clipPath><clipPath id="Fl"><path d="M35.77 28.082h3.832v3.5H35.77zm0 0"/></clipPath><clipPath id="Fm"><path d="M37.61 28.082h3.832v3.5H37.61zm0 0"/></clipPath><clipPath id="Fn"><path d="M39.45 28.082h3.828v3.5H39.45zm0 0"/></clipPath><clipPath id="Fo"><path d="M41.285 28.082h3.832v3.5h-3.832zm0 0"/></clipPath><clipPath id="Fp"><path d="M43.125 28.082h3.832v3.5h-3.832zm0 0"/></clipPath><clipPath id="Fq"><path d="M44.965 28.082h3.828v3.5h-3.828zm0 0"/></clipPath><clipPath id="Fr"><path d="M46.8 28.082h3.832v3.5H46.8zm0 0"/></clipPath><clipPath id="Fs"><path d="M48.64 28.082h3.832v3.5H48.64zm0 0"/></clipPath><clipPath id="Ft"><path d="M50.477 28.082h3.832v3.5h-3.832zm0 0"/></clipPath><clipPath id="Fu"><path d="M52.316 28.082h3.832v3.5h-3.832zm0 0"/></clipPath><clipPath id="Fv"><path d="M54.156 28.082h3.828v3.5h-3.828zm0 0"/></clipPath><clipPath id="Fw"><path d="M55.992 28.082h3.832v3.5h-3.832zm0 0"/></clipPath><clipPath id="Fx"><path d="M57.832 28.082h3.832v3.5h-3.832zm0 0"/></clipPath><clipPath id="Fy"><path d="M59.672 28.082H63.5v3.5h-3.828zm0 0"/></clipPath><clipPath id="Fz"><path d="M61.508 28.082h3.832v3.5h-3.832zm0 0"/></clipPath><clipPath id="GA"><path d="M63.348 28.082h3.832v3.5h-3.832zm0 0"/></clipPath><clipPath id="GB"><path d="M65.184 28.082h3.832v3.5h-3.832zm0 0"/></clipPath><clipPath id="GC"><path d="M67.023 28.082h3.832v3.5h-3.832zm0 0"/></clipPath><clipPath id="GD"><path d="M68.863 28.082h2.203v3.5h-2.203zm0 0"/></clipPath><clipPath id="GE"><path d="M70.7 28.082h.367v3.5H70.7zm0 0"/></clipPath><clipPath id="GF"><path d="M30.53 28.082h1.72v1.66h-1.72zm0 0"/></clipPath><clipPath id="GG"><path d="M30.53 28.082h3.555v1.66H30.53zm0 0"/></clipPath><clipPath id="GH"><path d="M32.094 28.082h3.832v1.66h-3.832zm0 0"/></clipPath><clipPath id="GI"><path d="M33.934 28.082h3.832v1.66h-3.832zm0 0"/></clipPath><clipPath id="GJ"><path d="M35.77 28.082h3.832v1.66H35.77zm0 0"/></clipPath><clipPath id="GK"><path d="M37.61 28.082h3.832v1.66H37.61zm0 0"/></clipPath><clipPath id="GL"><path d="M39.45 28.082h3.828v1.66H39.45zm0 0"/></clipPath><clipPath id="GM"><path d="M41.285 28.082h3.832v1.66h-3.832zm0 0"/></clipPath><clipPath id="GN"><path d="M43.125 28.082h3.832v1.66h-3.832zm0 0"/></clipPath><clipPath id="GO"><path d="M44.965 28.082h3.828v1.66h-3.828zm0 0"/></clipPath><clipPath id="GP"><path d="M46.8 28.082h3.832v1.66H46.8zm0 0"/></clipPath><clipPath id="GQ"><path d="M48.64 28.082h3.832v1.66H48.64zm0 0"/></clipPath><clipPath id="GR"><path d="M50.477 28.082h3.832v1.66h-3.832zm0 0"/></clipPath><clipPath id="GS"><path d="M52.316 28.082h3.832v1.66h-3.832zm0 0"/></clipPath><clipPath id="GT"><path d="M54.156 28.082h3.828v1.66h-3.828zm0 0"/></clipPath><clipPath id="GU"><path d="M55.992 28.082h3.832v1.66h-3.832zm0 0"/></clipPath><clipPath id="GV"><path d="M57.832 28.082h3.832v1.66h-3.832zm0 0"/></clipPath><clipPath id="GW"><path d="M59.672 28.082H63.5v1.66h-3.828zm0 0"/></clipPath><clipPath id="GX"><path d="M61.508 28.082h3.832v1.66h-3.832zm0 0"/></clipPath><clipPath id="GY"><path d="M63.348 28.082h3.832v1.66h-3.832zm0 0"/></clipPath><clipPath id="GZ"><path d="M65.184 28.082h3.832v1.66h-3.832zm0 0"/></clipPath><clipPath id="Ga"><path d="M67.023 28.082h3.832v1.66h-3.832zm0 0"/></clipPath><clipPath id="Gb"><path d="M68.863 28.082h2.203v1.66h-2.203zm0 0"/></clipPath><clipPath id="Gc"><path d="M70.7 28.082h.367v1.66H70.7zm0 0"/></clipPath><clipPath id="Gd"><path d="M0 30h40v31.836H0zm0 0"/></clipPath><clipPath id="Ge"><path d="M8 42h20v19.836H8zm0 0"/></clipPath><path id="Gf" d="M35.512 28.082a4.98 4.98 0 0 0-2.504-4.32"/><path id="Gg" d="M19.352 55.012a4.98 4.98 0 0 0-2.453-4.293"/></defs><g fill="rgb(0%,0%,0%)"><use xlink:href="#A" x="8.877" y="60.177"/><use xlink:href="#B" x="40.705" y="5.064"/><use xlink:href="#C" x="109.676" y="60.177"/><use xlink:href="#D" x="28.237" y="60.177"/><use xlink:href="#E" x="68.793" y="60.177"/><use xlink:href="#F" x="25.38" y="26.324"/><use xlink:href="#G" x="72.825" y="26.324"/><use xlink:href="#H" x="40.588" y="60.177"/></g><g class="B C D H"><path d="M14.37 55.012L42.72 6.824l65.2 48.187H14.37"/><path d="M42.72 6.824v48.187"/><path d="M14.37 55.012H.2" class="I"/></g><g clip-path="url(#I)" class="B C D H I"><path d="M107.918 55.012H122.1"/></g><g class="B C D H"><path d="M30.53 28.082H9.27m61.796 0h21.258" class="I"/><path d="M30.53 55.012v-26.93h40.535v26.93"/></g><g clip-path="url(#J)" class="B C D E"><path d="M29.414 56.32l2.836-2.832"/></g><g clip-path="url(#K)" class="B C D E"><path d="M31.254 56.32l2.832-2.832"/></g><g clip-path="url(#L)" class="B C D E"><path d="M33.1 56.32l2.836-2.832"/></g><g clip-path="url(#M)" class="B C D E"><path d="M34.93 56.32l2.836-2.832"/></g><g clip-path="url(#N)" class="B C D E"><path d="M36.77 56.32l2.832-2.832"/></g><g clip-path="url(#O)" class="B C D E"><path d="M38.605 56.32l2.836-2.832"/></g><g clip-path="url(#P)" class="B C D E"><path d="M40.445 56.32l2.832-2.832"/></g><g clip-path="url(#Q)" class="B C D E"><path d="M42.28 56.32l2.836-2.832"/></g><g clip-path="url(#R)" class="B C D E"><path d="M44.12 56.32l2.836-2.832"/></g><g clip-path="url(#S)" class="B C D E"><path d="M45.96 56.32l2.832-2.832"/></g><g clip-path="url(#T)" class="B C D E"><path d="M47.797 56.32l2.836-2.832"/></g><g clip-path="url(#U)" class="B C D E"><path d="M49.637 56.32l2.836-2.832"/></g><g clip-path="url(#V)" class="B C D E"><path d="M51.477 56.32l2.832-2.832"/></g><g clip-path="url(#W)" class="B C D E"><path d="M53.313 56.32l2.836-2.832"/></g><g clip-path="url(#X)" class="B C D E"><path d="M55.152 56.32l2.832-2.832"/></g><g clip-path="url(#Y)" class="B C D E"><path d="M56.988 56.32l2.836-2.832"/></g><g clip-path="url(#Z)" class="B C D E"><path d="M58.828 56.32l2.836-2.832"/></g><g clip-path="url(#a)" class="B C D E"><path d="M60.668 56.32l2.832-2.832"/></g><g clip-path="url(#b)" class="B C D E"><path d="M62.504 56.32l2.836-2.832"/></g><g clip-path="url(#c)" class="B C D E"><path d="M64.344 56.32l2.836-2.832"/></g><g clip-path="url(#d)" class="B C D E"><path d="M66.184 56.32l2.832-2.832"/></g><g clip-path="url(#e)" class="B C D E"><path d="M68.02 56.32l2.836-2.832"/></g><g clip-path="url(#f)" class="B C D E"><path d="M69.86 56.32l2.832-2.832"/></g><g clip-path="url(#g)" class="B C D E"><path d="M71.695 56.32l2.836-2.832"/></g><g clip-path="url(#h)" class="B C D E"><path d="M29.414 54.484l2.836-2.836"/></g><g clip-path="url(#i)" class="B C D E"><path d="M31.254 54.484l2.832-2.836"/></g><g clip-path="url(#j)" class="B C D E"><path d="M33.1 54.484l2.836-2.836"/></g><g clip-path="url(#k)" class="B C D E"><path d="M34.93 54.484l2.836-2.836"/></g><g clip-path="url(#l)" class="B C D E"><path d="M36.77 54.484l2.832-2.836"/></g><g clip-path="url(#m)" class="B C D E"><path d="M38.605 54.484l2.836-2.836"/></g><g clip-path="url(#n)" class="B C D E"><path d="M40.445 54.484l2.832-2.836"/></g><g clip-path="url(#o)" class="B C D E"><path d="M42.28 54.484l2.836-2.836"/></g><g clip-path="url(#p)" class="B C D E"><path d="M44.12 54.484l2.836-2.836"/></g><g clip-path="url(#q)" class="B C D E"><path d="M45.96 54.484l2.832-2.836"/></g><g clip-path="url(#r)" class="B C D E"><path d="M47.797 54.484l2.836-2.836"/></g><g clip-path="url(#s)" class="B C D E"><path d="M49.637 54.484l2.836-2.836"/></g><g clip-path="url(#t)" class="B C D E"><path d="M51.477 54.484l2.832-2.836"/></g><g clip-path="url(#u)" class="B C D E"><path d="M53.313 54.484l2.836-2.836"/></g><g clip-path="url(#v)" class="B C D E"><path d="M55.152 54.484l2.832-2.836"/></g><g clip-path="url(#w)" class="B C D E"><path d="M56.988 54.484l2.836-2.836"/></g><g clip-path="url(#x)" class="B C D E"><path d="M58.828 54.484l2.836-2.836"/></g><g clip-path="url(#y)" class="B C D E"><path d="M60.668 54.484l2.832-2.836"/></g><g clip-path="url(#z)" class="B C D E"><path d="M62.504 54.484l2.836-2.836"/></g><g clip-path="url(#AA)" class="B C D E"><path d="M64.344 54.484l2.836-2.836"/></g><g clip-path="url(#AB)" class="B C D E"><path d="M66.184 54.484l2.832-2.836"/></g><g clip-path="url(#AC)" class="B C D E"><path d="M68.02 54.484l2.836-2.836"/></g><g clip-path="url(#AD)" class="B C D E"><path d="M69.86 54.484l2.832-2.836"/></g><g clip-path="url(#AE)" class="B C D E"><path d="M71.695 54.484l2.836-2.836"/></g><g clip-path="url(#AF)" class="B C D E"><path d="M29.414 52.645l2.836-2.836"/></g><g clip-path="url(#AG)" class="B C D E"><path d="M31.254 52.645l2.832-2.836"/></g><g clip-path="url(#AH)" class="B C D E"><path d="M33.1 52.645l2.836-2.836"/></g><g clip-path="url(#AI)" class="B C D E"><path d="M34.93 52.645l2.836-2.836"/></g><g clip-path="url(#AJ)" class="B C D E"><path d="M36.77 52.645l2.832-2.836"/></g><g clip-path="url(#AK)" class="B C D E"><path d="M38.605 52.645l2.836-2.836"/></g><g clip-path="url(#AL)" class="B C D E"><path d="M40.445 52.645l2.832-2.836"/></g><g clip-path="url(#AM)" class="B C D E"><path d="M42.28 52.645l2.836-2.836"/></g><g clip-path="url(#AN)" class="B C D E"><path d="M44.12 52.645l2.836-2.836"/></g><g clip-path="url(#AO)" class="B C D E"><path d="M45.96 52.645l2.832-2.836"/></g><g clip-path="url(#AP)" class="B C D E"><path d="M47.797 52.645l2.836-2.836"/></g><g clip-path="url(#AQ)" class="B C D E"><path d="M49.637 52.645l2.836-2.836"/></g><g clip-path="url(#AR)" class="B C D E"><path d="M51.477 52.645l2.832-2.836"/></g><g clip-path="url(#AS)" class="B C D E"><path d="M53.313 52.645l2.836-2.836"/></g><g clip-path="url(#AT)" class="B C D E"><path d="M55.152 52.645l2.832-2.836"/></g><g clip-path="url(#AU)" class="B C D E"><path d="M56.988 52.645l2.836-2.836"/></g><g clip-path="url(#AV)" class="B C D E"><path d="M58.828 52.645l2.836-2.836"/></g><g clip-path="url(#AW)" class="B C D E"><path d="M60.668 52.645L63.5 49.81"/></g><g clip-path="url(#AX)" class="B C D E"><path d="M62.504 52.645l2.836-2.836"/></g><g clip-path="url(#AY)" class="B C D E"><path d="M64.344 52.645l2.836-2.836"/></g><g clip-path="url(#AZ)" class="B C D E"><path d="M66.184 52.645l2.832-2.836"/></g><g clip-path="url(#Aa)" class="B C D E"><path d="M68.02 52.645l2.836-2.836"/></g><g clip-path="url(#Ab)" class="B C D E"><path d="M69.86 52.645l2.832-2.836"/></g><g clip-path="url(#Ac)" class="B C D E"><path d="M71.695 52.645l2.836-2.836"/></g><g clip-path="url(#Ad)" class="B C D E"><path d="M29.414 50.81l2.836-2.836"/></g><g clip-path="url(#Ae)" class="B C D E"><path d="M31.254 50.81l2.832-2.836"/></g><g clip-path="url(#Af)" class="B C D E"><path d="M33.1 50.81l2.836-2.836"/></g><g clip-path="url(#Ag)" class="B C D E"><path d="M34.93 50.81l2.836-2.836"/></g><g clip-path="url(#Ah)" class="B C D E"><path d="M36.77 50.81l2.832-2.836"/></g><g clip-path="url(#Ai)" class="B C D E"><path d="M38.605 50.81l2.836-2.836"/></g><g clip-path="url(#Aj)" class="B C D E"><path d="M40.445 50.81l2.832-2.836"/></g><g clip-path="url(#Ak)" class="B C D E"><path d="M42.28 50.81l2.836-2.836"/></g><g clip-path="url(#Al)" class="B C D E"><path d="M44.12 50.81l2.836-2.836"/></g><g clip-path="url(#Am)" class="B C D E"><path d="M45.96 50.81l2.832-2.836"/></g><g clip-path="url(#An)" class="B C D E"><path d="M47.797 50.81l2.836-2.836"/></g><g clip-path="url(#Ao)" class="B C D E"><path d="M49.637 50.81l2.836-2.836"/></g><g clip-path="url(#Ap)" class="B C D E"><path d="M51.477 50.81l2.832-2.836"/></g><g clip-path="url(#Aq)" class="B C D E"><path d="M53.313 50.81l2.836-2.836"/></g><g clip-path="url(#Ar)" class="B C D E"><path d="M55.152 50.81l2.832-2.836"/></g><g clip-path="url(#As)" class="B C D E"><path d="M56.988 50.81l2.836-2.836"/></g><g clip-path="url(#At)" class="B C D E"><path d="M58.828 50.81l2.836-2.836"/></g><g clip-path="url(#Au)" class="B C D E"><path d="M60.668 50.81l2.832-2.836"/></g><g clip-path="url(#Av)" class="B C D E"><path d="M62.504 50.81l2.836-2.836"/></g><g clip-path="url(#Aw)" class="B C D E"><path d="M64.344 50.81l2.836-2.836"/></g><g clip-path="url(#Ax)" class="B C D E"><path d="M66.184 50.81l2.832-2.836"/></g><g clip-path="url(#Ay)" class="B C D E"><path d="M68.02 50.81l2.836-2.836"/></g><g clip-path="url(#Az)" class="B C D E"><path d="M69.86 50.81l2.832-2.836"/></g><g clip-path="url(#BA)" class="B C D E"><path d="M71.695 50.81l2.836-2.836"/></g><g clip-path="url(#BB)" class="B C D E"><path d="M29.414 48.97l2.836-2.836"/></g><g clip-path="url(#BC)" class="B C D E"><path d="M31.254 48.97l2.832-2.836"/></g><g clip-path="url(#BD)" class="B C D E"><path d="M33.1 48.97l2.836-2.836"/></g><g clip-path="url(#BE)" class="B C D E"><path d="M34.93 48.97l2.836-2.836"/></g><g clip-path="url(#BF)" class="B C D E"><path d="M36.77 48.97l2.832-2.836"/></g><g clip-path="url(#BG)" class="B C D E"><path d="M38.605 48.97l2.836-2.836"/></g><g clip-path="url(#BH)" class="B C D E"><path d="M40.445 48.97l2.832-2.836"/></g><g clip-path="url(#BI)" class="B C D E"><path d="M42.28 48.97l2.836-2.836"/></g><g clip-path="url(#BJ)" class="B C D E"><path d="M44.12 48.97l2.836-2.836"/></g><g clip-path="url(#BK)" class="B C D E"><path d="M45.96 48.97l2.832-2.836"/></g><g clip-path="url(#BL)" class="B C D E"><path d="M47.797 48.97l2.836-2.836"/></g><g clip-path="url(#BM)" class="B C D E"><path d="M49.637 48.97l2.836-2.836"/></g><g clip-path="url(#BN)" class="B C D E"><path d="M51.477 48.97l2.832-2.836"/></g><g clip-path="url(#BO)" class="B C D E"><path d="M53.313 48.97l2.836-2.836"/></g><g clip-path="url(#BP)" class="B C D E"><path d="M55.152 48.97l2.832-2.836"/></g><g clip-path="url(#BQ)" class="B C D E"><path d="M56.988 48.97l2.836-2.836"/></g><g clip-path="url(#BR)" class="B C D E"><path d="M58.828 48.97l2.836-2.836"/></g><g clip-path="url(#BS)" class="B C D E"><path d="M60.668 48.97l2.832-2.836"/></g><g clip-path="url(#BT)" class="B C D E"><path d="M62.504 48.97l2.836-2.836"/></g><g clip-path="url(#BU)" class="B C D E"><path d="M64.344 48.97l2.836-2.836"/></g><g clip-path="url(#BV)" class="B C D E"><path d="M66.184 48.97l2.832-2.836"/></g><g clip-path="url(#BW)" class="B C D E"><path d="M68.02 48.97l2.836-2.836"/></g><g clip-path="url(#BX)" class="B C D E"><path d="M69.86 48.97l2.832-2.836"/></g><g clip-path="url(#BY)" class="B C D E"><path d="M71.695 48.97l2.836-2.836"/></g><g clip-path="url(#BZ)" class="B C D E"><path d="M29.414 47.13l2.836-2.832"/></g><g clip-path="url(#Ba)" class="B C D E"><path d="M31.254 47.13l2.832-2.832"/></g><g clip-path="url(#Bb)" class="B C D E"><path d="M33.1 47.13l2.836-2.832"/></g><g clip-path="url(#Bc)" class="B C D E"><path d="M34.93 47.13l2.836-2.832"/></g><g clip-path="url(#Bd)" class="B C D E"><path d="M36.77 47.13l2.832-2.832"/></g><g clip-path="url(#Be)" class="B C D E"><path d="M38.605 47.13l2.836-2.832"/></g><g clip-path="url(#Bf)" class="B C D E"><path d="M40.445 47.13l2.832-2.832"/></g><g clip-path="url(#Bg)" class="B C D E"><path d="M42.28 47.13l2.836-2.832"/></g><g clip-path="url(#Bh)" class="B C D E"><path d="M44.12 47.13l2.836-2.832"/></g><g clip-path="url(#Bi)" class="B C D E"><path d="M45.96 47.13l2.832-2.832"/></g><g clip-path="url(#Bj)" class="B C D E"><path d="M47.797 47.13l2.836-2.832"/></g><g clip-path="url(#Bk)" class="B C D E"><path d="M49.637 47.13l2.836-2.832"/></g><g clip-path="url(#Bl)" class="B C D E"><path d="M51.477 47.13l2.832-2.832"/></g><g clip-path="url(#Bm)" class="B C D E"><path d="M53.313 47.13l2.836-2.832"/></g><g clip-path="url(#Bn)" class="B C D E"><path d="M55.152 47.13l2.832-2.832"/></g><g clip-path="url(#Bo)" class="B C D E"><path d="M56.988 47.13l2.836-2.832"/></g><g clip-path="url(#Bp)" class="B C D E"><path d="M58.828 47.13l2.836-2.832"/></g><g clip-path="url(#Bq)" class="B C D E"><path d="M60.668 47.13l2.832-2.832"/></g><g clip-path="url(#Br)" class="B C D E"><path d="M62.504 47.13l2.836-2.832"/></g><g clip-path="url(#Bs)" class="B C D E"><path d="M64.344 47.13l2.836-2.832"/></g><g clip-path="url(#Bt)" class="B C D E"><path d="M66.184 47.13l2.832-2.832"/></g><g clip-path="url(#Bu)" class="B C D E"><path d="M68.02 47.13l2.836-2.832"/></g><g clip-path="url(#Bv)" class="B C D E"><path d="M69.86 47.13l2.832-2.832"/></g><g clip-path="url(#Bw)" class="B C D E"><path d="M71.695 47.13l2.836-2.832"/></g><g clip-path="url(#Bx)" class="B C D E"><path d="M29.414 45.293l2.836-2.836"/></g><g clip-path="url(#By)" class="B C D E"><path d="M31.254 45.293l2.832-2.836"/></g><g clip-path="url(#Bz)" class="B C D E"><path d="M33.1 45.293l2.836-2.836"/></g><g clip-path="url(#CA)" class="B C D E"><path d="M34.93 45.293l2.836-2.836"/></g><g clip-path="url(#CB)" class="B C D E"><path d="M36.77 45.293l2.832-2.836"/></g><g clip-path="url(#CC)" class="B C D E"><path d="M38.605 45.293l2.836-2.836"/></g><g clip-path="url(#CD)" class="B C D E"><path d="M40.445 45.293l2.832-2.836"/></g><g clip-path="url(#CE)" class="B C D E"><path d="M42.28 45.293l2.836-2.836"/></g><g clip-path="url(#CF)" class="B C D E"><path d="M44.12 45.293l2.836-2.836"/></g><g clip-path="url(#CG)" class="B C D E"><path d="M45.96 45.293l2.832-2.836"/></g><g clip-path="url(#CH)" class="B C D E"><path d="M47.797 45.293l2.836-2.836"/></g><g clip-path="url(#CI)" class="B C D E"><path d="M49.637 45.293l2.836-2.836"/></g><g clip-path="url(#CJ)" class="B C D E"><path d="M51.477 45.293l2.832-2.836"/></g><g clip-path="url(#CK)" class="B C D E"><path d="M53.313 45.293l2.836-2.836"/></g><g clip-path="url(#CL)" class="B C D E"><path d="M55.152 45.293l2.832-2.836"/></g><g clip-path="url(#CM)" class="B C D E"><path d="M56.988 45.293l2.836-2.836"/></g><g clip-path="url(#CN)" class="B C D E"><path d="M58.828 45.293l2.836-2.836"/></g><g clip-path="url(#CO)" class="B C D E"><path d="M60.668 45.293l2.832-2.836"/></g><g clip-path="url(#CP)" class="B C D E"><path d="M62.504 45.293l2.836-2.836"/></g><g clip-path="url(#CQ)" class="B C D E"><path d="M64.344 45.293l2.836-2.836"/></g><g clip-path="url(#CR)" class="B C D E"><path d="M66.184 45.293l2.832-2.836"/></g><g clip-path="url(#CS)" class="B C D E"><path d="M68.02 45.293l2.836-2.836"/></g><g clip-path="url(#CT)" class="B C D E"><path d="M69.86 45.293l2.832-2.836"/></g><g clip-path="url(#CU)" class="B C D E"><path d="M71.695 45.293l2.836-2.836"/></g><g clip-path="url(#CV)" class="B C D E"><path d="M29.414 43.453l2.836-2.836"/></g><g clip-path="url(#CW)" class="B C D E"><path d="M31.254 43.453l2.832-2.836"/></g><g clip-path="url(#CX)" class="B C D E"><path d="M33.1 43.453l2.836-2.836"/></g><g clip-path="url(#CY)" class="B C D E"><path d="M34.93 43.453l2.836-2.836"/></g><g clip-path="url(#CZ)" class="B C D E"><path d="M36.77 43.453l2.832-2.836"/></g><g clip-path="url(#Ca)" class="B C D E"><path d="M38.605 43.453l2.836-2.836"/></g><g clip-path="url(#Cb)" class="B C D E"><path d="M40.445 43.453l2.832-2.836"/></g><g clip-path="url(#Cc)" class="B C D E"><path d="M42.28 43.453l2.836-2.836"/></g><g clip-path="url(#Cd)" class="B C D E"><path d="M44.12 43.453l2.836-2.836"/></g><g clip-path="url(#Ce)" class="B C D E"><path d="M45.96 43.453l2.832-2.836"/></g><g clip-path="url(#Cf)" class="B C D E"><path d="M47.797 43.453l2.836-2.836"/></g><g clip-path="url(#Cg)" class="B C D E"><path d="M49.637 43.453l2.836-2.836"/></g><g clip-path="url(#Ch)" class="B C D E"><path d="M51.477 43.453l2.832-2.836"/></g><g clip-path="url(#Ci)" class="B C D E"><path d="M53.313 43.453l2.836-2.836"/></g><g clip-path="url(#Cj)" class="B C D E"><path d="M55.152 43.453l2.832-2.836"/></g><g clip-path="url(#Ck)" class="B C D E"><path d="M56.988 43.453l2.836-2.836"/></g><g clip-path="url(#Cl)" class="B C D E"><path d="M58.828 43.453l2.836-2.836"/></g><g clip-path="url(#Cm)" class="B C D E"><path d="M60.668 43.453l2.832-2.836"/></g><g clip-path="url(#Cn)" class="B C D E"><path d="M62.504 43.453l2.836-2.836"/></g><g clip-path="url(#Co)" class="B C D E"><path d="M64.344 43.453l2.836-2.836"/></g><g clip-path="url(#Cp)" class="B C D E"><path d="M66.184 43.453l2.832-2.836"/></g><g clip-path="url(#Cq)" class="B C D E"><path d="M68.02 43.453l2.836-2.836"/></g><g clip-path="url(#Cr)" class="B C D E"><path d="M69.86 43.453l2.832-2.836"/></g><g clip-path="url(#Cs)" class="B C D E"><path d="M71.695 43.453l2.836-2.836"/></g><g clip-path="url(#Ct)" class="B C D E"><path d="M29.414 41.613l2.836-2.832"/></g><g clip-path="url(#Cu)" class="B C D E"><path d="M31.254 41.613l2.832-2.832"/></g><g clip-path="url(#Cv)" class="B C D E"><path d="M33.1 41.613l2.836-2.832"/></g><g clip-path="url(#Cw)" class="B C D E"><path d="M34.93 41.613l2.836-2.832"/></g><g clip-path="url(#Cx)" class="B C D E"><path d="M36.77 41.613l2.832-2.832"/></g><g clip-path="url(#Cy)" class="B C D E"><path d="M38.605 41.613l2.836-2.832"/></g><g clip-path="url(#Cz)" class="B C D E"><path d="M40.445 41.613l2.832-2.832"/></g><g clip-path="url(#DA)" class="B C D E"><path d="M42.28 41.613l2.836-2.832"/></g><g clip-path="url(#DB)" class="B C D E"><path d="M44.12 41.613l2.836-2.832"/></g><g clip-path="url(#DC)" class="B C D E"><path d="M45.96 41.613l2.832-2.832"/></g><g clip-path="url(#DD)" class="B C D E"><path d="M47.797 41.613l2.836-2.832"/></g><g clip-path="url(#DE)" class="B C D E"><path d="M49.637 41.613l2.836-2.832"/></g><g clip-path="url(#DF)" class="B C D E"><path d="M51.477 41.613l2.832-2.832"/></g><g clip-path="url(#DG)" class="B C D E"><path d="M53.313 41.613l2.836-2.832"/></g><g clip-path="url(#DH)" class="B C D E"><path d="M55.152 41.613l2.832-2.832"/></g><g clip-path="url(#DI)" class="B C D E"><path d="M56.988 41.613l2.836-2.832"/></g><g clip-path="url(#DJ)" class="B C D E"><path d="M58.828 41.613l2.836-2.832"/></g><g clip-path="url(#DK)" class="B C D E"><path d="M60.668 41.613L63.5 38.78"/></g><g clip-path="url(#DL)" class="B C D E"><path d="M62.504 41.613l2.836-2.832"/></g><g clip-path="url(#DM)" class="B C D E"><path d="M64.344 41.613l2.836-2.832"/></g><g clip-path="url(#DN)" class="B C D E"><path d="M66.184 41.613l2.832-2.832"/></g><g clip-path="url(#DO)" class="B C D E"><path d="M68.02 41.613l2.836-2.832"/></g><g clip-path="url(#DP)" class="B C D E"><path d="M69.86 41.613l2.832-2.832"/></g><g clip-path="url(#DQ)" class="B C D E"><path d="M71.695 41.613l2.836-2.832"/></g><g clip-path="url(#DR)" class="B C D E"><path d="M29.414 39.777l2.836-2.836"/></g><g clip-path="url(#DS)" class="B C D E"><path d="M31.254 39.777l2.832-2.836"/></g><g clip-path="url(#DT)" class="B C D E"><path d="M33.1 39.777l2.836-2.836"/></g><g clip-path="url(#DU)" class="B C D E"><path d="M34.93 39.777l2.836-2.836"/></g><g clip-path="url(#DV)" class="B C D E"><path d="M36.77 39.777l2.832-2.836"/></g><g clip-path="url(#DW)" class="B C D E"><path d="M38.605 39.777l2.836-2.836"/></g><g clip-path="url(#DX)" class="B C D E"><path d="M40.445 39.777l2.832-2.836"/></g><g clip-path="url(#DY)" class="B C D E"><path d="M42.28 39.777l2.836-2.836"/></g><g clip-path="url(#DZ)" class="B C D E"><path d="M44.12 39.777l2.836-2.836"/></g><g clip-path="url(#Da)" class="B C D E"><path d="M45.96 39.777l2.832-2.836"/></g><g clip-path="url(#Db)" class="B C D E"><path d="M47.797 39.777l2.836-2.836"/></g><g clip-path="url(#Dc)" class="B C D E"><path d="M49.637 39.777l2.836-2.836"/></g><g clip-path="url(#Dd)" class="B C D E"><path d="M51.477 39.777l2.832-2.836"/></g><g clip-path="url(#De)" class="B C D E"><path d="M53.313 39.777l2.836-2.836"/></g><g clip-path="url(#Df)" class="B C D E"><path d="M55.152 39.777l2.832-2.836"/></g><g clip-path="url(#Dg)" class="B C D E"><path d="M56.988 39.777l2.836-2.836"/></g><g clip-path="url(#Dh)" class="B C D E"><path d="M58.828 39.777l2.836-2.836"/></g><g clip-path="url(#Di)" class="B C D E"><path d="M60.668 39.777L63.5 36.94"/></g><g clip-path="url(#Dj)" class="B C D E"><path d="M62.504 39.777l2.836-2.836"/></g><g clip-path="url(#Dk)" class="B C D E"><path d="M64.344 39.777l2.836-2.836"/></g><g clip-path="url(#Dl)" class="B C D E"><path d="M66.184 39.777l2.832-2.836"/></g><g clip-path="url(#Dm)" class="B C D E"><path d="M68.02 39.777l2.836-2.836"/></g><g clip-path="url(#Dn)" class="B C D E"><path d="M69.86 39.777l2.832-2.836"/></g><g clip-path="url(#Do)" class="B C D E"><path d="M71.695 39.777l2.836-2.836"/></g><g clip-path="url(#Dp)" class="B C D E"><path d="M29.414 37.938l2.836-2.836"/></g><g clip-path="url(#Dq)" class="B C D E"><path d="M31.254 37.938l2.832-2.836"/></g><g clip-path="url(#Dr)" class="B C D E"><path d="M33.1 37.938l2.836-2.836"/></g><g clip-path="url(#Ds)" class="B C D E"><path d="M34.93 37.938l2.836-2.836"/></g><g clip-path="url(#Dt)" class="B C D E"><path d="M36.77 37.938l2.832-2.836"/></g><g clip-path="url(#Du)" class="B C D E"><path d="M38.605 37.938l2.836-2.836"/></g><g clip-path="url(#Dv)" class="B C D E"><path d="M40.445 37.938l2.832-2.836"/></g><g clip-path="url(#Dw)" class="B C D E"><path d="M42.28 37.938l2.836-2.836"/></g><g clip-path="url(#Dx)" class="B C D E"><path d="M44.12 37.938l2.836-2.836"/></g><g clip-path="url(#Dy)" class="B C D E"><path d="M45.96 37.938l2.832-2.836"/></g><g clip-path="url(#Dz)" class="B C D E"><path d="M47.797 37.938l2.836-2.836"/></g><g clip-path="url(#EA)" class="B C D E"><path d="M49.637 37.938l2.836-2.836"/></g><g clip-path="url(#EB)" class="B C D E"><path d="M51.477 37.938l2.832-2.836"/></g><g clip-path="url(#EC)" class="B C D E"><path d="M53.313 37.938l2.836-2.836"/></g><g clip-path="url(#ED)" class="B C D E"><path d="M55.152 37.938l2.832-2.836"/></g><g clip-path="url(#EE)" class="B C D E"><path d="M56.988 37.938l2.836-2.836"/></g><g clip-path="url(#EF)" class="B C D E"><path d="M58.828 37.938l2.836-2.836"/></g><g clip-path="url(#EG)" class="B C D E"><path d="M60.668 37.938l2.832-2.836"/></g><g clip-path="url(#EH)" class="B C D E"><path d="M62.504 37.938l2.836-2.836"/></g><g clip-path="url(#EI)" class="B C D E"><path d="M64.344 37.938l2.836-2.836"/></g><g clip-path="url(#EJ)" class="B C D E"><path d="M66.184 37.938l2.832-2.836"/></g><g clip-path="url(#EK)" class="B C D E"><path d="M68.02 37.938l2.836-2.836"/></g><g clip-path="url(#EL)" class="B C D E"><path d="M69.86 37.938l2.832-2.836"/></g><g clip-path="url(#EM)" class="B C D E"><path d="M71.695 37.938l2.836-2.836"/></g><g clip-path="url(#EN)" class="B C D E"><path d="M29.414 36.102l2.836-2.836"/></g><g clip-path="url(#EO)" class="B C D E"><path d="M31.254 36.102l2.832-2.836"/></g><g clip-path="url(#EP)" class="B C D E"><path d="M33.1 36.102l2.836-2.836"/></g><g clip-path="url(#EQ)" class="B C D E"><path d="M34.93 36.102l2.836-2.836"/></g><g clip-path="url(#ER)" class="B C D E"><path d="M36.77 36.102l2.832-2.836"/></g><g clip-path="url(#ES)" class="B C D E"><path d="M38.605 36.102l2.836-2.836"/></g><g clip-path="url(#ET)" class="B C D E"><path d="M40.445 36.102l2.832-2.836"/></g><g clip-path="url(#EU)" class="B C D E"><path d="M42.28 36.102l2.836-2.836"/></g><g clip-path="url(#EV)" class="B C D E"><path d="M44.12 36.102l2.836-2.836"/></g><g clip-path="url(#EW)" class="B C D E"><path d="M45.96 36.102l2.832-2.836"/></g><g clip-path="url(#EX)" class="B C D E"><path d="M47.797 36.102l2.836-2.836"/></g><g clip-path="url(#EY)" class="B C D E"><path d="M49.637 36.102l2.836-2.836"/></g><g clip-path="url(#EZ)" class="B C D E"><path d="M51.477 36.102l2.832-2.836"/></g><g clip-path="url(#Ea)" class="B C D E"><path d="M53.313 36.102l2.836-2.836"/></g><g clip-path="url(#Eb)" class="B C D E"><path d="M55.152 36.102l2.832-2.836"/></g><g clip-path="url(#Ec)" class="B C D E"><path d="M56.988 36.102l2.836-2.836"/></g><g clip-path="url(#Ed)" class="B C D E"><path d="M58.828 36.102l2.836-2.836"/></g><g clip-path="url(#Ee)" class="B C D E"><path d="M60.668 36.102l2.832-2.836"/></g><g clip-path="url(#Ef)" class="B C D E"><path d="M62.504 36.102l2.836-2.836"/></g><g clip-path="url(#Eg)" class="B C D E"><path d="M64.344 36.102l2.836-2.836"/></g><g clip-path="url(#Eh)" class="B C D E"><path d="M66.184 36.102l2.832-2.836"/></g><g clip-path="url(#Ei)" class="B C D E"><path d="M68.02 36.102l2.836-2.836"/></g><g clip-path="url(#Ej)" class="B C D E"><path d="M69.86 36.102l2.832-2.836"/></g><g clip-path="url(#Ek)" class="B C D E"><path d="M71.695 36.102l2.836-2.836"/></g><g clip-path="url(#El)" class="B C D E"><path d="M29.414 34.262l2.836-2.836"/></g><g clip-path="url(#Em)" class="B C D E"><path d="M31.254 34.262l2.832-2.836"/></g><g clip-path="url(#En)" class="B C D E"><path d="M33.1 34.262l2.836-2.836"/></g><g clip-path="url(#Eo)" class="B C D E"><path d="M34.93 34.262l2.836-2.836"/></g><g clip-path="url(#Ep)" class="B C D E"><path d="M36.77 34.262l2.832-2.836"/></g><g clip-path="url(#Eq)" class="B C D E"><path d="M38.605 34.262l2.836-2.836"/></g><g clip-path="url(#Er)" class="B C D E"><path d="M40.445 34.262l2.832-2.836"/></g><g clip-path="url(#Es)" class="B C D E"><path d="M42.28 34.262l2.836-2.836"/></g><g clip-path="url(#Et)" class="B C D E"><path d="M44.12 34.262l2.836-2.836"/></g><g clip-path="url(#Eu)" class="B C D E"><path d="M45.96 34.262l2.832-2.836"/></g><g clip-path="url(#Ev)" class="B C D E"><path d="M47.797 34.262l2.836-2.836"/></g><g clip-path="url(#Ew)" class="B C D E"><path d="M49.637 34.262l2.836-2.836"/></g><g clip-path="url(#Ex)" class="B C D E"><path d="M51.477 34.262l2.832-2.836"/></g><g clip-path="url(#Ey)" class="B C D E"><path d="M53.313 34.262l2.836-2.836"/></g><g clip-path="url(#Ez)" class="B C D E"><path d="M55.152 34.262l2.832-2.836"/></g><g clip-path="url(#FA)" class="B C D E"><path d="M56.988 34.262l2.836-2.836"/></g><g clip-path="url(#FB)" class="B C D E"><path d="M58.828 34.262l2.836-2.836"/></g><g clip-path="url(#FC)" class="B C D E"><path d="M60.668 34.262l2.832-2.836"/></g><g clip-path="url(#FD)" class="B C D E"><path d="M62.504 34.262l2.836-2.836"/></g><g clip-path="url(#FE)" class="B C D E"><path d="M64.344 34.262l2.836-2.836"/></g><g clip-path="url(#FF)" class="B C D E"><path d="M66.184 34.262l2.832-2.836"/></g><g clip-path="url(#FG)" class="B C D E"><path d="M68.02 34.262l2.836-2.836"/></g><g clip-path="url(#FH)" class="B C D E"><path d="M69.86 34.262l2.832-2.836"/></g><g clip-path="url(#FI)" class="B C D E"><path d="M71.695 34.262l2.836-2.836"/></g><g clip-path="url(#FJ)" class="B C D E"><path d="M29.414 32.422L32.25 29.6"/></g><g clip-path="url(#FK)" class="B C D E"><path d="M31.254 32.422l2.832-2.832"/></g><g clip-path="url(#FL)" class="B C D E"><path d="M33.1 32.422l2.836-2.832"/></g><g clip-path="url(#FM)" class="B C D E"><path d="M34.93 32.422l2.836-2.832"/></g><g clip-path="url(#FN)" class="B C D E"><path d="M36.77 32.422l2.832-2.832"/></g><g clip-path="url(#FO)" class="B C D E"><path d="M38.605 32.422L41.44 29.6"/></g><g clip-path="url(#FP)" class="B C D E"><path d="M40.445 32.422l2.832-2.832"/></g><g clip-path="url(#FQ)" class="B C D E"><path d="M42.28 32.422l2.836-2.832"/></g><g clip-path="url(#FR)" class="B C D E"><path d="M44.12 32.422l2.836-2.832"/></g><g clip-path="url(#FS)" class="B C D E"><path d="M45.96 32.422l2.832-2.832"/></g><g clip-path="url(#FT)" class="B C D E"><path d="M47.797 32.422l2.836-2.832"/></g><g clip-path="url(#FU)" class="B C D E"><path d="M49.637 32.422l2.836-2.832"/></g><g clip-path="url(#FV)" class="B C D E"><path d="M51.477 32.422L54.31 29.6"/></g><g clip-path="url(#FW)" class="B C D E"><path d="M53.313 32.422l2.836-2.832"/></g><g clip-path="url(#FX)" class="B C D E"><path d="M55.152 32.422l2.832-2.832"/></g><g clip-path="url(#FY)" class="B C D E"><path d="M56.988 32.422l2.836-2.832"/></g><g clip-path="url(#FZ)" class="B C D E"><path d="M58.828 32.422l2.836-2.832"/></g><g clip-path="url(#Fa)" class="B C D E"><path d="M60.668 32.422L63.5 29.6"/></g><g clip-path="url(#Fb)" class="B C D E"><path d="M62.504 32.422L65.34 29.6"/></g><g clip-path="url(#Fc)" class="B C D E"><path d="M64.344 32.422L67.18 29.6"/></g><g clip-path="url(#Fd)" class="B C D E"><path d="M66.184 32.422l2.832-2.832"/></g><g clip-path="url(#Fe)" class="B C D E"><path d="M68.02 32.422l2.836-2.832"/></g><g clip-path="url(#Ff)" class="B C D E"><path d="M69.86 32.422L72.69 29.6"/></g><g clip-path="url(#Fg)" class="B C D E"><path d="M71.695 32.422L74.53 29.6"/></g><g clip-path="url(#Fh)" class="B C D E"><path d="M29.414 30.586l2.836-2.836"/></g><g clip-path="url(#Fi)" class="B C D E"><path d="M31.254 30.586l2.832-2.836"/></g><g clip-path="url(#Fj)" class="B C D E"><path d="M33.1 30.586l2.836-2.836"/></g><g clip-path="url(#Fk)" class="B C D E"><path d="M34.93 30.586l2.836-2.836"/></g><g clip-path="url(#Fl)" class="B C D E"><path d="M36.77 30.586l2.832-2.836"/></g><g clip-path="url(#Fm)" class="B C D E"><path d="M38.605 30.586l2.836-2.836"/></g><g clip-path="url(#Fn)" class="B C D E"><path d="M40.445 30.586l2.832-2.836"/></g><g clip-path="url(#Fo)" class="B C D E"><path d="M42.28 30.586l2.836-2.836"/></g><g clip-path="url(#Fp)" class="B C D E"><path d="M44.12 30.586l2.836-2.836"/></g><g clip-path="url(#Fq)" class="B C D E"><path d="M45.96 30.586l2.832-2.836"/></g><g clip-path="url(#Fr)" class="B C D E"><path d="M47.797 30.586l2.836-2.836"/></g><g clip-path="url(#Fs)" class="B C D E"><path d="M49.637 30.586l2.836-2.836"/></g><g clip-path="url(#Ft)" class="B C D E"><path d="M51.477 30.586l2.832-2.836"/></g><g clip-path="url(#Fu)" class="B C D E"><path d="M53.313 30.586l2.836-2.836"/></g><g clip-path="url(#Fv)" class="B C D E"><path d="M55.152 30.586l2.832-2.836"/></g><g clip-path="url(#Fw)" class="B C D E"><path d="M56.988 30.586l2.836-2.836"/></g><g clip-path="url(#Fx)" class="B C D E"><path d="M58.828 30.586l2.836-2.836"/></g><g clip-path="url(#Fy)" class="B C D E"><path d="M60.668 30.586L63.5 27.75"/></g><g clip-path="url(#Fz)" class="B C D E"><path d="M62.504 30.586l2.836-2.836"/></g><g clip-path="url(#GA)" class="B C D E"><path d="M64.344 30.586l2.836-2.836"/></g><g clip-path="url(#GB)" class="B C D E"><path d="M66.184 30.586l2.832-2.836"/></g><g clip-path="url(#GC)" class="B C D E"><path d="M68.02 30.586l2.836-2.836"/></g><g clip-path="url(#GD)" class="B C D E"><path d="M69.86 30.586l2.832-2.836"/></g><g clip-path="url(#GE)" class="B C D E"><path d="M71.695 30.586l2.836-2.836"/></g><g clip-path="url(#GF)" class="B C D E"><path d="M29.414 28.746L32.25 25.9"/></g><g clip-path="url(#GG)" class="B C D E"><path d="M31.254 28.746l2.832-2.836"/></g><g clip-path="url(#GH)" class="B C D E"><path d="M33.1 28.746l2.836-2.836"/></g><g clip-path="url(#GI)" class="B C D E"><path d="M34.93 28.746l2.836-2.836"/></g><g clip-path="url(#GJ)" class="B C D E"><path d="M36.77 28.746l2.832-2.836"/></g><g clip-path="url(#GK)" class="B C D E"><path d="M38.605 28.746L41.44 25.9"/></g><g clip-path="url(#GL)" class="B C D E"><path d="M40.445 28.746l2.832-2.836"/></g><g clip-path="url(#GM)" class="B C D E"><path d="M42.28 28.746l2.836-2.836"/></g><g clip-path="url(#GN)" class="B C D E"><path d="M44.12 28.746l2.836-2.836"/></g><g clip-path="url(#GO)" class="B C D E"><path d="M45.96 28.746l2.832-2.836"/></g><g clip-path="url(#GP)" class="B C D E"><path d="M47.797 28.746l2.836-2.836"/></g><g clip-path="url(#GQ)" class="B C D E"><path d="M49.637 28.746l2.836-2.836"/></g><g clip-path="url(#GR)" class="B C D E"><path d="M51.477 28.746L54.31 25.9"/></g><g clip-path="url(#GS)" class="B C D E"><path d="M53.313 28.746l2.836-2.836"/></g><g clip-path="url(#GT)" class="B C D E"><path d="M55.152 28.746l2.832-2.836"/></g><g clip-path="url(#GU)" class="B C D E"><path d="M56.988 28.746l2.836-2.836"/></g><g clip-path="url(#GV)" class="B C D E"><path d="M58.828 28.746l2.836-2.836"/></g><g clip-path="url(#GW)" class="B C D E"><path d="M60.668 28.746L63.5 25.9"/></g><g clip-path="url(#GX)" class="B C D E"><path d="M62.504 28.746L65.34 25.9"/></g><g clip-path="url(#GY)" class="B C D E"><path d="M64.344 28.746L67.18 25.9"/></g><g clip-path="url(#GZ)" class="B C D E"><path d="M66.184 28.746l2.832-2.836"/></g><g clip-path="url(#Ga)" class="B C D E"><path d="M68.02 28.746l2.836-2.836"/></g><g clip-path="url(#Gb)" class="B C D E"><path d="M69.86 28.746L72.69 25.9"/></g><g clip-path="url(#Gc)" class="B C D E"><path d="M71.695 28.746L74.53 25.9"/></g><g class="B C"><path d="M40.19 11.117a4.98 4.98 0 0 0 6.531-1.332" stroke="rgb(84.70459%,18.824768%,19.216919%)" class="H"/><use xlink:href="#Gf" class="J K"/><use xlink:href="#Gf" class="L M"/></g><g clip-path="url(#Gd)" class="B C J K"><use xlink:href="#Gg"/></g><g clip-path="url(#Ge)" class="B C L M"><use xlink:href="#Gg"/></g></svg>