<svg xmlns="http://www.w3.org/2000/svg" xmlns:xlink="http://www.w3.org/1999/xlink" width="259.548" height="235.965" viewBox="0 0 194.661 176.974" xmlns:v="https://vecta.io/nano"><style><![CDATA[.B{overflow:visible}.C{stroke:none}.D{stroke-miterlimit:10}.E{fill:none}.F{stroke-width:.399}.G{stroke:rgb(50%,50%,50%)}.H{fill:rgb(0%,0%,0%)}.I{stroke-dasharray:2.98883,2.98883}.J{stroke:rgb(0%,0%,0%)}.K{stroke:rgb(0%,62.353516%,95.684814%)}]]></style><defs><symbol id="A" class="B"><path d="M2.938-6.375c0-.25 0-.266-.234-.266C2.078-6 1.203-6 .89-6v.313c.203 0 .78 0 1.297-.266V-.78c0 .36-.03.47-.922.47H.953V0c.344-.03 1.203-.03 1.61-.03l1.61.03v-.312H3.86c-.906 0-.922-.11-.922-.47zm0 0" class="C"/></symbol><symbol id="B" class="B"><path d="M1.266-.766l1.063-1.03c1.547-1.375 2.14-1.906 2.14-2.906 0-1.14-.89-1.937-2.11-1.937C1.234-6.64.5-5.72.5-4.828c0 .547.5.547.53.547.172 0 .516-.11.516-.53a.51.51 0 0 0-.531-.516c-.078 0-.094 0-.125.016.22-.656.766-1.016 1.344-1.016.906 0 1.328.813 1.328 1.625 0 .797-.484 1.578-1.047 2.203L.61-.375C.5-.266.5-.234.5 0h3.703l.266-1.734h-.234C4.172-1.437 4.11-1 4-.844c-.062.078-.72.078-.937.078zm0 0" class="C"/></symbol><symbol id="C" class="B"><path d="M2.89-3.516c.813-.266 1.39-.953 1.39-1.75 0-.812-.875-1.375-1.828-1.375-1 0-1.766.594-1.766 1.36a.48.48 0 0 0 .516.516c.297 0 .5-.22.5-.516 0-.484-.47-.484-.61-.484.297-.5.953-.625 1.313-.625.422 0 .97.22.97 1.11 0 .125-.03.703-.28 1.14a.93.93 0 0 1-.891.516 3.29 3.29 0 0 1-.391.031c-.078.016-.14.03-.14.125 0 .11.063.11.234.11h.438c.813 0 1.188.672 1.188 1.656 0 1.36-.687 1.64-1.125 1.64S1.22-.234.875-.812c.344.047.656-.172.656-.547 0-.36-.266-.562-.547-.562a.53.53 0 0 0-.562.578C.422-.437 1.344.22 2.438.22c1.22 0 2.125-.906 2.125-1.922 0-.812-.64-1.594-1.672-1.812zm0 0" class="C"/></symbol><symbol id="D" class="B"><path d="M2.938-1.64v.86c0 .36-.03.47-.766.47H1.97V0c.406-.03.922-.03 1.344-.03l1.36.03v-.312h-.22c-.734 0-.75-.11-.75-.47v-.86h.984v-.312h-.984v-4.53c0-.203 0-.266-.172-.266-.078 0-.11 0-.187.125L.28-1.953v.313zm.047-.312H.563l2.422-3.72zm0 0" class="C"/></symbol><symbol id="E" class="B"><path d="M4.47-2c0-1.187-.812-2.187-1.89-2.187-.47 0-.906.156-1.266.516v-1.953c.203.063.53.125.844.125 1.234 0 1.938-.906 1.938-1.03 0-.062-.03-.11-.11-.11 0 0-.03 0-.078.03a3.22 3.22 0 0 1-1.359.297c-.39 0-.86-.078-1.328-.28-.078-.03-.094-.03-.11-.03-.11 0-.11.078-.11.234v2.953c0 .172 0 .25.14.25.078 0 .094-.016.14-.078.11-.156.47-.703 1.28-.703.516 0 .766.453.844.64.156.375.188.75.188 1.25 0 .36 0 .953-.25 1.375-.234.39-.61.64-1.062.64-.72 0-1.297-.53-1.47-1.11.03 0 .063.016.172.016a.48.48 0 0 0 .5-.484c0-.25-.172-.5-.5-.5-.14 0-.484.078-.484.53C.5-.75 1.188.22 2.297.22 3.453.22 4.47-.734 4.47-2zm0 0" class="C"/></symbol><symbol id="F" class="B"><path d="M1.313-3.266v-.25c0-2.516 1.234-2.875 1.75-2.875.234 0 .656.063.875.406-.156 0-.547 0-.547.438 0 .313.234.47.453.47.156 0 .47-.094.47-.484 0-.594-.437-1.078-1.266-1.078-1.28 0-2.625 1.28-2.625 3.484C.422-.484 1.578.22 2.5.22c1.11 0 2.063-.937 2.063-2.25 0-1.266-.89-2.22-2-2.22-.672 0-1.047.5-1.25.984zM2.5-.062c-.625 0-.922-.594-.984-.75-.187-.47-.187-1.266-.187-1.437 0-.78.328-1.78 1.22-1.78.172 0 .625 0 .938.625.172.36.172.875.172 1.36s0 .984-.172 1.344c-.297.594-.75.64-.984.64zm0 0" class="C"/></symbol><symbol id="G" class="B"><path d="M3.297 2.39c0-.03 0-.047-.172-.22C1.89.922 1.563-.97 1.563-2.5c0-1.734.375-3.47 1.61-4.703.125-.125.125-.14.125-.172 0-.078-.03-.11-.094-.11-.11 0-1 .688-1.594 1.953C1.11-4.437.984-3.328.984-2.5c0 .78.11 1.984.656 3.125C2.25 1.844 3.094 2.5 3.203 2.5c.063 0 .094-.03.094-.11zm0 0" class="C"/></symbol><symbol id="H" class="B"><path d="M2.875-2.5c0-.766-.11-1.97-.656-3.11C1.625-6.828.766-7.484.672-7.484c-.062 0-.11.047-.11.11 0 .03 0 .047.188.234.984.984 1.547 2.563 1.547 4.64 0 1.72-.36 3.47-1.594 4.72-.14.125-.14.14-.14.172 0 .063.047.11.11.11.094 0 1-.687 1.578-1.953.516-1.094.625-2.203.625-3.047zm0 0" class="C"/></symbol><symbol id="I" class="B"><path d="M3.328-3.016c.063-.25.297-1.172.984-1.172.047 0 .297 0 .5.125-.28.063-.47.297-.47.547 0 .156.11.344.375.344.22 0 .53-.172.53-.578 0-.516-.578-.656-.922-.656-.578 0-.922.53-1.047.75a1.09 1.09 0 0 0-1.078-.75c-1.03 0-1.61 1.28-1.61 1.53 0 .11.11.11.125.11.078 0 .11-.03.125-.11.344-1.062 1-1.312 1.344-1.312.188 0 .53.094.53.672 0 .313-.172.97-.53 2.375-.156.61-.516 1.03-.953 1.03-.062 0-.28 0-.5-.125.25-.062.47-.266.47-.547 0-.266-.22-.344-.36-.344-.312 0-.547.25-.547.578 0 .453.484.656.922.656.672 0 1.03-.703 1.047-.75a1.12 1.12 0 0 0 1.078.75c1.03 0 1.594-1.28 1.594-1.53 0-.11-.078-.11-.11-.11-.094 0-.11.047-.14.11C4.36-.344 3.688-.11 3.375-.11c-.39 0-.547-.312-.547-.656 0-.22.047-.437.156-.875zm0 0" class="C"/></symbol><symbol id="J" class="B"><path d="M3.016-3.156H4.72c1.406 0 2.797-1.03 2.797-2.14 0-.78-.656-1.516-1.97-1.516h-3.22c-.187 0-.297 0-.297.188 0 .125.078.125.28.125l.422.016c.172.03.22.047.22.172 0 .03 0 .063-.03.188L1.578-.78c-.094.39-.11.47-.906.47-.156 0-.266 0-.266.188 0 .125.11.125.14.125l1.266-.03 1.28.03c.078 0 .203 0 .203-.203 0-.11-.094-.11-.28-.11-.36 0-.64 0-.64-.172 0-.062.016-.11.03-.172zm.72-2.97c.094-.344.11-.375.547-.375h.953c.828 0 1.36.266 1.36.953 0 .39-.203 1.25-.594 1.61-.5.453-1.094.53-1.53.53H3.063zm0 0" class="C"/></symbol><symbol id="K" class="B"><path d="M3.516-1.266H3.28c-.016.156-.094.563-.187.625-.047.047-.578.047-.687.047h-1.28l1.39-1.172c.516-.406 1-.844 1-1.5 0-.844-.734-1.36-1.625-1.36-.86 0-1.453.61-1.453 1.25 0 .344.297.39.375.39.156 0 .36-.125.36-.375 0-.125-.047-.375-.406-.375.22-.484.688-.64 1.016-.64.703 0 1.063.547 1.063 1.11 0 .61-.437 1.078-.656 1.328L.516-.266C.438-.203.438-.187.438 0h2.875zm0 0" class="C"/></symbol><clipPath id="L"><path d="M191 159h3.66v5H191zm0 0"/></clipPath><clipPath id="M"><path d="M106 26h2v135.586h-2zm0 0"/></clipPath><clipPath id="N"><path d="M72 .195h64v161.39H72zm0 0"/></clipPath></defs><g class="E D"><path d="M107.137 163.715v-4.254m-24.54-20.29h4.25m-4.25-22.414h4.25m-4.25-22.418h4.25m-4.25-22.414h4.25m-4.25-22.414h4.25m-4.25-22.418h4.25" stroke-width=".199" class="G"/><path d="M.2 161.586h192.273" class="F J"/></g><g clip-path="url(#L)" class="H"><path d="M194.465 161.586l-3.187-1.594 1.195 1.594-1.195 1.594"/></g><path d="M84.723 161.586V2.188" class="D E F J"/><g class="H"><path d="M84.723.195l-1.594 3.19 1.594-1.2 1.594 1.2"/><use xlink:href="#A" x="104.647" y="173.653"/><use xlink:href="#A" x="74.095" y="142.383"/><use xlink:href="#B" x="74.095" y="119.968"/><use xlink:href="#C" x="74.095" y="97.553"/><use xlink:href="#D" x="74.095" y="75.138"/><use xlink:href="#E" x="74.095" y="52.722"/><use xlink:href="#F" x="74.095" y="30.307"/></g><path d="M84.723 27.094h22.414m-22.414 89.664h22.414" class="D E F G I"/><g clip-path="url(#M)" class="D E F G I"><path d="M107.137 161.586V27.094"/></g><path d="M84.723 27.094l22.414 89.66" stroke-width=".797" class="D E K"/><g clip-path="url(#N)" class="D E F I K"><path d="M77.996.195l51.555 206.223"/></g><g class="H"><use xlink:href="#I" x="185.248" y="158.068"/><use xlink:href="#J" x="88.242" y="11.191"/><use xlink:href="#K" x="94.638" y="12.685"/><use xlink:href="#G" x="99.108" y="11.191"/><use xlink:href="#I" x="102.982" y="11.191"/><use xlink:href="#H" x="108.676" y="11.191"/></g></svg>