<?xml version="1.0" encoding="UTF-8"?>
<svg id="_Слой_1" data-name="Слой 1" xmlns="http://www.w3.org/2000/svg" viewBox="0 0 512 512">
  <defs>
    <style>
      .cls-1 {
        fill: #fff;
      }
    </style>
  </defs>
  <path class="cls-1" d="m256,0C114.62,0,0,114.62,0,256s114.62,256,256,256,256-114.62,256-256S397.38,0,256,0Zm0,512c-106.77-36-183.65-137-183.65-255.95S149.23,36.09,256,.05c106.77,36,183.65,137,183.65,256s-76.88,219.86-183.65,255.95Zm116-339.82v177.33c.01.99-.28,1.96-.85,2.77-.79.97-1.86,1.67-3.07,2-1.93.61-3.91,1.03-5.92,1.23-3.12.34-6.25.5-9.39.46-3.08.03-6.17-.12-9.23-.46-1.99-.2-3.94-.61-5.84-1.23-1.2-.35-2.27-1.05-3.07-2-.61-.79-.94-1.77-.93-2.77v-161.95h-.31l-57.67,161.8c-.37,1.26-1.06,2.4-2,3.31-1.09.96-2.38,1.67-3.77,2.07-1.97.58-4.01.92-6.07,1-2.47.16-5.44.23-8.93.23s-6.46-.13-8.92-.38c-2.06-.18-4.1-.59-6.07-1.23-1.38-.44-2.66-1.15-3.77-2.08-.89-.77-1.53-1.79-1.85-2.92l-55.67-161.8h-.31v162c0,.99-.29,1.96-.85,2.77-.81.98-1.91,1.69-3.15,2-1.93.6-3.91,1.02-5.92,1.23-3.09.34-6.2.5-9.31.46-3.08.03-6.17-.12-9.23-.46-2.01-.2-3.99-.62-5.92-1.23-1.21-.33-2.28-1.03-3.07-2-.57-.81-.86-1.78-.85-2.77v-177.38c0-5.23,1.38-9.23,4.15-12s6.45-4.16,11.05-4.18h26.45c4.08-.06,8.15.32,12.15,1.15,3.16.67,6.14,1.97,8.77,3.84,2.54,1.89,4.64,4.3,6.15,7.08,1.85,3.44,3.29,7.07,4.31,10.84l43.06,118.59h.62l44.6-118.28c1.11-3.77,2.58-7.43,4.39-10.92,1.39-2.72,3.27-5.17,5.53-7.23,2.15-1.87,4.7-3.21,7.46-3.92,3.27-.82,6.63-1.2,10-1.15h27.25c2.43-.05,4.84.31,7.15,1.07,1.88.64,3.57,1.72,4.93,3.16,1.33,1.46,2.32,3.19,2.92,5.07.7,2.23,1.04,4.55,1,6.88Z"/>
</svg>