<svg xmlns="http://www.w3.org/2000/svg" xmlns:xlink="http://www.w3.org/1999/xlink" width="840.192" height="424.7987" viewBox="0 0 630.144 318.599"><defs><symbol overflow="visible" id="a"><path d="M3.3281-3.0156c.0625-.25.2969-1.1719.9844-1.1719.0469 0 .2969 0 .5.125-.2813.0625-.4688.2969-.4688.5469 0 .1562.1094.3437.375.3437.2188 0 .5313-.1719.5313-.5781 0-.5156-.5781-.6563-.9219-.6563-.5781 0-.9219.5313-1.0469.75-.25-.6562-.7812-.75-1.078-.75C1.1718-4.4063.5937-3.125.5937-2.875c0 .1094.1093.1094.125.1094.078 0 .1093-.0313.125-.1094.3437-1.0625 1-1.3125 1.3437-1.3125.1875 0 .5313.0938.5313.6719 0 .3125-.172.9687-.5313 2.375-.1563.6094-.5156 1.0312-.9531 1.0312-.0625 0-.2813 0-.5-.125.25-.0625.4687-.2656.4687-.5469 0-.2656-.2187-.3437-.3594-.3437-.3125 0-.5468.25-.5468.5781 0 .4532.4844.6563.9219.6563.6718 0 1.0312-.7031 1.0468-.75.125.3593.4844.75 1.0781.75 1.0313 0 1.5938-1.2813 1.5938-1.5313 0-.1094-.0781-.1094-.1094-.1094-.0937 0-.1094.047-.1406.1094-.3281 1.0781-1 1.3125-1.3125 1.3125-.3906 0-.5469-.3125-.5469-.6562 0-.2188.0469-.4375.1563-.875zm0 0"/></symbol><symbol overflow="visible" id="c"><path d="M4.8438-3.7969c.0468-.1406.0468-.1562.0468-.2344 0-.1718-.1406-.2656-.2969-.2656-.0937 0-.25.0625-.3437.2031-.0156.0625-.1094.3594-.1406.547-.0781.25-.1406.5312-.2031.7968L3.453-.9531c-.0312.1406-.4687.8437-1.125.8437-.5 0-.6094-.4375-.6094-.8125 0-.4531.172-1.0781.5-1.9531.1563-.4063.2032-.5156.2032-.7188 0-.4375-.3125-.8125-.8125-.8125C.6563-4.4063.2969-2.953.2969-2.875c0 .1094.0937.1094.1094.1094.1093 0 .1093-.0313.1562-.1875.2813-.9375.6719-1.2344 1.0156-1.2344.0781 0 .25 0 .25.3125 0 .25-.1094.5156-.1719.7031-.4062 1.0625-.578 1.625-.578 2.0938 0 .8906.625 1.1875 1.2187 1.1875.3906 0 .7187-.1719 1-.4531-.125.5156-.25 1.0156-.6406 1.5468-.2657.3281-.6407.625-1.0938.625-.1406 0-.5938-.0312-.7656-.4219.1562 0 .2968 0 .4218-.125.1094-.078.2032-.2187.2032-.4062 0-.3125-.2656-.3438-.3594-.3438C.8281.5313.5.6875.5 1.172c0 .5.4375.875 1.0625.875 1.0156 0 2.0469-.9063 2.3281-2.0313zm0 0"/></symbol><symbol overflow="visible" id="n"><path d="M2.6406-3.7188h1.125c-.3281 1.4688-.4219 1.9063-.4219 2.5782 0 .1406 0 .4062.0782.75.1094.4375.2187.5.3594.5.203 0 .4218-.1719.4218-.375 0-.0625 0-.0781-.0625-.2188-.2969-.7187-.2969-1.375-.2969-1.6562 0-.5156.0782-1.0625.1875-1.5781h1.125c.1407 0 .5 0 .5-.3438 0-.2344-.2187-.2344-.4062-.2344H1.9062c-.2187 0-.5937 0-1.0312.4688-.3438.3906-.6094.8437-.6094.8906 0 .0156 0 .1094.125.1094.0781 0 .0938-.0469.1563-.125.4843-.7656 1.0625-.7656 1.2656-.7656h.5625c-.3125 1.203-.8438 2.4062-1.2656 3.3125-.0781.1562-.0781.1718-.0781.25 0 .1875.1562.2656.2812.2656.2969 0 .375-.2813.5-.6406.1406-.4688.1406-.4844.2656-.9844zm0 0"/></symbol><symbol overflow="visible" id="d"><path d="M2.9375-6.375c0-.25 0-.2656-.2344-.2656C2.0781-6 1.2031-6 .8906-6v.3125c.2032 0 .7813 0 1.2969-.2656v5.1719c0 .3593-.0313.4687-.9219.4687H.9531V0c.3438-.0313 1.2031-.0313 1.6094-.0313.3906 0 1.2656 0 1.6094.0313v-.3125h-.3125c-.9063 0-.9219-.1094-.9219-.4688zm0 0"/></symbol><symbol overflow="visible" id="e"><path d="M1.2656-.7656L2.3281-1.797C3.875-3.1719 4.4687-3.703 4.4687-4.703c0-1.1406-.8906-1.9375-2.1093-1.9375C1.2344-6.6406.5-5.7187.5-4.8281c0 .5469.5.5469.5313.5469.1718 0 .5156-.1094.5156-.5313 0-.25-.1875-.5156-.5313-.5156-.0781 0-.0937 0-.125.0156.2188-.6563.7657-1.0156 1.3438-1.0156.9062 0 1.3281.8125 1.3281 1.625 0 .7969-.4844 1.5781-1.0469 2.2031L.6094-.375C.5-.2656.5-.2344.5 0h3.7031l.2656-1.7344h-.2343C4.1719-1.4375 4.1094-1 4-.8438c-.0625.0782-.7188.0782-.9375.0782zm0 0"/></symbol><symbol overflow="visible" id="f"><path d="M2.8906-3.5156c.8125-.2656 1.3906-.9531 1.3906-1.75 0-.8125-.875-1.375-1.828-1.375-1 0-1.7657.5937-1.7657 1.3594 0 .328.2188.5156.5156.5156.2969 0 .5-.2188.5-.5156 0-.4844-.4687-.4844-.6094-.4844.297-.5.9532-.625 1.3126-.625.4218 0 .9687.2187.9687 1.1094 0 .125-.0313.703-.2813 1.1406-.2968.4844-.6406.5156-.8906.5156-.0781.0156-.3125.0313-.3906.0313-.0781.0156-.1406.0312-.1406.125 0 .1093.0625.1093.2344.1093h.4374c.8125 0 1.1875.6719 1.1875 1.6563 0 1.3594-.6875 1.6406-1.125 1.6406S1.2188-.2344.875-.8125c.3438.0469.6563-.1719.6563-.5469 0-.3594-.2657-.5625-.547-.5625-.25 0-.5624.1406-.5624.5781 0 .9063.9219 1.5626 2.0156 1.5626 1.2188 0 2.125-.9063 2.125-1.922 0-.8124-.6406-1.5937-1.6719-1.8124zm0 0"/></symbol><symbol overflow="visible" id="g"><path d="M2.9375-1.6406v.8594c0 .3593-.0313.4687-.7656.4687h-.2031V0c.4062-.0313.9218-.0313 1.3437-.0313.4219 0 .9375 0 1.3594.0313v-.3125H4.453c-.7344 0-.75-.1094-.75-.4688v-.8593h.9844v-.3125h-.9844v-4.5313c0-.2031 0-.2656-.1719-.2656-.078 0-.1093 0-.1875.125L.2813-1.9531v.3125zm.0469-.3125H.5625L2.9844-5.672zm0 0"/></symbol><symbol overflow="visible" id="h"><path d="M4.4688-2c0-1.1875-.8125-2.1875-1.8907-2.1875-.4687 0-.9062.1563-1.2656.5156V-5.625c.2031.0625.5313.125.8438.125 1.2343 0 1.9375-.9063 1.9375-1.0313 0-.0625-.0313-.1093-.1094-.1093 0 0-.0313 0-.0781.0312-.2032.0938-.6875.2969-1.3594.2969-.3906 0-.8594-.0781-1.3281-.2813-.0782-.0312-.0938-.0312-.1094-.0312C1-6.625 1-6.5469 1-6.3906v2.9531c0 .1719 0 .25.1406.25.0781 0 .0938-.0156.1406-.0781.1094-.1563.4688-.7031 1.2813-.7031.5156 0 .7656.453.8438.6406.1562.375.1875.75.1875 1.25 0 .3594 0 .9531-.25 1.375-.2344.3906-.6094.6406-1.0625.6406-.7188 0-1.297-.5313-1.4688-1.1094.0313 0 .0625.0156.1719.0156.3281 0 .5-.25.5-.4843 0-.25-.1719-.5-.5-.5-.1407 0-.4844.0781-.4844.5312C.5-.75 1.1875.2187 2.2969.2187 3.453.2188 4.4688-.7342 4.4688-2zm0 0"/></symbol><symbol overflow="visible" id="i"><path d="M1.3125-3.2656v-.25c0-2.5156 1.2344-2.875 1.75-2.875.2344 0 .6563.0625.875.4062-.1563 0-.5469 0-.5469.4375 0 .3125.2344.4688.4531.4688.1563 0 .4688-.0938.4688-.4844 0-.5938-.4375-1.0781-1.2656-1.0781-1.2813 0-2.625 1.2812-2.625 3.4844C.4219-.4844 1.578.2188 2.5.2188c1.1094 0 2.0625-.9375 2.0625-2.25 0-1.2657-.8906-2.2188-2-2.2188-.6719 0-1.0469.5-1.25.9844zM2.5-.0625c-.625 0-.9219-.5938-.9844-.75-.1875-.4688-.1875-1.2656-.1875-1.4375 0-.7813.3281-1.7813 1.2188-1.7813.1719 0 .625 0 .9375.625.1719.3594.1719.875.1719 1.3594 0 .4844 0 .9844-.172 1.3438-.2968.5937-.75.6406-.9843.6406zm0 0"/></symbol><symbol overflow="visible" id="j"><path d="M4.75-6.0781c.0781-.1094.0781-.125.0781-.3438H2.4062c-1.203 0-1.2343-.125-1.2656-.3125h-.25L.5625-4.6875h.25c.0313-.1563.1094-.7813.25-.9063.0625-.0625.8438-.0625.9688-.0625h2.0625c-.1094.1563-.8907 1.25-1.1094 1.5782C2.078-2.7344 1.75-1.3437 1.75-.3281c0 .0937 0 .5469.4688.5469.453 0 .453-.4532.453-.547v-.5155c0-.547.0313-1.0938.1094-1.625.047-.2344.172-1.0938.625-1.7032zm0 0"/></symbol><symbol overflow="visible" id="k"><path d="M1.625-4.5625c-.4531-.2969-.5-.625-.5-.7969 0-.6094.6563-1.0312 1.3594-1.0312.7187 0 1.3594.5156 1.3594 1.2344 0 .578-.3907 1.0468-.9844 1.3906zm1.4531.9531c.7188-.375 1.2031-.8906 1.2031-1.5469 0-.9218-.875-1.4843-1.7812-1.4843-1 0-1.8125.7344-1.8125 1.6719 0 .1718.0156.625.4375 1.0937.1094.1094.4844.3594.7344.5313C1.2813-3.047.4219-2.5.4219-1.5.4219-.4531 1.4375.2188 2.4844.2188c1.125 0 2.0781-.8282 2.0781-1.8907 0-.3594-.1094-.8125-.5-1.2344-.1875-.203-.3438-.2968-.9844-.703zm-1 .4219l1.2344.7813c.2813.1875.75.4843.75 1.0937 0 .7344-.75 1.25-1.5625 1.25C1.6406-.0625.9219-.6719.9219-1.5c0-.5781.3125-1.2188 1.1562-1.6875zm0 0"/></symbol><symbol overflow="visible" id="l"><path d="M3.6563-3.1719v.3281c0 2.3282-1.0313 2.7813-1.6094 2.7813-.1719 0-.7188-.0156-.9844-.3594.4375 0 .5156-.2812.5156-.4531 0-.3125-.2344-.4531-.4531-.4531-.1563 0-.4531.0781-.4531.4687 0 .6719.5312 1.0781 1.375 1.0781 1.2969 0 2.5156-1.3593 2.5156-3.5 0-2.6875-1.1563-3.3593-2.0469-3.3593-.5469 0-1.0312.1875-1.4531.625-.4219.4531-.6406.875-.6406 1.625 0 1.2344.875 2.2187 1.9844 2.2187.6093 0 1.0156-.4219 1.25-1zm-1.2344.7656c-.1563 0-.625 0-.9219-.625-.1875-.375-.1875-.8593-.1875-1.3593 0-.5313 0-1 .2188-1.375.2656-.5.6406-.625.9843-.625.4688 0 .7969.3437.9688.7812.1094.3281.1562.9531.1562 1.4063 0 .8281-.3437 1.7969-1.2187 1.7969zm0 0"/></symbol><symbol overflow="visible" id="m"><path d="M4.5781-3.1875c0-.7969-.0469-1.5938-.3906-2.3281-.4531-.9688-1.2813-1.125-1.6875-1.125-.6094 0-1.3281.2656-1.75 1.1875-.3125.6875-.3594 1.4687-.3594 2.2656 0 .75.0313 1.6406.4531 2.4063.422.7968 1.1563 1 1.6407 1 .5312 0 1.2969-.2032 1.7344-1.1563.3125-.6875.3593-1.4688.3593-2.25zM2.4844 0C2.0938 0 1.5-.25 1.328-1.2031c-.1094-.5938-.1094-1.5156-.1094-2.1094 0-.6406 0-1.2969.0782-1.8281.1875-1.1875.9375-1.2813 1.1875-1.2813.3281 0 .9844.1875 1.1719 1.1719.1093.5625.1093 1.3125.1093 1.9375 0 .75 0 1.4219-.1094 2.0625C3.5-.2969 2.9375 0 2.4844 0zm0 0"/></symbol><symbol overflow="visible" id="o"><path d="M3.2969 2.3906c0-.0312 0-.0469-.1719-.2187C1.8906.9219 1.5625-.9687 1.5625-2.5c0-1.7344.375-3.4688 1.6094-4.7031.125-.125.125-.1406.125-.1719 0-.0781-.0313-.1094-.0938-.1094-.1094 0-1 .6875-1.5937 1.9531-.5 1.0938-.625 2.2032-.625 3.0313 0 .7813.1093 1.9844.6562 3.125C2.25 1.8438 3.0937 2.5 3.2031 2.5c.0625 0 .0938-.0313.0938-.1094zm0 0"/></symbol><symbol overflow="visible" id="p"><path d="M2.875-2.5c0-.7656-.1094-1.9688-.6563-3.1094C1.625-6.828.7657-7.4844.672-7.4844a.1068.1068 0 00-.1094.1094c0 .0313 0 .0469.1875.2344.9844.9844 1.5469 2.5625 1.5469 4.6406 0 1.7188-.3594 3.4688-1.5938 4.7188-.1406.125-.1406.1406-.1406.1718 0 .0625.0469.1094.1094.1094.0937 0 1-.6875 1.5781-1.9531.5156-1.0938.625-2.2031.625-3.0469zm0 0"/></symbol><symbol overflow="visible" id="q"><path d="M3.8906-2.5469c0-.8437-.0781-1.3594-.3437-1.875-.3438-.7031-1-.875-1.4375-.875-1 0-1.375.75-1.4844.9688C.3437-3.75.3281-2.9531.3281-2.547c0 .5313.0156 1.3281.4063 1.9688.3593.5937.9531.75 1.375.75.3906 0 1.0625-.125 1.4687-.9063.2969-.5781.3125-1.2969.3125-1.8125zM2.1094-.0625c-.2656 0-.8125-.125-.9844-.9531-.0938-.4531-.0938-1.2031-.0938-1.625 0-.5469 0-1.1094.0938-1.5469.1719-.8125.7813-.8906.9844-.8906.2656 0 .8281.1406.9844.8594.0937.4375.0937 1.0468.0937 1.578 0 .4688 0 1.1876-.0938 1.6407-.1718.8281-.7187.9375-.9843.9375zm0 0"/></symbol><clipPath id="b"><path d="M28 10h2v308.5977h-2zm0 0"/></clipPath></defs><path d="M.3555 289.8984h619.203" fill="none" stroke-width=".7087" stroke="#000" stroke-miterlimit="10"/><path d="M623.9844 289.8984c-1.3125-.246-3.4414-.9843-4.914-1.8437v3.6875c1.4726-.8594 3.6015-1.5977 4.914-1.8438"/><use xlink:href="#a" x="621.129" y="297.863"/><g clip-path="url(#b)"><path d="M28.6992 318.246V10.8556" fill="none" stroke-width=".7087" stroke="#000" stroke-miterlimit="10"/></g><path d="M28.6992 6.4297c-.2422 1.3125-.9805 3.4414-1.8398 4.914h3.6836c-.8594-1.4726-1.5977-3.6015-1.8438-4.914"/><use xlink:href="#c" x="32.376" y="7.61"/><use xlink:href="#d" x="54.557" y="299.838"/><use xlink:href="#e" x="82.903" y="299.838"/><use xlink:href="#f" x="111.249" y="299.838"/><use xlink:href="#g" x="139.596" y="299.838"/><use xlink:href="#h" x="167.942" y="299.838"/><use xlink:href="#i" x="196.289" y="299.838"/><use xlink:href="#j" x="224.635" y="299.838"/><use xlink:href="#k" x="252.982" y="299.838"/><use xlink:href="#l" x="281.328" y="299.838"/><use xlink:href="#d" x="307.184" y="299.838"/><use xlink:href="#m" x="312.1653" y="299.838"/><use xlink:href="#d" x="335.53" y="299.838"/><use xlink:href="#d" x="340.5113" y="299.838"/><use xlink:href="#d" x="363.877" y="299.838"/><use xlink:href="#e" x="368.8583" y="299.838"/><use xlink:href="#d" x="392.223" y="299.838"/><use xlink:href="#f" x="397.2043" y="299.838"/><use xlink:href="#d" x="420.57" y="299.838"/><use xlink:href="#g" x="425.5513" y="299.838"/><use xlink:href="#d" x="448.916" y="299.838"/><use xlink:href="#h" x="453.8973" y="299.838"/><use xlink:href="#d" x="477.263" y="299.838"/><use xlink:href="#i" x="482.2443" y="299.838"/><use xlink:href="#d" x="505.609" y="299.838"/><use xlink:href="#j" x="510.5903" y="299.838"/><use xlink:href="#d" x="533.955" y="299.838"/><use xlink:href="#k" x="538.9363" y="299.838"/><use xlink:href="#d" x="562.302" y="299.838"/><use xlink:href="#l" x="567.2833" y="299.838"/><use xlink:href="#e" x="590.648" y="299.838"/><use xlink:href="#m" x="595.6293" y="299.838"/><path d="M85.3945 261.5508v28.3476M113.7422 233.2031v56.6953M142.0898 204.8594v85.039M198.7813 176.5117v113.3867M255.4766 148.164v141.7344M368.8633 119.8164v170.082M425.5547 91.4688v198.4296M538.9453 63.125v226.7734M567.289 34.7773v255.1211M85.3945 261.5508H28.6992" fill="none" stroke-width=".3985" stroke="#000" stroke-dasharray="2.98883,2.98883" stroke-miterlimit="10"/><use xlink:href="#d" x="20.2" y="264.762"/><path d="M113.7422 233.2031h-85.043" fill="none" stroke-width=".3985" stroke="#000" stroke-dasharray="2.98883,2.98883" stroke-miterlimit="10"/><use xlink:href="#e" x="20.2" y="236.415"/><path d="M142.0898 204.8594H28.6992" fill="none" stroke-width=".3985" stroke="#000" stroke-dasharray="2.98883,2.98883" stroke-miterlimit="10"/><use xlink:href="#f" x="20.2" y="208.069"/><path d="M198.7813 176.5117H28.6993" fill="none" stroke-width=".3985" stroke="#000" stroke-dasharray="2.98883,2.98883" stroke-miterlimit="10"/><use xlink:href="#g" x="20.2" y="179.722"/><path d="M255.4766 148.164H28.6992" fill="none" stroke-width=".3985" stroke="#000" stroke-dasharray="2.98883,2.98883" stroke-miterlimit="10"/><use xlink:href="#h" x="20.2" y="151.376"/><path d="M368.8633 119.8164H28.6993" fill="none" stroke-width=".3985" stroke="#000" stroke-dasharray="2.98883,2.98883" stroke-miterlimit="10"/><use xlink:href="#i" x="20.2" y="123.03"/><path d="M425.5547 91.4688H28.6992" fill="none" stroke-width=".3985" stroke="#000" stroke-dasharray="2.98883,2.98883" stroke-miterlimit="10"/><use xlink:href="#j" x="20.2" y="94.683"/><path d="M538.9453 63.125H28.6993" fill="none" stroke-width=".3985" stroke="#000" stroke-dasharray="2.98883,2.98883" stroke-miterlimit="10"/><use xlink:href="#k" x="20.2" y="66.337"/><path d="M567.289 34.7773H28.6993" fill="none" stroke-width=".3985" stroke="#000" stroke-dasharray="2.98883,2.98883" stroke-miterlimit="10"/><use xlink:href="#l" x="20.2" y="37.99"/><path d="M31.5352 289.8984c0-1.5664-1.2696-2.8359-2.836-2.8359-1.5625 0-2.832 1.2695-2.832 2.836 0 1.5663 1.2695 2.8359 2.832 2.8359 1.5664 0 2.836-1.2696 2.836-2.836zm0 0" fill="#00f" stroke-width=".3985" stroke="#00f" stroke-miterlimit="10"/><path d="M28.6992 289.8984h56.6953" fill="none" stroke-width="1.1339" stroke="#00f" stroke-miterlimit="10"/><path d="M88.2305 261.5508c0-1.5664-1.2696-2.836-2.836-2.836-1.5664 0-2.836 1.2696-2.836 2.836 0 1.5664 1.2696 2.836 2.836 2.836 1.5664 0 2.836-1.2696 2.836-2.836zm0 0" fill="#00f" stroke-width=".3985" stroke="#00f" stroke-miterlimit="10"/><path d="M85.3945 261.5508h28.3477" fill="none" stroke-width="1.1339" stroke="#00f" stroke-miterlimit="10"/><path d="M116.5742 233.2031c0-1.5625-1.2656-2.832-2.832-2.832-1.5664 0-2.836 1.2695-2.836 2.832 0 1.5664 1.2696 2.836 2.836 2.836 1.5664 0 2.832-1.2696 2.832-2.836zm0 0" fill="#00f" stroke-width=".3985" stroke="#00f" stroke-miterlimit="10"/><path d="M113.7422 233.2031h28.3476" fill="none" stroke-width="1.1339" stroke="#00f" stroke-miterlimit="10"/><path d="M144.9219 204.8594c0-1.5664-1.2696-2.836-2.832-2.836-1.5665 0-2.836 1.2696-2.836 2.836 0 1.5625 1.2695 2.832 2.836 2.832 1.5624 0 2.832-1.2695 2.832-2.832zm0 0" fill="#00f" stroke-width=".3985" stroke="#00f" stroke-miterlimit="10"/><path d="M142.0898 204.8594h56.6915" fill="none" stroke-width="1.1339" stroke="#00f" stroke-miterlimit="10"/><path d="M201.6172 176.5117c0-1.5664-1.2695-2.836-2.836-2.836-1.5664 0-2.8359 1.2696-2.8359 2.836 0 1.5664 1.2695 2.832 2.836 2.832 1.5664 0 2.8359-1.2656 2.8359-2.832zm0 0" fill="#00f" stroke-width=".3985" stroke="#00f" stroke-miterlimit="10"/><path d="M198.7813 176.5117h56.6953" fill="none" stroke-width="1.1339" stroke="#00f" stroke-miterlimit="10"/><path d="M258.3086 148.164c0-1.5663-1.2656-2.8359-2.832-2.8359-1.5664 0-2.836 1.2696-2.836 2.836 0 1.5664 1.2696 2.8359 2.836 2.8359 1.5664 0 2.832-1.2695 2.832-2.836zm0 0" fill="#00f" stroke-width=".3985" stroke="#00f" stroke-miterlimit="10"/><path d="M255.4766 148.164h113.3867" fill="none" stroke-width="1.1339" stroke="#00f" stroke-miterlimit="10"/><path d="M371.6992 119.8164c0-1.5664-1.2695-2.832-2.836-2.832-1.5663 0-2.8359 1.2656-2.8359 2.832 0 1.5664 1.2696 2.836 2.836 2.836 1.5664 0 2.836-1.2696 2.836-2.836zm0 0" fill="#00f" stroke-width=".3985" stroke="#00f" stroke-miterlimit="10"/><path d="M368.8633 119.8164h56.6914" fill="none" stroke-width="1.1339" stroke="#00f" stroke-miterlimit="10"/><path d="M428.3906 91.4688c0-1.5625-1.2695-2.832-2.836-2.832-1.5624 0-2.832 1.2695-2.832 2.832 0 1.5664 1.2696 2.8359 2.832 2.8359 1.5665 0 2.836-1.2695 2.836-2.836zm0 0" fill="#00f" stroke-width=".3985" stroke="#00f" stroke-miterlimit="10"/><path d="M425.5547 91.4688h113.3906" fill="none" stroke-width="1.1339" stroke="#00f" stroke-miterlimit="10"/><path d="M541.7773 63.125c0-1.5664-1.2695-2.836-2.832-2.836-1.5664 0-2.836 1.2696-2.836 2.836 0 1.5625 1.2696 2.832 2.836 2.832 1.5625 0 2.832-1.2695 2.832-2.832zm0 0" fill="#00f" stroke-width=".3985" stroke="#00f" stroke-miterlimit="10"/><path d="M538.9453 63.125h28.3438" fill="none" stroke-width="1.1339" stroke="#00f" stroke-miterlimit="10"/><path d="M570.125 34.7773c0-1.5664-1.2695-2.8359-2.836-2.8359-1.5624 0-2.832 1.2695-2.832 2.836 0 1.5664 1.2696 2.8359 2.832 2.8359 1.5665 0 2.836-1.2695 2.836-2.836zm0 0" fill="#00f" stroke-width=".3985" stroke="#00f" stroke-miterlimit="10"/><path d="M567.289 34.7773h28.3477" fill="none" stroke-width="1.1339" stroke="#00f" stroke-miterlimit="10"/><g fill="#00f"><use xlink:href="#n" x="571.717" y="28.402"/></g><g fill="#00f"><use xlink:href="#o" x="577.753" y="28.402"/></g><g fill="#00f"><use xlink:href="#a" x="581.628" y="28.402"/></g><g fill="#00f"><use xlink:href="#p" x="587.322" y="28.402"/></g><path d="M31.5352 289.8984c0-1.5664-1.2696-2.8359-2.836-2.8359-1.5625 0-2.832 1.2695-2.832 2.836 0 1.5663 1.2695 2.8359 2.832 2.8359 1.5664 0 2.836-1.2696 2.836-2.836zm0 0" fill="#00f" stroke-width=".3985" stroke="#00f" stroke-miterlimit="10"/><g><use xlink:href="#q" x="32.221" y="286.378"/></g></svg>