<svg xmlns="http://www.w3.org/2000/svg" xmlns:xlink="http://www.w3.org/1999/xlink" width="277.888" height="235.963" viewBox="0 0 208.416 176.972" xmlns:v="https://vecta.io/nano"><style><![CDATA[.B{overflow:visible}.C{stroke:none}.D{stroke-miterlimit:10}.E{fill:none}.F{stroke:rgb(50%,50%,50%)}.G{stroke-width:.399}.H{fill:rgb(0%,0%,0%)}.I{stroke-width:.199}.J{stroke:rgb(0%,0%,0%)}.K{stroke-dasharray:2.98883,2.98883}]]></style><defs><symbol id="A" class="B"><path d="M4.47-2c0-1.187-.812-2.187-1.89-2.187-.47 0-.906.156-1.266.516v-1.953c.203.063.53.125.844.125 1.234 0 1.938-.906 1.938-1.03 0-.062-.03-.11-.11-.11 0 0-.03 0-.078.03a3.22 3.22 0 0 1-1.359.297c-.39 0-.86-.078-1.328-.28-.078-.03-.094-.03-.11-.03-.11 0-.11.078-.11.234v2.953c0 .172 0 .25.14.25.078 0 .094-.016.14-.078.11-.156.47-.703 1.28-.703.516 0 .766.453.844.64.156.375.188.75.188 1.25 0 .36 0 .953-.25 1.375-.234.39-.61.64-1.062.64-.72 0-1.297-.53-1.47-1.11.03 0 .063.016.172.016a.48.48 0 0 0 .5-.484c0-.25-.172-.5-.5-.5-.14 0-.484.078-.484.53C.5-.75 1.188.22 2.297.22 3.453.22 4.47-.734 4.47-2zm0 0" class="C"/></symbol><symbol id="B" class="B"><path d="M2.938-6.375c0-.25 0-.266-.234-.266C2.078-6 1.203-6 .89-6v.313c.203 0 .78 0 1.297-.266V-.78c0 .36-.03.47-.922.47H.953V0c.344-.03 1.203-.03 1.61-.03l1.61.03v-.312H3.86c-.906 0-.922-.11-.922-.47zm0 0" class="C"/></symbol><symbol id="C" class="B"><path d="M4.578-3.187c0-.797-.047-1.594-.39-2.328-.453-.97-1.28-1.125-1.687-1.125-.61 0-1.328.266-1.75 1.188-.312.688-.36 1.47-.36 2.266 0 .75.03 1.64.453 2.406a1.83 1.83 0 0 0 1.641 1C3.016.22 3.78.016 4.22-.937c.313-.687.36-1.47.36-2.25zM2.484 0c-.39 0-.984-.25-1.156-1.203-.11-.594-.11-1.516-.11-2.11l.078-1.828c.188-1.187.938-1.28 1.188-1.28.328 0 .984.188 1.172 1.172.11.563.11 1.313.11 1.938 0 .75 0 1.422-.11 2.063C3.5-.297 2.938 0 2.484 0zm0 0" class="C"/></symbol><symbol id="D" class="B"><path d="M1.266-.766l1.063-1.03c1.547-1.375 2.14-1.906 2.14-2.906 0-1.14-.89-1.937-2.11-1.937C1.234-6.64.5-5.72.5-4.828c0 .547.5.547.53.547.172 0 .516-.11.516-.53a.51.51 0 0 0-.531-.516c-.078 0-.094 0-.125.016.22-.656.766-1.016 1.344-1.016.906 0 1.328.813 1.328 1.625 0 .797-.484 1.578-1.047 2.203L.61-.375C.5-.266.5-.234.5 0h3.703l.266-1.734h-.234C4.172-1.437 4.11-1 4-.844c-.062.078-.72.078-.937.078zm0 0" class="C"/></symbol><symbol id="E" class="B"><path d="M2.938-1.64v.86c0 .36-.03.47-.766.47H1.97V0c.406-.03.922-.03 1.344-.03l1.36.03v-.312h-.22c-.734 0-.75-.11-.75-.47v-.86h.984v-.312h-.984v-4.53c0-.203 0-.266-.172-.266-.078 0-.11 0-.187.125L.28-1.953v.313zm.047-.312H.563l2.422-3.72zm0 0" class="C"/></symbol><symbol id="F" class="B"><path d="M1.313-3.266v-.25c0-2.516 1.234-2.875 1.75-2.875.234 0 .656.063.875.406-.156 0-.547 0-.547.438 0 .313.234.47.453.47.156 0 .47-.094.47-.484 0-.594-.437-1.078-1.266-1.078-1.28 0-2.625 1.28-2.625 3.484C.422-.484 1.578.22 2.5.22c1.11 0 2.063-.937 2.063-2.25 0-1.266-.89-2.22-2-2.22-.672 0-1.047.5-1.25.984zM2.5-.062c-.625 0-.922-.594-.984-.75-.187-.47-.187-1.266-.187-1.437 0-.78.328-1.78 1.22-1.78.172 0 .625 0 .938.625.172.36.172.875.172 1.36s0 .984-.172 1.344c-.297.594-.75.64-.984.64zm0 0" class="C"/></symbol><symbol id="G" class="B"><path d="M1.625-4.562c-.453-.297-.5-.625-.5-.797 0-.61.656-1.03 1.36-1.03.72 0 1.36.516 1.36 1.234 0 .578-.39 1.047-.984 1.39zm1.453.953c.72-.375 1.203-.89 1.203-1.547 0-.922-.875-1.484-1.78-1.484-1 0-1.812.734-1.812 1.672 0 .172.016.625.438 1.094.11.11.484.36.734.53C1.28-3.047.422-2.5.422-1.5.422-.453 1.438.22 2.484.22c1.125 0 2.078-.828 2.078-1.89 0-.36-.11-.812-.5-1.234-.187-.203-.344-.297-.984-.703zm-1 .422l1.234.78c.28.188.75.484.75 1.094 0 .734-.75 1.25-1.562 1.25C1.64-.062.922-.672.922-1.5c0-.578.313-1.22 1.156-1.687zm0 0" class="C"/></symbol><symbol id="H" class="B"><path d="M3.297 2.39c0-.03 0-.047-.172-.22C1.89.922 1.563-.97 1.563-2.5c0-1.734.375-3.47 1.61-4.703.125-.125.125-.14.125-.172 0-.078-.03-.11-.094-.11-.11 0-1 .688-1.594 1.953C1.11-4.437.984-3.328.984-2.5c0 .78.11 1.984.656 3.125C2.25 1.844 3.094 2.5 3.203 2.5c.063 0 .094-.03.094-.11zm0 0" class="C"/></symbol><symbol id="I" class="B"><path d="M2.875-2.5c0-.766-.11-1.97-.656-3.11C1.625-6.828.766-7.484.672-7.484c-.062 0-.11.047-.11.11 0 .03 0 .047.188.234.984.984 1.547 2.563 1.547 4.64 0 1.72-.36 3.47-1.594 4.72-.14.125-.14.14-.14.172 0 .063.047.11.11.11.094 0 1-.687 1.578-1.953.516-1.094.625-2.203.625-3.047zm0 0" class="C"/></symbol><symbol id="J" class="B"><path d="M3.328-3.016c.063-.25.297-1.172.984-1.172.047 0 .297 0 .5.125-.28.063-.47.297-.47.547 0 .156.11.344.375.344.22 0 .53-.172.53-.578 0-.516-.578-.656-.922-.656-.578 0-.922.53-1.047.75a1.09 1.09 0 0 0-1.078-.75c-1.03 0-1.61 1.28-1.61 1.53 0 .11.11.11.125.11.078 0 .11-.03.125-.11.344-1.062 1-1.312 1.344-1.312.188 0 .53.094.53.672 0 .313-.172.97-.53 2.375-.156.61-.516 1.03-.953 1.03-.062 0-.28 0-.5-.125.25-.062.47-.266.47-.547 0-.266-.22-.344-.36-.344-.312 0-.547.25-.547.578 0 .453.484.656.922.656.672 0 1.03-.703 1.047-.75a1.12 1.12 0 0 0 1.078.75c1.03 0 1.594-1.28 1.594-1.53 0-.11-.078-.11-.11-.11-.094 0-.11.047-.14.11C4.36-.344 3.688-.11 3.375-.11c-.39 0-.547-.312-.547-.656 0-.22.047-.437.156-.875zm0 0" class="C"/></symbol><symbol id="K" class="B"><path d="M2.64-3.72h1.125c-.328 1.47-.422 1.906-.422 2.578a3.21 3.21 0 0 0 .078.75c.11.438.22.5.36.5.203 0 .422-.172.422-.375 0-.062 0-.078-.062-.22-.297-.72-.297-1.375-.297-1.656 0-.516.078-1.062.188-1.578h1.125c.14 0 .5 0 .5-.344 0-.234-.22-.234-.406-.234H1.906c-.22 0-.594 0-1.03.47-.344.39-.61.844-.61.89 0 .016 0 .11.125.11.078 0 .094-.047.156-.125.484-.766 1.063-.766 1.266-.766h.563C2.063-2.516 1.53-1.312 1.11-.406c-.078.156-.078.172-.078.25 0 .188.156.266.28.266.297 0 .375-.28.5-.64l.266-.984zm0 0" class="C"/></symbol><clipPath id="L"><path d="M205 159h3.414v5H205zm0 0"/></clipPath><clipPath id="M"><path d="M13.945 25H191v1H13.945zm0 0"/></clipPath><clipPath id="N"><path d="M190 25h1v136.586h-1zm0 0"/></clipPath><path id="O" d="M33.602 144.598c0-1.102-.895-1.992-1.992-1.992a1.99 1.99 0 1 0 0 3.984c1.098 0 1.992-.89 1.992-1.992zm0 0"/><path id="P" d="M42.43 127.61a1.99 1.99 0 0 0-1.992-1.992c-1.098 0-1.992.89-1.992 1.992s.895 1.992 1.992 1.992a1.99 1.99 0 0 0 1.992-1.992zm0 0"/><path id="Q" d="M51.262 127.61a1.99 1.99 0 1 0-3.984 0 1.99 1.99 0 1 0 3.984 0zm0 0"/><path id="R" d="M60.094 110.62c0-1.102-.895-1.992-1.992-1.992s-1.996.89-1.996 1.992.895 1.992 1.996 1.992 1.992-.89 1.992-1.992zm0 0"/><path id="S" d="M130.738 59.656c0-1.102-.895-1.992-1.996-1.992s-1.992.89-1.992 1.992.895 1.992 1.992 1.992 1.996-.89 1.996-1.992zm0 0"/></defs><g class="E D"><path d="M58.102 163.7v-4.25m44.152 4.25v-4.25m44.152 4.25v-4.25m44.152 4.25v-4.25M11.82 127.6h4.254M11.82 93.633h4.254M11.82 59.656h4.254M11.82 25.68h4.254" class="F I"/><path d="M13.945 161.586h192.28" class="G J"/></g><g clip-path="url(#L)" class="H"><path d="M208.22 161.586l-3.187-1.594 1.195 1.594-1.195 1.594"/></g><path d="M13.945 161.586V2.19" class="D E G J"/><g class="H"><path d="M13.945.195l-1.594 3.19 1.594-1.195 1.594 1.195"/><use xlink:href="#A" x="55.609" y="173.651"/><use xlink:href="#B" x="97.27" y="173.651"/><use xlink:href="#C" x="102.251" y="173.651"/><use xlink:href="#B" x="141.422" y="173.651"/><use xlink:href="#A" x="146.403" y="173.651"/><use xlink:href="#D" x="185.574" y="173.651"/><use xlink:href="#C" x="190.555" y="173.651"/><use xlink:href="#D" x="3.32" y="130.82"/><use xlink:href="#E" x="3.32" y="96.844"/><use xlink:href="#F" x="3.32" y="62.868"/><use xlink:href="#G" x="3.32" y="28.892"/></g><path d="M190.56 163.71v-4.25" class="D E F I"/><g class="H"><use xlink:href="#D" x="185.574" y="173.651"/><use xlink:href="#C" x="190.555" y="173.651"/></g><path d="M11.82 25.68h4.254" class="D E F I"/><use xlink:href="#G" x="3.32" y="28.892" class="H"/><g clip-path="url(#M)" class="D E F G K"><path d="M13.945 25.68H190.56"/></g><g clip-path="url(#N)" class="D E F G K"><path d="M190.56 161.586V25.68"/></g><g fill="rgb(0%,62.353516%,95.684814%)" stroke="rgb(0%,62.353516%,95.684814%)" class="D G"><path d="M24.77 161.586a1.99 1.99 0 1 0-3.984 0c0 1.098.89 1.992 1.992 1.992s1.992-.895 1.992-1.992zm0 0"/><use xlink:href="#O"/><use xlink:href="#P"/><use xlink:href="#Q"/><use xlink:href="#R"/><use xlink:href="#Q" x="17.66" y="-16.99"/><use xlink:href="#O" x="44.152" y="-50.965"/><use xlink:href="#P" x="44.152" y="-33.977"/><use xlink:href="#Q" x="44.152" y="-33.977"/><use xlink:href="#R" x="44.152" y="-16.987"/><use xlink:href="#Q" x="61.812" y="-50.965"/><use xlink:href="#Q" x="70.644" y="-50.965"/><use xlink:href="#S"/><use xlink:href="#Q" x="88.304" y="-67.954"/><use xlink:href="#O" x="114.796" y="-84.942"/><use xlink:href="#P" x="114.797" y="-67.954"/><use xlink:href="#Q" x="114.798" y="-84.942"/><use xlink:href="#S" x="44.152" y="-16.988"/><use xlink:href="#Q" x="132.458" y="-101.93"/><use xlink:href="#O" x="158.948" y="-118.918"/></g><g class="H"><use xlink:href="#J" x="199.003" y="158.066"/><use xlink:href="#K" x="17.467" y="11.191"/><use xlink:href="#H" x="23.504" y="11.191"/><use xlink:href="#J" x="27.378" y="11.191"/><use xlink:href="#I" x="33.072" y="11.191"/></g></svg>