<svg xmlns="http://www.w3.org/2000/svg" xmlns:xlink="http://www.w3.org/1999/xlink" width="301.5" height="229.005" viewBox="0 0 226.125 171.754" xmlns:v="https://vecta.io/nano"><style><![CDATA[.B{overflow:visible}.C{stroke:none}.D{fill:rgb(0%,0%,0%)}.E{stroke-miterlimit:10}.F{fill:none}.G{stroke:rgb(0%,0%,0%)}.H{fill:rgb(100%,100%,100%)}.I{stroke:rgb(50%,50%,50%)}.J{stroke-width:.399}.K{stroke-width:.797}.L{stroke-width:.299}.M{stroke:rgb(0%,62.353516%,95.684814%)}]]></style><defs><symbol id="A" class="B"><path d="M1.625-1.906h.625c-.078.313-.187.797-.187 1.203a1.72 1.72 0 0 0 .047.469c.094.266.156.281.234.281.125 0 .25-.109.25-.234 0-.031-.016-.062-.047-.109-.094-.187-.187-.5-.187-.922 0-.094 0-.312.078-.687h.656c.094 0 .125 0 .188-.031.078-.062.094-.141.094-.172 0-.141-.141-.141-.234-.141H1.172c-.219 0-.359.047-.594.266-.141.109-.344.391-.344.453s.063.063.094.063c.047 0 .063-.016.094-.062.266-.375.594-.375.703-.375h.313C1.281-1.328 1-.703.844-.391L.75-.187c-.016.016-.016.031-.016.078 0 .078.063.156.172.156.219 0 .266-.234.391-.703zm0 0" class="C"/></symbol><symbol id="B" class="B"><path d="M2.766-.859v-.187h-.578v-2.328c0-.109 0-.156-.109-.156-.062 0-.094 0-.141.078L.203-1.047v.188H1.75v.438c0 .172 0 .234-.437.234h-.141V0l.797-.016L2.75 0v-.187h-.141c-.422 0-.422-.062-.422-.234v-.437zm-.984-2.109v1.922H.391zm0 0" class="C"/></symbol><symbol id="C" class="B"><path d="M1.422-1.75c.422 0 .703.281.703.844 0 .656-.375.844-.672.844-.219 0-.672-.062-.891-.359.25-.016.297-.187.297-.297 0-.172-.125-.297-.281-.297s-.297.094-.297.313c0 .484.547.813 1.172.813.734 0 1.234-.484 1.234-1.016 0-.406-.328-.812-.906-.937.547-.203.75-.594.75-.906 0-.422-.484-.719-1.062-.719s-1.031.281-1.031.688a.26.26 0 0 0 .281.281c.156 0 .266-.125.266-.266 0-.156-.109-.266-.266-.266.188-.234.547-.297.734-.297a.53.53 0 0 1 .563.578c0 .219-.062.453-.203.625-.172.188-.328.203-.578.219l-.172.016c-.016 0-.047.016-.047.063 0 .078.047.078.125.078zm0 0" class="C"/></symbol><symbol id="D" class="B"><path d="M2.641-.953h-.172c-.016.109-.078.422-.141.484-.047.031-.437.031-.516.031H.844l1.047-.891c.391-.312.75-.625.75-1.125 0-.641-.547-1.016-1.219-1.016-.656 0-1.094.453-1.094.938 0 .266.234.281.281.281.125 0 .281-.078.281-.266 0-.109-.047-.281-.312-.281.156-.375.516-.484.766-.484.516 0 .797.406.797.828 0 .453-.328.813-.5 1L.375-.203C.328-.156.328-.141.328 0h2.156zm0 0" class="C"/></symbol><symbol id="E" class="B"><path d="M5.125-2.437c.125 0 .266 0 .266-.156 0-.141-.141-.141-.25-.141H.672c-.109 0-.25 0-.25.141 0 .156.141.156.25.156zM5.141-1c.109 0 .25 0 .25-.141 0-.156-.141-.156-.266-.156H.672c-.109 0-.25 0-.25.156C.422-1 .563-1 .672-1zm0 0" class="C"/></symbol><symbol id="F" class="B"><path d="M.953-.578l.781-.766c1.172-1.031 1.625-1.437 1.625-2.187 0-.844-.672-1.437-1.594-1.437-.844 0-1.391.688-1.391 1.344 0 .422.375.422.391.422.125 0 .391-.094.391-.391 0-.203-.141-.391-.391-.391H.672c.172-.484.563-.766 1-.766.688 0 1 .609 1 1.219s-.375 1.188-.781 1.656L.453-.281C.375-.187.375-.172.375 0h2.766l.219-1.297h-.187c-.047.219-.094.547-.172.656-.047.063-.547.063-.703.063zm0 0" class="C"/></symbol><symbol id="G" class="B"><path d="M2.781-2.828c-.125-.266-.344-.469-.687-.469-.875 0-1.797 1.094-1.797 2.188 0 .703.406 1.188 1 1.188.141 0 .516-.031.969-.562.063.313.313.563.672.563.266 0 .438-.172.563-.406a3.76 3.76 0 0 0 .219-.734c0-.078-.062-.078-.094-.078-.062 0-.078.031-.094.125-.141.5-.266.938-.578.938-.203 0-.219-.203-.219-.344 0-.172.016-.234.094-.562L3-1.656l.266-1.047.047-.25c0-.125-.094-.203-.219-.203-.172 0-.281.172-.312.328zM2.297-.891c-.031.141-.031.156-.141.281-.328.406-.641.531-.844.531C.938-.078.828-.5.828-.781c0-.375.234-1.297.406-1.641.234-.437.578-.719.875-.719.484 0 .594.609.594.656s-.016.094-.031.125zm0 0" class="C"/></symbol><symbol id="H" class="B"><path d="M1.984-2.781h.844c-.25 1.094-.312 1.422-.312 1.922 0 .109 0 .313.047.563.078.328.156.375.281.375.141 0 .297-.125.297-.281 0-.047 0-.062-.047-.156-.203-.547-.203-1.031-.203-1.234 0-.406.047-.797.125-1.187h.859c.094 0 .359 0 .359-.266 0-.172-.156-.172-.297-.172h-2.5c-.172 0-.453 0-.781.344-.266.297-.453.641-.453.672 0 .016 0 .078.094.078.047 0 .063-.031.109-.078.375-.578.797-.578.953-.578h.422c-.234.906-.641 1.797-.953 2.484-.062.109-.062.125-.062.172 0 .141.125.203.219.203.219 0 .281-.203.375-.484l.203-.734zm0 0" class="C"/></symbol><symbol id="I" class="B"><path d="M6.563-2.297c.172 0 .359 0 .359-.203 0-.187-.187-.187-.359-.187H1.172c-.172 0-.344 0-.344.188 0 .203.172.203.344.203zm0 0" class="C"/></symbol><symbol id="J" class="B"><path d="M2.938-6.375c0-.25 0-.266-.234-.266C2.078-6 1.203-6 .891-6v.313c.203 0 .781 0 1.297-.266v5.172c0 .359-.031.469-.922.469H.953V0c.344-.031 1.203-.031 1.609-.031L4.172 0v-.312h-.312c-.906 0-.922-.109-.922-.469zm0 0" class="C"/></symbol><symbol id="K" class="B"><path d="M3.297 2.391c0-.031 0-.047-.172-.219C1.891.922 1.563-.969 1.563-2.5c0-1.734.375-3.469 1.609-4.703.125-.125.125-.141.125-.172 0-.078-.031-.109-.094-.109-.109 0-1 .688-1.594 1.953C1.109-4.437.984-3.328.984-2.5c0 .781.109 1.984.656 3.125C2.25 1.844 3.094 2.5 3.203 2.5c.063 0 .094-.031.094-.109zm0 0" class="C"/></symbol><symbol id="L" class="B"><path d="M2.875-2.5c0-.766-.109-1.969-.656-3.109C1.625-6.828.766-7.484.672-7.484c-.062 0-.109.047-.109.109 0 .031 0 .047.188.234.984.984 1.547 2.563 1.547 4.641 0 1.719-.359 3.469-1.594 4.719-.141.125-.141.141-.141.172 0 .063.047.109.109.109.094 0 1-.687 1.578-1.953.516-1.094.625-2.203.625-3.047zm0 0" class="C"/></symbol><symbol id="M" class="B"><path d="M3.328-3.016c.063-.25.297-1.172.984-1.172.047 0 .297 0 .5.125-.281.063-.469.297-.469.547 0 .156.109.344.375.344.219 0 .531-.172.531-.578 0-.516-.578-.656-.922-.656-.578 0-.922.531-1.047.75a1.09 1.09 0 0 0-1.078-.75C1.172-4.406.594-3.125.594-2.875c0 .109.109.109.125.109.078 0 .109-.031.125-.109.344-1.062 1-1.312 1.344-1.312.188 0 .531.094.531.672 0 .313-.172.969-.531 2.375-.156.609-.516 1.031-.953 1.031-.062 0-.281 0-.5-.125.25-.062.469-.266.469-.547 0-.266-.219-.344-.359-.344-.312 0-.547.25-.547.578 0 .453.484.656.922.656.672 0 1.031-.703 1.047-.75a1.12 1.12 0 0 0 1.078.75c1.031 0 1.594-1.281 1.594-1.531 0-.109-.078-.109-.109-.109-.094 0-.109.047-.141.109-.328 1.078-1 1.313-1.312 1.313-.391 0-.547-.312-.547-.656 0-.219.047-.437.156-.875zm0 0" class="C"/></symbol><symbol id="N" class="B"><path d="M.875-.594l-.094.438c0 .172.141.266.297.266.125 0 .297-.078.375-.281 0-.016.125-.484.188-.734l.219-.891c.047-.234.109-.453.172-.672.031-.172.109-.469.125-.5.141-.312.672-1.219 1.625-1.219.453 0 .531.375.531.703 0 .25-.062.531-.141.828L3.891-1.5l-.203.75c-.031.203-.125.547-.125.594 0 .172.141.266.281.266.313 0 .375-.25.453-.562l.594-2.406c.031-.125.563-1.328 1.656-1.328.422 0 .531.344.531.703 0 .563-.422 1.703-.625 2.234-.078.234-.125.344-.125.547 0 .469.344.813.813.813.938 0 1.313-1.453 1.313-1.531 0-.109-.094-.109-.125-.109-.094 0-.094.031-.141.188-.156.531-.469 1.234-1.016 1.234-.172 0-.25-.094-.25-.328 0-.25.094-.484.188-.703.188-.531.609-1.625.609-2.203 0-.641-.406-1.062-1.156-1.062-.734 0-1.25.438-1.625.969 0-.125-.031-.469-.312-.703-.25-.219-.562-.266-.812-.266-.906 0-1.391.641-1.562.875-.047-.578-.469-.875-.922-.875s-.641.391-.734.563a4.67 4.67 0 0 0-.297.969c0 .109.094.109.109.109.109 0 .109-.016.172-.234.172-.703.375-1.187.734-1.187.156 0 .297.078.297.453 0 .219-.031.328-.156.844zm0 0" class="C"/></symbol><clipPath id="O"><path d="M26.68 20h194.27v131H26.68zm0 0"/></clipPath><clipPath id="P"><path d="M142 139h78.949v2H142zm0 0"/></clipPath></defs><g class="F E"><path d="M46.105 88v-4.25M84.957 88v-4.25m19.43 4.25v-4.25M143.238 88v-4.25M182.094 88v-4.25M24.551 139.676h4.254M24.551 32.078h4.254" stroke-width=".199" class="I"/><path d="M26.68 85.875h192.277" class="G J"/></g><path d="M220.949 85.875l-3.191-1.594 1.199 1.594-1.199 1.594" class="D"/><path d="M26.68 166.574V7.172" class="E F G J"/><path d="M26.68 5.18l-1.594 3.188 1.594-1.195 1.594 1.195" class="D"/><path d="M58.289 90.395H33.922v12.75h24.367zm0 0" class="H"/><use xlink:href="#A" x="37.307" y="95.138" class="D"/><path d="M37.309 96.211h3.68" class="E F G L"/><g class="D"><use xlink:href="#B" x="37.659" y="100.656"/><use xlink:href="#E" x="43.961" y="98.079"/><use xlink:href="#G" x="51.848" y="98.079"/></g><path d="M91.676 90.395H78.242v13.871h13.434zm0 0" class="H"/><g class="D"><use xlink:href="#C" x="81.628" y="96.256"/><use xlink:href="#A" x="84.607" y="96.256"/></g><path d="M81.629 97.328h6.66" class="E F G L"/><use xlink:href="#B" x="83.47" y="101.775" class="D"/><path d="M109.141 90.395h-9.508v8.195h9.508zm0 0" class="H"/><use xlink:href="#H" x="102.121" y="96.102" class="D"/><path d="M149.957 90.395h-13.434v13.871h13.434zm0 0" class="H"/><g class="D"><use xlink:href="#C" x="139.907" y="96.256"/><use xlink:href="#A" x="142.886" y="96.256"/></g><path d="M139.906 97.328h6.66" stroke-width=".298" class="E F G"/><use xlink:href="#D" x="141.749" y="101.775" class="D"/><path d="M192.746 90.395h-21.305v10.086h21.305zm0 0" class="H"/><g class="D"><use xlink:href="#F" x="181.991" y="97.991"/><use xlink:href="#H" x="185.727" y="97.991"/><use xlink:href="#I" x="8.302" y="142.47"/><use xlink:href="#J" x="16.051" y="142.47"/><use xlink:href="#J" x="16.051" y="35.29"/></g><path d="M46.105 48.215v37.66m38.852-37.66v37.66m58.281 53.801v-37.66" stroke-dasharray="0.3985,1.99255" class="E F I J"/><g clip-path="url(#O)" class="E F I K"><path d="M26.68 85.875l.387-.844.781-1.695.387-.844.781-1.687.387-.844.781-1.68.387-.836.391-.836.391-.832.387-.832.391-.828.391-.824.387-.82.391-.82.391-.812.387-.812.391-.809.777-1.602.391-.793.391-.789.387-.785.781-1.555.387-.766.391-.766.777-1.508.391-.746.777-1.469.391-.723.777-1.43.391-.703.387-.699.391-.687.777-1.352.391-.664.391-.656.387-.648.391-.637.391-.629.387-.621.391-.613.391-.602.387-.594.391-.582.777-1.141.391-.551.391-.543.387-.535.391-.523.391-.512.387-.504.391-.492.391-.477.387-.469.391-.461.391-.445.387-.434.391-.426.391-.41.387-.402.391-.387.391-.379.387-.363.391-.355.777-.668.391-.312.391-.305.387-.293.391-.277.391-.27.387-.25.391-.242.391-.227.387-.215.391-.199.391-.191.387-.176.391-.164.391-.148.387-.137.391-.125.391-.109.387-.098.391-.082.391-.07.387-.059.391-.043.391-.031.387-.02.391-.004.391.012.387.02.391.039.391.051.387.063.391.074.391.09.387.102.391.117.391.129.387.141.391.152.391.168.387.184.391.195.391.203.387.223.391.234.391.242.387.262.391.27.391.281.387.297.391.309.391.32.387.336.391.344.391.359.387.371.391.379.391.395.387.402.391.418.391.43.387.438.391.453.391.461.777.957.391.496.387.508.391.516.391.527.387.539.391.547.391.559.387.566.391.578.391.59.387.594.391.605.391.613.777 1.262.391.641.777 1.313.391.664.387.676.781 1.375.387.703.391.703.391.715.387.719.391.73.391.734.387.742.391.746.391.754.777 1.523.391.77.387.777.391.781.391.785.387.793.391.797.391.801.387.805.391.809.391.813.387.816.781 1.641.387.828.391.828.391.832.387.832.391.836.391.84.387.84.391.84.391.844.387.844.391.844.391.848.387.844.781 1.695.387.844.781 1.695.387.844.781 1.688.387.84.781 1.68.387.836.391.836.391.832.387.828.781 1.648.387.82 1.168 2.441.391.805.391.801.387.797.391.793.777 1.57.391.777.387.773.391.766.777 1.516 1.168 2.227.391.73.391.719.387.715.391.711.777 1.391.391.688.391.676.387.668.391.664.777 1.297.391.633.391.629.387.613.391.609.391.598.387.59.391.582.391.566.387.563.391.551.391.539.387.527.391.52.391.508.387.496.391.488.391.477.387.465.391.453.391.441.387.43.391.418.391.41.387.395.391.383.391.375.387.359.391.348.391.336.387.324.391.309.391.301.387.285.391.273.391.262.387.246.391.238.391.223.387.207.391.199.391.184.387.168.391.16.391.145.387.129.391.121.391.105.387.09.391.078.391.066.387.055.391.035.391.027.387.012.391-.004.391-.016.387-.027.391-.039.391-.055.387-.066.391-.082.391-.094.387-.109.391-.121.391-.133.387-.148.391-.16.391-.172.387-.187.391-.199.391-.211.387-.227.391-.238.391-.25.387-.266.391-.273.391-.289.387-.301.391-.312.391-.328.387-.336.391-.352.391-.363.387-.375.391-.387.391-.398.387-.41.391-.418.391-.434.387-.445.391-.453.391-.469.387-.477.391-.492.391-.496.387-.512.391-.52.391-.535.387-.539.391-.551.391-.562.387-.57.391-.582.391-.594.387-.602.391-.609.391-.617.387-.629.391-.637.391-.645.387-.652.391-.664.391-.672.777-1.367.391-.695.387-.699.391-.711.391-.715.387-.723.391-.73.391-.738.387-.742.391-.75.391-.758.387-.762.391-.766.391-.773.387-.781.391-.781.391-.789.387-.793.391-.797.391-.805.387-.805.391-.809.391-.816.387-.816.391-.82.391-.824.387-.828.391-.828.391-.836.777-1.672.391-.836.387-.84.781-1.687.387-.844.391-.848.391-.844.387-.848.391-.844.391-.848.387-.848.391-.844.391-.848.387-.844.391-.844.391-.84.387-.844.781-1.676.387-.836.781-1.664.387-.828.781-1.648.387-.82 1.168-2.434.391-.805.777-1.594.391-.789.387-.789.391-.781.391-.773.387-.77.391-.766.777-1.508.391-.746.391-.742.387-.73.391-.727.391-.723.387-.711.391-.703.391-.699.387-.687.391-.684.391-.676.387-.664.391-.656.391-.648.387-.641.391-.633.391-.625.387-.613.391-.602.391-.598.387-.586.391-.574.391-.562.387-.559.391-.547.391-.535.387-.523.391-.516.391-.504.387-.492.391-.484.391-.469.387-.461.391-.449.391-.437.387-.426.391-.414.391-.406.387-.391.391-.379.391-.363.387-.355.391-.344.391-.332.387-.316.391-.309.391-.293.387-.281.391-.27.391-.254.387-.242.391-.23.391-.219.387-.203.391-.195.391-.176.387-.168.391-.152.391-.141.387-.125.391-.113.391-.098.387-.086.391-.074.391-.059.387-.047.391-.035.391-.02.387-.008" stroke-dasharray="2.98883,2.98883"/></g><path d="M46.105 47.836h38.852m0 0l.117.18.117.184.117.18.469.734.234.375.113.188.234.375.117.191.117.188.117.195.234.383.117.195.113.191.117.199.234.391.586.996.117.203.113.199.117.203.117.207.234.406.469.828.117.211.113.207.117.211.117.207.234.422.117.215.117.211.352.645.113.219.234.43.586 1.094.234.445.113.219.117.223.117.227.234.445.117.227.117.223.352.68.113.227.117.23.117.227.117.23.117.227.352.691.117.234.117.23.113.234.117.23.586 1.172.117.238.234.469.113.238.586 1.191.117.242.117.238.117.242.113.238.82 1.695.117.246.117.242.113.242.234.492.117.242.352.738.117.25.234.492.113.246.117.25.117.246.117.25.117.246.234.5.117.246.234.5.113.25.586 1.25.117.254.352.75.113.254.117.254.117.25.117.254.117.25.117.254.117.25.352.762.113.25.469 1.016.117.25.469 1.016.113.254 1.055 2.285.113.254.938 2.031.113.254 1.055 2.282.113.25.234.508.117.25.234.508.117.25.117.254.117.25.117.254.113.25.234.5.117.254.703 1.5.113.25.117.25.117.246.234.5.234.492.117.25.234.492.113.25.703 1.477.117.242.117.246.117.242.113.246.234.484.117.246.352.727.117.238.234.484.113.238.117.238.117.242.586 1.191.117.234.117.238.113.234.117.238.469.938.117.23.234.469.113.23.586 1.152.117.227.117.23.234.453.113.227.234.453.117.223.117.227.586 1.113.113.223.703 1.313.117.215.117.219.117.215.113.215.234.43.703 1.266.117.207.113.211.117.203.117.207.117.211.234.406.117.207.117.203.117.199.117.203.113.203.469.797.234.391.117.199.234.391.113.191.117.195.117.191.117.188.234.383.469.75.113.184.117.188.234.367.117.18.117.184.352.539.113.176.117.18.352.527.586.859.113.168.352.504.469.656.117.16.117.164.113.16.117.156.117.16.117.156.117.16.117.152.117.156.352.457.113.152.352.445.117.145.117.148.234.289.117.141.117.145.113.137.234.281.469.547.465.527.352.387.469.5.234.242.113.121.117.121.352.352.469.453.117.109.113.109.234.219.117.105.117.102.117.109.352.305.113.102.117.094.352.293.117.094.117.09.117.094.234.18.113.09.117.09.117.086.117.082.234.172.117.078.117.082.234.156.113.078.117.078.234.148.117.07.117.074.117.07.117.066.117.07.117.066.113.066.117.063.117.066.117.063.117.059.117.063.234.117.234.109.113.055.117.055.352.152.469.188.117.039.113.043.117.043.234.078.117.035.117.039.117.035.117.031.234.07.113.027.117.027.117.031.117.027.234.047.117.027.352.059.113.02.117.02.352.047.117.012.117.008.234.023.113.004.234.016.117.004h.117l.117.004h.117" stroke-linecap="round" class="E F K M"/><g clip-path="url(#P)" class="E F K M"><path d="M143.238 139.676h77.711"/></g><g class="D"><use xlink:href="#M" x="211.731" y="82.357"/><use xlink:href="#N" x="30.197" y="16.172"/><use xlink:href="#K" x="38.945" y="16.172"/><use xlink:href="#M" x="42.819" y="16.172"/><use xlink:href="#L" x="48.513" y="16.172"/></g></svg>