<svg xmlns="http://www.w3.org/2000/svg" xmlns:xlink="http://www.w3.org/1999/xlink" width="600" height="271.924542" viewBox="0 0 115.243 52.229"><style><![CDATA[.B{fill:none}.C{stroke-miterlimit:10}.D{stroke-width:.3985}.E{stroke:rgb(50%,50%,50%)}.F{stroke:rgb(0%,0%,0%)}.G{fill:rgb(0%,0%,0%)}.H{overflow:visible}.I{stroke:none}.J{stroke-width:.2388}.K{stroke-dasharray:0.3985,1.99255}]]></style><defs><symbol id="A" class="H"><path d="M2.15625-1.328125c0-.46875-.046875-.796875-.25-1.09375-.125-.1875-.375-.359375-.71875-.359375-.96875 0-.96875 1.140625-.96875 1.453125 0 .296875 0 1.40625.96875 1.40625s.96875-1.109375.96875-1.40625zM1.1875-.03125C1-.03125.734375-.140625.65625-.484375c-.0625-.25-.0625-.59375-.0625-.90625s0-.625.0625-.859375c.09375-.328125.359375-.40625.53125-.40625.234375 0 .453125.125.515625.375.078125.21875.078125.53125.078125.890625 0 .3125 0 .625-.0625.890625-.078125.375-.359375.46875-.53125.46875zm0 0" class="I"/></symbol><symbol id="B" class="H"><path d="M1.40625-2.65625c0-.125-.015625-.125-.125-.125-.265625.265625-.65625.265625-.828125.265625v.15625c.109375 0 .375 0 .609375-.125V-.34375c0 .140625 0 .1875-.421875.1875h-.15625V0l.75-.015625.75.015625v-.15625h-.15625c-.421875 0-.421875-.046875-.421875-.1875zm0 0" class="I"/></symbol><symbol id="C" class="H"><path d="M2.109375-.765625H1.96875c-.015625.09375-.046875.34375-.109375.390625-.03125.015625-.359375.015625-.40625.015625h-.78125l.84375-.703125c.3125-.25.59375-.5.59375-.90625 0-.5-.4375-.8125-.96875-.8125s-.875.359375-.875.75c0 .21875.171875.234375.21875.234375.109375 0 .21875-.078125.21875-.21875 0-.078125-.03125-.21875-.25-.21875C.59375-2.53125.875-2.625 1.078125-2.625c.40625 0 .625.328125.625.65625 0 .375-.25.65625-.390625.8125l-1 1C.265625-.125.265625-.125.265625 0h1.71875zm0 0" class="I"/></symbol><symbol id="D" class="H"><path d="M1.9375-.953125h1.28125c.0625 0 .15625 0 .15625-.09375 0-.109375-.09375-.109375-.15625-.109375H1.9375V-2.4375c0-.046875 0-.15625-.09375-.15625-.109375 0-.109375.09375-.109375.15625v1.28125H.453125c-.0625 0-.15625 0-.15625.109375 0 .09375.09375.09375.15625.09375h1.28125V.34375c0 .046875 0 .15625.09375.15625C1.9375.5 1.9375.390625 1.9375.34375zm0 0" class="I"/></symbol><symbol id="E" class="H"><path d="M.515625-.265625L.46875-.09375c0 .09375.078125.140625.140625.140625.078125 0 .140625-.0625.171875-.09375C.796875-.09375.828125-.21875.84375-.3125.875-.390625.921875-.578125.9375-.6875.96875-.78125 1-.875 1.015625-.96875c.046875-.171875.046875-.203125.171875-.375s.3125-.390625.625-.390625c.25 0 .25.21875.25.296875 0 .25-.171875.71875-.25.890625-.046875.125-.0625.15625-.0625.234375 0 .21875.1875.359375.40625.359375.421875 0 .59375-.578125.59375-.640625s-.046875-.0625-.0625-.0625c-.0625 0-.0625.03125-.078125.078125-.09375.328125-.28125.5-.4375.5-.09375 0-.109375-.0625-.109375-.140625 0-.09375.015625-.15625.09375-.34375.046875-.125.21875-.578125.21875-.8125 0-.40625-.3125-.46875-.546875-.46875-.34375 0-.578125.203125-.703125.375-.03125-.28125-.28125-.375-.453125-.375s-.265625.125-.328125.21875c-.09375.15625-.140625.390625-.140625.421875 0 .046875.046875.046875.0625.046875.0625 0 .0625-.015625.09375-.125.0625-.25.140625-.453125.3125-.453125.109375 0 .125.09375.125.203125 0 .09375-.03125.234375-.0625.359375l-.09375.375zm0 0" class="I"/></symbol><symbol id="F" class="H"><path d="M1.8125-.34375l-.046875.25c0 .09375.0625.140625.140625.140625.0625 0 .140625-.0625.15625-.09375.015625-.046875.0625-.171875.078125-.265625l.09375-.375c.015625-.09375.046875-.1875.0625-.28125.046875-.171875.046875-.1875.140625-.3125.125-.203125.34375-.453125.671875-.453125.234375 0 .234375.203125.234375.296875 0 .25-.171875.71875-.234375.890625-.046875.125-.0625.15625-.0625.234375 0 .21875.171875.359375.390625.359375.421875 0 .609375-.578125.609375-.640625s-.0625-.0625-.078125-.0625c-.046875 0-.0625.03125-.078125.078125-.09375.328125-.265625.5-.4375.5-.09375 0-.109375-.0625-.109375-.140625 0-.09375.015625-.15625.09375-.34375.0625-.125.234375-.578125.234375-.8125 0-.0625 0-.234375-.15625-.359375C3.4375-1.78125 3.3125-1.84375 3.125-1.84375c-.375 0-.609375.25-.75.421875-.03125-.359375-.328125-.421875-.546875-.421875-.34375 0-.578125.203125-.703125.375-.03125-.28125-.28125-.375-.453125-.375s-.265625.125-.328125.21875c-.09375.15625-.140625.390625-.140625.421875 0 .046875.046875.046875.0625.046875.0625 0 .0625-.015625.09375-.125.0625-.25.140625-.453125.3125-.453125.109375 0 .125.09375.125.203125 0 .09375-.03125.234375-.0625.359375l-.09375.375-.125.53125L.46875-.09375c0 .09375.078125.140625.140625.140625.078125 0 .140625-.0625.171875-.09375C.796875-.09375.828125-.21875.84375-.3125.875-.390625.921875-.578125.9375-.6875.96875-.78125 1-.875 1.015625-.96875c.046875-.171875.046875-.203125.171875-.375s.3125-.390625.625-.390625c.25 0 .25.21875.25.296875 0 .109375-.015625.15625-.0625.390625zm0 0" class="I"/></symbol><symbol id="G" class="H"><path d="M1.796875-.953125c0-.21875 0-1.03125-.78125-1.03125s-.78125.8125-.78125 1.03125 0 1.015625.78125 1.015625.78125-.796875.78125-1.015625zm-.78125.921875c-.109375 0-.359375-.046875-.4375-.34375C.53125-.53125.53125-.75.53125-.984375s0-.4375.046875-.609375c.078125-.25.3125-.296875.4375-.296875.21875 0 .375.109375.4375.328125C1.5-1.421875 1.5-1.171875 1.5-.984375c0 .203125 0 .4375-.046875.625-.078125.28125-.3125.328125-.4375.328125zm0 0" class="I"/></symbol><symbol id="H" class="H"><path d="M2-1.8125c.03125-.15625.171875-.703125.59375-.703125.03125 0 .171875 0 .296875.078125-.171875.03125-.28125.1875-.28125.328125 0 .09375.0625.203125.21875.203125.140625 0 .328125-.109375.328125-.34375 0-.3125-.359375-.390625-.5625-.390625-.34375 0-.546875.3125-.625.453125-.15625-.390625-.46875-.453125-.640625-.453125-.625 0-.96875.765625-.96875.921875 0 .0625.0625.0625.078125.0625.046875 0 .0625-.015625.078125-.078125.203125-.625.59375-.78125.796875-.78125.109375 0 .328125.0625.328125.40625 0 .1875-.109375.578125-.328125 1.421875-.09375.375-.3125.625-.578125.625-.03125 0-.171875 0-.296875-.078125.15625-.03125.28125-.15625.28125-.328125C.71875-.625.59375-.671875.5-.671875c-.171875 0-.328125.15625-.328125.34375 0 .28125.296875.390625.5625.390625.390625 0 .609375-.421875.625-.453125.078125.21875.296875.453125.65625.453125.609375 0 .953125-.765625.953125-.921875 0-.0625-.046875-.0625-.078125-.0625-.046875 0-.0625.03125-.078125.078125-.1875.640625-.59375.78125-.796875.78125-.21875 0-.328125-.1875-.328125-.390625 0-.140625.046875-.265625.109375-.53125zm0 0" class="I"/></symbol><clipPath id="I"><path d="M60.171875 27.320313h.601563v1.496093h-.601563zm0 0"/></clipPath><clipPath id="J"><path d="M60.171875 27.320313h3.589844v1.496093h-3.589844zm0 0"/></clipPath><clipPath id="K"><path d="M61.769531 27.320313H66.75v1.496093h-4.980469zm0 0"/></clipPath><clipPath id="L"><path d="M64.757813 27.320313h4.980468v1.496093h-4.980468zm0 0"/></clipPath><clipPath id="M"><path d="M67.746094 27.320313h4.980469v1.496093h-4.980469zm0 0"/></clipPath><clipPath id="N"><path d="M70.734375 27.320313h4.984375v1.496093h-4.984375zm0 0"/></clipPath><clipPath id="O"><path d="M73.722656 27.320313h4.984375v1.496093h-4.984375zm0 0"/></clipPath><clipPath id="P"><path d="M76.714844 27.320313h4.980469v1.496093h-4.980469zm0 0"/></clipPath><clipPath id="Q"><path d="M79.703125 27.320313h4.980469v1.496093h-4.980469zm0 0"/></clipPath><clipPath id="R"><path d="M82.691406 27.320313h4.695313v1.496093h-4.695313zm0 0"/></clipPath><clipPath id="S"><path d="M85.679688 27.320313h1.707031v1.496093h-1.707031zm0 0"/></clipPath><clipPath id="T"><path d="M60.171875 26.550781h.601563v2.265625h-.601563zm0 0"/></clipPath><clipPath id="U"><path d="M60.171875 26.550781h3.589844v2.265625h-3.589844zm0 0"/></clipPath><clipPath id="V"><path d="M61.769531 26.550781H66.75v2.265625h-4.980469zm0 0"/></clipPath><clipPath id="W"><path d="M64.757813 26.550781h4.980468v2.265625h-4.980468zm0 0"/></clipPath><clipPath id="X"><path d="M67.746094 26.550781h4.980469v2.265625h-4.980469zm0 0"/></clipPath><clipPath id="Y"><path d="M70.734375 26.550781h4.984375v2.265625h-4.984375zm0 0"/></clipPath><clipPath id="Z"><path d="M73.722656 26.550781h4.984375v2.265625h-4.984375zm0 0"/></clipPath><clipPath id="a"><path d="M76.714844 26.550781h4.980469v2.265625h-4.980469zm0 0"/></clipPath><clipPath id="b"><path d="M79.703125 26.550781h4.980469v2.265625h-4.980469zm0 0"/></clipPath><clipPath id="c"><path d="M82.691406 26.550781h4.695313v2.265625h-4.695313zm0 0"/></clipPath><clipPath id="d"><path d="M85.679688 26.550781h1.707031v2.265625h-1.707031zm0 0"/></clipPath></defs><g clip-path="url(#I)" class="B C D E"><path d="M56.7890625 28.320312L59.875 31.40625"/></g><g clip-path="url(#J)" class="B C D E"><path d="M59.77734375 28.320312L62.863281 31.40625"/></g><g clip-path="url(#K)" class="B C D E"><path d="M62.765625 28.320312l3.089844 3.085938"/></g><g clip-path="url(#L)" class="B C D E"><path d="M65.75390625 28.320312L68.84375 31.40625"/></g><g clip-path="url(#M)" class="B C D E"><path d="M68.7421875 28.320312l3.0898435 3.085938"/></g><g clip-path="url(#N)" class="B C D E"><path d="M71.73046875 28.320312L74.820312 31.40625"/></g><g clip-path="url(#O)" class="B C D E"><path d="M74.72265625 28.320312L77.808594 31.40625"/></g><g clip-path="url(#P)" class="B C D E"><path d="M77.7109375 28.320312l3.0859375 3.085938"/></g><g clip-path="url(#Q)" class="B C D E"><path d="M80.69921875 28.320312L83.785156 31.40625"/></g><g clip-path="url(#R)" class="B C D E"><path d="M83.6875 28.320312l3.089844 3.085938"/></g><g clip-path="url(#S)" class="B C D E"><path d="M86.67578125 28.320312L89.765625 31.40625"/></g><g clip-path="url(#T)" class="B C D E"><path d="M56.7890625 25.328125L59.875 28.4179687"/></g><g clip-path="url(#U)" class="B C D E"><path d="M59.77734375 25.328125l3.08593725 3.0898437"/></g><g clip-path="url(#V)" class="B C D E"><path d="M62.765625 25.328125l3.089844 3.0898437"/></g><g clip-path="url(#W)" class="B C D E"><path d="M65.75390625 25.328125L68.84375 28.4179687"/></g><g clip-path="url(#X)" class="B C D E"><path d="M68.7421875 25.328125l3.0898435 3.0898437"/></g><g clip-path="url(#Y)" class="B C D E"><path d="M71.73046875 25.328125l3.08984325 3.0898437"/></g><g clip-path="url(#Z)" class="B C D E"><path d="M74.72265625 25.328125l3.08593775 3.0898437"/></g><g clip-path="url(#a)" class="B C D E"><path d="M77.7109375 25.328125l3.0859375 3.0898437"/></g><g clip-path="url(#b)" class="B C D E"><path d="M80.69921875 25.328125l3.08593725 3.0898437"/></g><g clip-path="url(#c)" class="B C D E"><path d="M83.6875 25.328125l3.089844 3.0898437"/></g><g clip-path="url(#d)" class="B C D E"><path d="M86.67578125 25.328125l3.08984375 3.0898437"/></g><g class="B C D F"><path d="M5.179687 28.81640625h42.519532"/><path d="M47.699219 28.81640625h8.503906" class="K"/><path d="M57.339844 28.81640625h32.882812"/><path d="M90.222656 28.81640625h8.503907" class="K"/><path d="M99.859375 28.81640625h9.804688"/><path d="M107.792969 26.425781c.378906 1.433594 1.222656 2.113281 2.07031225 2.39062525-.84765625.28124975-1.69140625.95703075-2.07031225 2.39062475" stroke-linecap="round" stroke-linejoin="round"/><path d="M19.35546875 25.980469v5.671875"/></g><use xlink:href="#A" x="18.1626" y="36.4608" class="G"/><path d="M16.7109375 37.3203124998h5.2851561" class="B C F J"/><g class="G"><use xlink:href="#E" x="16.71" y="40.8756"/><use xlink:href="#G" x="19.665" y="41.4732"/></g><path d="M30.691406 25.980469v5.671875" class="B C D F"/><use xlink:href="#B" x="29.5006" y="36.4608" class="G"/><path d="M28.046875 37.3203124998h5.2890624" class="B C F J"/><g class="G"><use xlink:href="#E" x="28.048" y="40.8756"/><use xlink:href="#G" x="31.003" y="41.4732"/></g><path d="M42.03125 25.980469v5.671875" class="B C D F"/><use xlink:href="#C" x="40.8396" y="36.4608" class="G"/><path d="M39.38671875 37.3203124998H44.675781" class="B C F J"/><g class="G"><use xlink:href="#E" x="39.387" y="40.8756"/><use xlink:href="#G" x="42.342" y="41.4732"/></g><path d="M61.589844 23.148437h-1.417969v11.335938h1.417969M85.96875 23.148437h1.417969v11.335938H85.96875" class="B C D F"/><g class="G"><use xlink:href="#F" x="56.8856" y="40.101"/><use xlink:href="#G" x="61.127" y="40.6986"/></g><path d="M56.886718748 41.058593748H63.4609376" class="B C F J"/><g class="G"><use xlink:href="#E" x="57.5288" y="44.613"/><use xlink:href="#G" x="60.4838" y="45.2106"/><use xlink:href="#F" x="81.0716" y="40.1456"/><use xlink:href="#G" x="85.313" y="40.7432"/><use xlink:href="#D" x="87.6464" y="40.1456"/><use xlink:href="#B" x="91.316014" y="40.1456"/></g><path d="M81.070312502 41.1015624998H93.6992186" class="B C F J"/><g class="G"><use xlink:href="#E" x="84.7412" y="44.6576"/><use xlink:href="#G" x="87.6962" y="45.2552"/></g><g fill="rgb(0%,62.353516%,95.684814%)"><path d="M71.671875 28.816406c0-.714843-.578125-1.292968-1.292969-1.292968s-1.296875.578125-1.296875 1.292968.582032 1.296875 1.296875 1.296875 1.292969-.582031 1.292969-1.296875zm0 0"/><use xlink:href="#H" x="67.328" y="35.296"/><use xlink:href="#A" x="70.7444" y="36.193"/></g><path d="M60.171875 19.582031c.375-.746094 1.246094-1.242187 2.492188-1.242187h8.625c1.246093 0 2.117187-.5 2.492187-1.246094.371094.746094 1.242188 1.246094 2.488281 1.246094h8.625c1.246094 0 2.117188.496093 2.492188 1.242187" class="B C D F"/><use xlink:href="#B" x="72.5876" y="9.6702" class="G"/><path d="M71.136718748 10.531249998H76.4218748" class="B C F J"/><g class="G"><use xlink:href="#E" x="71.135" y="14.085"/><use xlink:href="#G" x="74.09" y="14.6826"/></g></svg>