<svg xmlns="http://www.w3.org/2000/svg" xmlns:xlink="http://www.w3.org/1999/xlink" width="259.549" height="218.032" viewBox="0 0 194.662 163.524" xmlns:v="https://vecta.io/nano"><style><![CDATA[.B{overflow:visible}.C{stroke:none}.D{stroke-miterlimit:10}.E{fill:none}.F{stroke-width:.399}.G{stroke:rgb(0%,62.353516%,95.684814%)}.H{fill:rgb(0%,0%,0%)}.I{stroke-width:.797}.J{stroke:rgb(50%,50%,50%)}.K{stroke:rgb(0%,0%,0%)}]]></style><defs><symbol id="A" class="B"><path d="M2.938-6.375c0-.25 0-.266-.234-.266C2.078-6 1.203-6 .89-6v.313c.203 0 .78 0 1.297-.266V-.78c0 .36-.03.47-.922.47H.953V0c.344-.03 1.203-.03 1.61-.03l1.61.03v-.312H3.86c-.906 0-.922-.11-.922-.47zm0 0" class="C"/></symbol><symbol id="B" class="B"><path d="M1.266-.766l1.063-1.03c1.547-1.375 2.14-1.906 2.14-2.906 0-1.14-.89-1.937-2.11-1.937C1.234-6.64.5-5.72.5-4.828c0 .547.5.547.53.547.172 0 .516-.11.516-.53a.51.51 0 0 0-.531-.516c-.078 0-.094 0-.125.016.22-.656.766-1.016 1.344-1.016.906 0 1.328.813 1.328 1.625 0 .797-.484 1.578-1.047 2.203L.61-.375C.5-.266.5-.234.5 0h3.703l.266-1.734h-.234C4.172-1.437 4.11-1 4-.844c-.062.078-.72.078-.937.078zm0 0" class="C"/></symbol><symbol id="C" class="B"><path d="M2.89-3.516c.813-.266 1.39-.953 1.39-1.75 0-.812-.875-1.375-1.828-1.375-1 0-1.766.594-1.766 1.36a.48.48 0 0 0 .516.516c.297 0 .5-.22.5-.516 0-.484-.47-.484-.61-.484.297-.5.953-.625 1.313-.625.422 0 .97.22.97 1.11 0 .125-.03.703-.28 1.14a.93.93 0 0 1-.891.516 3.29 3.29 0 0 1-.391.031c-.078.016-.14.03-.14.125 0 .11.063.11.234.11h.438c.813 0 1.188.672 1.188 1.656 0 1.36-.687 1.64-1.125 1.64S1.22-.234.875-.812c.344.047.656-.172.656-.547 0-.36-.266-.562-.547-.562a.53.53 0 0 0-.562.578C.422-.437 1.344.22 2.438.22c1.22 0 2.125-.906 2.125-1.922 0-.812-.64-1.594-1.672-1.812zm0 0" class="C"/></symbol><symbol id="D" class="B"><path d="M2.938-1.64v.86c0 .36-.03.47-.766.47H1.97V0c.406-.03.922-.03 1.344-.03l1.36.03v-.312h-.22c-.734 0-.75-.11-.75-.47v-.86h.984v-.312h-.984v-4.53c0-.203 0-.266-.172-.266-.078 0-.11 0-.187.125L.28-1.953v.313zm.047-.312H.563l2.422-3.72zm0 0" class="C"/></symbol><symbol id="E" class="B"><path d="M3.297 2.39c0-.03 0-.047-.172-.22C1.89.922 1.563-.97 1.563-2.5c0-1.734.375-3.47 1.61-4.703.125-.125.125-.14.125-.172 0-.078-.03-.11-.094-.11-.11 0-1 .688-1.594 1.953C1.11-4.437.984-3.328.984-2.5c0 .78.11 1.984.656 3.125C2.25 1.844 3.094 2.5 3.203 2.5c.063 0 .094-.03.094-.11zm0 0" class="C"/></symbol><symbol id="F" class="B"><path d="M2.875-2.5c0-.766-.11-1.97-.656-3.11C1.625-6.828.766-7.484.672-7.484c-.062 0-.11.047-.11.11 0 .03 0 .047.188.234.984.984 1.547 2.563 1.547 4.64 0 1.72-.36 3.47-1.594 4.72-.14.125-.14.14-.14.172 0 .063.047.11.11.11.094 0 1-.687 1.578-1.953.516-1.094.625-2.203.625-3.047zm0 0" class="C"/></symbol><symbol id="G" class="B"><path d="M3.328-3.016c.063-.25.297-1.172.984-1.172.047 0 .297 0 .5.125-.28.063-.47.297-.47.547 0 .156.11.344.375.344.22 0 .53-.172.53-.578 0-.516-.578-.656-.922-.656-.578 0-.922.53-1.047.75a1.09 1.09 0 0 0-1.078-.75c-1.03 0-1.61 1.28-1.61 1.53 0 .11.11.11.125.11.078 0 .11-.03.125-.11.344-1.062 1-1.312 1.344-1.312.188 0 .53.094.53.672 0 .313-.172.97-.53 2.375-.156.61-.516 1.03-.953 1.03-.062 0-.28 0-.5-.125.25-.062.47-.266.47-.547 0-.266-.22-.344-.36-.344-.312 0-.547.25-.547.578 0 .453.484.656.922.656.672 0 1.03-.703 1.047-.75a1.12 1.12 0 0 0 1.078.75c1.03 0 1.594-1.28 1.594-1.53 0-.11-.078-.11-.11-.11-.094 0-.11.047-.14.11C4.36-.344 3.688-.11 3.375-.11c-.39 0-.547-.312-.547-.656 0-.22.047-.437.156-.875zm0 0" class="C"/></symbol><symbol id="H" class="B"><path d="M.875-.594L.78-.156c0 .172.14.266.297.266.125 0 .297-.078.375-.28 0-.016.125-.484.188-.734l.22-.89c.047-.234.11-.453.172-.672.03-.172.11-.47.125-.5.14-.312.672-1.22 1.625-1.22.453 0 .53.375.53.703 0 .25-.062.53-.14.828L3.89-1.5l-.203.75c-.03.203-.125.547-.125.594 0 .172.14.266.28.266.313 0 .375-.25.453-.562L4.89-2.86c.03-.125.563-1.328 1.656-1.328.422 0 .53.344.53.703 0 .563-.422 1.703-.625 2.234-.078.234-.125.344-.125.547 0 .47.344.813.813.813.938 0 1.313-1.453 1.313-1.53 0-.11-.094-.11-.125-.11-.094 0-.094.03-.14.188C8.03-.812 7.72-.11 7.172-.11c-.172 0-.25-.094-.25-.328 0-.25.094-.484.188-.703.188-.53.61-1.625.61-2.203 0-.64-.406-1.062-1.156-1.062-.734 0-1.25.438-1.625.97 0-.125-.03-.47-.312-.703-.25-.22-.562-.266-.812-.266-.906 0-1.39.64-1.562.875-.047-.578-.47-.875-.922-.875s-.64.39-.734.563a4.67 4.67 0 0 0-.297.969c0 .11.094.11.11.11.11 0 .11-.016.172-.234.172-.703.375-1.187.734-1.187.156 0 .297.078.297.453 0 .22-.03.328-.156.844zm0 0" class="C"/></symbol><clipPath id="I"><path d="M191 146h3.66v4H191zm0 0"/></clipPath><clipPath id="J"><path d="M.2 77H117v83H.2zm0 0"/></clipPath><clipPath id="K"><path d="M134 28h60.465v1H134zm0 0"/></clipPath><path id="L" d="M106.297 88.363c0-.824-.668-1.496-1.492-1.496s-1.496.672-1.496 1.496.668 1.492 1.496 1.492a1.49 1.49 0 0 0 1.492-1.492zm0 0"/></defs><g class="E D"><path d="M74.918 150.262v-4.25m29.887 4.25v-4.25m29.887 4.25v-4.25m-91.8-27.762h4.254m-4.254-29.887h4.254m-4.254-29.887h4.254M42.902 28.6h4.254" stroke-width=".199" class="J"/><path d="M.2 148.137h192.273" class="F K"/></g><g clip-path="url(#I)" class="H"><path d="M194.465 148.137l-3.187-1.594 1.195 1.594-1.195 1.594"/></g><path d="M45.03 161.586V2.19" class="D E F K"/><g class="H"><path d="M45.03.195l-1.594 3.19L45.03 2.19l1.594 1.195"/><use xlink:href="#A" x="72.425" y="160.203"/><use xlink:href="#B" x="102.312" y="160.203"/><use xlink:href="#C" x="132.199" y="160.203"/><use xlink:href="#A" x="34.402" y="121.461"/><use xlink:href="#B" x="34.402" y="91.574"/><use xlink:href="#C" x="34.402" y="61.687"/><use xlink:href="#D" x="34.402" y="31.801"/></g><g stroke-dasharray="2.98883,2.98883" class="D E F J"><path d="M45.03 88.363h89.66M45.03 58.477h89.66"/><path d="M45.03 28.6h89.66M74.918 148.137V28.6m29.887 119.537V28.6M134.7 148.137V28.6"/></g><g clip-path="url(#J)" class="D E G I"><path d="M.2 148.137H45.03l29.887-59.773h29.887"/></g><path d="M104.805 58.477h29.887" class="D E G I"/><g clip-path="url(#K)" class="D E G I"><path d="M134.69 28.6h59.773"/></g><g fill="rgb(0%,62.353516%,95.684814%)"><use xlink:href="#L"/><path d="M136.184 58.477c0-.824-.668-1.496-1.492-1.496a1.5 1.5 0 0 0-1.496 1.496c0 .824.672 1.492 1.496 1.492a1.49 1.49 0 0 0 1.492-1.492zm0 0"/></g><g fill="rgb(100%,100%,100%)" class="D F G"><use xlink:href="#L" y="-29.886"/><path d="M136.184 28.6c0-.828-.668-1.496-1.492-1.496s-1.496.668-1.496 1.496.672 1.492 1.496 1.492a1.49 1.49 0 0 0 1.492-1.492zm0 0"/></g><g class="H"><use xlink:href="#G" x="185.249" y="144.618"/><use xlink:href="#H" x="48.549" y="11.191"/><use xlink:href="#E" x="57.296" y="11.191"/><use xlink:href="#G" x="61.171" y="11.191"/><use xlink:href="#F" x="66.865" y="11.191"/></g></svg>