<svg xmlns="http://www.w3.org/2000/svg" xmlns:xlink="http://www.w3.org/1999/xlink" width="600" height="257.823987" viewBox="0 0 84.062 36.122"><style><![CDATA[.B{stroke-miterlimit:10}.C{fill:none}.D{stroke-width:.3985}.E{stroke:rgb(25.097656%,66.273499%,25.097656%)}.F{overflow:visible}.G{stroke:none}.H{stroke:rgb(0%,0%,0%)}.I{fill:rgb(0%,0%,0%)}.J{stroke-width:.2388}.K{fill:rgb(100%,100%,100%)}.L{stroke-dasharray:0.3985,1.99255}.M{fill:rgb(25.097656%,66.273499%,25.097656%)}]]></style><defs><symbol id="A" class="F"><path d="M1.8125-.34375l-.046875.25c0 .09375.0625.140625.140625.140625.0625 0 .140625-.0625.15625-.09375.015625-.046875.0625-.171875.078125-.265625l.09375-.375c.015625-.09375.046875-.1875.0625-.28125.046875-.171875.046875-.1875.140625-.3125.125-.203125.34375-.453125.671875-.453125.234375 0 .234375.203125.234375.296875 0 .25-.171875.71875-.234375.890625-.046875.125-.0625.15625-.0625.234375 0 .21875.171875.359375.390625.359375.421875 0 .609375-.578125.609375-.640625s-.0625-.0625-.078125-.0625c-.046875 0-.0625.03125-.078125.078125-.09375.328125-.265625.5-.4375.5-.09375 0-.109375-.0625-.109375-.140625 0-.09375.015625-.15625.09375-.34375.0625-.125.234375-.578125.234375-.8125 0-.0625 0-.234375-.15625-.359375C3.4375-1.78125 3.3125-1.84375 3.125-1.84375c-.375 0-.609375.25-.75.421875-.03125-.359375-.328125-.421875-.546875-.421875-.34375 0-.578125.203125-.703125.375-.03125-.28125-.28125-.375-.453125-.375s-.265625.125-.328125.21875c-.09375.15625-.140625.390625-.140625.421875 0 .046875.046875.046875.0625.046875.0625 0 .0625-.015625.09375-.125.0625-.25.140625-.453125.3125-.453125.109375 0 .125.09375.125.203125 0 .09375-.03125.234375-.0625.359375l-.09375.375-.125.53125L.46875-.09375c0 .09375.078125.140625.140625.140625.078125 0 .140625-.0625.171875-.09375C.796875-.09375.828125-.21875.84375-.3125.875-.390625.921875-.578125.9375-.6875.96875-.78125 1-.875 1.015625-.96875c.046875-.171875.046875-.203125.171875-.375s.3125-.390625.625-.390625c.25 0 .25.21875.25.296875 0 .109375-.015625.15625-.0625.390625zm0 0" class="G"/></symbol><symbol id="B" class="F"><path d="M.515625-.265625L.46875-.09375c0 .09375.078125.140625.140625.140625.078125 0 .140625-.0625.171875-.09375C.796875-.09375.828125-.21875.84375-.3125.875-.390625.921875-.578125.9375-.6875.96875-.78125 1-.875 1.015625-.96875c.046875-.171875.046875-.203125.171875-.375s.3125-.390625.625-.390625c.25 0 .25.21875.25.296875 0 .25-.171875.71875-.25.890625-.046875.125-.0625.15625-.0625.234375 0 .21875.1875.359375.40625.359375.421875 0 .59375-.578125.59375-.640625s-.046875-.0625-.0625-.0625c-.0625 0-.0625.03125-.078125.078125-.09375.328125-.28125.5-.4375.5-.09375 0-.109375-.0625-.109375-.140625 0-.09375.015625-.15625.09375-.34375.046875-.125.21875-.578125.21875-.8125 0-.40625-.3125-.46875-.546875-.46875-.34375 0-.578125.203125-.703125.375-.03125-.28125-.28125-.375-.453125-.375s-.265625.125-.328125.21875c-.09375.15625-.140625.390625-.140625.421875 0 .046875.046875.046875.0625.046875.0625 0 .0625-.015625.09375-.125.0625-.25.140625-.453125.3125-.453125.109375 0 .125.09375.125.203125 0 .09375-.03125.234375-.0625.359375l-.09375.375zm0 0" class="G"/></symbol><symbol id="C" class="F"><path d="M1.796875-.953125c0-.21875 0-1.03125-.78125-1.03125s-.78125.8125-.78125 1.03125 0 1.015625.78125 1.015625.78125-.796875.78125-1.015625zm-.78125.921875c-.109375 0-.359375-.046875-.4375-.34375C.53125-.53125.53125-.75.53125-.984375s0-.4375.046875-.609375c.078125-.25.3125-.296875.4375-.296875.21875 0 .375.109375.4375.328125C1.5-1.421875 1.5-1.171875 1.5-.984375c0 .203125 0 .4375-.046875.625-.078125.28125-.3125.328125-.4375.328125zm0 0" class="G"/></symbol><symbol id="D" class="F"><path d="M3.109375-.953125c.078125 0 .171875 0 .171875-.09375 0-.109375-.09375-.109375-.171875-.109375H.625c-.078125 0-.171875 0-.171875.109375 0 .09375.09375.09375.171875.09375zm0 0" class="G"/></symbol><symbol id="E" class="F"><path d="M1.40625-2.65625c0-.125-.015625-.125-.125-.125-.265625.265625-.65625.265625-.828125.265625v.15625c.109375 0 .375 0 .609375-.125V-.34375c0 .140625 0 .1875-.421875.1875h-.15625V0l.75-.015625.75.015625v-.15625h-.15625c-.421875 0-.421875-.046875-.421875-.1875zm0 0" class="G"/></symbol><symbol id="F" class="F"><path d="M1.9375-.953125h1.28125c.0625 0 .15625 0 .15625-.09375 0-.109375-.09375-.109375-.15625-.109375H1.9375V-2.4375c0-.046875 0-.15625-.09375-.15625-.109375 0-.109375.09375-.109375.15625v1.28125H.453125c-.0625 0-.15625 0-.15625.109375 0 .09375.09375.09375.15625.09375h1.28125V.34375c0 .046875 0 .15625.09375.15625C1.9375.5 1.9375.390625 1.9375.34375zm0 0" class="G"/></symbol><symbol id="G" class="F"><path d="M2.15625-1.328125c0-.46875-.046875-.796875-.25-1.09375-.125-.1875-.375-.359375-.71875-.359375-.96875 0-.96875 1.140625-.96875 1.453125 0 .296875 0 1.40625.96875 1.40625s.96875-1.109375.96875-1.40625zM1.1875-.03125C1-.03125.734375-.140625.65625-.484375c-.0625-.25-.0625-.59375-.0625-.90625s0-.625.0625-.859375c.09375-.328125.359375-.40625.53125-.40625.234375 0 .453125.125.515625.375.078125.21875.078125.53125.078125.890625 0 .3125 0 .625-.0625.890625-.078125.375-.359375.46875-.53125.46875zm0 0" class="G"/></symbol><symbol id="H" class="F"><path d="M2.109375-.765625H1.96875c-.015625.09375-.046875.34375-.109375.390625-.03125.015625-.359375.015625-.40625.015625h-.78125l.84375-.703125c.3125-.25.59375-.5.59375-.90625 0-.5-.4375-.8125-.96875-.8125s-.875.359375-.875.75c0 .21875.171875.234375.21875.234375.109375 0 .21875-.078125.21875-.21875 0-.078125-.03125-.21875-.25-.21875C.59375-2.53125.875-2.625 1.078125-2.625c.40625 0 .625.328125.625.65625 0 .375-.25.65625-.390625.8125l-1 1C.265625-.125.265625-.125.265625 0h1.71875zm0 0" class="G"/></symbol><symbol id="I" class="F"><path d="M2-1.8125c.03125-.15625.171875-.703125.59375-.703125.03125 0 .171875 0 .296875.078125-.171875.03125-.28125.1875-.28125.328125 0 .09375.0625.203125.21875.203125.140625 0 .328125-.109375.328125-.34375 0-.3125-.359375-.390625-.5625-.390625-.34375 0-.546875.3125-.625.453125-.15625-.390625-.46875-.453125-.640625-.453125-.625 0-.96875.765625-.96875.921875 0 .0625.0625.0625.078125.0625.046875 0 .0625-.015625.078125-.078125.203125-.625.59375-.78125.796875-.78125.109375 0 .328125.0625.328125.40625 0 .1875-.109375.578125-.328125 1.421875-.09375.375-.3125.625-.578125.625-.03125 0-.171875 0-.296875-.078125.15625-.03125.28125-.15625.28125-.328125C.71875-.625.59375-.671875.5-.671875c-.171875 0-.328125.15625-.328125.34375 0 .28125.296875.390625.5625.390625.390625 0 .609375-.421875.625-.453125.078125.21875.296875.453125.65625.453125.609375 0 .953125-.765625.953125-.921875 0-.0625-.046875-.0625-.078125-.0625-.046875 0-.0625.03125-.078125.078125-.1875.640625-.59375.78125-.796875.78125-.21875 0-.328125-.1875-.328125-.390625 0-.140625.046875-.265625.109375-.53125zm0 0" class="G"/></symbol><symbol id="J" class="F"><path d="M.53125-.359375C.515625-.265625.46875-.125.46875-.09375c0 .109375.09375.15625.171875.15625S.828125.015625.875-.109375c0-.015625.203125-.828125.234375-.9375l.1875-.78125c.03125-.078125.1875-.359375.34375-.484375.046875-.046875.21875-.203125.46875-.203125.15625 0 .25.078125.25.078125-.171875.03125-.3125.171875-.3125.328125 0 .09375.078125.203125.234375.203125s.328125-.140625.328125-.34375c0-.21875-.1875-.390625-.5-.390625-.390625 0-.65625.28125-.765625.453125-.046875-.265625-.265625-.453125-.546875-.453125-.265625 0-.390625.234375-.4375.34375-.109375.203125-.1875.5625-.1875.578125 0 .0625.0625.0625.078125.0625.0625 0 .0625-.015625.09375-.140625.109375-.421875.21875-.71875.4375-.71875.109375 0 .1875.046875.1875.28125 0 .125-.015625.1875-.09375.5zm0 0" class="G"/></symbol><symbol id="K" class="F"><path d="M.453125-.296875l-.046875.21875c0 .09375.0625.140625.140625.140625.0625 0 .15625-.046875.1875-.15625C.75-.109375.921875-.796875.9375-.890625l.171875-.65625c.015625-.0625.15625-.3125.28125-.421875.03125-.03125.1875-.15625.40625-.15625.125 0 .203125.046875.203125.046875-.140625.03125-.265625.15625-.265625.28125 0 .078125.0625.1875.203125.1875s.28125-.125.28125-.3125c0-.171875-.171875-.328125-.421875-.328125-.328125 0-.5625.25-.65625.390625C1.109375-2.078125.921875-2.25.6875-2.25s-.34375.203125-.390625.296875c-.078125.171875-.15625.46875-.15625.484375 0 .0625.0625.0625.0625.0625.0625 0 .0625-.015625.09375-.125.078125-.359375.1875-.59375.375-.59375.078125 0 .15625.03125.15625.21875 0 .109375-.015625.171875-.09375.4375zm0 0" class="G"/></symbol><symbol id="L" class="F"><path d="M1.03125-1.6875c.03125-.046875.03125-.078125.03125-.109375 0-.109375-.09375-.1875-.203125-.1875-.140625 0-.1875.109375-.203125.15625L.1875-.28125s-.015625.046875-.015625.0625c0 .03125.109375.078125.140625.078125.015625 0 .03125-.015625.046875-.0625zm0 0" class="G"/></symbol><clipPath id="M"><path d="M33.527344 14.203125H33.875v1.34375h-.347656zm0 0"/></clipPath><clipPath id="N"><path d="M33.527344 14.203125h3.335937v1.34375h-3.335937zm0 0"/></clipPath><clipPath id="O"><path d="M34.871094 14.203125h4.980469v1.34375h-4.980469zm0 0"/></clipPath><clipPath id="P"><path d="M37.859375 14.203125h4.980469v1.34375h-4.980469zm0 0"/></clipPath><clipPath id="Q"><path d="M40.847656 14.203125h4.980469v1.34375h-4.980469zm0 0"/></clipPath><clipPath id="R"><path d="M43.835938 14.203125h4.980468v1.34375h-4.980468zm0 0"/></clipPath><clipPath id="S"><path d="M46.824219 14.203125h4.980469v1.34375h-4.980469zm0 0"/></clipPath><clipPath id="T"><path d="M49.8125 14.203125h3.558594v1.34375H49.8125zm0 0"/></clipPath><clipPath id="U"><path d="M52.800781 14.203125h.570313v1.34375h-.570313zm0 0"/></clipPath><clipPath id="V"><path d="M33.527344 13.277344H33.875v2.269531h-.347656zm0 0"/></clipPath><clipPath id="W"><path d="M33.527344 13.277344h3.335937v2.269531h-3.335937zm0 0"/></clipPath><clipPath id="X"><path d="M34.871094 13.277344h4.980469v2.269531h-4.980469zm0 0"/></clipPath><clipPath id="Y"><path d="M37.859375 13.277344h4.980469v2.269531h-4.980469zm0 0"/></clipPath><clipPath id="Z"><path d="M40.847656 13.277344h4.980469v2.269531h-4.980469zm0 0"/></clipPath><clipPath id="a"><path d="M43.835938 13.277344h4.980468v2.269531h-4.980468zm0 0"/></clipPath><clipPath id="b"><path d="M46.824219 13.277344h4.980469v2.269531h-4.980469zm0 0"/></clipPath><clipPath id="c"><path d="M49.8125 13.277344h3.558594v2.269531H49.8125zm0 0"/></clipPath><clipPath id="d"><path d="M52.800781 13.277344h.570313v2.269531h-.570313zm0 0"/></clipPath><path id="e" d="M63.167969 15.546875c0-.71875-.578125-1.296875-1.292969-1.296875s-1.296875.578125-1.296875 1.296875.582031 1.292969 1.296875 1.292969 1.292969-.578125 1.292969-1.292969zm0 0"/></defs><g clip-path="url(#M)" class="B C D E"><path d="M29.88671875 15.199219l3.08984325 3.089843"/></g><g clip-path="url(#N)" class="B C D E"><path d="M32.87890625 15.199219l3.08593775 3.089843"/></g><g clip-path="url(#O)" class="B C D E"><path d="M35.8671875 15.199219l3.0859375 3.089843"/></g><g clip-path="url(#P)" class="B C D E"><path d="M38.85546875 15.199219l3.08593725 3.089843"/></g><g clip-path="url(#Q)" class="B C D E"><path d="M41.84375 15.199219l3.089844 3.089843"/></g><g clip-path="url(#R)" class="B C D E"><path d="M44.83203125 15.199219l3.08984375 3.089843"/></g><g clip-path="url(#S)" class="B C D E"><path d="M47.8203125 15.199219l3.0898435 3.089843"/></g><g clip-path="url(#T)" class="B C D E"><path d="M50.80859375 15.199219l3.08984325 3.089843"/></g><g clip-path="url(#U)" class="B C D E"><path d="M53.80078125 15.199219l3.08593775 3.089843"/></g><g clip-path="url(#V)" class="B C D E"><path d="M29.88671875 12.210937l3.08984325 3.089844"/></g><g clip-path="url(#W)" class="B C D E"><path d="M32.87890625 12.210937l3.08593775 3.089844"/></g><g clip-path="url(#X)" class="B C D E"><path d="M35.8671875 12.210937l3.0859375 3.089844"/></g><g clip-path="url(#Y)" class="B C D E"><path d="M38.85546875 12.210937l3.08593725 3.089844"/></g><g clip-path="url(#Z)" class="B C D E"><path d="M41.84375 12.210937l3.089844 3.089844"/></g><g clip-path="url(#a)" class="B C D E"><path d="M44.83203125 12.210937l3.08984375 3.089844"/></g><g clip-path="url(#b)" class="B C D E"><path d="M47.8203125 12.210937l3.0898435 3.089844"/></g><g clip-path="url(#c)" class="B C D E"><path d="M50.80859375 12.210937l3.08984325 3.089844"/></g><g clip-path="url(#d)" class="B C D E"><path d="M53.80078125 12.210937l3.08593775 3.089844"/></g><g class="B C D H"><path d="M5.179687 15.546875h5.671875" class="L"/><path d="M13.68359375 15.546875H70.378906"/><path d="M73.214844 15.546875h5.667968" class="L"/><path d="M16.519531 12.710937v5.667969m51.023438-5.667969v5.667969M42.03125 12.710937v5.667969"/></g><g class="I"><use xlink:href="#A" x="10.1726" y="24.0386"/><use xlink:href="#C" x="14.414" y="24.6362"/><use xlink:href="#D" x="16.7474" y="24.0386"/><use xlink:href="#E" x="20.483" y="24.0386"/></g><path d="M10.171875002 24.996093752H22.8671876" class="B C H J"/><g class="I"><use xlink:href="#B" x="13.8752" y="28.5506"/><use xlink:href="#C" x="16.8302" y="29.1482"/><use xlink:href="#A" x="38.7436" y="23.994"/><use xlink:href="#C" x="42.985" y="24.5916"/></g><path d="M38.742187498 24.94921875H45.3203122" class="B C H J"/><g class="I"><use xlink:href="#B" x="39.3868" y="28.506"/><use xlink:href="#C" x="42.3418" y="29.1036"/><use xlink:href="#A" x="61.229" y="24.0386"/><use xlink:href="#C" x="65.471" y="24.6362"/><use xlink:href="#F" x="67.8038" y="24.0386"/><use xlink:href="#E" x="71.473414" y="24.0386"/></g><path d="M61.230468752 24.996093752H73.855469" class="B C H J"/><g class="I"><use xlink:href="#B" x="64.8986" y="28.5506"/><use xlink:href="#C" x="67.8536" y="29.1482"/></g><path d="M43.328125 15.546875c0-.71875-.582031-1.296875-1.296875-1.296875s-1.292969.578125-1.292969 1.296875.578125 1.292969 1.292969 1.292969 1.296875-.578125 1.296875-1.292969zm0 0" stroke="rgb(0%,62.353516%,95.684814%)" class="B D K"/><g fill="rgb(0%,62.353516%,95.684814%)"><use xlink:href="#I" x="38.982" y="10.743"/><use xlink:href="#G" x="42.3984" y="11.6394"/></g><path d="M34.824219 15.546875c0-.71875-.582032-1.296875-1.296875-1.296875s-1.292969.578125-1.292969 1.296875.578125 1.292969 1.292969 1.292969 1.296875-.578125 1.296875-1.292969zm0 0" class="B D E K"/><g class="M"><use xlink:href="#J" x="30.838" y="9.547"/><use xlink:href="#E" x="33.5344" y="10.444"/></g><path d="M54.664062 15.546875c0-.71875-.578125-1.296875-1.292968-1.296875s-1.296875.578125-1.296875 1.296875.582031 1.292969 1.296875 1.292969 1.292968-.578125 1.292968-1.292969zm0 0" class="B D E K"/><g class="M"><use xlink:href="#J" x="50.68" y="9.547"/><use xlink:href="#H" x="53.377" y="10.444"/></g><g fill="rgb(50%,50%,50%)"><use xlink:href="#e"/><use xlink:href="#K" x="59.669" y="11.956"/><use xlink:href="#L" x="62.10272" y="10.11235"/><use xlink:href="#L" x="63.274277" y="10.11235"/><use xlink:href="#L" x="64.445833" y="10.11235"/><use xlink:href="#e" x="-42.519531"/><use xlink:href="#K" x="17.735" y="11.956"/><use xlink:href="#L" x="20.16872" y="10.11235"/><use xlink:href="#L" x="21.340277" y="10.11235"/><path d="M26.320313 15.546875c0-.71875-.582032-1.296875-1.296875-1.296875s-1.296875.578125-1.296875 1.296875.582031 1.292969 1.296875 1.292969 1.296875-.578125 1.296875-1.292969zm0 0"/><use xlink:href="#K" x="23.99" y="11.956"/><use xlink:href="#L" x="26.42372" y="10.11235"/></g></svg>