<svg class="logo-svg" xmlns="http://www.w3.org/2000/svg" xmlns:xlink="http://www.w3.org/1999/xlink" viewBox="0 0 192 192">
  <defs>
    <linearGradient id="TrapezeGradient" x1="96" x2="96" y2="150" gradientUnits="userSpaceOnUse">
      <stop offset="0" stop-color="#3fa9f5"/>
      <stop offset="0" stop-color="#0aa2f4"/>
      <stop offset="0.5" stop-color="#009ff4"/>
      <stop offset="1" stop-color="#1e6fd2"/>
    </linearGradient>
    <linearGradient id="BaseGradient" x1="96" y1="192" x2="96" y2="144" gradientUnits="userSpaceOnUse">
      <stop offset="0" stop-color="#3fa9f5"/>
      <stop offset="0" stop-color="#0095e6"/>
      <stop offset="1" stop-color="#009ff4"/>
      <stop offset="1" stop-color="#0095e6"/>
    </linearGradient>
  </defs>
    <g>
        <g class="trapeze">
          <path d="M164.9,150H27.1a5,5,0,0,1-4.9-6L50.2,4a5,5,0,0,1,4.9-4h81.8a5,5,0,0,1,4.9,4l28,140A5,5,0,0,1,164.9,150Z" style="fill:url(#TrapezeGradient)"/>
        </g>
        <path class="base" d="M187,144H5a5,5,0,0,0-5,5v38a5,5,0,0,0,5,5H16.77a5,5,0,0,0,5-5V173.51a5,5,0,0,1,5-5h138a5,5,0,0,1,5,5V187a5,5,0,0,0,5,5H187a5,5,0,0,0,5-5V149A5,5,0,0,0,187,144Z" style="fill:url(#BaseGradient)"/>
        <path class="infinity" d="M148.35,75a20,20,0,0,1-7.25,15.54Q133.86,97,122.74,97A29.91,29.91,0,0,1,108,93.32q-6.63-3.69-12.28-11.75A39.46,39.46,0,0,1,83.89,92.73a27.66,27.66,0,0,1-14.28,3.92q-11.37,0-18.67-6a19.57,19.57,0,0,1-7.29-15.88,19.61,19.61,0,0,1,7.29-15.54Q58.25,53,69.61,53q15.7,0,26.3,15.22,10.77-14.94,26.83-14.94,11.54,0,18.58,6.08A19.8,19.8,0,0,1,148.35,75Zm-78,13a18.39,18.39,0,0,0,10.46-3.16q4.74-3.16,9.42-10.11a34.26,34.26,0,0,0-9.07-10,19,19,0,0,0-11-3.23A16.42,16.42,0,0,0,59.19,65.2a12,12,0,0,0-4.34,9.7,12,12,0,0,0,4.21,9.45Q63.27,88,70.3,88Zm51.4-26.2A18.21,18.21,0,0,0,111.24,65a38.52,38.52,0,0,0-9.51,10,35.36,35.36,0,0,0,9.2,10,18.89,18.89,0,0,0,10.94,3.27,16.23,16.23,0,0,0,10.94-3.72A12,12,0,0,0,137.15,75a11.83,11.83,0,0,0-4.38-9.55A16.71,16.71,0,0,0,121.7,61.83Z" style="fill:#fff"/>
      </g>
</svg>