<svg xmlns="http://www.w3.org/2000/svg" xmlns:xlink="http://www.w3.org/1999/xlink" width="301.513" height="229.005" viewBox="0 0 226.135 171.754" xmlns:v="https://vecta.io/nano"><style><![CDATA[.B{overflow:visible}.C{stroke:none}.D{fill:rgb(0%,0%,0%)}.E{stroke-miterlimit:10}.F{fill:none}.G{fill:rgb(100%,100%,100%)}.H{stroke:rgb(0%,0%,0%)}.I{stroke:rgb(50%,50%,50%)}.J{stroke-width:.399}.K{stroke-width:.797}.L{stroke-width:.298}.M{stroke:rgb(0%,62.353516%,95.684814%)}]]></style><defs><symbol id="A" class="B"><path d="M1.984-2.781h.844c-.25 1.094-.312 1.422-.312 1.922 0 .109 0 .313.047.563.078.328.156.375.281.375.141 0 .297-.125.297-.281 0-.047 0-.062-.047-.156-.203-.547-.203-1.031-.203-1.234 0-.406.047-.797.125-1.187h.859c.094 0 .359 0 .359-.266 0-.172-.156-.172-.297-.172h-2.5c-.172 0-.453 0-.781.344-.266.297-.453.641-.453.672 0 .016 0 .078.094.078.047 0 .063-.031.109-.078.375-.578.797-.578.953-.578h.422c-.234.906-.641 1.797-.953 2.484-.062.109-.062.125-.062.172 0 .141.125.203.219.203.219 0 .281-.203.375-.484l.203-.734zm0 0" class="C"/></symbol><symbol id="B" class="B"><path d="M2.781-2.828c-.125-.266-.344-.469-.687-.469-.875 0-1.797 1.094-1.797 2.188 0 .703.406 1.188 1 1.188.141 0 .516-.031.969-.562.063.313.313.563.672.563.266 0 .438-.172.563-.406a3.76 3.76 0 0 0 .219-.734c0-.078-.062-.078-.094-.078-.062 0-.078.031-.094.125-.141.5-.266.938-.578.938-.203 0-.219-.203-.219-.344 0-.172.016-.234.094-.562L3-1.656l.266-1.047.047-.25c0-.125-.094-.203-.219-.203-.172 0-.281.172-.312.328zM2.297-.891c-.031.141-.031.156-.141.281-.328.406-.641.531-.844.531C.938-.078.828-.5.828-.781c0-.375.234-1.297.406-1.641.234-.437.578-.719.875-.719.484 0 .594.609.594.656s-.016.094-.031.125zm0 0" class="C"/></symbol><symbol id="C" class="B"><path d="M2.797-3.156c.063-.062.063-.078.063-.219H1.484c-.219 0-.266 0-.453-.016C.75-3.406.75-3.453.734-3.531H.547L.359-2.422h.188c.016-.078.063-.422.141-.469.047-.031.469-.031.547-.031h1.141l-.547.688c-.687.906-.75 1.734-.75 2.047 0 .047 0 .297.25.297s.25-.234.25-.312v-.203c0-1.016.219-1.484.438-1.766zm0 0" class="C"/></symbol><symbol id="D" class="B"><path d="M2.766-.859v-.187h-.578v-2.328c0-.109 0-.156-.109-.156-.062 0-.094 0-.141.078L.203-1.047v.188H1.75v.438c0 .172 0 .234-.437.234h-.141V0l.797-.016L2.75 0v-.187h-.141c-.422 0-.422-.062-.422-.234v-.437zm-.984-2.109v1.922H.391zm0 0" class="C"/></symbol><symbol id="E" class="B"><path d="M.813-2.922a2.01 2.01 0 0 0 .5.063c.703 0 1.109-.469 1.109-.547 0-.047-.047-.062-.062-.062s-.031 0-.047.016c-.125.047-.406.141-.797.141-.141 0-.422 0-.75-.141l-.078-.016c-.062 0-.062.047-.062.141v1.531c0 .094 0 .156.078.156.047 0 .063-.016.109-.078.219-.281.547-.328.719-.328.328 0 .469.25.484.297.094.172.125.375.125.672 0 .156 0 .469-.156.703a.72.72 0 0 1-.609.313c-.344 0-.687-.187-.812-.531.188.016.297-.125.297-.266 0-.219-.203-.266-.266-.266-.016 0-.266 0-.266.281 0 .484.438.953 1.063.953.672 0 1.25-.5 1.25-1.156 0-.594-.453-1.141-1.094-1.141a1.16 1.16 0 0 0-.734.25zm0 0" class="C"/></symbol><symbol id="F" class="B"><path d="M2.641-.953h-.172c-.016.109-.078.422-.141.484-.047.031-.437.031-.516.031H.844l1.047-.891c.391-.312.75-.625.75-1.125 0-.641-.547-1.016-1.219-1.016-.656 0-1.094.453-1.094.938 0 .266.234.281.281.281.125 0 .281-.078.281-.266 0-.109-.047-.281-.312-.281.156-.375.516-.484.766-.484.516 0 .797.406.797.828 0 .453-.328.813-.5 1L.375-.203C.328-.156.328-.141.328 0h2.156zm0 0" class="C"/></symbol><symbol id="G" class="B"><path d="M1.625-1.906h.625c-.078.313-.187.797-.187 1.203a1.72 1.72 0 0 0 .047.469c.094.266.156.281.234.281.125 0 .25-.109.25-.234 0-.031-.016-.062-.047-.109-.094-.187-.187-.5-.187-.922 0-.094 0-.312.078-.687h.656c.094 0 .125 0 .188-.031.078-.062.094-.141.094-.172 0-.141-.141-.141-.234-.141H1.172c-.219 0-.359.047-.594.266-.141.109-.344.391-.344.453s.063.063.094.063c.047 0 .063-.016.094-.062.266-.375.594-.375.703-.375h.313C1.281-1.328 1-.703.844-.391L.75-.187c-.016.016-.016.031-.016.078 0 .078.063.156.172.156.219 0 .266-.234.391-.703zm0 0" class="C"/></symbol><symbol id="H" class="B"><path d="M.953-.578l.781-.766c1.172-1.031 1.625-1.437 1.625-2.187 0-.844-.672-1.437-1.594-1.437-.844 0-1.391.688-1.391 1.344 0 .422.375.422.391.422.125 0 .391-.094.391-.391 0-.203-.141-.391-.391-.391H.672c.172-.484.563-.766 1-.766.688 0 1 .609 1 1.219s-.375 1.188-.781 1.656L.453-.281C.375-.187.375-.172.375 0h2.766l.219-1.297h-.187c-.047.219-.094.547-.172.656-.047.063-.547.063-.703.063zm0 0" class="C"/></symbol><symbol id="I" class="B"><path d="M6.563-2.297c.172 0 .359 0 .359-.203 0-.187-.187-.187-.359-.187H1.172c-.172 0-.344 0-.344.188 0 .203.172.203.344.203zm0 0" class="C"/></symbol><symbol id="J" class="B"><path d="M2.938-6.375c0-.25 0-.266-.234-.266C2.078-6 1.203-6 .891-6v.313c.203 0 .781 0 1.297-.266v5.172c0 .359-.031.469-.922.469H.953V0c.344-.031 1.203-.031 1.609-.031L4.172 0v-.312h-.312c-.906 0-.922-.109-.922-.469zm0 0" class="C"/></symbol><symbol id="K" class="B"><path d="M3.297 2.391c0-.031 0-.047-.172-.219C1.891.922 1.563-.969 1.563-2.5c0-1.734.375-3.469 1.609-4.703.125-.125.125-.141.125-.172 0-.078-.031-.109-.094-.109-.109 0-1 .688-1.594 1.953C1.109-4.437.984-3.328.984-2.5c0 .781.109 1.984.656 3.125C2.25 1.844 3.094 2.5 3.203 2.5c.063 0 .094-.031.094-.109zm0 0" class="C"/></symbol><symbol id="L" class="B"><path d="M2.875-2.5c0-.766-.109-1.969-.656-3.109C1.625-6.828.766-7.484.672-7.484c-.062 0-.109.047-.109.109 0 .031 0 .047.188.234.984.984 1.547 2.563 1.547 4.641 0 1.719-.359 3.469-1.594 4.719-.141.125-.141.141-.141.172 0 .063.047.109.109.109.094 0 1-.687 1.578-1.953.516-1.094.625-2.203.625-3.047zm0 0" class="C"/></symbol><symbol id="M" class="B"><path d="M3.328-3.016c.063-.25.297-1.172.984-1.172.047 0 .297 0 .5.125-.281.063-.469.297-.469.547 0 .156.109.344.375.344.219 0 .531-.172.531-.578 0-.516-.578-.656-.922-.656-.578 0-.922.531-1.047.75a1.09 1.09 0 0 0-1.078-.75C1.172-4.406.594-3.125.594-2.875c0 .109.109.109.125.109.078 0 .109-.031.125-.109.344-1.062 1-1.312 1.344-1.312.188 0 .531.094.531.672 0 .313-.172.969-.531 2.375-.156.609-.516 1.031-.953 1.031-.062 0-.281 0-.5-.125.25-.062.469-.266.469-.547 0-.266-.219-.344-.359-.344-.312 0-.547.25-.547.578 0 .453.484.656.922.656.672 0 1.031-.703 1.047-.75a1.12 1.12 0 0 0 1.078.75c1.031 0 1.594-1.281 1.594-1.531 0-.109-.078-.109-.109-.109-.094 0-.109.047-.141.109-.328 1.078-1 1.313-1.312 1.313-.391 0-.547-.312-.547-.656 0-.219.047-.437.156-.875zm0 0" class="C"/></symbol><symbol id="N" class="B"><path d="M9.234-6.047c.094-.359.109-.453.859-.453.219 0 .313 0 .313-.203 0-.109-.094-.109-.266-.109H8.828c-.266 0-.281 0-.391.188L4.797-.937l-.781-5.641c-.031-.234-.047-.234-.312-.234H2.344c-.187 0-.297 0-.297.188 0 .125.094.125.281.125l.438.016c.156.031.219.047.219.172 0 .031-.016.063-.047.188L1.672-1.062c-.094.406-.266.719-1.078.75-.047 0-.172.016-.172.188 0 .094.063.125.141.125l1-.031L2.578 0c.047 0 .188 0 .188-.203 0-.109-.109-.109-.187-.109-.562 0-.672-.203-.672-.437 0-.062 0-.125.031-.234l1.359-5.422h.016l.859 6.172c.016.125.031.234.141.234s.172-.109.219-.172l4.031-6.312h.016L7.141-.781c-.094.391-.109.469-.906.469-.156 0-.266 0-.266.188 0 .125.109.125.141.125l1.234-.031L8.594 0c.063 0 .188 0 .188-.203 0-.109-.094-.109-.281-.109-.359 0-.641 0-.641-.172 0-.047 0-.062.047-.25zm0 0" class="C"/></symbol><clipPath id="O"><path d="M26.68 20h194.277v131H26.68zm0 0"/></clipPath><clipPath id="P"><path d="M188 31h32.957v2H188zm0 0"/></clipPath></defs><g class="F E"><path d="M91.438 88v-4.25M107.625 88v-4.25M140.008 88v-4.25M156.199 88v-4.25M188.578 88v-4.25M24.551 139.676h4.254M24.551 32.078h4.254" stroke-width=".199" class="I"/><path d="M26.68 85.875h192.285" class="H J"/></g><path d="M220.957 85.875l-3.187-1.594 1.195 1.594-1.195 1.594" class="D"/><path d="M26.68 166.574V7.172" class="E F H J"/><path d="M26.68 5.18l-1.594 3.188 1.594-1.195 1.594 1.195" class="D"/><path d="M98.457 90.395H84.422v8.195h14.035zm0 0" class="G"/><use xlink:href="#A" x="86.91" y="96.102" class="D"/><path d="M112.09 90.395h-8.93v8.195h8.93zm0 0" class="G"/><use xlink:href="#B" x="105.648" y="96.102" class="D"/><path d="M146.723 90.395h-13.434v13.871h13.434zm0 0" class="G"/><g class="D"><use xlink:href="#C" x="136.675" y="96.256"/><use xlink:href="#G" x="139.653" y="96.256"/></g><path d="M136.676 97.328h6.66" class="E F H L"/><use xlink:href="#D" x="138.516" y="101.775" class="D"/><path d="M166.852 90.395h-21.309v10.086h21.309zm0 0" class="G"/><g class="D"><use xlink:href="#H" x="156.097" y="97.991"/><use xlink:href="#A" x="159.833" y="97.991"/></g><path d="M195.293 90.395h-13.434v13.871h13.434zm0 0" class="G"/><g class="D"><use xlink:href="#E" x="185.245" y="96.256"/><use xlink:href="#G" x="188.223" y="96.256"/></g><path d="M185.246 97.328h6.66" class="E F H L"/><g class="D"><use xlink:href="#F" x="187.086" y="101.775"/><use xlink:href="#I" x="8.302" y="142.47"/><use xlink:href="#J" x="16.051" y="142.47"/><use xlink:href="#J" x="16.051" y="35.29"/></g><path d="M107.625 123.535V97.711m32.383 25.824v-21.52m48.57-69.937v53.797" stroke-dasharray="0.3985,1.99255" class="E F I J"/><g clip-path="url(#O)" class="E F I K"><path d="M26.68 85.875l1.516-3.953 1.516-3.93.379-.977.758-1.945.379-.965.758-1.922.758-1.902.379-.945.379-.937.379-.934.379-.926.758-1.832.379-.906.379-.898.379-.891.379-.879.379-.875.379-.867.379-.855.379-.848.379-.836.379-.828.379-.816.379-.809.379-.797.379-.785.379-.777.379-.762.379-.754.379-.738.379-.727.379-.715.379-.699.379-.691.379-.676.379-.66.379-.652.379-.633.379-.621.379-.609.379-.59.379-.582.379-.562.379-.547.379-.535.379-.516.379-.5.379-.488.379-.469.379-.453.379-.437.379-.422.379-.406.379-.387.379-.371.379-.355.379-.336.379-.32.379-.305.379-.285.379-.27.383-.25.379-.234.379-.215.379-.199.379-.18.379-.16.379-.145.379-.125.379-.105.379-.094.379-.07.379-.055.379-.035.379-.016h.379l.379.02.379.039.379.055.379.074.379.09.379.109.379.129.379.145.379.164.379.184.379.199.379.219.379.234.379.254.379.27.379.285.379.305.379.324.379.34.379.355.379.375.379.387.379.406.379.426.379.438.379.457.379.473.379.484.379.504.379.52.379.539.379.547.379.563.379.582.379.594.379.609.379.621.379.637.379.652.379.664.379.676.379.691.379.703.379.715.379.73.379.742.379.75.379.766.379.777.379.785.379.797.379.809.379.82.379.828.379.84.379.848.379.855.379.867.379.875.379.883.379.891.383.898.379.906.379.914.379.922.379.926.379.934.379.938.758 1.895.758 1.914.379.965 1.137 2.91.758 1.957 1.137 2.953 3.41 8.891.379.98.379.984 1.137 2.93.379.969.758 1.93.379.957.758 1.902.379.945.379.938.379.93.379.926.758 1.832.379.902.379.898.379.891.379.879.379.875.379.863.379.855.379.848.379.836.379.824.379.82.379.805.379.797.379.785.379.77.379.762.379.75.379.738.379.727.379.715.379.699.379.688.379.676.379.66.379.648.379.633.379.621.379.605.379.59.379.578.379.563.383.547.379.527.379.516.379.5.379.484.379.469.379.453.379.434.379.422.379.402.379.387.379.371.379.352.379.336.379.316.379.305.379.281.379.27.379.25.379.23.379.211.379.195.379.18.379.16.379.141.379.125.379.105.379.086.379.07.379.051.379.035.379.016.379-.004.379-.023.379-.039.379-.055.379-.078.379-.09.379-.113.379-.129.379-.148.379-.168.379-.184.379-.203.379-.219.379-.234.379-.254.379-.273.379-.289.379-.309.379-.324.379-.34.379-.359.379-.375.379-.391.379-.41.379-.422.379-.441.379-.461.379-.473.379-.488.379-.508.379-.52.379-.535.379-.551.379-.566.379-.582.379-.594.379-.613.379-.625.379-.637.379-.652.379-.664.379-.68.379-.691.379-.703.383-.719.379-.73.379-.742.379-.754.379-.766.379-.777.379-.789.379-.801.379-.809.379-.82.379-.828.379-.84.379-.848.379-.859.379-.867.379-.875.379-.883.379-.895.379-.898.379-.906.758-1.836.379-.93.379-.934.379-.937.758-1.895.379-.957.379-.961.758-1.93.758-1.945.758-1.957 1.137-2.953 3.41-8.891.379-.98.379-.984.758-1.953.758-1.945.379-.965.379-.961.758-1.914.758-1.891.758-1.867.379-.922.379-.918.758-1.816.379-.895.379-.891.379-.879.379-.875.379-.863.379-.855.379-.844.379-.836.379-.824.379-.816.383-.805.379-.793.379-.785.379-.77.379-.762.379-.75.379-.734.379-.727.379-.711.379-.699.379-.687.379-.672.379-.66.379-.645.379-.633.379-.621.379-.602.379-.59.379-.574.379-.562.379-.543.379-.527.379-.516.379-.5.379-.48.379-.469.379-.449.379-.434.379-.418.379-.402.379-.383.379-.367.379-.352.379-.336.379-.316.379-.297.379-.285.379-.266.379-.246.379-.227.379-.211.379-.195.379-.176.379-.156.379-.141.379-.121.379-.105.379-.086.379-.066.379-.051.379-.031.379-.016.379.008.379.023.379.039.379.059.379.078.379.098.379.113.379.133.379.148.379.168.379.188.379.203.379.223.379.234.379.258.379.273.379.293.379.309.379.324.379.344.379.359.379.379.379.391.379.414.379.426.383.445.379.457.379.477.379.488.379.508.379.523.379.539.379.551.379.57.379.582.379.598.379.609.379.625.379.641.379.656.379.664.379.68.379.695.379.707.379.719.379.73.379.742.379.758.379.766.379.777.379.789.379.801.379.813.379.82.379.832.379.84.379.848.379.859.758 1.746.379.887.379.891.379.902.379.906.379.918.379.922.379.926.379.934.379.941.379.945.758 1.906" stroke-dasharray="2.98883,2.98883"/></g><path d="M107.625 123.914h32.383m0 .004l.098-.18.098-.184.098-.18.094-.184.098-.18.098-.187.098-.184.293-.562.098-.184.195-.383.098-.187.098-.191.094-.195.195-.383.098-.195.098-.199.195-.391.195-.398.098-.195.098-.199.098-.203.094-.203.098-.199.195-.406.098-.207.098-.203.293-.621.098-.203.195-.422.094-.207.195-.422.098-.215.195-.422.488-1.074.098-.219.094-.215.098-.223.293-.656.098-.223.098-.219.391-.891.098-.227.094-.223.195-.453.098-.223.098-.227.098-.23.098-.227.098-.23.098-.227.293-.691.094-.23.098-.23.098-.234.098-.23.782-1.879.094-.234.781-1.906.293-.727.094-.238.391-.969.098-.246.098-.242.098-.246.098-.242.195-.492.098-.242.094-.246.391-.984.098-.25.195-.492.098-.25.098-.246.098-.25.098-.246.094-.25.293-.75.098-.246.098-.25.098-.254.586-1.504.094-.25.098-.254.098-.25.098-.254.098-.25.098-.254.098-.25.195-.508.098-.25.195-.508.094-.254.098-.25.977-2.539.094-.254 1.168-3.043.098-.258.098-.254.098-.25.781-2.031.094-.25.195-.508.098-.25.195-.508.098-.25.195-.508.098-.25.098-.254.098-.25.094-.25.098-.254.684-1.754.098-.246.098-.254.098-.246.094-.25.098-.25.098-.246.098-.25.098-.246.098-.25.195-.492.098-.25.293-.738.094-.246.098-.246.098-.242.195-.492.195-.484.098-.246.391-.969.094-.242.195-.484.098-.238.098-.242.195-.477.098-.242.293-.715.098-.234.094-.238.098-.234.098-.238.586-1.406.098-.23.098-.234.098-.23.094-.234.293-.691.098-.227.098-.23.195-.453.098-.23.195-.453.098-.223.094-.227.098-.227.488-1.113.098-.219.098-.223.293-.656.094-.219.098-.215.098-.219.098-.215.098-.219.098-.211.293-.645.293-.633.094-.211.098-.207.098-.211.488-1.035.098-.203.098-.207.098-.203.098-.199.094-.203.098-.203.391-.797.195-.391.098-.199.098-.195.098-.191.098-.195.098-.191.094-.195.098-.187.098-.191.098-.187.098-.191.293-.562.195-.367.098-.187.098-.184.094-.18.098-.184.293-.539.098-.176.098-.18.195-.352.098-.172.098-.176.098-.172.094-.172.195-.344.391-.672.391-.656.098-.16.094-.164.098-.16.098-.156.098-.16.391-.625.391-.609.094-.148.195-.297.098-.145.098-.148.195-.289.098-.141.098-.145.098-.137.195-.281.094-.137.293-.41.293-.398.391-.516.098-.125.094-.125.195-.25.098-.121.098-.125.098-.117.098-.121.293-.352.195-.227.094-.113.098-.113.391-.437.293-.316.293-.305.094-.102.098-.098.098-.094.195-.195.293-.281.098-.09.098-.086.195-.18.094-.086.098-.086.098-.082.098-.086.098-.078.195-.164.098-.078.098-.074.098-.078.195-.148.094-.074.293-.211.098-.066.098-.07.098-.062.098-.066.293-.187.098-.059.094-.059.098-.059.098-.055.098-.059.098-.051.098-.055.391-.203.098-.043.098-.047.094-.047.195-.086.098-.039.098-.043.098-.035.195-.078.098-.031.195-.07.098-.031.094-.031.195-.055.098-.031.391-.094.293-.059.195-.031.094-.016.098-.016.293-.035.293-.023.391-.016h.094" stroke-linecap="round" class="E F K M"/><g clip-path="url(#P)" class="E F K M"><path d="M188.578 32.078h32.379"/></g><g class="D"><use xlink:href="#M" x="211.741" y="82.357"/><use xlink:href="#N" x="30.197" y="16.172"/><use xlink:href="#K" x="40.949" y="16.172"/><use xlink:href="#M" x="44.823" y="16.172"/><use xlink:href="#L" x="50.517" y="16.172"/></g></svg>