<svg xmlns="http://www.w3.org/2000/svg" xmlns:xlink="http://www.w3.org/1999/xlink" width="473.984" height="266.957" viewBox="0 0 355.488 200.218"><style><![CDATA[.B{stroke-miterlimit:10}.C{fill:none}.D{stroke-width:.399}.E{overflow:visible}.F{stroke:none}.G{stroke:rgb(0%,0%,0%)}.H{fill:rgb(0%,0%,0%)}.I{stroke:rgb(25.097656%,66.273499%,25.097656%)}.J{fill:rgb(25.097656%,66.273499%,25.097656%)}.K{stroke-dasharray:2.98883,2.98883}.L{fill:rgb(100%,100%,100%)}.M{stroke:rgb(84.70459%,18.824768%,19.216919%)}.N{fill:rgb(84.70459%,18.824768%,19.216919%)}.O{stroke:rgb(0%,62.353516%,95.684814%)}.P{fill:rgb(0%,62.353516%,95.684814%)}]]></style><defs><symbol id="A" class="E"><path d="M1.78-5.094c0-.016 0-.094-.094-.094-.172 0-.72.063-.906.078-.062.016-.14.016-.14.156 0 .078.063.078.172.078.36 0 .375.063.375.125s-.062.313-.11.47L.47-1.844c-.094.375-.125.484-.125.75 0 .72.406 1.172.953 1.172.89 0 1.797-1.11 1.797-2.187 0-.672-.39-1.187-.984-1.187-.344 0-.656.22-.875.438zM1.078-2.28c.047-.156.047-.172.11-.266.375-.484.703-.594.906-.594.266 0 .47.234.47.703 0 .438-.25 1.297-.375 1.594-.25.5-.594.766-.89.766-.25 0-.5-.203-.5-.766 0-.14 0-.28.125-.75zm0 0" class="F"/></symbol><symbol id="B" class="E"><path d="M2.78-2.828c-.125-.266-.344-.47-.687-.47C1.22-3.297.297-2.203.297-1.11c0 .703.406 1.188 1 1.188.14 0 .516-.03.97-.562.063.313.313.563.672.563.266 0 .438-.172.563-.406a3.76 3.76 0 0 0 .219-.734c0-.078-.062-.078-.094-.078-.062 0-.078.03-.094.125-.14.5-.266.938-.578.938-.203 0-.22-.203-.22-.344 0-.172.016-.234.094-.562L3-1.656l.266-1.047.047-.25c0-.125-.094-.203-.22-.203-.172 0-.28.172-.312.328zM2.297-.89c-.03.14-.03.156-.14.28-.328.406-.64.53-.844.53C.938-.078.828-.5.828-.78c0-.375.234-1.297.406-1.64.234-.437.578-.72.875-.72.484 0 .594.61.594.656s-.016.094-.03.125zm0 0" class="F"/></symbol><symbol id="C" class="E"><path d="M5.125-2.437c.125 0 .266 0 .266-.156 0-.14-.14-.14-.25-.14H.672c-.11 0-.25 0-.25.14 0 .156.14.156.25.156zM5.14-1c.11 0 .25 0 .25-.14 0-.156-.14-.156-.266-.156H.672c-.11 0-.25 0-.25.156 0 .14.14.14.25.14zm0 0" class="F"/></symbol><symbol id="D" class="E"><path d="M1.75-3.328c0-.14 0-.14-.156-.14-.328.328-.812.328-1.016.328v.188c.125 0 .47 0 .75-.14v2.672c0 .172 0 .234-.516.234H.61V0l.922-.016L2.47 0v-.187H2.28c-.53 0-.53-.062-.53-.234zm0 0" class="F"/></symbol><symbol id="E" class="E"><path d="M2.64-.953H2.47c-.016.11-.078.422-.14.484-.047.03-.437.03-.516.03h-.97l1.047-.89c.39-.312.75-.625.75-1.125 0-.64-.547-1.016-1.22-1.016-.656 0-1.094.453-1.094.938 0 .266.234.28.28.28.125 0 .28-.078.28-.266 0-.11-.047-.28-.312-.28.156-.375.516-.484.766-.484.516 0 .797.406.797.828 0 .453-.328.813-.5 1L.375-.203C.328-.156.328-.14.328 0h2.156zm0 0" class="F"/></symbol><symbol id="F" class="E"><path d="M4.11-3.234c.047-.11.047-.125.047-.187 0-.156-.125-.234-.25-.234-.094 0-.22.063-.297.188-.016.03-.094.297-.125.453l-.172.672-.375 1.53c-.03.125-.39.72-.953.72-.437 0-.53-.375-.53-.687 0-.39.14-.906.438-1.656.14-.344.172-.437.172-.61a.68.68 0 0 0-.703-.703C.563-3.75.25-2.516.25-2.437s.078.078.094.078c.094 0 .094-.016.14-.14.234-.797.563-1.062.86-1.062.063 0 .203 0 .203.28 0 .203-.078.422-.14.594-.344.89-.484 1.375-.484 1.766 0 .766.53 1.016 1.03 1.016.328 0 .61-.14.844-.375-.11.438-.203.844-.547 1.297-.22.28-.547.53-.922.53-.125 0-.5-.016-.656-.36.14 0 .25 0 .375-.094.078-.078.172-.187.172-.344C1.22.484.984.453.89.453.703.453.422.578.422 1s.375.734.906.734c.86 0 1.734-.766 1.97-1.72zm0 0" class="F"/></symbol><symbol id="G" class="E"><path d="M1.188-1.922c.28.125.53.125.734.125.22 0 .688 0 .688-.266 0-.203-.297-.234-.625-.234-.172 0-.47.016-.78.156C1-2.234.86-2.39.86-2.625c0-.516.828-.828 1.594-.828a1.23 1.23 0 0 1 .781.25c.094.063.11.078.172.078.11 0 .234-.11.234-.234 0-.156-.53-.484-1.094-.484-.984 0-1.89.578-1.89 1.22a.76.76 0 0 0 .328.594c-.5.28-.766.766-.766 1.156C.22-.328.703.188 1.594.188c1.125 0 1.594-.75 1.594-.875 0-.047-.03-.078-.094-.078-.03 0-.062.03-.078.047-.125.203-.328.516-1.344.516-.516 0-1.234-.125-1.234-.734 0-.28.234-.734.75-.984zm.28-.11a1.72 1.72 0 0 1 .516-.078c.22 0 .25.016.406.047-.125.063-.14.078-.47.078-.187 0-.28 0-.453-.047zm0 0" class="F"/></symbol><symbol id="H" class="E"><path d="M3.47-1.953h2.36c.11 0 .28 0 .28-.172 0-.156-.172-.156-.28-.156H3.47v-2.375c0-.125 0-.28-.172-.28s-.172.156-.172.28v2.375H.75c-.11 0-.28 0-.28.156 0 .172.172.172.28.172h2.375V.422c0 .125 0 .28.172.28s.172-.156.172-.28zm0 0" class="F"/></symbol><symbol id="I" class="E"><path d="M5.578-1.953c.14 0 .297 0 .297-.172 0-.156-.156-.156-.297-.156H1c-.14 0-.297 0-.297.156 0 .172.156.172.297.172zm0 0" class="F"/></symbol><symbol id="J" class="E"><path d="M3.328-3.016c.063-.25.297-1.172.984-1.172.047 0 .297 0 .5.125-.28.063-.47.297-.47.547 0 .156.11.344.375.344.22 0 .53-.172.53-.578 0-.516-.578-.656-.922-.656-.578 0-.922.53-1.047.75a1.09 1.09 0 0 0-1.078-.75c-1.03 0-1.61 1.28-1.61 1.53 0 .11.11.11.125.11.078 0 .11-.03.125-.11.344-1.062 1-1.312 1.344-1.312.188 0 .53.094.53.672 0 .313-.172.97-.53 2.375-.156.61-.516 1.03-.953 1.03-.062 0-.28 0-.5-.125.25-.062.47-.266.47-.547 0-.266-.22-.344-.36-.344-.312 0-.547.25-.547.578 0 .453.484.656.922.656.672 0 1.03-.703 1.047-.75a1.12 1.12 0 0 0 1.078.75c1.03 0 1.594-1.28 1.594-1.53 0-.11-.078-.11-.11-.11-.094 0-.11.047-.14.11C4.36-.344 3.688-.11 3.375-.11c-.39 0-.547-.312-.547-.656 0-.22.047-.437.156-.875zm0 0" class="F"/></symbol><symbol id="K" class="E"><path d="M.875-.594L.78-.156c0 .172.14.266.297.266.125 0 .297-.078.375-.28 0-.016.125-.484.188-.734l.22-.89c.047-.234.11-.453.172-.672.03-.172.11-.47.125-.5.14-.312.672-1.22 1.625-1.22.453 0 .53.375.53.703 0 .61-.484 1.89-.64 2.313-.094.234-.11.36-.11.47a.8.8 0 0 0 .828.813c.938 0 1.297-1.453 1.297-1.53 0-.11-.078-.11-.11-.11-.11 0-.11.03-.156.188C5.22-.672 4.89-.11 4.406-.11c-.172 0-.234-.094-.234-.328 0-.25.078-.484.172-.703.188-.53.61-1.625.61-2.203 0-.656-.422-1.062-1.14-1.062-.906 0-1.39.64-1.562.875-.047-.562-.453-.875-.922-.875-.453 0-.64.39-.734.563-.172.344-.297.938-.297.97 0 .11.094.11.11.11.11 0 .11-.016.172-.234.172-.703.375-1.187.734-1.187.188 0 .297.125.297.453 0 .22-.03.328-.156.844zm0 0" class="F"/></symbol><symbol id="L" class="E"><path d="M.844-.437C.828-.344.78-.172.78-.156c0 .156.125.22.234.22.125 0 .234-.078.28-.14.03-.062.078-.297.125-.437l.14-.625.125-.47c.078-.28.094-.344.297-.625.188-.28.516-.64 1.047-.64.39 0 .406.36.406.484 0 .422-.297 1.188-.406 1.484-.078.203-.11.266-.11.375 0 .375.297.594.656.594.703 0 1-.953 1-1.062 0-.094-.078-.094-.11-.094-.094 0-.094.047-.125.125-.156.563-.47.844-.734.844-.156 0-.187-.094-.187-.25s.047-.25.172-.562c.078-.22.36-.953.36-1.344 0-.672-.53-.797-.906-.797-.578 0-.97.36-1.172.64-.047-.484-.453-.64-.75-.64s-.453.22-.547.375A2.36 2.36 0 0 0 .328-2c0 .078.094.078.125.078.094 0 .094-.016.14-.203.11-.406.25-.75.516-.75.188 0 .234.156.234.344 0 .125-.062.39-.125.578l-.14.625zm0 0" class="F"/></symbol><symbol id="M" class="E"><path d="M2.344-5.094c0-.203 0-.22-.187-.22-.484.516-1.187.516-1.453.516v.25c.172 0 .64 0 1.047-.203v4.125c0 .28-.016.375-.734.375H.75V0c.28-.03.984-.03 1.297-.03L3.344 0v-.25h-.266c-.72 0-.734-.078-.734-.375zm0 0" class="F"/></symbol><symbol id="N" class="E"><path d="M1.016-.61l.844-.828c1.234-1.094 1.72-1.53 1.72-2.328 0-.906-.72-1.547-1.687-1.547a1.48 1.48 0 0 0-1.5 1.453c0 .438.406.438.438.438a.41.41 0 0 0 .406-.422c0-.203-.14-.406-.422-.406h-.11c.188-.516.625-.812 1.078-.812.734 0 1.078.64 1.078 1.297 0 .64-.406 1.266-.844 1.766L.484-.297C.39-.203.39-.187.39 0h2.97l.22-1.39h-.203c-.03.25-.094.594-.172.72-.062.063-.578.063-.75.063zm0 0" class="F"/></symbol><symbol id="O" class="E"><path d="M2.313-2.812c.656-.203 1.11-.766 1.11-1.39 0-.656-.703-1.11-1.47-1.11-.797 0-1.406.484-1.406 1.094 0 .266.172.406.406.406.25 0 .406-.172.406-.406 0-.39-.375-.39-.484-.39.234-.39.766-.5 1.047-.5.328 0 .766.172.766.89 0 .094-.016.563-.22.906-.234.39-.516.406-.703.422l-.312.016c-.062.016-.125.016-.125.11 0 .078.063.078.188.078h.36c.656 0 .953.547.953 1.328 0 1.078-.562 1.313-.906 1.313s-.937-.14-1.22-.61c.28.047.53-.125.53-.437 0-.28-.22-.437-.453-.437-.187 0-.453.11-.453.453 0 .734.75 1.25 1.61 1.25.984 0 1.703-.72 1.703-1.53 0-.656-.5-1.28-1.328-1.453zm0 0" class="F"/></symbol><symbol id="P" class="E"><path d="M2.344-1.312v.688c0 .297-.016.375-.61.375h-.172V0c.328-.03.75-.03 1.078-.03L3.734 0v-.25h-.172c-.594 0-.61-.078-.61-.375v-.687h.797v-.25h-.797v-3.625c0-.156 0-.203-.125-.203-.078 0-.094 0-.156.094L.22-1.562v.25zm.047-.25H.453L2.39-4.53zm0 0" class="F"/></symbol><symbol id="Q" class="E"><path d="M3.578-1.61c0-.937-.656-1.734-1.516-1.734a1.43 1.43 0 0 0-1.016.406V-4.5c.172.047.422.11.688.11.97 0 1.53-.72 1.53-.828 0-.047-.016-.094-.078-.094-.016 0-.03 0-.062.03-.156.063-.547.234-1.078.234-.328 0-.687-.062-1.062-.234-.062-.016-.078-.016-.094-.016-.078 0-.078.063-.078.188v2.36c0 .14 0 .203.11.203.047 0 .063-.016.094-.062.094-.125.39-.562 1.03-.562.422 0 .61.36.672.516.14.297.156.594.156 1 0 .28 0 .75-.203 1.094-.187.313-.484.516-.844.516C1.25-.047.78-.47.656-.937c.016 0 .047.016.125.016a.39.39 0 0 0 .406-.391.39.39 0 0 0-.406-.391c-.11 0-.39.047-.39.422C.39-.594.953.172 1.844.172c.922 0 1.734-.766 1.734-1.78zm0 0" class="F"/></symbol><symbol id="R" class="E"><path d="M1.047-2.61v-.203c0-2.016 1-2.297 1.406-2.297.188 0 .516.047.688.313-.11 0-.437 0-.437.36 0 .25.203.375.375.375.125 0 .36-.078.36-.39 0-.47-.344-.86-1-.86-1.03 0-2.11 1.03-2.11 2.797C.328-.39 1.266.172 2 .172c.89 0 1.64-.75 1.64-1.797 0-1.016-.703-1.78-1.594-1.78-.547 0-.828.406-1 .797zM2-.047c-.5 0-.734-.484-.78-.594-.156-.375-.156-1.016-.156-1.156 0-.625.266-1.422.984-1.422.125 0 .484 0 .734.5.14.28.14.688.14 1.078s0 .78-.14 1.078c-.234.47-.594.516-.78.516zm0 0" class="F"/></symbol><symbol id="S" class="E"><path d="M3.797-4.86c.063-.094.063-.11.063-.266H1.922c-.97 0-.984-.11-1.016-.266H.703l-.25 1.64H.64c.03-.125.094-.625.203-.72.063-.047.672-.047.78-.047H3.28l-.906 1.25c-.703 1.078-.97 2.188-.97 3 0 .078 0 .438.36.438.375 0 .375-.36.375-.437v-.406c0-.437.016-.875.078-1.297.03-.187.14-.875.5-1.375zm0 0" class="F"/></symbol><symbol id="T" class="E"><path d="M1.297-3.64c-.36-.234-.39-.516-.39-.64 0-.484.516-.828 1.078-.828.578 0 1.094.422 1.094.984 0 .453-.312.844-.797 1.125zm1.172.75c.563-.28.953-.703.953-1.234 0-.734-.703-1.187-1.437-1.187-.797 0-1.437.594-1.437 1.344 0 .14.016.5.36.875.078.094.375.28.578.422-.47.234-1.156.688-1.156 1.47C.328-.36 1.14.172 1.984.172c.906 0 1.656-.656 1.656-1.516 0-.28-.094-.64-.39-.97-.156-.172-.28-.25-.78-.578zm-.797.344l.97.625c.234.14.61.39.61.875 0 .578-.61 1-1.266 1-.672 0-1.25-.5-1.25-1.156 0-.47.25-.97.938-1.344zm0 0" class="F"/></symbol><symbol id="U" class="E"><path d="M2.922-2.53v.25c0 1.86-.828 2.234-1.28 2.234-.14 0-.578-.016-.78-.28.344 0 .406-.234.406-.375 0-.25-.187-.36-.36-.36-.14 0-.375.063-.375.375 0 .53.438.86 1.11.86 1.03 0 2-1.078 2-2.797 0-2.14-.922-2.687-1.625-2.687-.437 0-.828.156-1.172.5-.328.36-.516.703-.516 1.297 0 1 .703 1.78 1.594 1.78.5 0 .813-.344 1-.797zm-.984.61c-.125 0-.5 0-.75-.5-.14-.297-.14-.687-.14-1.078 0-.437 0-.812.172-1.11.22-.39.516-.5.797-.5.36 0 .625.266.766.625.094.266.125.766.125 1.125 0 .672-.266 1.438-.97 1.438zm0 0" class="F"/></symbol><symbol id="V" class="E"><path d="M3.672-2.547c0-.64-.047-1.28-.328-1.875a1.49 1.49 0 0 0-1.359-.891c-.47 0-1.047.22-1.375.953-.266.547-.297 1.172-.297 1.813 0 .594.03 1.313.36 1.922.344.64.922.797 1.313.797.438 0 1.03-.156 1.39-.922.25-.547.297-1.172.297-1.797zM1.984 0c-.312 0-.78-.203-.922-.97C.97-1.437.97-2.172.97-2.64l.063-1.47c.156-.953.75-1.016.953-1.016.266 0 .78.14.938.922C3-3.75 3-3.14 3-2.64L2.922-1c-.125.766-.578 1-.937 1zm0 0" class="F"/></symbol><path id="W" d="M30.97 39.54a1.42 1.42 0 0 0-1.418-1.418c-.785 0-1.418.633-1.418 1.418a1.42 1.42 0 0 0 1.418 1.418 1.42 1.42 0 0 0 1.418-1.418zm0 0"/><path id="X" d="M30.97 124.578a1.42 1.42 0 0 0-1.418-1.418 1.42 1.42 0 0 0-1.418 1.418 1.42 1.42 0 0 0 1.418 1.418 1.42 1.42 0 0 0 1.418-1.418zm0 0"/><path id="Y" d="M30.97 96.23a1.42 1.42 0 0 0-1.418-1.418 1.42 1.42 0 0 0-1.418 1.418c0 .785.633 1.418 1.418 1.418a1.42 1.42 0 0 0 1.418-1.418zm0 0"/><path id="Z" d="M62.148 82.06c0-2.348-1.902-4.254-4.25-4.254s-4.254 1.906-4.254 4.254a4.25 4.25 0 1 0 8.504 0zm0 0"/><path id="a" d="M60.023 82.06c0-1.176-.953-2.125-2.125-2.125s-2.13.95-2.13 2.125a2.13 2.13 0 0 0 2.129 2.125 2.13 2.13 0 0 0 2.125-2.125zm0 0"/><path id="b" d="M118.844 82.06c0-2.348-1.906-4.254-4.254-4.254s-4.25 1.906-4.25 4.254a4.25 4.25 0 0 0 4.25 4.25c2.348 0 4.254-1.902 4.254-4.25zm0 0"/><path id="c" d="M175.535 82.06c0-2.348-1.902-4.254-4.25-4.254s-4.254 1.906-4.254 4.254 1.906 4.25 4.254 4.25a4.25 4.25 0 0 0 4.25-4.25zm0 0"/><path id="d" d="M230.105 82.06c0-1.176-.953-2.125-2.13-2.125s-2.125.95-2.125 2.125a2.13 2.13 0 0 0 2.125 2.125 2.13 2.13 0 0 0 2.129-2.125zm0 0"/><path id="e" d="M345.617 82.06c0-2.348-1.902-4.254-4.254-4.254s-4.25 1.906-4.25 4.254a4.25 4.25 0 1 0 8.504 0zm0 0"/><path id="f" d="M201.758 110.406a2.13 2.13 0 0 0-2.125-2.129 2.13 2.13 0 0 0-2.129 2.129 2.13 2.13 0 0 0 2.129 2.125 2.13 2.13 0 0 0 2.125-2.125zm0 0"/><path id="g" d="M145.063 53.71c0-1.172-.95-2.125-2.125-2.125s-2.125.953-2.125 2.125.95 2.125 2.125 2.125 2.125-.95 2.125-2.125zm0 0"/></defs><path d="M29.55 39.54h311.812" class="B C D I K"/><path d="M38.262 34.453h-8.187V44.62h8.188zm0 0" class="L"/><use xlink:href="#A" x="32.564" y="42.134" class="J"/><path d="M29.55 152.926h311.812" class="B C D I K"/><path d="M56.27 148.266H30.074v9.32H56.27zm0 0" class="L"/><g class="J"><use xlink:href="#B" x="32.564" y="153.974"/><use xlink:href="#C" x="38.589" y="153.974"/><use xlink:href="#B" x="46.476" y="153.974"/><use xlink:href="#D" x="50.425" y="155.095"/></g><path d="M29.55 96.23h311.812" class="B C D I K"/><path d="M71.578 90.586H43.52v11.29h28.06zm0 0" class="L"/><g class="J"><use xlink:href="#A" x="46.009" y="98.267"/><use xlink:href="#D" x="49.216" y="99.388"/><use xlink:href="#C" x="54.643" y="98.267"/><use xlink:href="#A" x="62.53" y="98.267"/><use xlink:href="#E" x="65.737" y="99.388"/></g><path d="M29.55 124.578h311.812" class="B C D I K"/><path d="M71.746 119.918h-12.28v9.32h12.28zm0 0" class="L"/><g class="J"><use xlink:href="#B" x="61.954" y="125.628"/><use xlink:href="#E" x="65.904" y="126.749"/></g><path d="M29.55 110.406h311.812" class="B C D M"/><use xlink:href="#F" x="22.103" y="111.406" class="N"/><path d="M29.55 89.145h311.812" class="B C D M"/><g class="N"><use xlink:href="#F" x="7.804" y="90.793"/><use xlink:href="#H" x="14.142" y="90.793"/><use xlink:href="#G" x="22.609" y="90.793"/></g><path d="M29.55 131.664h311.812" class="B C D M"/><g class="N"><use xlink:href="#F" x="7.804" y="133.313"/><use xlink:href="#I" x="14.142" y="133.313"/><use xlink:href="#G" x="22.609" y="133.313"/></g><g class="B C D G"><path d="M29.55 11.6v169.684h311.414"/><g stroke-linejoin="round" stroke-linecap="round"><path d="M-2.07 2.4C-1.696.956-.852.28 0-.001-.852-.278-1.696-.958-2.07-2.39" transform="matrix(0 -1 -1 0 29.55 11.39041)"/><path d="M339.094 178.883c.38 1.434 1.223 2.11 2.07 2.39-.848.277-1.69.953-2.07 2.39"/></g></g><g class="H"><use xlink:href="#J" x="12.079" y="12.591"/><use xlink:href="#L" x="17.773" y="14.086"/><use xlink:href="#K" x="341.206" y="191.916"/></g><path d="M57.898 178.438v5.668" class="B C D G"/><use xlink:href="#M" x="55.904" y="192.059" class="H"/><path d="M86.242 178.438v5.668" class="B C D G"/><use xlink:href="#N" x="84.251" y="192.059" class="H"/><path d="M114.6 178.438v5.668" class="B C D G"/><use xlink:href="#O" x="112.597" y="192.059" class="H"/><path d="M142.938 178.438v5.668" class="B C D G"/><use xlink:href="#P" x="140.943" y="192.059" class="H"/><path d="M171.285 178.438v5.668" class="B C D G"/><use xlink:href="#Q" x="169.29" y="192.059" class="H"/><path d="M199.633 178.438v5.668" class="B C D G"/><use xlink:href="#R" x="197.636" y="192.059" class="H"/><path d="M227.977 178.438v5.668" class="B C D G"/><use xlink:href="#S" x="225.983" y="192.059" class="H"/><path d="M256.324 178.438v5.668" class="B C D G"/><use xlink:href="#T" x="254.329" y="192.059" class="H"/><path d="M284.672 178.438v5.668" class="B C D G"/><use xlink:href="#U" x="282.676" y="192.059" class="H"/><path d="M313.02 178.438v5.668" class="B C D G"/><g class="H"><use xlink:href="#M" x="309.03" y="192.059"/><use xlink:href="#V" x="313.015" y="192.059"/></g><g class="D B"><g class="I J"><use xlink:href="#W"/><use xlink:href="#W" y="113.386"/><use xlink:href="#X"/><use xlink:href="#Y"/></g><g class="M N"><use xlink:href="#W" y="70.866"/><use xlink:href="#X" y="-35.433"/><use xlink:href="#Y" y="35.434"/></g><use xlink:href="#Z" class="C G"/></g><use xlink:href="#a" class="H"/><use xlink:href="#b" class="B C D G"/><path d="M116.715 82.06c0-1.176-.95-2.125-2.125-2.125s-2.125.95-2.125 2.125a2.13 2.13 0 0 0 2.125 2.125c1.176 0 2.125-.953 2.125-2.125zm0 0" class="H"/><use xlink:href="#c" class="B C D G"/><use xlink:href="#a" x="113.377" class="H"/><use xlink:href="#b" x="113.386" class="B C D G"/><use xlink:href="#d" class="H"/><use xlink:href="#c" x="113.387" class="B C D G"/><path d="M286.797 82.06c0-1.176-.953-2.125-2.125-2.125s-2.125.95-2.125 2.125.95 2.125 2.125 2.125a2.13 2.13 0 0 0 2.125-2.125zm0 0" class="H"/><use xlink:href="#e" class="B C D G"/><use xlink:href="#d" x="113.387" class="H"/><use xlink:href="#e" x="-255.121" y="28.346" class="B C D O"/><path d="M88.37 110.406a2.13 2.13 0 0 0-2.129-2.129 2.13 2.13 0 0 0-2.125 2.129 2.13 2.13 0 0 0 2.125 2.125 2.13 2.13 0 0 0 2.129-2.125zm0 0" class="P"/><use xlink:href="#Z" x="141.735" y="28.346" class="B C D O"/><use xlink:href="#f" class="P"/><use xlink:href="#Z" x="255.122" y="28.346" class="B C D O"/><use xlink:href="#f" x="113.387" class="P"/><path d="M147.188 53.71a4.25 4.25 0 0 0-4.25-4.25c-2.348 0-4.254 1.902-4.254 4.25s1.906 4.254 4.254 4.254 4.25-1.906 4.25-4.254zm0 0" class="B C D G"/><use xlink:href="#g" class="H"/><path d="M260.578 53.71c0-2.348-1.906-4.25-4.254-4.25a4.25 4.25 0 0 0-4.25 4.25c0 2.348 1.902 4.254 4.25 4.254s4.254-1.906 4.254-4.254zm0 0" class="B C D G"/><use xlink:href="#g" x="113.387" class="H"/></svg>