<svg xmlns="http://www.w3.org/2000/svg" xmlns:xlink="http://www.w3.org/1999/xlink" width="311.3413" height="235.8227" viewBox="0 0 233.506 176.867"><defs><symbol overflow="visible" id="a"><path d="M3.3281-3.0156c.0625-.25.2969-1.1719.9844-1.1719.0469 0 .2969 0 .5.125-.2813.0625-.4688.2969-.4688.5469 0 .1562.1094.3437.375.3437.2188 0 .5313-.1719.5313-.5781 0-.5156-.5781-.6563-.9219-.6563-.5781 0-.9219.5313-1.0469.75-.25-.6562-.7812-.75-1.078-.75C1.1718-4.4063.5937-3.125.5937-2.875c0 .1094.1093.1094.125.1094.078 0 .1093-.0313.125-.1094.3437-1.0625 1-1.3125 1.3437-1.3125.1875 0 .5313.0938.5313.6719 0 .3125-.172.9687-.5313 2.375-.1563.6094-.5156 1.0312-.9531 1.0312-.0625 0-.2813 0-.5-.125.25-.0625.4687-.2656.4687-.5469 0-.2656-.2187-.3437-.3594-.3437-.3125 0-.5468.25-.5468.5781 0 .4532.4844.6563.9219.6563.6718 0 1.0312-.7031 1.0468-.75.125.3593.4844.75 1.0781.75 1.0313 0 1.5938-1.2813 1.5938-1.5313 0-.1094-.0781-.1094-.1094-.1094-.0937 0-.1094.047-.1406.1094-.3281 1.0781-1 1.3125-1.3125 1.3125-.3906 0-.5469-.3125-.5469-.6562 0-.2188.0469-.4375.1563-.875zm0 0"/></symbol><symbol overflow="visible" id="c"><path d="M4.8438-3.7969c.0468-.1406.0468-.1562.0468-.2344 0-.1718-.1406-.2656-.2969-.2656-.0937 0-.25.0625-.3437.2031-.0156.0625-.1094.3594-.1406.547-.0781.25-.1406.5312-.2031.7968L3.453-.9531c-.0312.1406-.4687.8437-1.125.8437-.5 0-.6094-.4375-.6094-.8125 0-.4531.172-1.0781.5-1.9531.1563-.4063.2032-.5156.2032-.7188 0-.4375-.3125-.8125-.8125-.8125C.6563-4.4063.2969-2.953.2969-2.875c0 .1094.0937.1094.1094.1094.1093 0 .1093-.0313.1562-.1875.2813-.9375.6719-1.2344 1.0156-1.2344.0781 0 .25 0 .25.3125 0 .25-.1094.5156-.1719.7031-.4062 1.0625-.578 1.625-.578 2.0938 0 .8906.625 1.1875 1.2187 1.1875.3906 0 .7187-.1719 1-.4531-.125.5156-.25 1.0156-.6406 1.5468-.2657.3281-.6407.625-1.0938.625-.1406 0-.5938-.0312-.7656-.4219.1562 0 .2968 0 .4218-.125.1094-.078.2032-.2187.2032-.4062 0-.3125-.2656-.3438-.3594-.3438C.8281.5313.5.6875.5 1.172c0 .5.4375.875 1.0625.875 1.0156 0 2.0469-.9063 2.3281-2.0313zm0 0"/></symbol><symbol overflow="visible" id="h"><path d="M.875-.5938C.8437-.4375.7812-.203.7812-.1563c0 .172.1407.2657.297.2657.125 0 .2968-.0781.375-.2813 0-.0156.125-.4844.1874-.7344l.2188-.8906c.0469-.2344.1094-.4531.1719-.6719.0312-.1718.1093-.4687.125-.5.1406-.3125.6718-1.2187 1.625-1.2187.453 0 .5312.375.5312.7031 0 .25-.0625.5313-.1406.8281L3.8906-1.5l-.2031.75c-.0313.2031-.125.5469-.125.5938 0 .1718.1406.2656.2813.2656.3125 0 .375-.25.453-.5625.1407-.5625.5157-2.0156.5938-2.4063.0313-.125.5625-1.3281 1.6563-1.3281.4219 0 .5312.3438.5312.7031 0 .5625-.4219 1.7031-.625 2.2344-.0781.2344-.125.3438-.125.5469 0 .4687.3438.8125.8125.8125.9375 0 1.3125-1.4531 1.3125-1.5313 0-.1094-.0937-.1094-.125-.1094-.0937 0-.0937.0313-.1406.1876-.1563.5312-.4688 1.2343-1.0156 1.2343-.1719 0-.25-.0937-.25-.3281 0-.25.0937-.4844.1875-.7031.1875-.5313.6094-1.625.6094-2.2031 0-.6407-.4063-1.0625-1.1563-1.0625-.7344 0-1.25.4375-1.625.9687 0-.125-.0313-.4688-.3125-.7031-.25-.2188-.5625-.2656-.8125-.2656-.9063 0-1.3906.6406-1.5625.875-.0469-.5782-.4688-.875-.9219-.875-.4531 0-.6406.3906-.7344.5625-.1718.3593-.2968.9375-.2968.9687 0 .1094.0937.1094.1094.1094.1093 0 .1093-.0156.1718-.2344.1719-.7031.375-1.1875.7344-1.1875.1563 0 .2969.0781.2969.4531 0 .2188-.0313.3281-.1563.8438zm0 0"/></symbol><symbol overflow="visible" id="d"><path d="M2.9375-6.375c0-.25 0-.2656-.2344-.2656C2.0781-6 1.2031-6 .8906-6v.3125c.2032 0 .7813 0 1.2969-.2656v5.1719c0 .3593-.0313.4687-.9219.4687H.9531V0c.3438-.0313 1.2031-.0313 1.6094-.0313.3906 0 1.2656 0 1.6094.0313v-.3125h-.3125c-.9063 0-.9219-.1094-.9219-.4688zm0 0"/></symbol><symbol overflow="visible" id="e"><path d="M1.2656-.7656L2.3281-1.797C3.875-3.1719 4.4687-3.703 4.4687-4.703c0-1.1406-.8906-1.9375-2.1093-1.9375C1.2344-6.6406.5-5.7187.5-4.8281c0 .5469.5.5469.5313.5469.1718 0 .5156-.1094.5156-.5313 0-.25-.1875-.5156-.5313-.5156-.0781 0-.0937 0-.125.0156.2188-.6563.7657-1.0156 1.3438-1.0156.9062 0 1.3281.8125 1.3281 1.625 0 .7969-.4844 1.5781-1.0469 2.2031L.6094-.375C.5-.2656.5-.2344.5 0h3.7031l.2656-1.7344h-.2343C4.1719-1.4375 4.1094-1 4-.8438c-.0625.0782-.7188.0782-.9375.0782zm0 0"/></symbol><symbol overflow="visible" id="f"><path d="M2.8906-3.5156c.8125-.2656 1.3906-.9531 1.3906-1.75 0-.8125-.875-1.375-1.828-1.375-1 0-1.7657.5937-1.7657 1.3594 0 .328.2188.5156.5156.5156.2969 0 .5-.2188.5-.5156 0-.4844-.4687-.4844-.6094-.4844.297-.5.9532-.625 1.3126-.625.4218 0 .9687.2187.9687 1.1094 0 .125-.0313.703-.2813 1.1406-.2968.4844-.6406.5156-.8906.5156-.0781.0156-.3125.0313-.3906.0313-.0781.0156-.1406.0312-.1406.125 0 .1093.0625.1093.2344.1093h.4374c.8125 0 1.1875.6719 1.1875 1.6563 0 1.3594-.6875 1.6406-1.125 1.6406S1.2188-.2344.875-.8125c.3438.0469.6563-.1719.6563-.5469 0-.3594-.2657-.5625-.547-.5625-.25 0-.5624.1406-.5624.5781 0 .9063.9219 1.5626 2.0156 1.5626 1.2188 0 2.125-.9063 2.125-1.922 0-.8124-.6406-1.5937-1.6719-1.8124zm0 0"/></symbol><symbol overflow="visible" id="g"><path d="M2.9375-1.6406v.8594c0 .3593-.0313.4687-.7656.4687h-.2031V0c.4062-.0313.9218-.0313 1.3437-.0313.4219 0 .9375 0 1.3594.0313v-.3125H4.453c-.7344 0-.75-.1094-.75-.4688v-.8593h.9844v-.3125h-.9844v-4.5313c0-.2031 0-.2656-.1719-.2656-.078 0-.1093 0-.1875.125L.2813-1.9531v.3125zm.0469-.3125H.5625L2.9844-5.672zm0 0"/></symbol><symbol overflow="visible" id="i"><path d="M3.2969 2.3906c0-.0312 0-.0469-.1719-.2187C1.8906.9219 1.5625-.9687 1.5625-2.5c0-1.7344.375-3.4688 1.6094-4.7031.125-.125.125-.1406.125-.1719 0-.0781-.0313-.1094-.0938-.1094-.1094 0-1 .6875-1.5937 1.9531-.5 1.0938-.625 2.2032-.625 3.0313 0 .7813.1093 1.9844.6562 3.125C2.25 1.8438 3.0937 2.5 3.2031 2.5c.0625 0 .0938-.0313.0938-.1094zm0 0"/></symbol><symbol overflow="visible" id="j"><path d="M2.875-2.5c0-.7656-.1094-1.9688-.6563-3.1094C1.625-6.828.7657-7.4844.672-7.4844a.1068.1068 0 00-.1094.1094c0 .0313 0 .0469.1875.2344.9844.9844 1.5469 2.5625 1.5469 4.6406 0 1.7188-.3594 3.4688-1.5938 4.7188-.1406.125-.1406.1406-.1406.1718 0 .0625.0469.1094.1094.1094.0937 0 1-.6875 1.5781-1.9531.5156-1.0938.625-2.2031.625-3.0469zm0 0"/></symbol><symbol overflow="visible" id="k"><path d="M4.5781-3.1875c0-.7969-.0469-1.5938-.3906-2.3281-.4531-.9688-1.2813-1.125-1.6875-1.125-.6094 0-1.3281.2656-1.75 1.1875-.3125.6875-.3594 1.4687-.3594 2.2656 0 .75.0313 1.6406.4531 2.4063.422.7968 1.1563 1 1.6407 1 .5312 0 1.2969-.2032 1.7344-1.1563.3125-.6875.3593-1.4688.3593-2.25zM2.4844 0C2.0938 0 1.5-.25 1.328-1.2031c-.1094-.5938-.1094-1.5156-.1094-2.1094 0-.6406 0-1.2969.0782-1.8281.1875-1.1875.9375-1.2813 1.1875-1.2813.3281 0 .9844.1875 1.1719 1.1719.1093.5625.1093 1.3125.1093 1.9375 0 .75 0 1.4219-.1094 2.0625C3.5-.2969 2.9375 0 2.4844 0zm0 0"/></symbol><clipPath id="b"><path d="M85 10h1v166.8672h-1zm0 0"/></clipPath></defs><path d="M57.2578 148.164H222.918" fill="none" stroke-width=".7087" stroke="#000" stroke-miterlimit="10"/><path d="M227.3398 148.164c-1.3125-.2421-3.4414-.9804-4.914-1.8398v3.6836c1.4726-.8594 3.6015-1.5976 4.914-1.8437"/><use xlink:href="#a" x="224.492" y="156.131"/><g clip-path="url(#b)"><path d="M85.6055 176.5117V10.8555" fill="none" stroke-width=".7087" stroke="#000" stroke-miterlimit="10"/></g><path d="M85.6055 6.4336c-.2461 1.3086-.9844 3.4375-1.8438 4.914h3.6875c-.8594-1.4765-1.5976-3.6054-1.8437-4.914"/><use xlink:href="#c" x="89.281" y="7.61"/><path d="M113.9531 91.4727v56.6914" fill="none" stroke-width=".3985" stroke="#000" stroke-dasharray="2.98883,2.98883" stroke-miterlimit="10"/><use xlink:href="#d" x="111.462" y="158.106"/><path d="M142.3008 63.125v85.039" fill="none" stroke-width=".3985" stroke="#000" stroke-dasharray="2.98883,2.98883" stroke-miterlimit="10"/><use xlink:href="#e" x="139.808" y="158.106"/><path d="M170.6445 34.7773v113.3868" fill="none" stroke-width=".3985" stroke="#000" stroke-dasharray="2.98883,2.98883" stroke-miterlimit="10"/><use xlink:href="#f" x="168.155" y="158.106"/><path d="M113.9531 91.4727H85.6055" fill="none" stroke-width=".3985" stroke="#000" stroke-dasharray="2.98883,2.98883" stroke-miterlimit="10"/><use xlink:href="#e" x="77.105" y="94.683"/><path d="M142.3008 63.125H85.6055" fill="none" stroke-width=".3985" stroke="#000" stroke-dasharray="2.98883,2.98883" stroke-miterlimit="10"/><use xlink:href="#f" x="77.105" y="66.337"/><path d="M170.6445 34.7773h-85.039" fill="none" stroke-width=".3985" stroke="#000" stroke-dasharray="2.98883,2.98883" stroke-miterlimit="10"/><use xlink:href="#g" x="77.105" y="37.991"/><path d="M.5664 148.164h85.039M85.6055 148.164l28.3476-56.6913M113.9531 91.4727h28.3477M142.3008 63.125h28.3437M170.6445 34.7773h56.6953" fill="none" stroke-width="1.1339" stroke="#00f" stroke-miterlimit="10"/><use xlink:href="#h" x="187.897" y="28.402" fill="#00f"/><use xlink:href="#i" x="196.644" y="28.402" fill="#00f"/><use xlink:href="#a" x="200.519" y="28.402" fill="#00f"/><use xlink:href="#j" x="206.213" y="28.402" fill="#00f"/><path d="M88.4414 148.164c0-1.5624-1.2695-2.832-2.836-2.832-1.5663 0-2.8359 1.2696-2.8359 2.832 0 1.5665 1.2696 2.836 2.836 2.836 1.5664 0 2.836-1.2695 2.836-2.836zm0 0" fill="#00f" stroke-width=".3985" stroke="#00f" stroke-miterlimit="10"/><use xlink:href="#k" x="77.105" y="158.106"/><path d="M116.789 91.4727c0-1.5664-1.2695-2.836-2.8359-2.836s-2.836 1.2695-2.836 2.836c0 1.5664 1.2696 2.8359 2.836 2.8359 1.5664 0 2.836-1.2695 2.836-2.836zm0 0M145.1328 63.125c0-1.5664-1.2695-2.836-2.832-2.836-1.5664 0-2.836 1.2696-2.836 2.836 0 1.5664 1.2696 2.836 2.836 2.836 1.5625 0 2.832-1.2696 2.832-2.836zm0 0M173.4805 34.7773c0-1.5625-1.2696-2.832-2.836-2.832-1.5625 0-2.832 1.2695-2.832 2.832 0 1.5665 1.2695 2.836 2.832 2.836 1.5664 0 2.836-1.2696 2.836-2.836zm0 0" fill="#00f" stroke-width=".3985" stroke="#00f" stroke-miterlimit="10"/></svg>