<svg xmlns="http://www.w3.org/2000/svg" xmlns:xlink="http://www.w3.org/1999/xlink" width="259.553" height="215.717" viewBox="0 0 194.665 161.788" xmlns:v="https://vecta.io/nano"><style><![CDATA[.B{overflow:visible}.C{stroke:none}.D{stroke-miterlimit:10}.E{fill:rgb(0%,0%,0%)}.F{stroke-width:.399}.G{stroke:rgb(0%,62.353516%,95.684814%)}.H{stroke-width:.199}.I{stroke:rgb(50%,50%,50%)}.J{stroke:rgb(0%,0%,0%)}.K{stroke-width:.797}]]></style><defs><symbol id="A" class="B"><path d="M2.938-6.375c0-.25 0-.266-.234-.266C2.078-6 1.203-6 .89-6v.313c.203 0 .78 0 1.297-.266V-.78c0 .36-.03.47-.922.47H.953V0c.344-.03 1.203-.03 1.61-.03l1.61.03v-.312H3.86c-.906 0-.922-.11-.922-.47zm0 0" class="C"/></symbol><symbol id="B" class="B"><path d="M2.078-1.937c.22.047 1.03.203 1.03.922 0 .5-.344.906-1.125.906C1.14-.11.78-.672.594-1.53c-.03-.125-.03-.156-.14-.156-.125 0-.125.063-.125.234v1.328c0 .172 0 .234.11.234C.484.11.5.094.688-.094.703-.11.703-.125.89-.312a1.53 1.53 0 0 0 1.094.422c1.14 0 1.61-.672 1.61-1.39 0-.516-.297-.828-.422-.937-.328-.328-.72-.406-1.14-.484-.562-.11-1.22-.234-1.22-.812 0-.36.25-.766 1.11-.766 1.094 0 1.156.906 1.172 1.203 0 .094.094.094.11.094.14 0 .14-.047.14-.234v-1.016c0-.156 0-.234-.11-.234-.047 0-.078 0-.203.125l-.172.156c-.375-.28-.78-.28-.937-.28-1.22 0-1.594.672-1.594 1.234 0 .344.156.625.422.844.328.25.61.313 1.328.453zm0 0" class="C"/></symbol><symbol id="C" class="B"><path d="M2.22-1.72c-.875 0-.875-1-.875-1.22 0-.266.016-.594.156-.844.078-.11.313-.39.72-.39.86 0 .86.984.86 1.22 0 .266 0 .594-.156.844-.078.11-.312.39-.703.39zm-1.156.39c0-.03 0-.266.156-.47.39.28.813.313 1 .313.922 0 1.61-.687 1.61-1.453 0-.375-.156-.734-.406-.97.36-.344.72-.39.89-.39.03 0 .078 0 .11.016-.11.03-.172.14-.172.266 0 .172.14.28.297.28a.28.28 0 0 0 .281-.297c0-.172-.11-.484-.5-.484-.203 0-.64.063-1.062.47a1.65 1.65 0 0 0-1.047-.359c-.937 0-1.625.688-1.625 1.453a1.4 1.4 0 0 0 .469 1.031 1.36 1.36 0 0 0-.312.828c0 .313.14.688.453.89C.594-.047.28.39.28.78c0 .72.984 1.266 2.203 1.266 1.172 0 2.203-.5 2.203-1.28 0-.344-.125-.86-.64-1.14-.53-.266-1.11-.266-1.72-.266-.25 0-.672 0-.75-.016-.312-.047-.516-.344-.516-.672zM2.5 1.828C1.484 1.828.797 1.313.797.78c0-.453.375-.828.813-.844h.594c.86 0 1.97 0 1.97.844 0 .547-.703 1.047-1.672 1.047zm0 0" class="C"/></symbol><symbol id="D" class="B"><path d="M1.094-3.422V-.75c0 .438-.11.438-.78.438V0l1.14-.03 1.11.03v-.312c-.672 0-.78 0-.78-.437v-1.844c0-1.03.72-1.594 1.344-1.594.64 0 .75.53.75 1.11V-.75c0 .438-.11.438-.78.438V0L4.22-.03l1.11.03v-.312c-.516 0-.766 0-.766-.297v-1.906c0-.86 0-1.156-.312-1.516-.14-.172-.47-.375-1.047-.375-.734 0-1.203.422-1.484 1.047v-1.047l-1.406.11v.313c.703 0 .78.063.78.563zm0 0" class="C"/></symbol><symbol id="E" class="B"><path d="M3.297 2.39c0-.03 0-.047-.172-.22C1.89.922 1.563-.97 1.563-2.5c0-1.734.375-3.47 1.61-4.703.125-.125.125-.14.125-.172 0-.078-.03-.11-.094-.11-.11 0-1 .688-1.594 1.953C1.11-4.437.984-3.328.984-2.5c0 .78.11 1.984.656 3.125C2.25 1.844 3.094 2.5 3.203 2.5c.063 0 .094-.03.094-.11zm0 0" class="C"/></symbol><symbol id="F" class="B"><path d="M2.875-2.5c0-.766-.11-1.97-.656-3.11C1.625-6.828.766-7.484.672-7.484c-.062 0-.11.047-.11.11 0 .03 0 .047.188.234.984.984 1.547 2.563 1.547 4.64 0 1.72-.36 3.47-1.594 4.72-.14.125-.14.14-.14.172 0 .063.047.11.11.11.094 0 1-.687 1.578-1.953.516-1.094.625-2.203.625-3.047zm0 0" class="C"/></symbol><symbol id="G" class="B"><path d="M6.563-2.297c.172 0 .36 0 .36-.203 0-.187-.187-.187-.36-.187h-5.39c-.172 0-.344 0-.344.188 0 .203.172.203.344.203zm0 0" class="C"/></symbol><symbol id="H" class="B"><path d="M3.328-3.016c.063-.25.297-1.172.984-1.172.047 0 .297 0 .5.125-.28.063-.47.297-.47.547 0 .156.11.344.375.344.22 0 .53-.172.53-.578 0-.516-.578-.656-.922-.656-.578 0-.922.53-1.047.75a1.09 1.09 0 0 0-1.078-.75c-1.03 0-1.61 1.28-1.61 1.53 0 .11.11.11.125.11.078 0 .11-.03.125-.11.344-1.062 1-1.312 1.344-1.312.188 0 .53.094.53.672 0 .313-.172.97-.53 2.375-.156.61-.516 1.03-.953 1.03-.062 0-.28 0-.5-.125.25-.062.47-.266.47-.547 0-.266-.22-.344-.36-.344-.312 0-.547.25-.547.578 0 .453.484.656.922.656.672 0 1.03-.703 1.047-.75a1.12 1.12 0 0 0 1.078.75c1.03 0 1.594-1.28 1.594-1.53 0-.11-.078-.11-.11-.11-.094 0-.11.047-.14.11C4.36-.344 3.688-.11 3.375-.11c-.39 0-.547-.312-.547-.656 0-.22.047-.437.156-.875zm0 0" class="C"/></symbol><clipPath id="I"><path d="M191 79h3.664v4H191zm0 0"/></clipPath><clipPath id="J"><path d="M97 1h1v160.79h-1zm0 0"/></clipPath><clipPath id="K"><path d="M.2 129H98v1H.2zm0 0"/></clipPath><clipPath id="L"><path d="M96 31h98.47v2H96zm0 0"/></clipPath><path id="M" d="M98.828 80.895c0-.828-.668-1.496-1.496-1.496s-1.492.668-1.492 1.496a1.49 1.49 0 0 0 1.492 1.492c.828 0 1.496-.668 1.496-1.492zm0 0"/></defs><g fill="none" class="D"><path d="M95.207 32.324h4.254" class="H I"/><path d="M.2 80.895h192.277" class="F J"/></g><g clip-path="url(#I)" class="E"><path d="M194.47 80.895l-3.187-1.598 1.195 1.598-1.195 1.594"/></g><g clip-path="url(#J)" class="D F J"><path d="M97.332 161.6V2.188" fill="none"/></g><g class="E"><path d="M97.332.195l-1.594 3.19 1.594-1.2 1.594 1.2"/><use xlink:href="#A" x="86.706" y="35.537"/></g><path d="M95.207 129.46h4.254m-4.254-48.566h4.254" fill="none" class="D H I"/><g class="E"><use xlink:href="#G" x="100.719" y="132.256"/><use xlink:href="#A" x="108.468" y="132.256"/></g><g clip-path="url(#K)" class="D G K"><path d="M.2 129.46h97.133" fill="none"/></g><g clip-path="url(#L)" class="D G K"><path d="M97.332 32.324h97.137" fill="none"/></g><use xlink:href="#M" fill="rgb(0%,62.353516%,95.684814%)"/><g fill="rgb(100%,100%,100%)" class="D F G"><use xlink:href="#M" y="48.565"/><path d="M98.828 32.324c0-.824-.668-1.492-1.496-1.492a1.49 1.49 0 0 0-1.492 1.492c0 .828.668 1.496 1.492 1.496s1.496-.668 1.496-1.496zm0 0"/></g><g class="E"><use xlink:href="#H" x="185.252" y="77.374"/><use xlink:href="#B" x="100.852" y="11.191"/><use xlink:href="#C" x="104.781" y="11.191"/><use xlink:href="#D" x="109.763" y="11.191"/><use xlink:href="#E" x="115.298" y="11.191"/><use xlink:href="#H" x="119.173" y="11.191"/><use xlink:href="#F" x="124.866" y="11.191"/></g></svg>