<svg xmlns="http://www.w3.org/2000/svg" xmlns:xlink="http://www.w3.org/1999/xlink" width="144.048" height="86.185" viewBox="0 0 108.036 64.639"><style><![CDATA[.B{stroke-miterlimit:10}.C{stroke:rgb(0%,0%,0%)}.D{fill:none}.E{stroke-width:.1}.F{overflow:visible}.G{stroke:none}.H{fill:rgb(0%,0%,0%)}.I{stroke-width:.34}.J{fill:rgb(100%,100%,100%)}.K{stroke-width:.399}.L{stroke:rgb(100%,100%,100%)}]]></style><defs><symbol id="A" class="F"><path d="M.89-.578C.688-.234.5-.172.28-.156c-.062 0-.11 0-.11.094 0 .03.03.063.063.063l.438-.016.5.016c.03 0 .094 0 .094-.094 0-.062-.047-.062-.078-.062C1.063-.172.953-.203.953-.328c0-.062.03-.11.063-.187l.375-.64h1.25l.078.844c0 .14-.25.156-.344.156-.078 0-.125 0-.125.094 0 .063.063.063.063.063l.625-.016L3.5 0c.03 0 .094 0 .094-.094 0-.062-.047-.062-.11-.062-.312 0-.312-.03-.328-.172l-.312-3.125c0-.094 0-.11-.094-.11-.078 0-.094.03-.125.078zm.594-.734l.984-1.64.156 1.64zm0 0" class="G"/></symbol><symbol id="B" class="F"><path d="M.797-.39C.75-.187.734-.156.344-.156c-.078 0-.14 0-.14.094C.203 0 .25 0 .344 0h1.78C2.906 0 3.5-.594 3.5-1.078c0-.36-.297-.64-.78-.703.53-.094 1.047-.47 1.047-.937 0-.36-.328-.687-.922-.687H1.172c-.094 0-.156 0-.156.11 0 .047.047.047.14.047.016 0 .11 0 .188.016.094 0 .14.016.14.078 0 .016 0 .03-.016.094zm.75-1.437l.313-1.234c.047-.172.047-.187.266-.187h.64c.438 0 .547.297.547.516 0 .438-.422.906-1.03.906zm-.22 1.672h-.11c-.047-.016-.062-.016-.062-.047 0-.016 0-.03.016-.125l.344-1.39h.953c.47 0 .563.375.563.594 0 .484-.437.97-1.03.97zm0 0" class="G"/></symbol><symbol id="C" class="F"><path d="M3.78-3.47c0-.016 0-.047-.047-.047-.016 0-.016 0-.078.063l-.344.375c-.047-.062-.28-.437-.828-.437C1.375-3.516.25-2.406.25-1.25.25-.437.844.11 1.594.11c.438 0 .813-.203 1.078-.422.47-.422.547-.875.547-.89 0-.047-.047-.047-.047-.047-.03 0-.062.016-.078.047-.03.156-.156.5-.5.797-.344.28-.656.36-.906.36-.453 0-.984-.25-.984-1.03 0-.28.11-1.094.61-1.672.297-.36.766-.61 1.203-.61.516 0 .813.39.813.97 0 .188-.016.203-.016.25s.047.047.078.047c.063 0 .063-.016.078-.094zm0 0" class="G"/></symbol><symbol id="D" class="F"><path d="M2.53-2.016c0-.016-.016-.047-.016-.062s.094-.078.14-.125l.875-.672c.47-.344.656-.36.813-.375.03 0 .094-.016.094-.094 0-.03-.016-.062-.062-.062l-.36.016c-.172 0-.36-.016-.547-.016-.03 0-.094 0-.094.11 0 .03.03.047.063.047.11.016.156.03.156.11s-.156.203-.187.22l-1.937 1.5.39-1.594c.047-.187.063-.234.422-.234.125 0 .172 0 .172-.094 0-.047-.047-.062-.078-.062l-.625.016c-.156 0-.5-.016-.656-.016-.03 0-.094 0-.094.094 0 .063.047.063.14.063a.96.96 0 0 1 .219.016c.078 0 .11.016.11.078 0 .016 0 .03-.016.094L.78-.39C.734-.187.72-.156.328-.156c-.078 0-.14 0-.14.094C.188 0 .25 0 .266 0L.89-.016h.328L1.547 0c.03 0 .094 0 .094-.094 0-.062-.047-.062-.14-.062-.187 0-.328 0-.328-.094 0-.03.03-.14.047-.22l.203-.78.734-.578.578 1.344c.063.14.063.14.063.172 0 .156-.203.156-.25.156-.062 0-.11 0-.11.094C2.438 0 2.5 0 2.5 0l.61-.016.484.016c.03 0 .094 0 .094-.094 0-.062-.047-.062-.094-.062-.203 0-.28-.047-.344-.22zm0 0" class="G"/></symbol><symbol id="E" class="F"><path d="M3.766-2.875c.047-.203.14-.36.547-.375.016 0 .078 0 .078-.094 0-.016 0-.062-.062-.062l-.5.016c-.172 0-.344-.016-.516-.016-.03 0-.094 0-.094.11 0 .047.063.047.094.047.28 0 .344.11.344.22 0 .016-.016.094-.016.11l-.562 2.22-1.094-2.61c-.047-.094-.047-.094-.172-.094h-.656c-.11 0-.156 0-.156.11 0 .047.047.047.14.047.03 0 .344 0 .344.047L.813-.53c-.047.203-.125.36-.53.375-.03 0-.094 0-.094.094 0 .047.03.063.078.063L.75-.016 1.266 0c.03 0 .094 0 .094-.094 0-.062-.047-.062-.094-.062C.97-.172.938-.28.938-.375c0-.03 0-.062.016-.11l.656-2.64c.016.03.016.047.047.094L2.89-.094c.047.078.063.094.094.094.063 0 .063-.016.094-.11zm0 0" class="G"/></symbol><symbol id="F" class="F"><path d="M1.86-3.016c.047-.172.063-.234.53-.234.156 0 .188 0 .188-.094 0-.062-.047-.062-.078-.062l-.734.016c-.156 0-.516-.016-.672-.016-.03 0-.094 0-.094.11 0 .047.047.047.14.047.016 0 .11 0 .188.016.094 0 .14.016.14.078 0 .016 0 .03-.016.094L.78-.39C.734-.187.72-.156.328-.156c-.078 0-.14 0-.14.094C.188 0 .234 0 .328 0H2.64c.11 0 .125 0 .156-.078l.39-1.078.016-.078c0-.016-.016-.047-.062-.047s-.047.016-.078.094c-.172.47-.39 1.03-1.25 1.03h-.578c-.047-.016-.062-.016-.062-.047 0-.016 0-.03.016-.125zm0 0" class="G"/></symbol><symbol id="G" class="F"><path d="M4.61-3.016c.047-.187.063-.234.438-.234.11 0 .156 0 .156-.094 0-.062-.047-.062-.14-.062h-.656c-.125 0-.125 0-.187.094L2.39-.47l-.375-2.828c-.016-.11-.03-.11-.156-.11h-.687c-.094 0-.156 0-.156.094 0 .063.047.063.156.063.063 0 .156 0 .203.016.078 0 .11.016.11.078 0 .016 0 .03-.016.094L.844-.53c-.062.203-.14.36-.547.375-.016 0-.094 0-.094.094 0 .047.03.063.078.063l.5-.016.516.016c.016 0 .078 0 .078-.094 0-.062-.047-.062-.078-.062-.297 0-.344-.11-.344-.22 0-.03 0-.062.016-.11l.688-2.72.422 3.094c.016.047.016.11.078.11s.094-.062.11-.094L4.28-3.25 3.578-.39c-.047.203-.062.234-.453.234-.094 0-.14 0-.14.094 0 .063.063.063.078.063l.61-.016.625.016c.03 0 .094 0 .094-.094 0-.062-.047-.062-.14-.062-.187 0-.328 0-.328-.094 0-.016 0-.03.03-.11zm0 0" class="G"/></symbol><symbol id="H" class="F"><path d="M.797-.39C.75-.187.734-.156.344-.156c-.094 0-.14 0-.14.094C.203 0 .25 0 .344 0h1.64C3.03 0 4-1.047 4-2.14c0-.703-.422-1.266-1.156-1.266H1.156c-.094 0-.14 0-.14.094 0 .063.047.063.14.063.063 0 .156 0 .22.016.078 0 .11.016.11.078 0 .016-.016.03-.03.094zm1.078-2.672c.03-.172.047-.187.266-.187h.53c.484 0 .906.266.906.922 0 .25-.11 1.063-.53 1.61-.14.188-.53.563-1.14.563H1.22c-.047-.016-.062-.016-.062-.047 0-.016 0-.03.03-.125zm0 0" class="G"/></symbol><symbol id="I" class="F"><path d="M1.438-3.406s0-.047-.078-.047c-.11 0-.47.03-.61.047-.03 0-.094 0-.094.094 0 .063.047.063.125.063.234 0 .25.03.25.078l-.016.11-.72 2.875C.28-.125.28-.11.28-.078c0 .11.094.14.14.14C.5.063.578 0 .61-.078l.094-.375.11-.453.078-.328c.016-.03.047-.203.063-.22.016-.047.156-.328.328-.47a.81.81 0 0 1 .484-.172c.22 0 .266.172.266.344 0 .28-.187.813-.312 1.125-.03.11-.062.172-.062.266 0 .234.172.422.406.422.47 0 .656-.734.656-.78s-.047-.047-.062-.047c-.047 0-.047.016-.062.094-.078.266-.234.61-.516.61-.078 0-.125-.047-.125-.156 0-.125.047-.25.094-.36.078-.203.313-.797.313-1.094 0-.328-.203-.53-.578-.53-.312 0-.562.156-.734.39zm0 0" class="G"/></symbol><symbol id="J" class="F"><path d="M3.22-3.47c0-.016-.016-.047-.062-.047-.016 0-.03 0-.078.078l-.25.28c-.125-.234-.39-.36-.703-.36-.64 0-1.234.578-1.234 1.172a.73.73 0 0 0 .516.719l.53.14c.188.03.453.11.453.516 0 .453-.406.922-.89.922-.312 0-.875-.11-.875-.72 0-.125.03-.25.03-.28 0-.016.016-.016.016-.03 0-.047-.03-.047-.062-.047s-.03 0-.047.016C.53-1.094.266.047.266.063.266.094.28.11.313.11S.344.11.406.03L.64-.25c.22.297.563.36.844.36.688 0 1.266-.656 1.266-1.28 0-.344-.156-.516-.234-.578-.125-.125-.187-.14-.64-.25l-.328-.094a.46.46 0 0 1-.312-.453c0-.406.406-.828.875-.828.422 0 .72.22.72.766 0 .172-.016.25-.016.28 0 .016 0 .063.063.063.047 0 .047-.016.078-.11zm0 0" class="G"/></symbol><symbol id="K" class="F"><path d="M1.188-3.406s0-.047-.062-.047c-.11 0-.484.03-.61.047-.03 0-.094 0-.094.094 0 .063.047.063.125.063.234 0 .25.03.25.078s-.047.22-.078.313L.313-1.234c-.062.25-.078.328-.078.5 0 .484.266.797.64.797.578 0 1.188-.75 1.188-1.47 0-.453-.266-.797-.656-.797-.234 0-.437.14-.578.297zm-.47 1.89c.03-.11.03-.125.078-.172.25-.328.47-.406.594-.406.188 0 .313.156.313.47 0 .297-.156.875-.25 1.063-.156.328-.39.5-.578.5-.172 0-.344-.125-.344-.5 0-.094 0-.187.078-.5zm0 0" class="G"/></symbol><symbol id="L" class="F"><path d="M1.672-1.5c.016-.14.14-.594.484-.594.03 0 .14 0 .25.063-.14.03-.234.156-.234.266 0 .078.047.188.188.188.11 0 .266-.094.266-.297 0-.266-.297-.328-.47-.328-.28 0-.453.266-.516.375-.125-.328-.39-.375-.547-.375-.516 0-.797.64-.797.766 0 .047.047.047.063.047.047 0 .047 0 .063-.047.172-.53.5-.656.672-.656.094 0 .266.047.266.328 0 .156-.078.5-.266 1.188-.078.313-.25.516-.47.516-.03 0-.156 0-.25-.062a.27.27 0 0 0 .234-.266C.61-.516.5-.562.422-.562a.28.28 0 0 0-.281.281c0 .234.25.344.47.344.328 0 .516-.36.53-.39a.55.55 0 0 0 .531.391c.516 0 .797-.656.797-.78 0-.047-.047-.047-.062-.047-.03 0-.047.016-.062.063-.156.53-.5.64-.656.64-.203 0-.28-.156-.28-.328 0-.11.03-.22.094-.437zm0 0" class="G"/></symbol><clipPath id="M"><path d="M23.313 54.45h1.582v.563h-1.582zm0 0"/></clipPath><clipPath id="N"><path d="M23.313 54.45h3.422v.563h-3.422zm0 0"/></clipPath><clipPath id="O"><path d="M24.742 54.45h3.828v.563h-3.828zm0 0"/></clipPath><clipPath id="P"><path d="M26.578 54.45H30.4v.563h-3.832zm0 0"/></clipPath><clipPath id="Q"><path d="M28.418 54.45h3.832v.563h-3.832zm0 0"/></clipPath><clipPath id="R"><path d="M30.258 54.45h3.828v.563h-3.828zm0 0"/></clipPath><clipPath id="S"><path d="M32.094 54.45h3.832v.563h-3.832zm0 0"/></clipPath><clipPath id="T"><path d="M33.934 54.45h3.832v.563h-3.832zm0 0"/></clipPath><clipPath id="U"><path d="M35.77 54.45h3.832v.563H35.77zm0 0"/></clipPath><clipPath id="V"><path d="M37.61 54.45h3.832v.563H37.61zm0 0"/></clipPath><clipPath id="W"><path d="M39.45 54.45h3.828v.563H39.45zm0 0"/></clipPath><clipPath id="X"><path d="M41.285 54.45h3.832v.563h-3.832zm0 0"/></clipPath><clipPath id="Y"><path d="M43.125 54.45h3.832v.563h-3.832zm0 0"/></clipPath><clipPath id="Z"><path d="M44.965 54.45h3.828v.563h-3.828zm0 0"/></clipPath><clipPath id="a"><path d="M46.8 54.45h3.832v.563H46.8zm0 0"/></clipPath><clipPath id="b"><path d="M48.64 54.45h3.832v.563H48.64zm0 0"/></clipPath><clipPath id="c"><path d="M50.477 54.45h3.832v.563h-3.832zm0 0"/></clipPath><clipPath id="d"><path d="M52.316 54.45h3.832v.563h-3.832zm0 0"/></clipPath><clipPath id="e"><path d="M54.156 54.45h3.828v.563h-3.828zm0 0"/></clipPath><clipPath id="f"><path d="M55.992 54.45h3.832v.563h-3.832zm0 0"/></clipPath><clipPath id="g"><path d="M57.832 54.45h3.832v.563h-3.832zm0 0"/></clipPath><clipPath id="h"><path d="M59.672 54.45H63.5v.563h-3.828zm0 0"/></clipPath><clipPath id="i"><path d="M61.508 54.45h2.344v.563h-2.344zm0 0"/></clipPath><clipPath id="j"><path d="M63.348 54.45h.504v.563h-.504zm0 0"/></clipPath><clipPath id="k"><path d="M23.313 52.613h1.582v2.398h-1.582zm0 0"/></clipPath><clipPath id="l"><path d="M23.313 52.613h3.422v2.398h-3.422zm0 0"/></clipPath><clipPath id="m"><path d="M24.742 52.613h3.828v2.398h-3.828zm0 0"/></clipPath><clipPath id="n"><path d="M26.578 52.613H30.4v2.398h-3.832zm0 0"/></clipPath><clipPath id="o"><path d="M28.418 52.613h3.832v2.398h-3.832zm0 0"/></clipPath><clipPath id="p"><path d="M30.258 52.613h3.828v2.398h-3.828zm0 0"/></clipPath><clipPath id="q"><path d="M32.094 52.613h3.832v2.398h-3.832zm0 0"/></clipPath><clipPath id="r"><path d="M33.934 52.613h3.832v2.398h-3.832zm0 0"/></clipPath><clipPath id="s"><path d="M35.77 52.613h3.832v2.398H35.77zm0 0"/></clipPath><clipPath id="t"><path d="M37.61 52.613h3.832v2.398H37.61zm0 0"/></clipPath><clipPath id="u"><path d="M39.45 52.613h3.828v2.398H39.45zm0 0"/></clipPath><clipPath id="v"><path d="M41.285 52.613h3.832v2.398h-3.832zm0 0"/></clipPath><clipPath id="w"><path d="M43.125 52.613h3.832v2.398h-3.832zm0 0"/></clipPath><clipPath id="x"><path d="M44.965 52.613h3.828v2.398h-3.828zm0 0"/></clipPath><clipPath id="y"><path d="M46.8 52.613h3.832v2.398H46.8zm0 0"/></clipPath><clipPath id="z"><path d="M48.64 52.613h3.832v2.398H48.64zm0 0"/></clipPath><clipPath id="AA"><path d="M50.477 52.613h3.832v2.398h-3.832zm0 0"/></clipPath><clipPath id="AB"><path d="M52.316 52.613h3.832v2.398h-3.832zm0 0"/></clipPath><clipPath id="AC"><path d="M54.156 52.613h3.828v2.398h-3.828zm0 0"/></clipPath><clipPath id="AD"><path d="M55.992 52.613h3.832v2.398h-3.832zm0 0"/></clipPath><clipPath id="AE"><path d="M57.832 52.613h3.832v2.398h-3.832zm0 0"/></clipPath><clipPath id="AF"><path d="M59.672 52.613H63.5v2.398h-3.828zm0 0"/></clipPath><clipPath id="AG"><path d="M61.508 52.613h2.344v2.398h-2.344zm0 0"/></clipPath><clipPath id="AH"><path d="M63.348 52.613h.504v2.398h-.504zm0 0"/></clipPath><clipPath id="AI"><path d="M23.313 50.773h1.582v3.832h-1.582zm0 0"/></clipPath><clipPath id="AJ"><path d="M23.313 50.773h3.422v3.832h-3.422zm0 0"/></clipPath><clipPath id="AK"><path d="M24.742 50.773h3.828v3.832h-3.828zm0 0"/></clipPath><clipPath id="AL"><path d="M26.578 50.773H30.4v3.832h-3.832zm0 0"/></clipPath><clipPath id="AM"><path d="M28.418 50.773h3.832v3.832h-3.832zm0 0"/></clipPath><clipPath id="AN"><path d="M30.258 50.773h3.828v3.832h-3.828zm0 0"/></clipPath><clipPath id="AO"><path d="M32.094 50.773h3.832v3.832h-3.832zm0 0"/></clipPath><clipPath id="AP"><path d="M33.934 50.773h3.832v3.832h-3.832zm0 0"/></clipPath><clipPath id="AQ"><path d="M35.77 50.773h3.832v3.832H35.77zm0 0"/></clipPath><clipPath id="AR"><path d="M37.61 50.773h3.832v3.832H37.61zm0 0"/></clipPath><clipPath id="AS"><path d="M39.45 50.773h3.828v3.832H39.45zm0 0"/></clipPath><clipPath id="AT"><path d="M41.285 50.773h3.832v3.832h-3.832zm0 0"/></clipPath><clipPath id="AU"><path d="M43.125 50.773h3.832v3.832h-3.832zm0 0"/></clipPath><clipPath id="AV"><path d="M44.965 50.773h3.828v3.832h-3.828zm0 0"/></clipPath><clipPath id="AW"><path d="M46.8 50.773h3.832v3.832H46.8zm0 0"/></clipPath><clipPath id="AX"><path d="M48.64 50.773h3.832v3.832H48.64zm0 0"/></clipPath><clipPath id="AY"><path d="M50.477 50.773h3.832v3.832h-3.832zm0 0"/></clipPath><clipPath id="AZ"><path d="M52.316 50.773h3.832v3.832h-3.832zm0 0"/></clipPath><clipPath id="Aa"><path d="M54.156 50.773h3.828v3.832h-3.828zm0 0"/></clipPath><clipPath id="Ab"><path d="M55.992 50.773h3.832v3.832h-3.832zm0 0"/></clipPath><clipPath id="Ac"><path d="M57.832 50.773h3.832v3.832h-3.832zm0 0"/></clipPath><clipPath id="Ad"><path d="M59.672 50.773H63.5v3.832h-3.828zm0 0"/></clipPath><clipPath id="Ae"><path d="M61.508 50.773h2.344v3.832h-2.344zm0 0"/></clipPath><clipPath id="Af"><path d="M63.348 50.773h.504v3.832h-.504zm0 0"/></clipPath><clipPath id="Ag"><path d="M23.313 48.938h1.582v3.828h-1.582zm0 0"/></clipPath><clipPath id="Ah"><path d="M23.313 48.938h3.422v3.828h-3.422zm0 0"/></clipPath><clipPath id="Ai"><path d="M24.742 48.938h3.828v3.828h-3.828zm0 0"/></clipPath><clipPath id="Aj"><path d="M26.578 48.938H30.4v3.828h-3.832zm0 0"/></clipPath><clipPath id="Ak"><path d="M28.418 48.938h3.832v3.828h-3.832zm0 0"/></clipPath><clipPath id="Al"><path d="M30.258 48.938h3.828v3.828h-3.828zm0 0"/></clipPath><clipPath id="Am"><path d="M32.094 48.938h3.832v3.828h-3.832zm0 0"/></clipPath><clipPath id="An"><path d="M33.934 48.938h3.832v3.828h-3.832zm0 0"/></clipPath><clipPath id="Ao"><path d="M35.77 48.938h3.832v3.828H35.77zm0 0"/></clipPath><clipPath id="Ap"><path d="M37.61 48.938h3.832v3.828H37.61zm0 0"/></clipPath><clipPath id="Aq"><path d="M39.45 48.938h3.828v3.828H39.45zm0 0"/></clipPath><clipPath id="Ar"><path d="M41.285 48.938h3.832v3.828h-3.832zm0 0"/></clipPath><clipPath id="As"><path d="M43.125 48.938h3.832v3.828h-3.832zm0 0"/></clipPath><clipPath id="At"><path d="M44.965 48.938h3.828v3.828h-3.828zm0 0"/></clipPath><clipPath id="Au"><path d="M46.8 48.938h3.832v3.828H46.8zm0 0"/></clipPath><clipPath id="Av"><path d="M48.64 48.938h3.832v3.828H48.64zm0 0"/></clipPath><clipPath id="Aw"><path d="M50.477 48.938h3.832v3.828h-3.832zm0 0"/></clipPath><clipPath id="Ax"><path d="M52.316 48.938h3.832v3.828h-3.832zm0 0"/></clipPath><clipPath id="Ay"><path d="M54.156 48.938h3.828v3.828h-3.828zm0 0"/></clipPath><clipPath id="Az"><path d="M55.992 48.938h3.832v3.828h-3.832zm0 0"/></clipPath><clipPath id="BA"><path d="M57.832 48.938h3.832v3.828h-3.832zm0 0"/></clipPath><clipPath id="BB"><path d="M59.672 48.938H63.5v3.828h-3.828zm0 0"/></clipPath><clipPath id="BC"><path d="M61.508 48.938h2.344v3.828h-2.344zm0 0"/></clipPath><clipPath id="BD"><path d="M63.348 48.938h.504v3.828h-.504zm0 0"/></clipPath><clipPath id="BE"><path d="M23.313 47.098h1.582v3.832h-1.582zm0 0"/></clipPath><clipPath id="BF"><path d="M23.313 47.098h3.422v3.832h-3.422zm0 0"/></clipPath><clipPath id="BG"><path d="M24.742 47.098h3.828v3.832h-3.828zm0 0"/></clipPath><clipPath id="BH"><path d="M26.578 47.098H30.4v3.832h-3.832zm0 0"/></clipPath><clipPath id="BI"><path d="M28.418 47.098h3.832v3.832h-3.832zm0 0"/></clipPath><clipPath id="BJ"><path d="M30.258 47.098h3.828v3.832h-3.828zm0 0"/></clipPath><clipPath id="BK"><path d="M32.094 47.098h3.832v3.832h-3.832zm0 0"/></clipPath><clipPath id="BL"><path d="M33.934 47.098h3.832v3.832h-3.832zm0 0"/></clipPath><clipPath id="BM"><path d="M35.77 47.098h3.832v3.832H35.77zm0 0"/></clipPath><clipPath id="BN"><path d="M37.61 47.098h3.832v3.832H37.61zm0 0"/></clipPath><clipPath id="BO"><path d="M39.45 47.098h3.828v3.832H39.45zm0 0"/></clipPath><clipPath id="BP"><path d="M41.285 47.098h3.832v3.832h-3.832zm0 0"/></clipPath><clipPath id="BQ"><path d="M43.125 47.098h3.832v3.832h-3.832zm0 0"/></clipPath><clipPath id="BR"><path d="M44.965 47.098h3.828v3.832h-3.828zm0 0"/></clipPath><clipPath id="BS"><path d="M46.8 47.098h3.832v3.832H46.8zm0 0"/></clipPath><clipPath id="BT"><path d="M48.64 47.098h3.832v3.832H48.64zm0 0"/></clipPath><clipPath id="BU"><path d="M50.477 47.098h3.832v3.832h-3.832zm0 0"/></clipPath><clipPath id="BV"><path d="M52.316 47.098h3.832v3.832h-3.832zm0 0"/></clipPath><clipPath id="BW"><path d="M54.156 47.098h3.828v3.832h-3.828zm0 0"/></clipPath><clipPath id="BX"><path d="M55.992 47.098h3.832v3.832h-3.832zm0 0"/></clipPath><clipPath id="BY"><path d="M57.832 47.098h3.832v3.832h-3.832zm0 0"/></clipPath><clipPath id="BZ"><path d="M59.672 47.098H63.5v3.832h-3.828zm0 0"/></clipPath><clipPath id="Ba"><path d="M61.508 47.098h2.344v3.832h-2.344zm0 0"/></clipPath><clipPath id="Bb"><path d="M63.348 47.098h.504v3.832h-.504zm0 0"/></clipPath><clipPath id="Bc"><path d="M23.313 45.258h1.582V49.1h-1.582zm0 0"/></clipPath><clipPath id="Bd"><path d="M23.313 45.258h3.422V49.1h-3.422zm0 0"/></clipPath><clipPath id="Be"><path d="M24.742 45.258h3.828V49.1h-3.828zm0 0"/></clipPath><clipPath id="Bf"><path d="M26.578 45.258H30.4V49.1h-3.832zm0 0"/></clipPath><clipPath id="Bg"><path d="M28.418 45.258h3.832V49.1h-3.832zm0 0"/></clipPath><clipPath id="Bh"><path d="M30.258 45.258h3.828V49.1h-3.828zm0 0"/></clipPath><clipPath id="Bi"><path d="M32.094 45.258h3.832V49.1h-3.832zm0 0"/></clipPath><clipPath id="Bj"><path d="M33.934 45.258h3.832V49.1h-3.832zm0 0"/></clipPath><clipPath id="Bk"><path d="M35.77 45.258h3.832V49.1H35.77zm0 0"/></clipPath><clipPath id="Bl"><path d="M37.61 45.258h3.832V49.1H37.61zm0 0"/></clipPath><clipPath id="Bm"><path d="M39.45 45.258h3.828V49.1H39.45zm0 0"/></clipPath><clipPath id="Bn"><path d="M41.285 45.258h3.832V49.1h-3.832zm0 0"/></clipPath><clipPath id="Bo"><path d="M43.125 45.258h3.832V49.1h-3.832zm0 0"/></clipPath><clipPath id="Bp"><path d="M44.965 45.258h3.828V49.1h-3.828zm0 0"/></clipPath><clipPath id="Bq"><path d="M46.8 45.258h3.832V49.1H46.8zm0 0"/></clipPath><clipPath id="Br"><path d="M48.64 45.258h3.832V49.1H48.64zm0 0"/></clipPath><clipPath id="Bs"><path d="M50.477 45.258h3.832V49.1h-3.832zm0 0"/></clipPath><clipPath id="Bt"><path d="M52.316 45.258h3.832V49.1h-3.832zm0 0"/></clipPath><clipPath id="Bu"><path d="M54.156 45.258h3.828V49.1h-3.828zm0 0"/></clipPath><clipPath id="Bv"><path d="M55.992 45.258h3.832V49.1h-3.832zm0 0"/></clipPath><clipPath id="Bw"><path d="M57.832 45.258h3.832V49.1h-3.832zm0 0"/></clipPath><clipPath id="Bx"><path d="M59.672 45.258H63.5V49.1h-3.828zm0 0"/></clipPath><clipPath id="By"><path d="M61.508 45.258h2.344V49.1h-2.344zm0 0"/></clipPath><clipPath id="Bz"><path d="M63.348 45.258h.504V49.1h-.504zm0 0"/></clipPath><clipPath id="CA"><path d="M23.313 43.422h1.582v3.828h-1.582zm0 0"/></clipPath><clipPath id="CB"><path d="M23.313 43.422h3.422v3.828h-3.422zm0 0"/></clipPath><clipPath id="CC"><path d="M24.742 43.422h3.828v3.828h-3.828zm0 0"/></clipPath><clipPath id="CD"><path d="M26.578 43.422H30.4v3.828h-3.832zm0 0"/></clipPath><clipPath id="CE"><path d="M28.418 43.422h3.832v3.828h-3.832zm0 0"/></clipPath><clipPath id="CF"><path d="M30.258 43.422h3.828v3.828h-3.828zm0 0"/></clipPath><clipPath id="CG"><path d="M32.094 43.422h3.832v3.828h-3.832zm0 0"/></clipPath><clipPath id="CH"><path d="M33.934 43.422h3.832v3.828h-3.832zm0 0"/></clipPath><clipPath id="CI"><path d="M35.77 43.422h3.832v3.828H35.77zm0 0"/></clipPath><clipPath id="CJ"><path d="M37.61 43.422h3.832v3.828H37.61zm0 0"/></clipPath><clipPath id="CK"><path d="M39.45 43.422h3.828v3.828H39.45zm0 0"/></clipPath><clipPath id="CL"><path d="M41.285 43.422h3.832v3.828h-3.832zm0 0"/></clipPath><clipPath id="CM"><path d="M43.125 43.422h3.832v3.828h-3.832zm0 0"/></clipPath><clipPath id="CN"><path d="M44.965 43.422h3.828v3.828h-3.828zm0 0"/></clipPath><clipPath id="CO"><path d="M46.8 43.422h3.832v3.828H46.8zm0 0"/></clipPath><clipPath id="CP"><path d="M48.64 43.422h3.832v3.828H48.64zm0 0"/></clipPath><clipPath id="CQ"><path d="M50.477 43.422h3.832v3.828h-3.832zm0 0"/></clipPath><clipPath id="CR"><path d="M52.316 43.422h3.832v3.828h-3.832zm0 0"/></clipPath><clipPath id="CS"><path d="M54.156 43.422h3.828v3.828h-3.828zm0 0"/></clipPath><clipPath id="CT"><path d="M55.992 43.422h3.832v3.828h-3.832zm0 0"/></clipPath><clipPath id="CU"><path d="M57.832 43.422h3.832v3.828h-3.832zm0 0"/></clipPath><clipPath id="CV"><path d="M59.672 43.422H63.5v3.828h-3.828zm0 0"/></clipPath><clipPath id="CW"><path d="M61.508 43.422h2.344v3.828h-2.344zm0 0"/></clipPath><clipPath id="CX"><path d="M63.348 43.422h.504v3.828h-.504zm0 0"/></clipPath><clipPath id="CY"><path d="M23.313 41.582h1.582v3.832h-1.582zm0 0"/></clipPath><clipPath id="CZ"><path d="M23.313 41.582h3.422v3.832h-3.422zm0 0"/></clipPath><clipPath id="Ca"><path d="M24.742 41.582h3.828v3.832h-3.828zm0 0"/></clipPath><clipPath id="Cb"><path d="M26.578 41.582H30.4v3.832h-3.832zm0 0"/></clipPath><clipPath id="Cc"><path d="M28.418 41.582h3.832v3.832h-3.832zm0 0"/></clipPath><clipPath id="Cd"><path d="M30.258 41.582h3.828v3.832h-3.828zm0 0"/></clipPath><clipPath id="Ce"><path d="M32.094 41.582h3.832v3.832h-3.832zm0 0"/></clipPath><clipPath id="Cf"><path d="M33.934 41.582h3.832v3.832h-3.832zm0 0"/></clipPath><clipPath id="Cg"><path d="M35.77 41.582h3.832v3.832H35.77zm0 0"/></clipPath><clipPath id="Ch"><path d="M37.61 41.582h3.832v3.832H37.61zm0 0"/></clipPath><clipPath id="Ci"><path d="M39.45 41.582h3.828v3.832H39.45zm0 0"/></clipPath><clipPath id="Cj"><path d="M41.285 41.582h3.832v3.832h-3.832zm0 0"/></clipPath><clipPath id="Ck"><path d="M43.125 41.582h3.832v3.832h-3.832zm0 0"/></clipPath><clipPath id="Cl"><path d="M44.965 41.582h3.828v3.832h-3.828zm0 0"/></clipPath><clipPath id="Cm"><path d="M46.8 41.582h3.832v3.832H46.8zm0 0"/></clipPath><clipPath id="Cn"><path d="M48.64 41.582h3.832v3.832H48.64zm0 0"/></clipPath><clipPath id="Co"><path d="M50.477 41.582h3.832v3.832h-3.832zm0 0"/></clipPath><clipPath id="Cp"><path d="M52.316 41.582h3.832v3.832h-3.832zm0 0"/></clipPath><clipPath id="Cq"><path d="M54.156 41.582h3.828v3.832h-3.828zm0 0"/></clipPath><clipPath id="Cr"><path d="M55.992 41.582h3.832v3.832h-3.832zm0 0"/></clipPath><clipPath id="Cs"><path d="M57.832 41.582h3.832v3.832h-3.832zm0 0"/></clipPath><clipPath id="Ct"><path d="M59.672 41.582H63.5v3.832h-3.828zm0 0"/></clipPath><clipPath id="Cu"><path d="M61.508 41.582h2.344v3.832h-2.344zm0 0"/></clipPath><clipPath id="Cv"><path d="M63.348 41.582h.504v3.832h-.504zm0 0"/></clipPath><clipPath id="Cw"><path d="M23.313 39.742h1.582v3.832h-1.582zm0 0"/></clipPath><clipPath id="Cx"><path d="M23.313 39.742h3.422v3.832h-3.422zm0 0"/></clipPath><clipPath id="Cy"><path d="M24.742 39.742h3.828v3.832h-3.828zm0 0"/></clipPath><clipPath id="Cz"><path d="M26.578 39.742H30.4v3.832h-3.832zm0 0"/></clipPath><clipPath id="DA"><path d="M28.418 39.742h3.832v3.832h-3.832zm0 0"/></clipPath><clipPath id="DB"><path d="M30.258 39.742h3.828v3.832h-3.828zm0 0"/></clipPath><clipPath id="DC"><path d="M32.094 39.742h3.832v3.832h-3.832zm0 0"/></clipPath><clipPath id="DD"><path d="M33.934 39.742h3.832v3.832h-3.832zm0 0"/></clipPath><clipPath id="DE"><path d="M35.77 39.742h3.832v3.832H35.77zm0 0"/></clipPath><clipPath id="DF"><path d="M37.61 39.742h3.832v3.832H37.61zm0 0"/></clipPath><clipPath id="DG"><path d="M39.45 39.742h3.828v3.832H39.45zm0 0"/></clipPath><clipPath id="DH"><path d="M41.285 39.742h3.832v3.832h-3.832zm0 0"/></clipPath><clipPath id="DI"><path d="M43.125 39.742h3.832v3.832h-3.832zm0 0"/></clipPath><clipPath id="DJ"><path d="M44.965 39.742h3.828v3.832h-3.828zm0 0"/></clipPath><clipPath id="DK"><path d="M46.8 39.742h3.832v3.832H46.8zm0 0"/></clipPath><clipPath id="DL"><path d="M48.64 39.742h3.832v3.832H48.64zm0 0"/></clipPath><clipPath id="DM"><path d="M50.477 39.742h3.832v3.832h-3.832zm0 0"/></clipPath><clipPath id="DN"><path d="M52.316 39.742h3.832v3.832h-3.832zm0 0"/></clipPath><clipPath id="DO"><path d="M54.156 39.742h3.828v3.832h-3.828zm0 0"/></clipPath><clipPath id="DP"><path d="M55.992 39.742h3.832v3.832h-3.832zm0 0"/></clipPath><clipPath id="DQ"><path d="M57.832 39.742h3.832v3.832h-3.832zm0 0"/></clipPath><clipPath id="DR"><path d="M59.672 39.742H63.5v3.832h-3.828zm0 0"/></clipPath><clipPath id="DS"><path d="M61.508 39.742h2.344v3.832h-2.344zm0 0"/></clipPath><clipPath id="DT"><path d="M63.348 39.742h.504v3.832h-.504zm0 0"/></clipPath><clipPath id="DU"><path d="M23.313 37.906h1.582v3.832h-1.582zm0 0"/></clipPath><clipPath id="DV"><path d="M23.313 37.906h3.422v3.832h-3.422zm0 0"/></clipPath><clipPath id="DW"><path d="M24.742 37.906h3.828v3.832h-3.828zm0 0"/></clipPath><clipPath id="DX"><path d="M26.578 37.906H30.4v3.832h-3.832zm0 0"/></clipPath><clipPath id="DY"><path d="M28.418 37.906h3.832v3.832h-3.832zm0 0"/></clipPath><clipPath id="DZ"><path d="M30.258 37.906h3.828v3.832h-3.828zm0 0"/></clipPath><clipPath id="Da"><path d="M32.094 37.906h3.832v3.832h-3.832zm0 0"/></clipPath><clipPath id="Db"><path d="M33.934 37.906h3.832v3.832h-3.832zm0 0"/></clipPath><clipPath id="Dc"><path d="M35.77 37.906h3.832v3.832H35.77zm0 0"/></clipPath><clipPath id="Dd"><path d="M37.61 37.906h3.832v3.832H37.61zm0 0"/></clipPath><clipPath id="De"><path d="M39.45 37.906h3.828v3.832H39.45zm0 0"/></clipPath><clipPath id="Df"><path d="M41.285 37.906h3.832v3.832h-3.832zm0 0"/></clipPath><clipPath id="Dg"><path d="M43.125 37.906h3.832v3.832h-3.832zm0 0"/></clipPath><clipPath id="Dh"><path d="M44.965 37.906h3.828v3.832h-3.828zm0 0"/></clipPath><clipPath id="Di"><path d="M46.8 37.906h3.832v3.832H46.8zm0 0"/></clipPath><clipPath id="Dj"><path d="M48.64 37.906h3.832v3.832H48.64zm0 0"/></clipPath><clipPath id="Dk"><path d="M50.477 37.906h3.832v3.832h-3.832zm0 0"/></clipPath><clipPath id="Dl"><path d="M52.316 37.906h3.832v3.832h-3.832zm0 0"/></clipPath><clipPath id="Dm"><path d="M54.156 37.906h3.828v3.832h-3.828zm0 0"/></clipPath><clipPath id="Dn"><path d="M55.992 37.906h3.832v3.832h-3.832zm0 0"/></clipPath><clipPath id="Do"><path d="M57.832 37.906h3.832v3.832h-3.832zm0 0"/></clipPath><clipPath id="Dp"><path d="M59.672 37.906H63.5v3.832h-3.828zm0 0"/></clipPath><clipPath id="Dq"><path d="M61.508 37.906h2.344v3.832h-2.344zm0 0"/></clipPath><clipPath id="Dr"><path d="M63.348 37.906h.504v3.832h-.504zm0 0"/></clipPath><clipPath id="Ds"><path d="M23.313 36.066h1.582v3.832h-1.582zm0 0"/></clipPath><clipPath id="Dt"><path d="M23.313 36.066h3.422v3.832h-3.422zm0 0"/></clipPath><clipPath id="Du"><path d="M24.742 36.066h3.828v3.832h-3.828zm0 0"/></clipPath><clipPath id="Dv"><path d="M26.578 36.066H30.4v3.832h-3.832zm0 0"/></clipPath><clipPath id="Dw"><path d="M28.418 36.066h3.832v3.832h-3.832zm0 0"/></clipPath><clipPath id="Dx"><path d="M30.258 36.066h3.828v3.832h-3.828zm0 0"/></clipPath><clipPath id="Dy"><path d="M32.094 36.066h3.832v3.832h-3.832zm0 0"/></clipPath><clipPath id="Dz"><path d="M33.934 36.066h3.832v3.832h-3.832zm0 0"/></clipPath><clipPath id="EA"><path d="M35.77 36.066h3.832v3.832H35.77zm0 0"/></clipPath><clipPath id="EB"><path d="M37.61 36.066h3.832v3.832H37.61zm0 0"/></clipPath><clipPath id="EC"><path d="M39.45 36.066h3.828v3.832H39.45zm0 0"/></clipPath><clipPath id="ED"><path d="M41.285 36.066h3.832v3.832h-3.832zm0 0"/></clipPath><clipPath id="EE"><path d="M43.125 36.066h3.832v3.832h-3.832zm0 0"/></clipPath><clipPath id="EF"><path d="M44.965 36.066h3.828v3.832h-3.828zm0 0"/></clipPath><clipPath id="EG"><path d="M46.8 36.066h3.832v3.832H46.8zm0 0"/></clipPath><clipPath id="EH"><path d="M48.64 36.066h3.832v3.832H48.64zm0 0"/></clipPath><clipPath id="EI"><path d="M50.477 36.066h3.832v3.832h-3.832zm0 0"/></clipPath><clipPath id="EJ"><path d="M52.316 36.066h3.832v3.832h-3.832zm0 0"/></clipPath><clipPath id="EK"><path d="M54.156 36.066h3.828v3.832h-3.828zm0 0"/></clipPath><clipPath id="EL"><path d="M55.992 36.066h3.832v3.832h-3.832zm0 0"/></clipPath><clipPath id="EM"><path d="M57.832 36.066h3.832v3.832h-3.832zm0 0"/></clipPath><clipPath id="EN"><path d="M59.672 36.066H63.5v3.832h-3.828zm0 0"/></clipPath><clipPath id="EO"><path d="M61.508 36.066h2.344v3.832h-2.344zm0 0"/></clipPath><clipPath id="EP"><path d="M63.348 36.066h.504v3.832h-.504zm0 0"/></clipPath><clipPath id="EQ"><path d="M23.313 34.23h1.582v3.828h-1.582zm0 0"/></clipPath><clipPath id="ER"><path d="M23.313 34.23h3.422v3.828h-3.422zm0 0"/></clipPath><clipPath id="ES"><path d="M24.742 34.23h3.828v3.828h-3.828zm0 0"/></clipPath><clipPath id="ET"><path d="M26.578 34.23H30.4v3.828h-3.832zm0 0"/></clipPath><clipPath id="EU"><path d="M28.418 34.23h3.832v3.828h-3.832zm0 0"/></clipPath><clipPath id="EV"><path d="M30.258 34.23h3.828v3.828h-3.828zm0 0"/></clipPath><clipPath id="EW"><path d="M32.094 34.23h3.832v3.828h-3.832zm0 0"/></clipPath><clipPath id="EX"><path d="M33.934 34.23h3.832v3.828h-3.832zm0 0"/></clipPath><clipPath id="EY"><path d="M35.77 34.23h3.832v3.828H35.77zm0 0"/></clipPath><clipPath id="EZ"><path d="M37.61 34.23h3.832v3.828H37.61zm0 0"/></clipPath><clipPath id="Ea"><path d="M39.45 34.23h3.828v3.828H39.45zm0 0"/></clipPath><clipPath id="Eb"><path d="M41.285 34.23h3.832v3.828h-3.832zm0 0"/></clipPath><clipPath id="Ec"><path d="M43.125 34.23h3.832v3.828h-3.832zm0 0"/></clipPath><clipPath id="Ed"><path d="M44.965 34.23h3.828v3.828h-3.828zm0 0"/></clipPath><clipPath id="Ee"><path d="M46.8 34.23h3.832v3.828H46.8zm0 0"/></clipPath><clipPath id="Ef"><path d="M48.64 34.23h3.832v3.828H48.64zm0 0"/></clipPath><clipPath id="Eg"><path d="M50.477 34.23h3.832v3.828h-3.832zm0 0"/></clipPath><clipPath id="Eh"><path d="M52.316 34.23h3.832v3.828h-3.832zm0 0"/></clipPath><clipPath id="Ei"><path d="M54.156 34.23h3.828v3.828h-3.828zm0 0"/></clipPath><clipPath id="Ej"><path d="M55.992 34.23h3.832v3.828h-3.832zm0 0"/></clipPath><clipPath id="Ek"><path d="M57.832 34.23h3.832v3.828h-3.832zm0 0"/></clipPath><clipPath id="El"><path d="M59.672 34.23H63.5v3.828h-3.828zm0 0"/></clipPath><clipPath id="Em"><path d="M61.508 34.23h2.344v3.828h-2.344zm0 0"/></clipPath><clipPath id="En"><path d="M63.348 34.23h.504v3.828h-.504zm0 0"/></clipPath><clipPath id="Eo"><path d="M23.313 32.39h1.582v3.832h-1.582zm0 0"/></clipPath><clipPath id="Ep"><path d="M23.313 32.39h3.422v3.832h-3.422zm0 0"/></clipPath><clipPath id="Eq"><path d="M24.742 32.39h3.828v3.832h-3.828zm0 0"/></clipPath><clipPath id="Er"><path d="M26.578 32.39H30.4v3.832h-3.832zm0 0"/></clipPath><clipPath id="Es"><path d="M28.418 32.39h3.832v3.832h-3.832zm0 0"/></clipPath><clipPath id="Et"><path d="M30.258 32.39h3.828v3.832h-3.828zm0 0"/></clipPath><clipPath id="Eu"><path d="M32.094 32.39h3.832v3.832h-3.832zm0 0"/></clipPath><clipPath id="Ev"><path d="M33.934 32.39h3.832v3.832h-3.832zm0 0"/></clipPath><clipPath id="Ew"><path d="M35.77 32.39h3.832v3.832H35.77zm0 0"/></clipPath><clipPath id="Ex"><path d="M37.61 32.39h3.832v3.832H37.61zm0 0"/></clipPath><clipPath id="Ey"><path d="M39.45 32.39h3.828v3.832H39.45zm0 0"/></clipPath><clipPath id="Ez"><path d="M41.285 32.39h3.832v3.832h-3.832zm0 0"/></clipPath><clipPath id="FA"><path d="M43.125 32.39h3.832v3.832h-3.832zm0 0"/></clipPath><clipPath id="FB"><path d="M44.965 32.39h3.828v3.832h-3.828zm0 0"/></clipPath><clipPath id="FC"><path d="M46.8 32.39h3.832v3.832H46.8zm0 0"/></clipPath><clipPath id="FD"><path d="M48.64 32.39h3.832v3.832H48.64zm0 0"/></clipPath><clipPath id="FE"><path d="M50.477 32.39h3.832v3.832h-3.832zm0 0"/></clipPath><clipPath id="FF"><path d="M52.316 32.39h3.832v3.832h-3.832zm0 0"/></clipPath><clipPath id="FG"><path d="M54.156 32.39h3.828v3.832h-3.828zm0 0"/></clipPath><clipPath id="FH"><path d="M55.992 32.39h3.832v3.832h-3.832zm0 0"/></clipPath><clipPath id="FI"><path d="M57.832 32.39h3.832v3.832h-3.832zm0 0"/></clipPath><clipPath id="FJ"><path d="M59.672 32.39H63.5v3.832h-3.828zm0 0"/></clipPath><clipPath id="FK"><path d="M61.508 32.39h2.344v3.832h-2.344zm0 0"/></clipPath><clipPath id="FL"><path d="M63.348 32.39h.504v3.832h-.504zm0 0"/></clipPath><clipPath id="FM"><path d="M23.313 30.55h1.582v3.832h-1.582zm0 0"/></clipPath><clipPath id="FN"><path d="M23.313 30.55h3.422v3.832h-3.422zm0 0"/></clipPath><clipPath id="FO"><path d="M24.742 30.55h3.828v3.832h-3.828zm0 0"/></clipPath><clipPath id="FP"><path d="M26.578 30.55H30.4v3.832h-3.832zm0 0"/></clipPath><clipPath id="FQ"><path d="M28.418 30.55h3.832v3.832h-3.832zm0 0"/></clipPath><clipPath id="FR"><path d="M30.258 30.55h3.828v3.832h-3.828zm0 0"/></clipPath><clipPath id="FS"><path d="M32.094 30.55h3.832v3.832h-3.832zm0 0"/></clipPath><clipPath id="FT"><path d="M33.934 30.55h3.832v3.832h-3.832zm0 0"/></clipPath><clipPath id="FU"><path d="M35.77 30.55h3.832v3.832H35.77zm0 0"/></clipPath><clipPath id="FV"><path d="M37.61 30.55h3.832v3.832H37.61zm0 0"/></clipPath><clipPath id="FW"><path d="M39.45 30.55h3.828v3.832H39.45zm0 0"/></clipPath><clipPath id="FX"><path d="M41.285 30.55h3.832v3.832h-3.832zm0 0"/></clipPath><clipPath id="FY"><path d="M43.125 30.55h3.832v3.832h-3.832zm0 0"/></clipPath><clipPath id="FZ"><path d="M44.965 30.55h3.828v3.832h-3.828zm0 0"/></clipPath><clipPath id="Fa"><path d="M46.8 30.55h3.832v3.832H46.8zm0 0"/></clipPath><clipPath id="Fb"><path d="M48.64 30.55h3.832v3.832H48.64zm0 0"/></clipPath><clipPath id="Fc"><path d="M50.477 30.55h3.832v3.832h-3.832zm0 0"/></clipPath><clipPath id="Fd"><path d="M52.316 30.55h3.832v3.832h-3.832zm0 0"/></clipPath><clipPath id="Fe"><path d="M54.156 30.55h3.828v3.832h-3.828zm0 0"/></clipPath><clipPath id="Ff"><path d="M55.992 30.55h3.832v3.832h-3.832zm0 0"/></clipPath><clipPath id="Fg"><path d="M57.832 30.55h3.832v3.832h-3.832zm0 0"/></clipPath><clipPath id="Fh"><path d="M59.672 30.55H63.5v3.832h-3.828zm0 0"/></clipPath><clipPath id="Fi"><path d="M61.508 30.55h2.344v3.832h-2.344zm0 0"/></clipPath><clipPath id="Fj"><path d="M63.348 30.55h.504v3.832h-.504zm0 0"/></clipPath><clipPath id="Fk"><path d="M23.313 28.715h1.582v3.828h-1.582zm0 0"/></clipPath><clipPath id="Fl"><path d="M23.313 28.715h3.422v3.828h-3.422zm0 0"/></clipPath><clipPath id="Fm"><path d="M24.742 28.715h3.828v3.828h-3.828zm0 0"/></clipPath><clipPath id="Fn"><path d="M26.578 28.715H30.4v3.828h-3.832zm0 0"/></clipPath><clipPath id="Fo"><path d="M28.418 28.715h3.832v3.828h-3.832zm0 0"/></clipPath><clipPath id="Fp"><path d="M30.258 28.715h3.828v3.828h-3.828zm0 0"/></clipPath><clipPath id="Fq"><path d="M32.094 28.715h3.832v3.828h-3.832zm0 0"/></clipPath><clipPath id="Fr"><path d="M33.934 28.715h3.832v3.828h-3.832zm0 0"/></clipPath><clipPath id="Fs"><path d="M35.77 28.715h3.832v3.828H35.77zm0 0"/></clipPath><clipPath id="Ft"><path d="M37.61 28.715h3.832v3.828H37.61zm0 0"/></clipPath><clipPath id="Fu"><path d="M39.45 28.715h3.828v3.828H39.45zm0 0"/></clipPath><clipPath id="Fv"><path d="M41.285 28.715h3.832v3.828h-3.832zm0 0"/></clipPath><clipPath id="Fw"><path d="M43.125 28.715h3.832v3.828h-3.832zm0 0"/></clipPath><clipPath id="Fx"><path d="M44.965 28.715h3.828v3.828h-3.828zm0 0"/></clipPath><clipPath id="Fy"><path d="M46.8 28.715h3.832v3.828H46.8zm0 0"/></clipPath><clipPath id="Fz"><path d="M48.64 28.715h3.832v3.828H48.64zm0 0"/></clipPath><clipPath id="GA"><path d="M50.477 28.715h3.832v3.828h-3.832zm0 0"/></clipPath><clipPath id="GB"><path d="M52.316 28.715h3.832v3.828h-3.832zm0 0"/></clipPath><clipPath id="GC"><path d="M54.156 28.715h3.828v3.828h-3.828zm0 0"/></clipPath><clipPath id="GD"><path d="M55.992 28.715h3.832v3.828h-3.832zm0 0"/></clipPath><clipPath id="GE"><path d="M57.832 28.715h3.832v3.828h-3.832zm0 0"/></clipPath><clipPath id="GF"><path d="M59.672 28.715H63.5v3.828h-3.828zm0 0"/></clipPath><clipPath id="GG"><path d="M61.508 28.715h2.344v3.828h-2.344zm0 0"/></clipPath><clipPath id="GH"><path d="M63.348 28.715h.504v3.828h-.504zm0 0"/></clipPath><clipPath id="GI"><path d="M23.313 28.082h1.582v2.625h-1.582zm0 0"/></clipPath><clipPath id="GJ"><path d="M23.313 28.082h3.422v2.625h-3.422zm0 0"/></clipPath><clipPath id="GK"><path d="M24.742 28.082h3.828v2.625h-3.828zm0 0"/></clipPath><clipPath id="GL"><path d="M26.578 28.082H30.4v2.625h-3.832zm0 0"/></clipPath><clipPath id="GM"><path d="M28.418 28.082h3.832v2.625h-3.832zm0 0"/></clipPath><clipPath id="GN"><path d="M30.258 28.082h3.828v2.625h-3.828zm0 0"/></clipPath><clipPath id="GO"><path d="M32.094 28.082h3.832v2.625h-3.832zm0 0"/></clipPath><clipPath id="GP"><path d="M33.934 28.082h3.832v2.625h-3.832zm0 0"/></clipPath><clipPath id="GQ"><path d="M35.77 28.082h3.832v2.625H35.77zm0 0"/></clipPath><clipPath id="GR"><path d="M37.61 28.082h3.832v2.625H37.61zm0 0"/></clipPath><clipPath id="GS"><path d="M39.45 28.082h3.828v2.625H39.45zm0 0"/></clipPath><clipPath id="GT"><path d="M41.285 28.082h3.832v2.625h-3.832zm0 0"/></clipPath><clipPath id="GU"><path d="M43.125 28.082h3.832v2.625h-3.832zm0 0"/></clipPath><clipPath id="GV"><path d="M44.965 28.082h3.828v2.625h-3.828zm0 0"/></clipPath><clipPath id="GW"><path d="M46.8 28.082h3.832v2.625H46.8zm0 0"/></clipPath><clipPath id="GX"><path d="M48.64 28.082h3.832v2.625H48.64zm0 0"/></clipPath><clipPath id="GY"><path d="M50.477 28.082h3.832v2.625h-3.832zm0 0"/></clipPath><clipPath id="GZ"><path d="M52.316 28.082h3.832v2.625h-3.832zm0 0"/></clipPath><clipPath id="Ga"><path d="M54.156 28.082h3.828v2.625h-3.828zm0 0"/></clipPath><clipPath id="Gb"><path d="M55.992 28.082h3.832v2.625h-3.832zm0 0"/></clipPath><clipPath id="Gc"><path d="M57.832 28.082h3.832v2.625h-3.832zm0 0"/></clipPath><clipPath id="Gd"><path d="M59.672 28.082H63.5v2.625h-3.828zm0 0"/></clipPath><clipPath id="Ge"><path d="M61.508 28.082h2.344v2.625h-2.344zm0 0"/></clipPath><clipPath id="Gf"><path d="M63.348 28.082h.504v2.625h-.504zm0 0"/></clipPath><clipPath id="Gg"><path d="M23.313 28.082h1.582v.785h-1.582zm0 0"/></clipPath><clipPath id="Gh"><path d="M23.313 28.082h3.422v.785h-3.422zm0 0"/></clipPath><clipPath id="Gi"><path d="M24.742 28.082h3.828v.785h-3.828zm0 0"/></clipPath><clipPath id="Gj"><path d="M26.578 28.082H30.4v.785h-3.832zm0 0"/></clipPath><clipPath id="Gk"><path d="M28.418 28.082h3.832v.785h-3.832zm0 0"/></clipPath><clipPath id="Gl"><path d="M30.258 28.082h3.828v.785h-3.828zm0 0"/></clipPath><clipPath id="Gm"><path d="M32.094 28.082h3.832v.785h-3.832zm0 0"/></clipPath><clipPath id="Gn"><path d="M33.934 28.082h3.832v.785h-3.832zm0 0"/></clipPath><clipPath id="Go"><path d="M35.77 28.082h3.832v.785H35.77zm0 0"/></clipPath><clipPath id="Gp"><path d="M37.61 28.082h3.832v.785H37.61zm0 0"/></clipPath><clipPath id="Gq"><path d="M39.45 28.082h3.828v.785H39.45zm0 0"/></clipPath><clipPath id="Gr"><path d="M41.285 28.082h3.832v.785h-3.832zm0 0"/></clipPath><clipPath id="Gs"><path d="M43.125 28.082h3.832v.785h-3.832zm0 0"/></clipPath><clipPath id="Gt"><path d="M44.965 28.082h3.828v.785h-3.828zm0 0"/></clipPath><clipPath id="Gu"><path d="M46.8 28.082h3.832v.785H46.8zm0 0"/></clipPath><clipPath id="Gv"><path d="M48.64 28.082h3.832v.785H48.64zm0 0"/></clipPath><clipPath id="Gw"><path d="M50.477 28.082h3.832v.785h-3.832zm0 0"/></clipPath><clipPath id="Gx"><path d="M52.316 28.082h3.832v.785h-3.832zm0 0"/></clipPath><clipPath id="Gy"><path d="M54.156 28.082h3.828v.785h-3.828zm0 0"/></clipPath><clipPath id="Gz"><path d="M55.992 28.082h3.832v.785h-3.832zm0 0"/></clipPath><clipPath id="HA"><path d="M57.832 28.082h3.832v.785h-3.832zm0 0"/></clipPath><clipPath id="HB"><path d="M59.672 28.082H63.5v.785h-3.828zm0 0"/></clipPath><clipPath id="HC"><path d="M61.508 28.082h2.344v.785h-2.344zm0 0"/></clipPath><clipPath id="HD"><path d="M63.348 28.082h.504v.785h-.504zm0 0"/></clipPath><clipPath id="HE"><path d="M3 55h12v9.64H3zm0 0"/></clipPath><clipPath id="HF"><path d="M93 55h12v9.64H93zm0 0"/></clipPath><clipPath id="HG"><path d="M51 57h6v7.64h-6zm0 0"/></clipPath><path id="HH" d="M7.855 61.25a7.41 7.41 0 0 1 1.391.551V60.7a7.41 7.41 0 0 1-1.391.551zm0 0"/><path id="HI" d="M100 61.25a7.41 7.41 0 0 1-1.391-.551V61.8A7.41 7.41 0 0 1 100 61.25zm0 0"/></defs><g class="H"><use xlink:href="#A" x="1.66" y="56.715"/><use xlink:href="#B" x="33.488" y="5.064"/><use xlink:href="#C" x="102.459" y="56.715"/><use xlink:href="#D" x="21.02" y="60.177"/><use xlink:href="#E" x="61.576" y="60.177"/><use xlink:href="#F" x="18.164" y="26.324"/><use xlink:href="#G" x="65.609" y="26.324"/><use xlink:href="#H" x="33.371" y="60.177"/></g><g class="B C D K"><path d="M7.156 55.012L35.504 6.824 100.7 55.012H7.156"/><path d="M35.504 6.824v48.187"/><path d="M23.313 55.012v-26.93h40.54v26.93"/></g><g clip-path="url(#M)" class="B C D E"><path d="M22.063 57.285l2.832-2.836"/></g><g clip-path="url(#N)" class="B C D E"><path d="M23.898 57.285l2.836-2.836"/></g><g clip-path="url(#O)" class="B C D E"><path d="M25.738 57.285l2.832-2.836"/></g><g clip-path="url(#P)" class="B C D E"><path d="M27.574 57.285L30.4 54.45"/></g><g clip-path="url(#Q)" class="B C D E"><path d="M29.414 57.285l2.836-2.836"/></g><g clip-path="url(#R)" class="B C D E"><path d="M31.254 57.285l2.832-2.836"/></g><g clip-path="url(#S)" class="B C D E"><path d="M33.1 57.285l2.836-2.836"/></g><g clip-path="url(#T)" class="B C D E"><path d="M34.93 57.285l2.836-2.836"/></g><g clip-path="url(#U)" class="B C D E"><path d="M36.77 57.285l2.832-2.836"/></g><g clip-path="url(#V)" class="B C D E"><path d="M38.605 57.285l2.836-2.836"/></g><g clip-path="url(#W)" class="B C D E"><path d="M40.445 57.285l2.832-2.836"/></g><g clip-path="url(#X)" class="B C D E"><path d="M42.28 57.285l2.836-2.836"/></g><g clip-path="url(#Y)" class="B C D E"><path d="M44.12 57.285l2.836-2.836"/></g><g clip-path="url(#Z)" class="B C D E"><path d="M45.96 57.285l2.832-2.836"/></g><g clip-path="url(#a)" class="B C D E"><path d="M47.797 57.285l2.836-2.836"/></g><g clip-path="url(#b)" class="B C D E"><path d="M49.637 57.285l2.836-2.836"/></g><g clip-path="url(#c)" class="B C D E"><path d="M51.477 57.285l2.832-2.836"/></g><g clip-path="url(#d)" class="B C D E"><path d="M53.313 57.285l2.836-2.836"/></g><g clip-path="url(#e)" class="B C D E"><path d="M55.152 57.285l2.832-2.836"/></g><g clip-path="url(#f)" class="B C D E"><path d="M56.988 57.285l2.836-2.836"/></g><g clip-path="url(#g)" class="B C D E"><path d="M58.828 57.285l2.836-2.836"/></g><g clip-path="url(#h)" class="B C D E"><path d="M60.668 57.285L63.5 54.45"/></g><g clip-path="url(#i)" class="B C D E"><path d="M62.504 57.285l2.836-2.836"/></g><g clip-path="url(#j)" class="B C D E"><path d="M64.344 57.285l2.836-2.836"/></g><g clip-path="url(#k)" class="B C D E"><path d="M22.063 55.445l2.832-2.832"/></g><g clip-path="url(#l)" class="B C D E"><path d="M23.898 55.445l2.836-2.832"/></g><g clip-path="url(#m)" class="B C D E"><path d="M25.738 55.445l2.832-2.832"/></g><g clip-path="url(#n)" class="B C D E"><path d="M27.574 55.445l2.836-2.832"/></g><g clip-path="url(#o)" class="B C D E"><path d="M29.414 55.445l2.836-2.832"/></g><g clip-path="url(#p)" class="B C D E"><path d="M31.254 55.445l2.832-2.832"/></g><g clip-path="url(#q)" class="B C D E"><path d="M33.1 55.445l2.836-2.832"/></g><g clip-path="url(#r)" class="B C D E"><path d="M34.93 55.445l2.836-2.832"/></g><g clip-path="url(#s)" class="B C D E"><path d="M36.77 55.445l2.832-2.832"/></g><g clip-path="url(#t)" class="B C D E"><path d="M38.605 55.445l2.836-2.832"/></g><g clip-path="url(#u)" class="B C D E"><path d="M40.445 55.445l2.832-2.832"/></g><g clip-path="url(#v)" class="B C D E"><path d="M42.28 55.445l2.836-2.832"/></g><g clip-path="url(#w)" class="B C D E"><path d="M44.12 55.445l2.836-2.832"/></g><g clip-path="url(#x)" class="B C D E"><path d="M45.96 55.445l2.832-2.832"/></g><g clip-path="url(#y)" class="B C D E"><path d="M47.797 55.445l2.836-2.832"/></g><g clip-path="url(#z)" class="B C D E"><path d="M49.637 55.445l2.836-2.832"/></g><g clip-path="url(#AA)" class="B C D E"><path d="M51.477 55.445l2.832-2.832"/></g><g clip-path="url(#AB)" class="B C D E"><path d="M53.313 55.445l2.836-2.832"/></g><g clip-path="url(#AC)" class="B C D E"><path d="M55.152 55.445l2.832-2.832"/></g><g clip-path="url(#AD)" class="B C D E"><path d="M56.988 55.445l2.836-2.832"/></g><g clip-path="url(#AE)" class="B C D E"><path d="M58.828 55.445l2.836-2.832"/></g><g clip-path="url(#AF)" class="B C D E"><path d="M60.668 55.445l2.832-2.832"/></g><g clip-path="url(#AG)" class="B C D E"><path d="M62.504 55.445l2.836-2.832"/></g><g clip-path="url(#AH)" class="B C D E"><path d="M64.344 55.445l2.836-2.832"/></g><g clip-path="url(#AI)" class="B C D E"><path d="M22.063 53.61l2.832-2.836"/></g><g clip-path="url(#AJ)" class="B C D E"><path d="M23.898 53.61l2.836-2.836"/></g><g clip-path="url(#AK)" class="B C D E"><path d="M25.738 53.61l2.832-2.836"/></g><g clip-path="url(#AL)" class="B C D E"><path d="M27.574 53.61l2.836-2.836"/></g><g clip-path="url(#AM)" class="B C D E"><path d="M29.414 53.61l2.836-2.836"/></g><g clip-path="url(#AN)" class="B C D E"><path d="M31.254 53.61l2.832-2.836"/></g><g clip-path="url(#AO)" class="B C D E"><path d="M33.1 53.61l2.836-2.836"/></g><g clip-path="url(#AP)" class="B C D E"><path d="M34.93 53.61l2.836-2.836"/></g><g clip-path="url(#AQ)" class="B C D E"><path d="M36.77 53.61l2.832-2.836"/></g><g clip-path="url(#AR)" class="B C D E"><path d="M38.605 53.61l2.836-2.836"/></g><g clip-path="url(#AS)" class="B C D E"><path d="M40.445 53.61l2.832-2.836"/></g><g clip-path="url(#AT)" class="B C D E"><path d="M42.28 53.61l2.836-2.836"/></g><g clip-path="url(#AU)" class="B C D E"><path d="M44.12 53.61l2.836-2.836"/></g><g clip-path="url(#AV)" class="B C D E"><path d="M45.96 53.61l2.832-2.836"/></g><g clip-path="url(#AW)" class="B C D E"><path d="M47.797 53.61l2.836-2.836"/></g><g clip-path="url(#AX)" class="B C D E"><path d="M49.637 53.61l2.836-2.836"/></g><g clip-path="url(#AY)" class="B C D E"><path d="M51.477 53.61l2.832-2.836"/></g><g clip-path="url(#AZ)" class="B C D E"><path d="M53.313 53.61l2.836-2.836"/></g><g clip-path="url(#Aa)" class="B C D E"><path d="M55.152 53.61l2.832-2.836"/></g><g clip-path="url(#Ab)" class="B C D E"><path d="M56.988 53.61l2.836-2.836"/></g><g clip-path="url(#Ac)" class="B C D E"><path d="M58.828 53.61l2.836-2.836"/></g><g clip-path="url(#Ad)" class="B C D E"><path d="M60.668 53.61l2.832-2.836"/></g><g clip-path="url(#Ae)" class="B C D E"><path d="M62.504 53.61l2.836-2.836"/></g><g clip-path="url(#Af)" class="B C D E"><path d="M64.344 53.61l2.836-2.836"/></g><g clip-path="url(#Ag)" class="B C D E"><path d="M22.063 51.77l2.832-2.832"/></g><g clip-path="url(#Ah)" class="B C D E"><path d="M23.898 51.77l2.836-2.832"/></g><g clip-path="url(#Ai)" class="B C D E"><path d="M25.738 51.77l2.832-2.832"/></g><g clip-path="url(#Aj)" class="B C D E"><path d="M27.574 51.77l2.836-2.832"/></g><g clip-path="url(#Ak)" class="B C D E"><path d="M29.414 51.77l2.836-2.832"/></g><g clip-path="url(#Al)" class="B C D E"><path d="M31.254 51.77l2.832-2.832"/></g><g clip-path="url(#Am)" class="B C D E"><path d="M33.1 51.77l2.836-2.832"/></g><g clip-path="url(#An)" class="B C D E"><path d="M34.93 51.77l2.836-2.832"/></g><g clip-path="url(#Ao)" class="B C D E"><path d="M36.77 51.77l2.832-2.832"/></g><g clip-path="url(#Ap)" class="B C D E"><path d="M38.605 51.77l2.836-2.832"/></g><g clip-path="url(#Aq)" class="B C D E"><path d="M40.445 51.77l2.832-2.832"/></g><g clip-path="url(#Ar)" class="B C D E"><path d="M42.28 51.77l2.836-2.832"/></g><g clip-path="url(#As)" class="B C D E"><path d="M44.12 51.77l2.836-2.832"/></g><g clip-path="url(#At)" class="B C D E"><path d="M45.96 51.77l2.832-2.832"/></g><g clip-path="url(#Au)" class="B C D E"><path d="M47.797 51.77l2.836-2.832"/></g><g clip-path="url(#Av)" class="B C D E"><path d="M49.637 51.77l2.836-2.832"/></g><g clip-path="url(#Aw)" class="B C D E"><path d="M51.477 51.77l2.832-2.832"/></g><g clip-path="url(#Ax)" class="B C D E"><path d="M53.313 51.77l2.836-2.832"/></g><g clip-path="url(#Ay)" class="B C D E"><path d="M55.152 51.77l2.832-2.832"/></g><g clip-path="url(#Az)" class="B C D E"><path d="M56.988 51.77l2.836-2.832"/></g><g clip-path="url(#BA)" class="B C D E"><path d="M58.828 51.77l2.836-2.832"/></g><g clip-path="url(#BB)" class="B C D E"><path d="M60.668 51.77l2.832-2.832"/></g><g clip-path="url(#BC)" class="B C D E"><path d="M62.504 51.77l2.836-2.832"/></g><g clip-path="url(#BD)" class="B C D E"><path d="M64.344 51.77l2.836-2.832"/></g><g clip-path="url(#BE)" class="B C D E"><path d="M22.063 49.934l2.832-2.836"/></g><g clip-path="url(#BF)" class="B C D E"><path d="M23.898 49.934l2.836-2.836"/></g><g clip-path="url(#BG)" class="B C D E"><path d="M25.738 49.934l2.832-2.836"/></g><g clip-path="url(#BH)" class="B C D E"><path d="M27.574 49.934l2.836-2.836"/></g><g clip-path="url(#BI)" class="B C D E"><path d="M29.414 49.934l2.836-2.836"/></g><g clip-path="url(#BJ)" class="B C D E"><path d="M31.254 49.934l2.832-2.836"/></g><g clip-path="url(#BK)" class="B C D E"><path d="M33.1 49.934l2.836-2.836"/></g><g clip-path="url(#BL)" class="B C D E"><path d="M34.93 49.934l2.836-2.836"/></g><g clip-path="url(#BM)" class="B C D E"><path d="M36.77 49.934l2.832-2.836"/></g><g clip-path="url(#BN)" class="B C D E"><path d="M38.605 49.934l2.836-2.836"/></g><g clip-path="url(#BO)" class="B C D E"><path d="M40.445 49.934l2.832-2.836"/></g><g clip-path="url(#BP)" class="B C D E"><path d="M42.28 49.934l2.836-2.836"/></g><g clip-path="url(#BQ)" class="B C D E"><path d="M44.12 49.934l2.836-2.836"/></g><g clip-path="url(#BR)" class="B C D E"><path d="M45.96 49.934l2.832-2.836"/></g><g clip-path="url(#BS)" class="B C D E"><path d="M47.797 49.934l2.836-2.836"/></g><g clip-path="url(#BT)" class="B C D E"><path d="M49.637 49.934l2.836-2.836"/></g><g clip-path="url(#BU)" class="B C D E"><path d="M51.477 49.934l2.832-2.836"/></g><g clip-path="url(#BV)" class="B C D E"><path d="M53.313 49.934l2.836-2.836"/></g><g clip-path="url(#BW)" class="B C D E"><path d="M55.152 49.934l2.832-2.836"/></g><g clip-path="url(#BX)" class="B C D E"><path d="M56.988 49.934l2.836-2.836"/></g><g clip-path="url(#BY)" class="B C D E"><path d="M58.828 49.934l2.836-2.836"/></g><g clip-path="url(#BZ)" class="B C D E"><path d="M60.668 49.934l2.832-2.836"/></g><g clip-path="url(#Ba)" class="B C D E"><path d="M62.504 49.934l2.836-2.836"/></g><g clip-path="url(#Bb)" class="B C D E"><path d="M64.344 49.934l2.836-2.836"/></g><g clip-path="url(#Bc)" class="B C D E"><path d="M22.063 48.094l2.832-2.836"/></g><g clip-path="url(#Bd)" class="B C D E"><path d="M23.898 48.094l2.836-2.836"/></g><g clip-path="url(#Be)" class="B C D E"><path d="M25.738 48.094l2.832-2.836"/></g><g clip-path="url(#Bf)" class="B C D E"><path d="M27.574 48.094l2.836-2.836"/></g><g clip-path="url(#Bg)" class="B C D E"><path d="M29.414 48.094l2.836-2.836"/></g><g clip-path="url(#Bh)" class="B C D E"><path d="M31.254 48.094l2.832-2.836"/></g><g clip-path="url(#Bi)" class="B C D E"><path d="M33.1 48.094l2.836-2.836"/></g><g clip-path="url(#Bj)" class="B C D E"><path d="M34.93 48.094l2.836-2.836"/></g><g clip-path="url(#Bk)" class="B C D E"><path d="M36.77 48.094l2.832-2.836"/></g><g clip-path="url(#Bl)" class="B C D E"><path d="M38.605 48.094l2.836-2.836"/></g><g clip-path="url(#Bm)" class="B C D E"><path d="M40.445 48.094l2.832-2.836"/></g><g clip-path="url(#Bn)" class="B C D E"><path d="M42.28 48.094l2.836-2.836"/></g><g clip-path="url(#Bo)" class="B C D E"><path d="M44.12 48.094l2.836-2.836"/></g><g clip-path="url(#Bp)" class="B C D E"><path d="M45.96 48.094l2.832-2.836"/></g><g clip-path="url(#Bq)" class="B C D E"><path d="M47.797 48.094l2.836-2.836"/></g><g clip-path="url(#Br)" class="B C D E"><path d="M49.637 48.094l2.836-2.836"/></g><g clip-path="url(#Bs)" class="B C D E"><path d="M51.477 48.094l2.832-2.836"/></g><g clip-path="url(#Bt)" class="B C D E"><path d="M53.313 48.094l2.836-2.836"/></g><g clip-path="url(#Bu)" class="B C D E"><path d="M55.152 48.094l2.832-2.836"/></g><g clip-path="url(#Bv)" class="B C D E"><path d="M56.988 48.094l2.836-2.836"/></g><g clip-path="url(#Bw)" class="B C D E"><path d="M58.828 48.094l2.836-2.836"/></g><g clip-path="url(#Bx)" class="B C D E"><path d="M60.668 48.094l2.832-2.836"/></g><g clip-path="url(#By)" class="B C D E"><path d="M62.504 48.094l2.836-2.836"/></g><g clip-path="url(#Bz)" class="B C D E"><path d="M64.344 48.094l2.836-2.836"/></g><g clip-path="url(#CA)" class="B C D E"><path d="M22.063 46.254l2.832-2.832"/></g><g clip-path="url(#CB)" class="B C D E"><path d="M23.898 46.254l2.836-2.832"/></g><g clip-path="url(#CC)" class="B C D E"><path d="M25.738 46.254l2.832-2.832"/></g><g clip-path="url(#CD)" class="B C D E"><path d="M27.574 46.254l2.836-2.832"/></g><g clip-path="url(#CE)" class="B C D E"><path d="M29.414 46.254l2.836-2.832"/></g><g clip-path="url(#CF)" class="B C D E"><path d="M31.254 46.254l2.832-2.832"/></g><g clip-path="url(#CG)" class="B C D E"><path d="M33.1 46.254l2.836-2.832"/></g><g clip-path="url(#CH)" class="B C D E"><path d="M34.93 46.254l2.836-2.832"/></g><g clip-path="url(#CI)" class="B C D E"><path d="M36.77 46.254l2.832-2.832"/></g><g clip-path="url(#CJ)" class="B C D E"><path d="M38.605 46.254l2.836-2.832"/></g><g clip-path="url(#CK)" class="B C D E"><path d="M40.445 46.254l2.832-2.832"/></g><g clip-path="url(#CL)" class="B C D E"><path d="M42.28 46.254l2.836-2.832"/></g><g clip-path="url(#CM)" class="B C D E"><path d="M44.12 46.254l2.836-2.832"/></g><g clip-path="url(#CN)" class="B C D E"><path d="M45.96 46.254l2.832-2.832"/></g><g clip-path="url(#CO)" class="B C D E"><path d="M47.797 46.254l2.836-2.832"/></g><g clip-path="url(#CP)" class="B C D E"><path d="M49.637 46.254l2.836-2.832"/></g><g clip-path="url(#CQ)" class="B C D E"><path d="M51.477 46.254l2.832-2.832"/></g><g clip-path="url(#CR)" class="B C D E"><path d="M53.313 46.254l2.836-2.832"/></g><g clip-path="url(#CS)" class="B C D E"><path d="M55.152 46.254l2.832-2.832"/></g><g clip-path="url(#CT)" class="B C D E"><path d="M56.988 46.254l2.836-2.832"/></g><g clip-path="url(#CU)" class="B C D E"><path d="M58.828 46.254l2.836-2.832"/></g><g clip-path="url(#CV)" class="B C D E"><path d="M60.668 46.254l2.832-2.832"/></g><g clip-path="url(#CW)" class="B C D E"><path d="M62.504 46.254l2.836-2.832"/></g><g clip-path="url(#CX)" class="B C D E"><path d="M64.344 46.254l2.836-2.832"/></g><g clip-path="url(#CY)" class="B C D E"><path d="M22.063 44.418l2.832-2.836"/></g><g clip-path="url(#CZ)" class="B C D E"><path d="M23.898 44.418l2.836-2.836"/></g><g clip-path="url(#Ca)" class="B C D E"><path d="M25.738 44.418l2.832-2.836"/></g><g clip-path="url(#Cb)" class="B C D E"><path d="M27.574 44.418l2.836-2.836"/></g><g clip-path="url(#Cc)" class="B C D E"><path d="M29.414 44.418l2.836-2.836"/></g><g clip-path="url(#Cd)" class="B C D E"><path d="M31.254 44.418l2.832-2.836"/></g><g clip-path="url(#Ce)" class="B C D E"><path d="M33.1 44.418l2.836-2.836"/></g><g clip-path="url(#Cf)" class="B C D E"><path d="M34.93 44.418l2.836-2.836"/></g><g clip-path="url(#Cg)" class="B C D E"><path d="M36.77 44.418l2.832-2.836"/></g><g clip-path="url(#Ch)" class="B C D E"><path d="M38.605 44.418l2.836-2.836"/></g><g clip-path="url(#Ci)" class="B C D E"><path d="M40.445 44.418l2.832-2.836"/></g><g clip-path="url(#Cj)" class="B C D E"><path d="M42.28 44.418l2.836-2.836"/></g><g clip-path="url(#Ck)" class="B C D E"><path d="M44.12 44.418l2.836-2.836"/></g><g clip-path="url(#Cl)" class="B C D E"><path d="M45.96 44.418l2.832-2.836"/></g><g clip-path="url(#Cm)" class="B C D E"><path d="M47.797 44.418l2.836-2.836"/></g><g clip-path="url(#Cn)" class="B C D E"><path d="M49.637 44.418l2.836-2.836"/></g><g clip-path="url(#Co)" class="B C D E"><path d="M51.477 44.418l2.832-2.836"/></g><g clip-path="url(#Cp)" class="B C D E"><path d="M53.313 44.418l2.836-2.836"/></g><g clip-path="url(#Cq)" class="B C D E"><path d="M55.152 44.418l2.832-2.836"/></g><g clip-path="url(#Cr)" class="B C D E"><path d="M56.988 44.418l2.836-2.836"/></g><g clip-path="url(#Cs)" class="B C D E"><path d="M58.828 44.418l2.836-2.836"/></g><g clip-path="url(#Ct)" class="B C D E"><path d="M60.668 44.418l2.832-2.836"/></g><g clip-path="url(#Cu)" class="B C D E"><path d="M62.504 44.418l2.836-2.836"/></g><g clip-path="url(#Cv)" class="B C D E"><path d="M64.344 44.418l2.836-2.836"/></g><g clip-path="url(#Cw)" class="B C D E"><path d="M22.063 42.578l2.832-2.836"/></g><g clip-path="url(#Cx)" class="B C D E"><path d="M23.898 42.578l2.836-2.836"/></g><g clip-path="url(#Cy)" class="B C D E"><path d="M25.738 42.578l2.832-2.836"/></g><g clip-path="url(#Cz)" class="B C D E"><path d="M27.574 42.578l2.836-2.836"/></g><g clip-path="url(#DA)" class="B C D E"><path d="M29.414 42.578l2.836-2.836"/></g><g clip-path="url(#DB)" class="B C D E"><path d="M31.254 42.578l2.832-2.836"/></g><g clip-path="url(#DC)" class="B C D E"><path d="M33.1 42.578l2.836-2.836"/></g><g clip-path="url(#DD)" class="B C D E"><path d="M34.93 42.578l2.836-2.836"/></g><g clip-path="url(#DE)" class="B C D E"><path d="M36.77 42.578l2.832-2.836"/></g><g clip-path="url(#DF)" class="B C D E"><path d="M38.605 42.578l2.836-2.836"/></g><g clip-path="url(#DG)" class="B C D E"><path d="M40.445 42.578l2.832-2.836"/></g><g clip-path="url(#DH)" class="B C D E"><path d="M42.28 42.578l2.836-2.836"/></g><g clip-path="url(#DI)" class="B C D E"><path d="M44.12 42.578l2.836-2.836"/></g><g clip-path="url(#DJ)" class="B C D E"><path d="M45.96 42.578l2.832-2.836"/></g><g clip-path="url(#DK)" class="B C D E"><path d="M47.797 42.578l2.836-2.836"/></g><g clip-path="url(#DL)" class="B C D E"><path d="M49.637 42.578l2.836-2.836"/></g><g clip-path="url(#DM)" class="B C D E"><path d="M51.477 42.578l2.832-2.836"/></g><g clip-path="url(#DN)" class="B C D E"><path d="M53.313 42.578l2.836-2.836"/></g><g clip-path="url(#DO)" class="B C D E"><path d="M55.152 42.578l2.832-2.836"/></g><g clip-path="url(#DP)" class="B C D E"><path d="M56.988 42.578l2.836-2.836"/></g><g clip-path="url(#DQ)" class="B C D E"><path d="M58.828 42.578l2.836-2.836"/></g><g clip-path="url(#DR)" class="B C D E"><path d="M60.668 42.578l2.832-2.836"/></g><g clip-path="url(#DS)" class="B C D E"><path d="M62.504 42.578l2.836-2.836"/></g><g clip-path="url(#DT)" class="B C D E"><path d="M64.344 42.578l2.836-2.836"/></g><g clip-path="url(#DU)" class="B C D E"><path d="M22.063 40.738l2.832-2.832"/></g><g clip-path="url(#DV)" class="B C D E"><path d="M23.898 40.738l2.836-2.832"/></g><g clip-path="url(#DW)" class="B C D E"><path d="M25.738 40.738l2.832-2.832"/></g><g clip-path="url(#DX)" class="B C D E"><path d="M27.574 40.738l2.836-2.832"/></g><g clip-path="url(#DY)" class="B C D E"><path d="M29.414 40.738l2.836-2.832"/></g><g clip-path="url(#DZ)" class="B C D E"><path d="M31.254 40.738l2.832-2.832"/></g><g clip-path="url(#Da)" class="B C D E"><path d="M33.1 40.738l2.836-2.832"/></g><g clip-path="url(#Db)" class="B C D E"><path d="M34.93 40.738l2.836-2.832"/></g><g clip-path="url(#Dc)" class="B C D E"><path d="M36.77 40.738l2.832-2.832"/></g><g clip-path="url(#Dd)" class="B C D E"><path d="M38.605 40.738l2.836-2.832"/></g><g clip-path="url(#De)" class="B C D E"><path d="M40.445 40.738l2.832-2.832"/></g><g clip-path="url(#Df)" class="B C D E"><path d="M42.28 40.738l2.836-2.832"/></g><g clip-path="url(#Dg)" class="B C D E"><path d="M44.12 40.738l2.836-2.832"/></g><g clip-path="url(#Dh)" class="B C D E"><path d="M45.96 40.738l2.832-2.832"/></g><g clip-path="url(#Di)" class="B C D E"><path d="M47.797 40.738l2.836-2.832"/></g><g clip-path="url(#Dj)" class="B C D E"><path d="M49.637 40.738l2.836-2.832"/></g><g clip-path="url(#Dk)" class="B C D E"><path d="M51.477 40.738l2.832-2.832"/></g><g clip-path="url(#Dl)" class="B C D E"><path d="M53.313 40.738l2.836-2.832"/></g><g clip-path="url(#Dm)" class="B C D E"><path d="M55.152 40.738l2.832-2.832"/></g><g clip-path="url(#Dn)" class="B C D E"><path d="M56.988 40.738l2.836-2.832"/></g><g clip-path="url(#Do)" class="B C D E"><path d="M58.828 40.738l2.836-2.832"/></g><g clip-path="url(#Dp)" class="B C D E"><path d="M60.668 40.738l2.832-2.832"/></g><g clip-path="url(#Dq)" class="B C D E"><path d="M62.504 40.738l2.836-2.832"/></g><g clip-path="url(#Dr)" class="B C D E"><path d="M64.344 40.738l2.836-2.832"/></g><g clip-path="url(#Ds)" class="B C D E"><path d="M22.063 38.902l2.832-2.836"/></g><g clip-path="url(#Dt)" class="B C D E"><path d="M23.898 38.902l2.836-2.836"/></g><g clip-path="url(#Du)" class="B C D E"><path d="M25.738 38.902l2.832-2.836"/></g><g clip-path="url(#Dv)" class="B C D E"><path d="M27.574 38.902l2.836-2.836"/></g><g clip-path="url(#Dw)" class="B C D E"><path d="M29.414 38.902l2.836-2.836"/></g><g clip-path="url(#Dx)" class="B C D E"><path d="M31.254 38.902l2.832-2.836"/></g><g clip-path="url(#Dy)" class="B C D E"><path d="M33.1 38.902l2.836-2.836"/></g><g clip-path="url(#Dz)" class="B C D E"><path d="M34.93 38.902l2.836-2.836"/></g><g clip-path="url(#EA)" class="B C D E"><path d="M36.77 38.902l2.832-2.836"/></g><g clip-path="url(#EB)" class="B C D E"><path d="M38.605 38.902l2.836-2.836"/></g><g clip-path="url(#EC)" class="B C D E"><path d="M40.445 38.902l2.832-2.836"/></g><g clip-path="url(#ED)" class="B C D E"><path d="M42.28 38.902l2.836-2.836"/></g><g clip-path="url(#EE)" class="B C D E"><path d="M44.12 38.902l2.836-2.836"/></g><g clip-path="url(#EF)" class="B C D E"><path d="M45.96 38.902l2.832-2.836"/></g><g clip-path="url(#EG)" class="B C D E"><path d="M47.797 38.902l2.836-2.836"/></g><g clip-path="url(#EH)" class="B C D E"><path d="M49.637 38.902l2.836-2.836"/></g><g clip-path="url(#EI)" class="B C D E"><path d="M51.477 38.902l2.832-2.836"/></g><g clip-path="url(#EJ)" class="B C D E"><path d="M53.313 38.902l2.836-2.836"/></g><g clip-path="url(#EK)" class="B C D E"><path d="M55.152 38.902l2.832-2.836"/></g><g clip-path="url(#EL)" class="B C D E"><path d="M56.988 38.902l2.836-2.836"/></g><g clip-path="url(#EM)" class="B C D E"><path d="M58.828 38.902l2.836-2.836"/></g><g clip-path="url(#EN)" class="B C D E"><path d="M60.668 38.902l2.832-2.836"/></g><g clip-path="url(#EO)" class="B C D E"><path d="M62.504 38.902l2.836-2.836"/></g><g clip-path="url(#EP)" class="B C D E"><path d="M64.344 38.902l2.836-2.836"/></g><g clip-path="url(#EQ)" class="B C D E"><path d="M22.063 37.063l2.832-2.832"/></g><g clip-path="url(#ER)" class="B C D E"><path d="M23.898 37.063l2.836-2.832"/></g><g clip-path="url(#ES)" class="B C D E"><path d="M25.738 37.063l2.832-2.832"/></g><g clip-path="url(#ET)" class="B C D E"><path d="M27.574 37.063L30.4 34.23"/></g><g clip-path="url(#EU)" class="B C D E"><path d="M29.414 37.063l2.836-2.832"/></g><g clip-path="url(#EV)" class="B C D E"><path d="M31.254 37.063l2.832-2.832"/></g><g clip-path="url(#EW)" class="B C D E"><path d="M33.1 37.063l2.836-2.832"/></g><g clip-path="url(#EX)" class="B C D E"><path d="M34.93 37.063l2.836-2.832"/></g><g clip-path="url(#EY)" class="B C D E"><path d="M36.77 37.063l2.832-2.832"/></g><g clip-path="url(#EZ)" class="B C D E"><path d="M38.605 37.063l2.836-2.832"/></g><g clip-path="url(#Ea)" class="B C D E"><path d="M40.445 37.063l2.832-2.832"/></g><g clip-path="url(#Eb)" class="B C D E"><path d="M42.28 37.063l2.836-2.832"/></g><g clip-path="url(#Ec)" class="B C D E"><path d="M44.12 37.063l2.836-2.832"/></g><g clip-path="url(#Ed)" class="B C D E"><path d="M45.96 37.063l2.832-2.832"/></g><g clip-path="url(#Ee)" class="B C D E"><path d="M47.797 37.063l2.836-2.832"/></g><g clip-path="url(#Ef)" class="B C D E"><path d="M49.637 37.063l2.836-2.832"/></g><g clip-path="url(#Eg)" class="B C D E"><path d="M51.477 37.063l2.832-2.832"/></g><g clip-path="url(#Eh)" class="B C D E"><path d="M53.313 37.063l2.836-2.832"/></g><g clip-path="url(#Ei)" class="B C D E"><path d="M55.152 37.063l2.832-2.832"/></g><g clip-path="url(#Ej)" class="B C D E"><path d="M56.988 37.063l2.836-2.832"/></g><g clip-path="url(#Ek)" class="B C D E"><path d="M58.828 37.063l2.836-2.832"/></g><g clip-path="url(#El)" class="B C D E"><path d="M60.668 37.063L63.5 34.23"/></g><g clip-path="url(#Em)" class="B C D E"><path d="M62.504 37.063l2.836-2.832"/></g><g clip-path="url(#En)" class="B C D E"><path d="M64.344 37.063l2.836-2.832"/></g><g clip-path="url(#Eo)" class="B C D E"><path d="M22.063 35.227l2.832-2.836"/></g><g clip-path="url(#Ep)" class="B C D E"><path d="M23.898 35.227l2.836-2.836"/></g><g clip-path="url(#Eq)" class="B C D E"><path d="M25.738 35.227l2.832-2.836"/></g><g clip-path="url(#Er)" class="B C D E"><path d="M27.574 35.227L30.4 32.39"/></g><g clip-path="url(#Es)" class="B C D E"><path d="M29.414 35.227l2.836-2.836"/></g><g clip-path="url(#Et)" class="B C D E"><path d="M31.254 35.227l2.832-2.836"/></g><g clip-path="url(#Eu)" class="B C D E"><path d="M33.1 35.227l2.836-2.836"/></g><g clip-path="url(#Ev)" class="B C D E"><path d="M34.93 35.227l2.836-2.836"/></g><g clip-path="url(#Ew)" class="B C D E"><path d="M36.77 35.227l2.832-2.836"/></g><g clip-path="url(#Ex)" class="B C D E"><path d="M38.605 35.227l2.836-2.836"/></g><g clip-path="url(#Ey)" class="B C D E"><path d="M40.445 35.227l2.832-2.836"/></g><g clip-path="url(#Ez)" class="B C D E"><path d="M42.28 35.227l2.836-2.836"/></g><g clip-path="url(#FA)" class="B C D E"><path d="M44.12 35.227l2.836-2.836"/></g><g clip-path="url(#FB)" class="B C D E"><path d="M45.96 35.227l2.832-2.836"/></g><g clip-path="url(#FC)" class="B C D E"><path d="M47.797 35.227l2.836-2.836"/></g><g clip-path="url(#FD)" class="B C D E"><path d="M49.637 35.227l2.836-2.836"/></g><g clip-path="url(#FE)" class="B C D E"><path d="M51.477 35.227l2.832-2.836"/></g><g clip-path="url(#FF)" class="B C D E"><path d="M53.313 35.227l2.836-2.836"/></g><g clip-path="url(#FG)" class="B C D E"><path d="M55.152 35.227l2.832-2.836"/></g><g clip-path="url(#FH)" class="B C D E"><path d="M56.988 35.227l2.836-2.836"/></g><g clip-path="url(#FI)" class="B C D E"><path d="M58.828 35.227l2.836-2.836"/></g><g clip-path="url(#FJ)" class="B C D E"><path d="M60.668 35.227L63.5 32.39"/></g><g clip-path="url(#FK)" class="B C D E"><path d="M62.504 35.227l2.836-2.836"/></g><g clip-path="url(#FL)" class="B C D E"><path d="M64.344 35.227l2.836-2.836"/></g><g clip-path="url(#FM)" class="B C D E"><path d="M22.063 33.387l2.832-2.836"/></g><g clip-path="url(#FN)" class="B C D E"><path d="M23.898 33.387l2.836-2.836"/></g><g clip-path="url(#FO)" class="B C D E"><path d="M25.738 33.387l2.832-2.836"/></g><g clip-path="url(#FP)" class="B C D E"><path d="M27.574 33.387L30.4 30.55"/></g><g clip-path="url(#FQ)" class="B C D E"><path d="M29.414 33.387l2.836-2.836"/></g><g clip-path="url(#FR)" class="B C D E"><path d="M31.254 33.387l2.832-2.836"/></g><g clip-path="url(#FS)" class="B C D E"><path d="M33.1 33.387l2.836-2.836"/></g><g clip-path="url(#FT)" class="B C D E"><path d="M34.93 33.387l2.836-2.836"/></g><g clip-path="url(#FU)" class="B C D E"><path d="M36.77 33.387l2.832-2.836"/></g><g clip-path="url(#FV)" class="B C D E"><path d="M38.605 33.387l2.836-2.836"/></g><g clip-path="url(#FW)" class="B C D E"><path d="M40.445 33.387l2.832-2.836"/></g><g clip-path="url(#FX)" class="B C D E"><path d="M42.28 33.387l2.836-2.836"/></g><g clip-path="url(#FY)" class="B C D E"><path d="M44.12 33.387l2.836-2.836"/></g><g clip-path="url(#FZ)" class="B C D E"><path d="M45.96 33.387l2.832-2.836"/></g><g clip-path="url(#Fa)" class="B C D E"><path d="M47.797 33.387l2.836-2.836"/></g><g clip-path="url(#Fb)" class="B C D E"><path d="M49.637 33.387l2.836-2.836"/></g><g clip-path="url(#Fc)" class="B C D E"><path d="M51.477 33.387l2.832-2.836"/></g><g clip-path="url(#Fd)" class="B C D E"><path d="M53.313 33.387l2.836-2.836"/></g><g clip-path="url(#Fe)" class="B C D E"><path d="M55.152 33.387l2.832-2.836"/></g><g clip-path="url(#Ff)" class="B C D E"><path d="M56.988 33.387l2.836-2.836"/></g><g clip-path="url(#Fg)" class="B C D E"><path d="M58.828 33.387l2.836-2.836"/></g><g clip-path="url(#Fh)" class="B C D E"><path d="M60.668 33.387L63.5 30.55"/></g><g clip-path="url(#Fi)" class="B C D E"><path d="M62.504 33.387l2.836-2.836"/></g><g clip-path="url(#Fj)" class="B C D E"><path d="M64.344 33.387l2.836-2.836"/></g><g clip-path="url(#Fk)" class="B C D E"><path d="M22.063 31.547l2.832-2.832"/></g><g clip-path="url(#Fl)" class="B C D E"><path d="M23.898 31.547l2.836-2.832"/></g><g clip-path="url(#Fm)" class="B C D E"><path d="M25.738 31.547l2.832-2.832"/></g><g clip-path="url(#Fn)" class="B C D E"><path d="M27.574 31.547l2.836-2.832"/></g><g clip-path="url(#Fo)" class="B C D E"><path d="M29.414 31.547l2.836-2.832"/></g><g clip-path="url(#Fp)" class="B C D E"><path d="M31.254 31.547l2.832-2.832"/></g><g clip-path="url(#Fq)" class="B C D E"><path d="M33.1 31.547l2.836-2.832"/></g><g clip-path="url(#Fr)" class="B C D E"><path d="M34.93 31.547l2.836-2.832"/></g><g clip-path="url(#Fs)" class="B C D E"><path d="M36.77 31.547l2.832-2.832"/></g><g clip-path="url(#Ft)" class="B C D E"><path d="M38.605 31.547l2.836-2.832"/></g><g clip-path="url(#Fu)" class="B C D E"><path d="M40.445 31.547l2.832-2.832"/></g><g clip-path="url(#Fv)" class="B C D E"><path d="M42.28 31.547l2.836-2.832"/></g><g clip-path="url(#Fw)" class="B C D E"><path d="M44.12 31.547l2.836-2.832"/></g><g clip-path="url(#Fx)" class="B C D E"><path d="M45.96 31.547l2.832-2.832"/></g><g clip-path="url(#Fy)" class="B C D E"><path d="M47.797 31.547l2.836-2.832"/></g><g clip-path="url(#Fz)" class="B C D E"><path d="M49.637 31.547l2.836-2.832"/></g><g clip-path="url(#GA)" class="B C D E"><path d="M51.477 31.547l2.832-2.832"/></g><g clip-path="url(#GB)" class="B C D E"><path d="M53.313 31.547l2.836-2.832"/></g><g clip-path="url(#GC)" class="B C D E"><path d="M55.152 31.547l2.832-2.832"/></g><g clip-path="url(#GD)" class="B C D E"><path d="M56.988 31.547l2.836-2.832"/></g><g clip-path="url(#GE)" class="B C D E"><path d="M58.828 31.547l2.836-2.832"/></g><g clip-path="url(#GF)" class="B C D E"><path d="M60.668 31.547l2.832-2.832"/></g><g clip-path="url(#GG)" class="B C D E"><path d="M62.504 31.547l2.836-2.832"/></g><g clip-path="url(#GH)" class="B C D E"><path d="M64.344 31.547l2.836-2.832"/></g><g clip-path="url(#GI)" class="B C D E"><path d="M22.063 29.71l2.832-2.836"/></g><g clip-path="url(#GJ)" class="B C D E"><path d="M23.898 29.71l2.836-2.836"/></g><g clip-path="url(#GK)" class="B C D E"><path d="M25.738 29.71l2.832-2.836"/></g><g clip-path="url(#GL)" class="B C D E"><path d="M27.574 29.71l2.836-2.836"/></g><g clip-path="url(#GM)" class="B C D E"><path d="M29.414 29.71l2.836-2.836"/></g><g clip-path="url(#GN)" class="B C D E"><path d="M31.254 29.71l2.832-2.836"/></g><g clip-path="url(#GO)" class="B C D E"><path d="M33.1 29.71l2.836-2.836"/></g><g clip-path="url(#GP)" class="B C D E"><path d="M34.93 29.71l2.836-2.836"/></g><g clip-path="url(#GQ)" class="B C D E"><path d="M36.77 29.71l2.832-2.836"/></g><g clip-path="url(#GR)" class="B C D E"><path d="M38.605 29.71l2.836-2.836"/></g><g clip-path="url(#GS)" class="B C D E"><path d="M40.445 29.71l2.832-2.836"/></g><g clip-path="url(#GT)" class="B C D E"><path d="M42.28 29.71l2.836-2.836"/></g><g clip-path="url(#GU)" class="B C D E"><path d="M44.12 29.71l2.836-2.836"/></g><g clip-path="url(#GV)" class="B C D E"><path d="M45.96 29.71l2.832-2.836"/></g><g clip-path="url(#GW)" class="B C D E"><path d="M47.797 29.71l2.836-2.836"/></g><g clip-path="url(#GX)" class="B C D E"><path d="M49.637 29.71l2.836-2.836"/></g><g clip-path="url(#GY)" class="B C D E"><path d="M51.477 29.71l2.832-2.836"/></g><g clip-path="url(#GZ)" class="B C D E"><path d="M53.313 29.71l2.836-2.836"/></g><g clip-path="url(#Ga)" class="B C D E"><path d="M55.152 29.71l2.832-2.836"/></g><g clip-path="url(#Gb)" class="B C D E"><path d="M56.988 29.71l2.836-2.836"/></g><g clip-path="url(#Gc)" class="B C D E"><path d="M58.828 29.71l2.836-2.836"/></g><g clip-path="url(#Gd)" class="B C D E"><path d="M60.668 29.71l2.832-2.836"/></g><g clip-path="url(#Ge)" class="B C D E"><path d="M62.504 29.71l2.836-2.836"/></g><g clip-path="url(#Gf)" class="B C D E"><path d="M64.344 29.71l2.836-2.836"/></g><g clip-path="url(#Gg)" class="B C D E"><path d="M22.063 27.87l2.832-2.836"/></g><g clip-path="url(#Gh)" class="B C D E"><path d="M23.898 27.87l2.836-2.836"/></g><g clip-path="url(#Gi)" class="B C D E"><path d="M25.738 27.87l2.832-2.836"/></g><g clip-path="url(#Gj)" class="B C D E"><path d="M27.574 27.87l2.836-2.836"/></g><g clip-path="url(#Gk)" class="B C D E"><path d="M29.414 27.87l2.836-2.836"/></g><g clip-path="url(#Gl)" class="B C D E"><path d="M31.254 27.87l2.832-2.836"/></g><g clip-path="url(#Gm)" class="B C D E"><path d="M33.1 27.87l2.836-2.836"/></g><g clip-path="url(#Gn)" class="B C D E"><path d="M34.93 27.87l2.836-2.836"/></g><g clip-path="url(#Go)" class="B C D E"><path d="M36.77 27.87l2.832-2.836"/></g><g clip-path="url(#Gp)" class="B C D E"><path d="M38.605 27.87l2.836-2.836"/></g><g clip-path="url(#Gq)" class="B C D E"><path d="M40.445 27.87l2.832-2.836"/></g><g clip-path="url(#Gr)" class="B C D E"><path d="M42.28 27.87l2.836-2.836"/></g><g clip-path="url(#Gs)" class="B C D E"><path d="M44.12 27.87l2.836-2.836"/></g><g clip-path="url(#Gt)" class="B C D E"><path d="M45.96 27.87l2.832-2.836"/></g><g clip-path="url(#Gu)" class="B C D E"><path d="M47.797 27.87l2.836-2.836"/></g><g clip-path="url(#Gv)" class="B C D E"><path d="M49.637 27.87l2.836-2.836"/></g><g clip-path="url(#Gw)" class="B C D E"><path d="M51.477 27.87l2.832-2.836"/></g><g clip-path="url(#Gx)" class="B C D E"><path d="M53.313 27.87l2.836-2.836"/></g><g clip-path="url(#Gy)" class="B C D E"><path d="M55.152 27.87l2.832-2.836"/></g><g clip-path="url(#Gz)" class="B C D E"><path d="M56.988 27.87l2.836-2.836"/></g><g clip-path="url(#HA)" class="B C D E"><path d="M58.828 27.87l2.836-2.836"/></g><g clip-path="url(#HB)" class="B C D E"><path d="M60.668 27.87l2.832-2.836"/></g><g clip-path="url(#HC)" class="B C D E"><path d="M62.504 27.87l2.836-2.836"/></g><g clip-path="url(#HD)" class="B C D E"><path d="M64.344 27.87l2.836-2.836"/></g><path d="M35.504 6.824h5.668m-1.418 2.1v44.008" class="B C D I"/><g class="H B C I"><path d="M1.4.001A7.41 7.41 0 0 0-.001.552V-.55A7.41 7.41 0 0 0 1.39.001zm0 0" transform="matrix(0 -1 -1 0 39.75465 8.91319)"/><path d="M1.39-.001A7.41 7.41 0 0 0-.001.55V-.552a7.41 7.41 0 0 0 1.391.551zm0 0" transform="matrix(0 1 1 0 39.75465 52.92334)"/></g><path d="M42.87 32.902c0-1.723-1.395-3.117-3.117-3.117s-3.117 1.395-3.117 3.117 1.395 3.117 3.117 3.117 3.117-1.395 3.117-3.117zm0 0" class="B J K L"/><use xlink:href="#I" x="38.319" y="34.633" class="H"/><path d="M58.465 38.004a3.12 3.12 0 0 0-3.121-3.117 3.12 3.12 0 0 0-3.117 3.117 3.12 3.12 0 0 0 3.117 3.117 3.12 3.12 0 0 0 3.121-3.117zm0 0" class="B J K L"/><use xlink:href="#J" x="53.674" y="39.707" class="H"/><path d="M7.156 55.012v7.656m93.544-7.656v7.656M9.246 61.25H98.6" class="B C D I"/><use xlink:href="#HH" class="H"/><g clip-path="url(#HE)" class="B C D I"><use xlink:href="#HH"/></g><use xlink:href="#HI" class="H"/><g clip-path="url(#HF)" class="B C D I"><use xlink:href="#HI"/></g><g clip-path="url(#HG)" class="J"><path d="M56.656 57.86H51.2v6.78h5.457zm0 0"/></g><use xlink:href="#K" x="52.859" y="62.979" class="H"/><path d="M63.852 28.082h5.668m-1.418 2.1v22.75" class="B C D I"/><g class="H B C I"><path d="M1.388 0C1.216.043.47.285.001.55V-.55c.47.266 1.215.508 1.387.55zm0 0" transform="matrix(0 -1 -1 0 68.10145 30.1733)"/><path d="M1.39 0A7.41 7.41 0 0 0-.001.551V-.55A7.41 7.41 0 0 0 1.389 0zm0 0" transform="matrix(0 1 1 0 68.10145 52.92334)"/></g><path d="M71.184 38.816H65.02v5.465h6.164zm0 0" class="J"/><use xlink:href="#L" x="66.677" y="42.621" class="H"/></svg>