<svg xmlns="http://www.w3.org/2000/svg" xmlns:xlink="http://www.w3.org/1999/xlink" width="386.648" height="311.413" viewBox="0 0 289.986 233.56"><defs><symbol overflow="visible" id="a"><path d="M3.328-3.016c.063-.25.297-1.171.985-1.171.046 0 .296 0 .5.125a.578.578 0 00-.47.546c0 .157.11.344.376.344a.546.546 0 00.531-.578c0-.516-.578-.656-.922-.656-.578 0-.922.531-1.047.75-.25-.656-.781-.75-1.078-.75-1.031 0-1.61 1.281-1.61 1.531 0 .11.11.11.126.11.078 0 .11-.032.125-.11.344-1.063 1-1.313 1.344-1.313.187 0 .53.094.53.672 0 .313-.171.97-.53 2.375-.157.61-.516 1.032-.954 1.032-.062 0-.28 0-.5-.125.25-.063.47-.266.47-.547 0-.266-.22-.344-.36-.344-.313 0-.547.25-.547.578 0 .453.484.656.922.656.672 0 1.031-.703 1.047-.75.125.36.484.75 1.078.75 1.031 0 1.594-1.28 1.594-1.53 0-.11-.079-.11-.11-.11-.094 0-.11.047-.14.11-.329 1.077-1 1.312-1.313 1.312-.39 0-.547-.313-.547-.657 0-.218.047-.437.156-.875zm0 0"/></symbol><symbol overflow="visible" id="c"><path d="M4.844-3.797c.047-.14.047-.156.047-.234 0-.172-.141-.266-.297-.266a.455.455 0 00-.344.203c-.016.063-.11.36-.14.547-.079.25-.141.531-.204.797L3.453-.953c-.031.14-.469.844-1.125.844-.5 0-.61-.438-.61-.813 0-.453.173-1.078.5-1.953.157-.406.204-.516.204-.719 0-.437-.313-.812-.813-.812-.953 0-1.312 1.453-1.312 1.531 0 .11.094.11.11.11.109 0 .109-.032.156-.188.28-.938.671-1.235 1.015-1.235.078 0 .25 0 .25.313 0 .25-.11.516-.172.703-.406 1.063-.578 1.625-.578 2.094 0 .89.625 1.187 1.219 1.187.39 0 .719-.171 1-.453-.125.516-.25 1.016-.64 1.547-.266.328-.641.625-1.095.625-.14 0-.593-.031-.765-.422.156 0 .297 0 .422-.125a.493.493 0 00.203-.406c0-.313-.266-.344-.36-.344C.829.531.5.687.5 1.171c0 .5.438.876 1.063.876 1.015 0 2.046-.906 2.328-2.031zm0 0"/></symbol><symbol overflow="visible" id="d"><path d="M5.563-1.813c.14 0 .312 0 .312-.171 0-.188-.172-.188-.313-.188H1c-.125 0-.297 0-.297.188 0 .171.172.171.297.171zm0 0"/></symbol><symbol overflow="visible" id="e"><path d="M2.016-2.656c.625 0 1.03.453 1.03 1.297 0 1-.562 1.28-.983 1.28-.438 0-1.047-.155-1.329-.577.297 0 .5-.188.5-.438 0-.265-.187-.437-.453-.437-.203 0-.437.125-.437.453 0 .75.812 1.25 1.734 1.25 1.047 0 1.797-.734 1.797-1.531 0-.672-.531-1.266-1.344-1.454.625-.218 1.11-.75 1.11-1.39 0-.64-.72-1.094-1.547-1.094-.86 0-1.5.453-1.5 1.063 0 .296.187.421.406.421.25 0 .406-.171.406-.406 0-.297-.265-.406-.437-.406.344-.438.953-.469 1.094-.469.203 0 .812.063.812.89 0 .548-.234.891-.344 1.016-.234.25-.422.266-.906.297-.156 0-.219.016-.219.125 0 .11.078.11.219.11zm0 0"/></symbol><symbol overflow="visible" id="f"><path d="M2.25-1.625c.125-.125.453-.39.594-.5.484-.453.953-.89.953-1.61 0-.953-.797-1.562-1.781-1.562-.97 0-1.594.719-1.594 1.438 0 .39.312.437.422.437.172 0 .422-.11.422-.422 0-.406-.407-.406-.5-.406.234-.594.765-.781 1.156-.781.734 0 1.125.625 1.125 1.297 0 .828-.578 1.437-1.531 2.39l-1 1.047C.422-.219.422-.203.422 0h3.14l.235-1.422h-.25c-.016.156-.078.547-.172.703-.047.063-.656.063-.781.063H1.172zm0 0"/></symbol><symbol overflow="visible" id="g"><path d="M2.5-5.078c0-.219-.016-.219-.234-.219-.329.313-.75.5-1.5.5v.266c.218 0 .64 0 1.109-.203v4.078c0 .297-.031.39-.781.39H.812V0c.329-.031 1.016-.031 1.375-.031.36 0 1.047 0 1.376.031v-.266H3.28c-.75 0-.781-.093-.781-.39zm0 0"/></symbol><symbol overflow="visible" id="j"><path d="M3.89-2.547c0-.844-.078-1.36-.343-1.875-.344-.703-1-.875-1.438-.875-1 0-1.375.75-1.484.969C.344-3.75.328-2.953.328-2.547c0 .531.016 1.328.406 1.969.36.594.954.75 1.375.75.391 0 1.063-.125 1.47-.906.296-.579.312-1.297.312-1.813zM2.11-.062c-.266 0-.813-.126-.985-.954-.094-.453-.094-1.203-.094-1.625 0-.546 0-1.109.094-1.546.172-.813.781-.891.984-.891.266 0 .829.14.985.86.094.437.094 1.046.094 1.577 0 .47 0 1.188-.094 1.641-.172.828-.719.938-.985.938zm0 0"/></symbol><symbol overflow="visible" id="h"><path d="M2.547 2.5v-.406h-.969v-9.172h.969v-.406H1.172V2.5zm0 0"/></symbol><symbol overflow="visible" id="i"><path d="M1.578-7.484H.218v.406h.97v9.172h-.97V2.5h1.36zm0 0"/></symbol><clipPath id="b"><path d="M141 10h2v223.559h-2zm0 0"/></clipPath></defs><path d="M.352 119.82h279.046" fill="none" stroke-width=".709" stroke="#000" stroke-miterlimit="10"/><path d="M283.82 119.82c-1.308-.246-3.441-.984-4.914-1.843v3.687c1.473-.86 3.606-1.598 4.914-1.844"/><use xlink:href="#a" x="280.972" y="127.784"/><g clip-path="url(#b)"><path d="M142.086 233.207V10.855" fill="none" stroke-width=".709" stroke="#000" stroke-miterlimit="10"/></g><path d="M142.086 6.434c-.246 1.308-.98 3.441-1.844 4.914h3.688c-.86-1.473-1.598-3.606-1.844-4.914"/><use xlink:href="#c" x="145.761" y="7.61"/><path d="M57.047 204.86v-85.04" fill="none" stroke-width=".399" stroke="#000" stroke-dasharray="2.98883,2.98883" stroke-miterlimit="10"/><use xlink:href="#d" x="51.637" y="115.47"/><use xlink:href="#e" x="58.223" y="115.47"/><path d="M85.395 176.512V119.82" fill="none" stroke-width=".399" stroke="#000" stroke-dasharray="2.98883,2.98883" stroke-miterlimit="10"/><use xlink:href="#d" x="79.983" y="115.47"/><use xlink:href="#f" x="86.57" y="115.47"/><path d="M113.738 148.168V119.82" fill="none" stroke-width=".399" stroke="#000" stroke-dasharray="2.98883,2.98883" stroke-miterlimit="10"/><use xlink:href="#d" x="108.33" y="115.47"/><use xlink:href="#g" x="114.916" y="115.47"/><path d="M170.434 91.473v28.347" fill="none" stroke-width=".399" stroke="#000" stroke-dasharray="2.98883,2.98883" stroke-miterlimit="10"/><use xlink:href="#g" x="168.316" y="128.476"/><path d="M198.781 63.125v56.695" fill="none" stroke-width=".399" stroke="#000" stroke-dasharray="2.98883,2.98883" stroke-miterlimit="10"/><use xlink:href="#f" x="196.662" y="128.476"/><path d="M227.129 34.781v85.04" fill="none" stroke-width=".399" stroke="#000" stroke-dasharray="2.98883,2.98883" stroke-miterlimit="10"/><use xlink:href="#e" x="225.009" y="128.476"/><path d="M57.047 204.86h85.039" fill="none" stroke-width=".399" stroke="#000" stroke-dasharray="2.98883,2.98883" stroke-miterlimit="10"/><use xlink:href="#d" x="145.606" y="207.012"/><use xlink:href="#e" x="152.193" y="207.012"/><path d="M85.395 176.512h56.69" fill="none" stroke-width=".399" stroke="#000" stroke-dasharray="2.98883,2.98883" stroke-miterlimit="10"/><use xlink:href="#d" x="145.606" y="178.666"/><use xlink:href="#f" x="152.193" y="178.666"/><path d="M113.738 148.168h28.348" fill="none" stroke-width=".399" stroke="#000" stroke-dasharray="2.98883,2.98883" stroke-miterlimit="10"/><use xlink:href="#d" x="145.606" y="150.319"/><use xlink:href="#g" x="152.193" y="150.319"/><path d="M170.434 91.473h-28.348" fill="none" stroke-width=".399" stroke="#000" stroke-dasharray="2.98883,2.98883" stroke-miterlimit="10"/><use xlink:href="#g" x="134.333" y="94.042"/><path d="M198.781 63.125h-56.695" fill="none" stroke-width=".399" stroke="#000" stroke-dasharray="2.98883,2.98883" stroke-miterlimit="10"/><use xlink:href="#f" x="134.333" y="65.695"/><path d="M227.129 34.781h-85.043" fill="none" stroke-width=".399" stroke="#000" stroke-dasharray="2.98883,2.98883" stroke-miterlimit="10"/><use xlink:href="#e" x="134.333" y="37.349"/><path d="M59.883 204.86a2.832 2.832 0 00-2.836-2.833 2.832 2.832 0 00-2.836 2.832 2.836 2.836 0 105.672 0zm0 0" fill="#00f" stroke-width=".399" stroke="#00f" stroke-miterlimit="10"/><path d="M57.047 204.86h28.348" fill="none" stroke-width="1.134" stroke="#00f" stroke-miterlimit="10"/><path d="M88.227 176.512a2.834 2.834 0 10-5.669.004 2.834 2.834 0 005.669-.004zm0 0" fill="#00f" stroke-width=".399" stroke="#00f" stroke-miterlimit="10"/><path d="M85.395 176.512h28.343" fill="none" stroke-width="1.134" stroke="#00f" stroke-miterlimit="10"/><path d="M116.574 148.168a2.835 2.835 0 10-2.836 2.832 2.835 2.835 0 002.836-2.832zm0 0" fill="#00f" stroke-width=".399" stroke="#00f" stroke-miterlimit="10"/><path d="M113.738 148.168h28.348" fill="none" stroke-width="1.134" stroke="#00f" stroke-miterlimit="10"/><path d="M144.922 119.82a2.836 2.836 0 00-2.836-2.836 2.832 2.832 0 00-2.832 2.836 2.832 2.832 0 002.832 2.836 2.836 2.836 0 002.836-2.836zm0 0" fill="#00f" stroke-width=".399" stroke="#00f" stroke-miterlimit="10"/><path d="M142.086 119.82h28.348" fill="none" stroke-width="1.134" stroke="#00f" stroke-miterlimit="10"/><path d="M173.27 91.473a2.836 2.836 0 10-5.672 0 2.836 2.836 0 005.672 0zm0 0" fill="#00f" stroke-width=".399" stroke="#00f" stroke-miterlimit="10"/><path d="M170.434 91.473h28.347" fill="none" stroke-width="1.134" stroke="#00f" stroke-miterlimit="10"/><path d="M201.617 63.125a2.835 2.835 0 00-2.836-2.832 2.835 2.835 0 102.836 2.832zm0 0" fill="#00f" stroke-width=".399" stroke="#00f" stroke-miterlimit="10"/><path d="M198.781 63.125h28.348" fill="none" stroke-width="1.134" stroke="#00f" stroke-miterlimit="10"/><path d="M229.96 34.781a2.835 2.835 0 10-5.667 0 2.835 2.835 0 005.668 0zm0 0" fill="#00f" stroke-width=".399" stroke="#00f" stroke-miterlimit="10"/><path d="M227.129 34.781h28.344" fill="none" stroke-width="1.134" stroke="#00f" stroke-miterlimit="10"/><use xlink:href="#h" x="235.685" y="28.403" fill="#00f"/><use xlink:href="#a" x="238.452" y="28.403" fill="#00f"/><use xlink:href="#i" x="244.146" y="28.403" fill="#00f"/><path d="M144.922 119.82a2.836 2.836 0 00-2.836-2.836 2.832 2.832 0 00-2.832 2.836 2.832 2.832 0 002.832 2.836 2.836 2.836 0 002.836-2.836zm0 0" fill="#00f" stroke-width=".399" stroke="#00f" stroke-miterlimit="10"/><use xlink:href="#j" x="145.606" y="116.3"/></svg>