<svg xmlns="http://www.w3.org/2000/svg" xmlns:xlink="http://www.w3.org/1999/xlink" width="108.616" height="95.007" viewBox="0 0 81.462 71.255" xmlns:v="https://vecta.io/nano"><style><![CDATA[.B{overflow:visible}.C{stroke:none}.D{stroke-width:.399}.E{stroke-miterlimit:10}.F{stroke:rgb(0%,0%,0%)}.G{fill:rgb(0%,0%,0%)}]]></style><defs><symbol id="A" class="B"><path d="M1.672-1.5c.016-.14.14-.594.484-.594.03 0 .14 0 .25.063-.14.03-.234.156-.234.266 0 .078.047.188.188.188.11 0 .266-.094.266-.297 0-.266-.297-.328-.47-.328-.28 0-.453.266-.516.375-.125-.328-.39-.375-.547-.375-.516 0-.797.64-.797.766 0 .047.047.047.063.047.047 0 .047 0 .063-.047.172-.53.5-.656.672-.656.094 0 .266.047.266.328 0 .156-.078.5-.266 1.188-.078.313-.25.516-.47.516-.03 0-.156 0-.25-.062a.27.27 0 0 0 .234-.266C.61-.516.5-.562.422-.562a.28.28 0 0 0-.281.281c0 .234.25.344.47.344.328 0 .516-.36.53-.39a.55.55 0 0 0 .531.391c.516 0 .797-.656.797-.78 0-.047-.047-.047-.062-.047-.03 0-.047.016-.062.063-.156.53-.5.64-.656.64-.203 0-.28-.156-.28-.328 0-.11.03-.22.094-.437zm0 0" class="C"/></symbol><symbol id="B" class="B"><path d="M1.875-3.062c.03-.125.03-.172.14-.187h.297c.36 0 .906 0 .906.5 0 .156-.078.5-.266.703-.14.125-.406.28-.844.28h-.562zm.72 1.375c.5-.11 1.094-.47 1.094-.97 0-.422-.453-.75-1.11-.75H1.156c-.094 0-.14 0-.14.11 0 .047.047.047.14.047.016 0 .11 0 .188.016.094 0 .14.016.14.078 0 .016-.016.03-.03.094L.797-.39C.75-.187.734-.156.344-.156c-.094 0-.14 0-.14.094C.203 0 .266 0 .28 0l.625-.016L1.53 0c.047 0 .11 0 .11-.094 0-.062-.047-.062-.14-.062-.187 0-.328 0-.328-.094 0-.03.016-.047.016-.078l.328-1.328h.594c.453 0 .547.28.547.453 0 .078-.047.234-.078.344-.03.14-.078.328-.078.438 0 .53.594.53.672.53.422 0 .594-.5.594-.578 0-.047-.062-.047-.062-.047-.047 0-.047.03-.062.063-.125.375-.344.453-.453.453-.172 0-.203-.11-.203-.297 0-.156.03-.422.047-.578.016-.062.03-.156.03-.234 0-.375-.344-.53-.47-.578zm0 0" class="C"/></symbol><symbol id="C" class="B"><path d="M3.688-2.172c0-.797-.53-1.344-1.266-1.344C1.344-3.516.25-2.375.25-1.22.25-.39.797.11 1.516.11c1.063 0 2.172-1.094 2.172-2.28zM1.547-.016c-.484 0-.844-.406-.844-1.062 0-.22.078-.953.453-1.53.344-.516.844-.78 1.234-.78.406 0 .86.28.86 1.016 0 .36-.14 1.14-.64 1.75-.234.313-.64.61-1.062.61zm0 0" class="C"/></symbol><symbol id="D" class="B"><path d="M.89-.578C.688-.234.5-.172.28-.156c-.062 0-.11 0-.11.094 0 .03.03.063.063.063l.438-.016.5.016c.03 0 .094 0 .094-.094 0-.062-.047-.062-.078-.062C1.063-.172.953-.203.953-.328c0-.062.03-.11.063-.187l.375-.64h1.25l.078.844c0 .14-.25.156-.344.156-.078 0-.125 0-.125.094 0 .063.063.063.063.063l.625-.016L3.5 0c.03 0 .094 0 .094-.094 0-.062-.047-.062-.11-.062-.312 0-.312-.03-.328-.172l-.312-3.125c0-.094 0-.11-.094-.11-.078 0-.094.03-.125.078zm.594-.734l.984-1.64.156 1.64zm0 0" class="C"/></symbol><symbol id="E" class="B"><path d="M.797-.39C.75-.187.734-.156.344-.156c-.078 0-.14 0-.14.094C.203 0 .25 0 .344 0h1.78C2.906 0 3.5-.594 3.5-1.078c0-.36-.297-.64-.78-.703.53-.094 1.047-.47 1.047-.937 0-.36-.328-.687-.922-.687H1.172c-.094 0-.156 0-.156.11 0 .047.047.047.14.047.016 0 .11 0 .188.016.094 0 .14.016.14.078 0 .016 0 .03-.016.094zm.75-1.437l.313-1.234c.047-.172.047-.187.266-.187h.64c.438 0 .547.297.547.516 0 .438-.422.906-1.03.906zm-.22 1.672h-.11c-.047-.016-.062-.016-.062-.047 0-.016 0-.03.016-.125l.344-1.39h.953c.47 0 .563.375.563.594 0 .484-.437.97-1.03.97zm0 0" class="C"/></symbol><symbol id="F" class="B"><path d="M3.797-3.016c.047-.187.063-.234.422-.234.125 0 .172 0 .172-.094 0-.062-.047-.062-.062-.062l-.64.016c-.156 0-.5-.016-.64-.016-.047 0-.094 0-.094.11 0 .047.03.047.125.047.016 0 .11 0 .203.016.078 0 .125.016.125.078 0 .016 0 .03-.016.094l-.297 1.22h-1.53l.297-1.172c.047-.187.063-.234.422-.234.125 0 .172 0 .172-.094 0-.062-.062-.062-.078-.062l-.625.016c-.156 0-.5-.016-.656-.016-.03 0-.094 0-.094.11 0 .047.047.047.14.047.016 0 .11 0 .188.016.094 0 .14.016.14.078 0 .016 0 .03-.016.094L.78-.39C.734-.187.72-.156.328-.156c-.094 0-.14 0-.14.094C.188 0 .25 0 .266 0L.89-.016h.328L1.547 0c.03 0 .094 0 .094-.094 0-.062-.047-.062-.14-.062-.187 0-.328 0-.328-.094 0-.03.016-.047.016-.078l.344-1.36h1.516L2.703-.312c-.047.156-.14.156-.453.156-.078 0-.11 0-.11.094 0 .063.047.063.063.063l.64-.016h.313L3.484 0c.03 0 .094 0 .094-.094 0-.062-.047-.062-.14-.062-.187 0-.328 0-.328-.094 0-.03.016-.047.016-.078zm0 0" class="C"/></symbol><symbol id="G" class="B"><path d="M1.03-.97c.11.016.53.094.53.453 0 .266-.187.453-.578.453-.406 0-.594-.28-.687-.703C.28-.828.28-.844.234-.844c-.062 0-.062.03-.062.125v.656c0 .078 0 .125.047.125.03 0 .03-.016.125-.11.016-.016.016-.016.094-.11.22.203.453.22.547.22.578 0 .813-.344.813-.703 0-.266-.156-.406-.22-.47-.156-.156-.36-.203-.562-.234-.28-.062-.61-.125-.61-.422 0-.172.125-.375.563-.375.547 0 .563.453.578.61 0 .047.047.047.063.047.063 0 .063-.03.063-.125v-.5c0-.094 0-.125-.062-.125-.016 0-.03 0-.094.063l-.078.078c-.203-.14-.406-.14-.47-.14-.61 0-.797.328-.797.61a.55.55 0 0 0 .203.422c.156.14.297.172.656.234zm0 0" class="C"/></symbol><symbol id="H" class="B"><path d="M.875-2.203l-.687.063V-2c.328 0 .36.03.36.28v1.344c0 .22-.047.22-.375.22V0L.72-.016 1.234 0v-.156c-.328 0-.36-.016-.36-.22zm.03-.875c0-.156-.125-.25-.266-.25-.156 0-.266.125-.266.25 0 .14.11.266.266.266.14 0 .266-.094.266-.266zm0 0" class="C"/></symbol><symbol id="I" class="B"><path d="M.547-1.72v1.344c0 .22-.047.22-.39.22V0L.72-.016 1.28 0v-.156c-.328 0-.39 0-.39-.22v-.922c0-.516.36-.797.672-.797s.375.266.375.547v1.172c0 .22-.062.22-.39.22V0l.563-.016.563.016v-.156c-.266 0-.39 0-.39-.14v-.953c0-.437 0-.594-.156-.766-.078-.094-.234-.187-.53-.187-.36 0-.594.22-.734.516v-.516l-.703.063V-2c.36 0 .39.047.39.28zm0 0" class="C"/></symbol><clipPath id="J"><path d="M12 49h9v10h-9zm0 0"/></clipPath><clipPath id="K"><path d="M12.34 58.453h56.69l-16.605-40.1"/></clipPath><clipPath id="L"><path d="M12 44h15v15H12zm0 0"/></clipPath><clipPath id="M"><path d="M12.34 58.453h56.69l-16.605-40.1"/></clipPath><clipPath id="N"><path d="M22 52h4v3h-4zm0 0"/></clipPath><clipPath id="O"><path d="M12.34 58.453h56.69l-16.605-40.1"/></clipPath><path id="P" d="M20.844 58.453a8.51 8.51 0 0 0-8.504-8.504c-4.7 0-8.504 3.81-8.504 8.504s3.805 8.504 8.504 8.504a8.51 8.51 0 0 0 8.504-8.504zm0 0"/></defs><path d="M52.426 18.363l-.734-.72-.75-.71-.762-.69-.773-.684-.785-.664-.797-.652-.812-.64-.82-.62-.832-.61-.844-.6-.852-.578-.863-.562-.875-.547-.887-.527-.89-.516-.902-.496-.914-.48-.918-.465-.93-.45-.937-.43-.945-.414-.95-.395-.96-.383-.96-.36" fill="none" class="D E F"/><g clip-path="url(#J)"><g clip-path="url(#K)"><use xlink:href="#P" fill="rgb(79.998779%,79.998779%,79.998779%)"/></g></g><g clip-path="url(#L)" class="D E F"><g clip-path="url(#M)"><use xlink:href="#P" fill="none"/></g></g><g clip-path="url(#N)" class="G"><g clip-path="url(#O)"><use xlink:href="#A" x="22.743" y="54.747"/></g></g><path d="M52.426 18.363v40.1" fill="none" stroke="rgb(0%,62.353516%,95.684814%)" class="D E"/><g fill="rgb(0%,62.353516%,95.684814%)"><use xlink:href="#B" x="36.223" y="43.573"/><use xlink:href="#G" x="40.874" y="43.573"/><use xlink:href="#H" x="42.839" y="43.573"/><use xlink:href="#I" x="44.222" y="43.573"/><use xlink:href="#A" x="47.821" y="43.573"/></g><g fill="none" class="D E"><path d="M69.03 58.453L69 56.598l-.1-1.852-.152-1.848-.21-1.844-.273-1.836-.332-1.824-.39-1.812-.45-1.8-.512-1.785-.566-1.766-.625-1.746-.684-1.727-.738-1.703-.793-1.676-.848-1.648-.898-1.625-.957-1.6-1.004-1.56-1.06-1.523-1.102-1.492-1.156-1.453-1.2-1.414-1.246-1.375-1.29-1.336" stroke="rgb(25.097656%,66.273499%,25.097656%)"/><path d="M12.34 58.453l40.086-40.1 16.605 40.1zm0 0" class="F"/></g><g class="G"><use xlink:href="#B" x="26.803" y="36.649"/><use xlink:href="#C" x="6.642" y="60.155"/><use xlink:href="#D" x="54.187" y="16.605"/><use xlink:href="#E" x="70.792" y="60.155"/><use xlink:href="#F" x="50.155" y="64.613"/></g><g fill="rgb(25.097656%,66.273499%,25.097656%)"><use xlink:href="#B" x="66.488" y="34.644"/><use xlink:href="#A" x="70.31" y="34.644"/></g></svg>