<svg xmlns="http://www.w3.org/2000/svg" xmlns:xlink="http://www.w3.org/1999/xlink" width="259.557" height="215.721" viewBox="0 0 194.668 161.791" xmlns:v="https://vecta.io/nano"><style><![CDATA[.B{overflow:visible}.C{stroke:none}.D{stroke-miterlimit:10}.E{stroke-width:.399}.F{fill:rgb(0%,0%,0%)}.G{stroke:rgb(0%,0%,0%)}.H{stroke:rgb(50%,50%,50%)}.I{stroke-dasharray:2.98883,2.98883}.J{stroke:rgb(0%,62.353516%,95.684814%)}]]></style><defs><symbol id="A" class="B"><path d="M2.172-2.53H3c-.11.422-.266 1.047-.266 1.61 0 .28.047.47.078.61.11.36.203.375.313.375.172 0 .328-.14.328-.312 0-.047-.016-.078-.047-.14-.14-.266-.266-.656-.266-1.234 0-.125 0-.406.094-.906h.875c.125 0 .188 0 .266-.047a.31.31 0 0 0 .109-.219C4.484-3 4.313-3 4.188-3H1.563c-.28 0-.484.063-.797.36-.187.156-.453.53-.453.594 0 .078.094.078.125.078.078 0 .078-.016.125-.078.344-.484.78-.484.938-.484h.422c-.22.766-.594 1.594-.797 2.016-.047.078-.11.234-.14.25 0 .03-.016.063-.016.11 0 .11.078.22.25.22.266 0 .344-.312.516-.937zm0 0" class="C"/></symbol><symbol id="B" class="B"><path d="M3.516-1.266H3.28c-.016.156-.094.563-.187.625-.047.047-.578.047-.687.047h-1.28l1.39-1.172c.516-.406 1-.844 1-1.5 0-.844-.734-1.36-1.625-1.36-.86 0-1.453.61-1.453 1.25 0 .344.297.39.375.39.156 0 .36-.125.36-.375 0-.125-.047-.375-.406-.375.22-.484.688-.64 1.016-.64.703 0 1.063.547 1.063 1.11 0 .61-.437 1.078-.656 1.328L.516-.266C.438-.203.438-.187.438 0h2.875zm0 0" class="C"/></symbol><symbol id="C" class="B"><path d="M1.266-.766l1.063-1.03c1.547-1.375 2.14-1.906 2.14-2.906 0-1.14-.89-1.937-2.11-1.937C1.234-6.64.5-5.72.5-4.828c0 .547.5.547.53.547.172 0 .516-.11.516-.53a.51.51 0 0 0-.531-.516c-.078 0-.094 0-.125.016.22-.656.766-1.016 1.344-1.016.906 0 1.328.813 1.328 1.625 0 .797-.484 1.578-1.047 2.203L.61-.375C.5-.266.5-.234.5 0h3.703l.266-1.734h-.234C4.172-1.437 4.11-1 4-.844c-.062.078-.72.078-.937.078zm0 0" class="C"/></symbol><symbol id="D" class="B"><path d="M2.938-1.64v.86c0 .36-.03.47-.766.47H1.97V0c.406-.03.922-.03 1.344-.03l1.36.03v-.312h-.22c-.734 0-.75-.11-.75-.47v-.86h.984v-.312h-.984v-4.53c0-.203 0-.266-.172-.266-.078 0-.11 0-.187.125L.28-1.953v.313zm.047-.312H.563l2.422-3.72zm0 0" class="C"/></symbol><symbol id="E" class="B"><path d="M3.297 2.39c0-.03 0-.047-.172-.22C1.89.922 1.563-.97 1.563-2.5c0-1.734.375-3.47 1.61-4.703.125-.125.125-.14.125-.172 0-.078-.03-.11-.094-.11-.11 0-1 .688-1.594 1.953C1.11-4.437.984-3.328.984-2.5c0 .78.11 1.984.656 3.125C2.25 1.844 3.094 2.5 3.203 2.5c.063 0 .094-.03.094-.11zm0 0" class="C"/></symbol><symbol id="F" class="B"><path d="M2.875-2.5c0-.766-.11-1.97-.656-3.11C1.625-6.828.766-7.484.672-7.484c-.062 0-.11.047-.11.11 0 .03 0 .047.188.234.984.984 1.547 2.563 1.547 4.64 0 1.72-.36 3.47-1.594 4.72-.14.125-.14.14-.14.172 0 .063.047.11.11.11.094 0 1-.687 1.578-1.953.516-1.094.625-2.203.625-3.047zm0 0" class="C"/></symbol><symbol id="G" class="B"><path d="M3.328-3.016c.063-.25.297-1.172.984-1.172.047 0 .297 0 .5.125-.28.063-.47.297-.47.547 0 .156.11.344.375.344.22 0 .53-.172.53-.578 0-.516-.578-.656-.922-.656-.578 0-.922.53-1.047.75a1.09 1.09 0 0 0-1.078-.75c-1.03 0-1.61 1.28-1.61 1.53 0 .11.11.11.125.11.078 0 .11-.03.125-.11.344-1.062 1-1.312 1.344-1.312.188 0 .53.094.53.672 0 .313-.172.97-.53 2.375-.156.61-.516 1.03-.953 1.03-.062 0-.28 0-.5-.125.25-.062.47-.266.47-.547 0-.266-.22-.344-.36-.344-.312 0-.547.25-.547.578 0 .453.484.656.922.656.672 0 1.03-.703 1.047-.75a1.12 1.12 0 0 0 1.078.75c1.03 0 1.594-1.28 1.594-1.53 0-.11-.078-.11-.11-.11-.094 0-.11.047-.14.11C4.36-.344 3.688-.11 3.375-.11c-.39 0-.547-.312-.547-.656 0-.22.047-.437.156-.875zm0 0" class="C"/></symbol><symbol id="H" class="B"><path d="M6.438-6.922a.12.12 0 0 0-.125-.109c-.047 0-.047.016-.172.156l-.484.563c-.25-.47-.766-.72-1.422-.72-1.266 0-2.453 1.156-2.453 2.36a1.4 1.4 0 0 0 1.031 1.406l1.063.28c.375.094.922.25.922 1.063 0 .89-.812 1.828-1.797 1.828-.64 0-1.75-.22-1.75-1.453 0-.234.063-.484.063-.53.016-.047.016-.062.016-.078 0-.094-.062-.11-.11-.11s-.078.016-.11.047S.516.094.516.125c0 .047.047.094.11.094C.672.22.688.203.813.063L1.297-.5c.422.578 1.11.72 1.688.72 1.36 0 2.53-1.328 2.53-2.562 0-.687-.344-1.03-.484-1.172-.234-.22-.39-.266-1.266-.484l-.672-.187c-.266-.094-.61-.375-.61-.906 0-.812.797-1.656 1.75-1.656.813 0 1.422.438 1.422 1.547 0 .313-.03.5-.03.563 0 0 0 .094.11.094s.125-.03.156-.203zm0 0" class="C"/></symbol><clipPath id="I"><path d="M191 101h3.668v4H191zm0 0"/></clipPath><clipPath id="J"><path d="M35 1h2v160.79h-2zm0 0"/></clipPath><clipPath id="K"><path d="M.2 15h194.273v146.594H.2zm0 0"/></clipPath></defs><g fill="none" class="D"><path d="M108.13 105.406v-4.25M34.05 20.813h4.25" stroke-width=".199" class="H"/><path d="M.2 103.28h192.28" class="E G"/></g><g clip-path="url(#I)" class="F"><path d="M194.473 103.28l-3.187-1.594 1.195 1.594-1.195 1.594"/></g><g clip-path="url(#J)" class="D E G"><path d="M36.176 161.594V2.19" fill="none"/></g><g class="F"><path d="M36.176.2l-1.594 3.188 1.594-1.195 1.594 1.195"/><use xlink:href="#A" x="105.672" y="111.93"/></g><path d="M105.672 113.363h4.9" fill="none" stroke-width=".398" class="D G"/><g class="F"><use xlink:href="#B" x="106.141" y="119.288"/><use xlink:href="#C" x="20.566" y="24.026"/><use xlink:href="#D" x="25.547" y="24.026"/></g><g fill="none" class="D"><path d="M36.176 20.813h71.953m.001 82.467V20.8" class="E H I"/><path d="M36.176 103.28l2.996-5.395 3-5.367 2.996-5.324 3-5.258 2.996-5.164 3-5.05 2.996-4.914 3-4.758 2.996-4.582 3-4.387 2.996-4.176 3-3.937 2.996-3.687 3-3.422 2.996-3.145 3-2.852 2.996-2.543 3-2.223 2.996-1.906 3-1.566 2.996-1.223 3-.88 2.996-.53 3-.176" stroke-width=".797" class="J"/></g><g clip-path="url(#K)" class="D E I J"><path d="M.2 161.594l8.094-11.16 8.094-12.63 8.098-13.703 8.094-14.352 8.094-14.55 8.094-14.3 8.098-13.605 8.094-12.484 8.094-10.973 8.094-9.12 8.098-6.984 8.094-4.633 8.094-2.137 8.094.426 8.094 2.98 8.098 5.438 8.094 7.727 8.094 9.773 8.094 11.52 8.098 12.898 8.094 13.887 8.094 14.434 8.094 14.535 8.098 14.184" fill="none"/></g><g class="F"><use xlink:href="#G" x="185.255" y="99.762"/><use xlink:href="#H" x="39.695" y="11.191"/><use xlink:href="#E" x="46.378" y="11.191"/><use xlink:href="#G" x="50.252" y="11.191"/><use xlink:href="#F" x="55.946" y="11.191"/></g></svg>