<svg xmlns="http://www.w3.org/2000/svg" xmlns:xlink="http://www.w3.org/1999/xlink" width="259.561" height="241.228" viewBox="0 0 194.671 180.921" xmlns:v="https://vecta.io/nano"><style><![CDATA[.B{overflow:visible}.C{stroke:none}.D{stroke-miterlimit:10}.E{fill:none}.F{stroke-width:.399}.G{fill:rgb(0%,0%,0%)}.H{stroke:rgb(50%,50%,50%)}.I{stroke:rgb(0%,0%,0%)}.J{stroke-dasharray:2.98883,2.98883}.K{stroke:rgb(0%,62.353516%,95.684814%)}]]></style><defs><symbol id="A" class="B"><path d="M2.172-2.53H3c-.11.422-.266 1.047-.266 1.61 0 .28.047.47.078.61.11.36.203.375.313.375.172 0 .328-.14.328-.312 0-.047-.016-.078-.047-.14-.14-.266-.266-.656-.266-1.234 0-.125 0-.406.094-.906h.875c.125 0 .188 0 .266-.047a.31.31 0 0 0 .109-.219C4.484-3 4.313-3 4.188-3H1.563c-.28 0-.484.063-.797.36-.187.156-.453.53-.453.594 0 .078.094.078.125.078.078 0 .078-.016.125-.078.344-.484.78-.484.938-.484h.422c-.22.766-.594 1.594-.797 2.016-.047.078-.11.234-.14.25 0 .03-.016.063-.016.11 0 .11.078.22.25.22.266 0 .344-.312.516-.937zm0 0" class="C"/></symbol><symbol id="B" class="B"><path d="M3.516-1.266H3.28c-.016.156-.094.563-.187.625-.047.047-.578.047-.687.047h-1.28l1.39-1.172c.516-.406 1-.844 1-1.5 0-.844-.734-1.36-1.625-1.36-.86 0-1.453.61-1.453 1.25 0 .344.297.39.375.39.156 0 .36-.125.36-.375 0-.125-.047-.375-.406-.375.22-.484.688-.64 1.016-.64.703 0 1.063.547 1.063 1.11 0 .61-.437 1.078-.656 1.328L.516-.266C.438-.203.438-.187.438 0h2.875zm0 0" class="C"/></symbol><symbol id="C" class="B"><path d="M1.266-.766l1.063-1.03c1.547-1.375 2.14-1.906 2.14-2.906 0-1.14-.89-1.937-2.11-1.937C1.234-6.64.5-5.72.5-4.828c0 .547.5.547.53.547.172 0 .516-.11.516-.53a.51.51 0 0 0-.531-.516c-.078 0-.094 0-.125.016.22-.656.766-1.016 1.344-1.016.906 0 1.328.813 1.328 1.625 0 .797-.484 1.578-1.047 2.203L.61-.375C.5-.266.5-.234.5 0h3.703l.266-1.734h-.234C4.172-1.437 4.11-1 4-.844c-.062.078-.72.078-.937.078zm0 0" class="C"/></symbol><symbol id="D" class="B"><path d="M2.938-6.375c0-.25 0-.266-.234-.266C2.078-6 1.203-6 .89-6v.313c.203 0 .78 0 1.297-.266V-.78c0 .36-.03.47-.922.47H.953V0c.344-.03 1.203-.03 1.61-.03l1.61.03v-.312H3.86c-.906 0-.922-.11-.922-.47zm0 0" class="C"/></symbol><symbol id="E" class="B"><path d="M4.578-3.187c0-.797-.047-1.594-.39-2.328-.453-.97-1.28-1.125-1.687-1.125-.61 0-1.328.266-1.75 1.188-.312.688-.36 1.47-.36 2.266 0 .75.03 1.64.453 2.406a1.83 1.83 0 0 0 1.641 1C3.016.22 3.78.016 4.22-.937c.313-.687.36-1.47.36-2.25zM2.484 0c-.39 0-.984-.25-1.156-1.203-.11-.594-.11-1.516-.11-2.11l.078-1.828c.188-1.187.938-1.28 1.188-1.28.328 0 .984.188 1.172 1.172.11.563.11 1.313.11 1.938 0 .75 0 1.422-.11 2.063C3.5-.297 2.938 0 2.484 0zm0 0" class="C"/></symbol><symbol id="F" class="B"><path d="M3.297 2.39c0-.03 0-.047-.172-.22C1.89.922 1.563-.97 1.563-2.5c0-1.734.375-3.47 1.61-4.703.125-.125.125-.14.125-.172 0-.078-.03-.11-.094-.11-.11 0-1 .688-1.594 1.953C1.11-4.437.984-3.328.984-2.5c0 .78.11 1.984.656 3.125C2.25 1.844 3.094 2.5 3.203 2.5c.063 0 .094-.03.094-.11zm0 0" class="C"/></symbol><symbol id="G" class="B"><path d="M2.875-2.5c0-.766-.11-1.97-.656-3.11C1.625-6.828.766-7.484.672-7.484c-.062 0-.11.047-.11.11 0 .03 0 .047.188.234.984.984 1.547 2.563 1.547 4.64 0 1.72-.36 3.47-1.594 4.72-.14.125-.14.14-.14.172 0 .063.047.11.11.11.094 0 1-.687 1.578-1.953.516-1.094.625-2.203.625-3.047zm0 0" class="C"/></symbol><symbol id="H" class="B"><path d="M3.328-3.016c.063-.25.297-1.172.984-1.172.047 0 .297 0 .5.125-.28.063-.47.297-.47.547 0 .156.11.344.375.344.22 0 .53-.172.53-.578 0-.516-.578-.656-.922-.656-.578 0-.922.53-1.047.75a1.09 1.09 0 0 0-1.078-.75c-1.03 0-1.61 1.28-1.61 1.53 0 .11.11.11.125.11.078 0 .11-.03.125-.11.344-1.062 1-1.312 1.344-1.312.188 0 .53.094.53.672 0 .313-.172.97-.53 2.375-.156.61-.516 1.03-.953 1.03-.062 0-.28 0-.5-.125.25-.062.47-.266.47-.547 0-.266-.22-.344-.36-.344-.312 0-.547.25-.547.578 0 .453.484.656.922.656.672 0 1.03-.703 1.047-.75a1.12 1.12 0 0 0 1.078.75c1.03 0 1.594-1.28 1.594-1.53 0-.11-.078-.11-.11-.11-.094 0-.11.047-.14.11C4.36-.344 3.688-.11 3.375-.11c-.39 0-.547-.312-.547-.656 0-.22.047-.437.156-.875zm0 0" class="C"/></symbol><symbol id="I" class="B"><path d="M3.72-3.766c-.187-.375-.47-.64-.922-.64-1.156 0-2.39 1.47-2.39 2.922C.406-.547.953.11 1.72.11c.203 0 .703-.047 1.297-.75a.91.91 0 0 0 .906.75c.36 0 .578-.234.75-.547a6.49 6.49 0 0 0 .297-.984c0-.11-.094-.11-.125-.11-.094 0-.11.047-.14.188-.172.64-.344 1.234-.75 1.234-.28 0-.297-.266-.297-.453 0-.22.016-.312.125-.75l.22-.89.36-1.39.063-.344c0-.172-.11-.266-.28-.266-.25 0-.39.22-.422.438zm-.64 2.578c-.062.188-.062.203-.203.375-.437.547-.844.703-1.125.703-.5 0-.64-.547-.64-.937 0-.5.313-1.72.547-2.187.313-.578.75-.953 1.156-.953.64 0 .78.813.78.875a.56.56 0 0 1-.031.172zm0 0" class="C"/></symbol><clipPath id="J"><path d="M191 160h3.672v4H191zm0 0"/></clipPath><clipPath id="K"><path d="M116 46h1v115.594h-1zm0 0"/></clipPath><clipPath id="L"><path d="M.2.195h194.273V145H.2zm0 0"/></clipPath></defs><g class="E D"><path d="M116.762 163.72v-4.25M36.93 138.535h4.25M36.93 46.3h4.25" stroke-width=".199" class="H"/><path d="M.2 161.594h192.28" class="F I"/></g><g clip-path="url(#J)" class="G"><path d="M194.473 161.594L191.285 160l1.195 1.594-1.195 1.594"/></g><path d="M39.055 161.594V2.19" class="D E F I"/><g class="G"><path d="M39.055.195l-1.594 3.19 1.594-1.195 1.594 1.195"/><use xlink:href="#A" x="114.308" y="170.242"/></g><path d="M114.31 171.676h4.9" stroke-width=".398" class="D E I"/><g class="G"><use xlink:href="#B" x="114.777" y="177.6"/><use xlink:href="#C" x="28.426" y="141.747"/><use xlink:href="#D" x="23.445" y="49.52"/><use xlink:href="#E" x="28.426" y="49.52"/></g><path d="M39.055 46.3h77.7m-77.7 92.225h77.7" class="D E F H J"/><g clip-path="url(#K)" class="D E F H J"><path d="M116.762 161.594V46.31"/></g><path d="M39.055 138.54l3.238-.602 3.238-1.668 3.234-2.555 3.238-3.21 3.238-3.684 3.238-4 3.238-4.215 3.238-4.352 3.238-4.45 3.238-4.5 3.238-4.527 3.238-4.52 3.238-4.508 3.234-4.48 3.238-4.434 3.238-4.38 3.238-4.316 3.238-4.246 3.238-4.164 3.238-4.078 3.238-3.992 3.238-3.887 3.238-3.79 3.238-3.676" stroke-width=".797" class="D E K"/><g clip-path="url(#L)" class="D E F J K"><path d="M.2 96.258l3.926 5.48 1.96 2.746 1.96 2.734 1.965 2.72 1.96 2.703 1.96 2.676 1.965 2.637 1.96 2.6 1.96 2.523 1.965 2.457 1.96 2.336 1.96 2.215 1.965 2.05 1.96 1.855 1.965 1.594 1.96 1.305 1.96.95 1.965.563 1.96.125 1.96-.3 1.965-.715 1.96-1.098 1.96-1.434 1.965-1.707 1.96-1.926 1.96-2.13 1.965-2.27 1.96-2.383 1.96-2.484 1.965-2.555 1.96-2.61 1.96-2.648 1.965-2.69 1.96-2.71 1.96-2.727 1.965-2.738 1.96-2.746 5.887-8.21 1.965-2.723 1.96-2.703 1.96-2.69 1.965-2.672 1.96-2.656 1.96-2.63 1.965-2.602 1.96-2.578 1.96-2.55 1.965-2.516 1.96-2.492 1.96-2.457 1.965-2.418 1.96-2.387 1.96-2.352 1.965-2.31 1.96-2.273 1.96-2.23 1.965-2.187 1.96-2.148 1.965-2.105 1.96-2.062 1.96-2.016 1.965-1.97 1.96-1.918 1.96-1.875 1.965-1.824 1.96-1.773 1.96-1.727 1.965-1.672 1.96-1.62 1.96-1.566 1.965-1.516 1.96-1.46 1.96-1.406 1.965-1.352 1.96-1.29 1.96-1.238 1.965-1.184 1.96-1.12 1.96-1.066L163.07 8.1l1.96-.95 1.965-.887 1.96-.828 1.96-.77 1.965-.71 1.96-.645 1.96-.6 1.965-.527 1.96-.46 1.96-.406 1.965-.34 1.96-.28 1.96-.215 1.965-.156 1.96-.094 1.96-.035"/></g><g class="G"><use xlink:href="#H" x="185.258" y="158.074"/><use xlink:href="#I" x="42.573" y="11.191"/><use xlink:href="#F" x="47.839" y="11.191"/><use xlink:href="#H" x="51.714" y="11.191"/><use xlink:href="#G" x="57.408" y="11.191"/></g></svg>