<svg xmlns="http://www.w3.org/2000/svg" xmlns:xlink="http://www.w3.org/1999/xlink" width="259.556" height="215.719" viewBox="0 0 194.667 161.789" xmlns:v="https://vecta.io/nano"><style><![CDATA[.B{overflow:visible}.C{stroke:none}.D{stroke-miterlimit:10}.E{stroke-width:.399}.F{fill:rgb(0%,0%,0%)}.G{stroke:rgb(0%,0%,0%)}.H{stroke:rgb(0%,62.353516%,95.684814%)}]]></style><defs><symbol id="A" class="B"><path d="M2.938-6.375c0-.25 0-.266-.234-.266C2.078-6 1.203-6 .89-6v.313c.203 0 .78 0 1.297-.266V-.78c0 .36-.03.47-.922.47H.953V0c.344-.03 1.203-.03 1.61-.03l1.61.03v-.312H3.86c-.906 0-.922-.11-.922-.47zm0 0" class="C"/></symbol><symbol id="B" class="B"><path d="M1.266-.766l1.063-1.03c1.547-1.375 2.14-1.906 2.14-2.906 0-1.14-.89-1.937-2.11-1.937C1.234-6.64.5-5.72.5-4.828c0 .547.5.547.53.547.172 0 .516-.11.516-.53a.51.51 0 0 0-.531-.516c-.078 0-.094 0-.125.016.22-.656.766-1.016 1.344-1.016.906 0 1.328.813 1.328 1.625 0 .797-.484 1.578-1.047 2.203L.61-.375C.5-.266.5-.234.5 0h3.703l.266-1.734h-.234C4.172-1.437 4.11-1 4-.844c-.062.078-.72.078-.937.078zm0 0" class="C"/></symbol><symbol id="C" class="B"><path d="M2.89-3.516c.813-.266 1.39-.953 1.39-1.75 0-.812-.875-1.375-1.828-1.375-1 0-1.766.594-1.766 1.36a.48.48 0 0 0 .516.516c.297 0 .5-.22.5-.516 0-.484-.47-.484-.61-.484.297-.5.953-.625 1.313-.625.422 0 .97.22.97 1.11 0 .125-.03.703-.28 1.14a.93.93 0 0 1-.891.516 3.29 3.29 0 0 1-.391.031c-.078.016-.14.03-.14.125 0 .11.063.11.234.11h.438c.813 0 1.188.672 1.188 1.656 0 1.36-.687 1.64-1.125 1.64S1.22-.234.875-.812c.344.047.656-.172.656-.547 0-.36-.266-.562-.547-.562a.53.53 0 0 0-.562.578C.422-.437 1.344.22 2.438.22c1.22 0 2.125-.906 2.125-1.922 0-.812-.64-1.594-1.672-1.812zm0 0" class="C"/></symbol><symbol id="D" class="B"><path d="M3.297 2.39c0-.03 0-.047-.172-.22C1.89.922 1.563-.97 1.563-2.5c0-1.734.375-3.47 1.61-4.703.125-.125.125-.14.125-.172 0-.078-.03-.11-.094-.11-.11 0-1 .688-1.594 1.953C1.11-4.437.984-3.328.984-2.5c0 .78.11 1.984.656 3.125C2.25 1.844 3.094 2.5 3.203 2.5c.063 0 .094-.03.094-.11zm0 0" class="C"/></symbol><symbol id="E" class="B"><path d="M2.875-2.5c0-.766-.11-1.97-.656-3.11C1.625-6.828.766-7.484.672-7.484c-.062 0-.11.047-.11.11 0 .03 0 .047.188.234.984.984 1.547 2.563 1.547 4.64 0 1.72-.36 3.47-1.594 4.72-.14.125-.14.14-.14.172 0 .063.047.11.11.11.094 0 1-.687 1.578-1.953.516-1.094.625-2.203.625-3.047zm0 0" class="C"/></symbol><symbol id="F" class="B"><path d="M3.328-3.016c.063-.25.297-1.172.984-1.172.047 0 .297 0 .5.125-.28.063-.47.297-.47.547 0 .156.11.344.375.344.22 0 .53-.172.53-.578 0-.516-.578-.656-.922-.656-.578 0-.922.53-1.047.75a1.09 1.09 0 0 0-1.078-.75c-1.03 0-1.61 1.28-1.61 1.53 0 .11.11.11.125.11.078 0 .11-.03.125-.11.344-1.062 1-1.312 1.344-1.312.188 0 .53.094.53.672 0 .313-.172.97-.53 2.375-.156.61-.516 1.03-.953 1.03-.062 0-.28 0-.5-.125.25-.062.47-.266.47-.547 0-.266-.22-.344-.36-.344-.312 0-.547.25-.547.578 0 .453.484.656.922.656.672 0 1.03-.703 1.047-.75a1.12 1.12 0 0 0 1.078.75c1.03 0 1.594-1.28 1.594-1.53 0-.11-.078-.11-.11-.11-.094 0-.11.047-.14.11C4.36-.344 3.688-.11 3.375-.11c-.39 0-.547-.312-.547-.656 0-.22.047-.437.156-.875zm0 0" class="C"/></symbol><symbol id="G" class="B"><path d="M6.438-6.922a.12.12 0 0 0-.125-.109c-.047 0-.047.016-.172.156l-.484.563c-.25-.47-.766-.72-1.422-.72-1.266 0-2.453 1.156-2.453 2.36a1.4 1.4 0 0 0 1.031 1.406l1.063.28c.375.094.922.25.922 1.063 0 .89-.812 1.828-1.797 1.828-.64 0-1.75-.22-1.75-1.453 0-.234.063-.484.063-.53.016-.047.016-.062.016-.078 0-.094-.062-.11-.11-.11s-.078.016-.11.047S.516.094.516.125c0 .047.047.094.11.094C.672.22.688.203.813.063L1.297-.5c.422.578 1.11.72 1.688.72 1.36 0 2.53-1.328 2.53-2.562 0-.687-.344-1.03-.484-1.172-.234-.22-.39-.266-1.266-.484l-.672-.187c-.266-.094-.61-.375-.61-.906 0-.812.797-1.656 1.75-1.656.813 0 1.422.438 1.422 1.547 0 .313-.03.5-.03.563 0 0 0 .094.11.094s.125-.03.156-.203zm0 0" class="C"/></symbol><symbol id="H" class="B"><path d="M2.328-4.437c0-.187 0-.187-.203-.187-.453.438-1.078.438-1.36.438v.25c.156 0 .625 0 1-.187v3.547c0 .234 0 .328-.687.328H.813V0l1.234-.03 1.25.03v-.25H3.03c-.703 0-.703-.094-.703-.328zm0 0" class="C"/></symbol><clipPath id="I"><path d="M191 76h3.668v4H191zm0 0"/></clipPath><clipPath id="J"><path d="M30 1h2v160.79h-2zm0 0"/></clipPath><clipPath id="K"><path d="M.2 39h194.27v84H.2zm0 0"/></clipPath></defs><g fill="none" class="D"><path d="M75.258 80.52v-4.254M119.4 80.52v-4.254m44.152 4.254v-4.254M28.98 34.238h4.25" stroke-width=".199" stroke="rgb(50%,50%,50%)"/><path d="M.2 78.39h192.277" class="E G"/></g><g clip-path="url(#I)" class="F"><path d="M194.47 78.39l-3.187-1.594 1.195 1.594-1.195 1.594"/></g><g clip-path="url(#J)" class="D E G"><path d="M31.105 161.6V2.188" fill="none"/></g><g class="F"><path d="M31.105.195l-1.594 3.19 1.594-1.2 1.594 1.2"/><use xlink:href="#A" x="72.767" y="90.459"/><use xlink:href="#B" x="116.919" y="90.459"/><use xlink:href="#C" x="161.071" y="90.459"/><use xlink:href="#A" x="20.479" y="37.451"/></g><path d="M31.105 78.39l5.52-5.29 5.52-4.828 5.52-4.37 5.52-3.906 5.52-3.45 5.516-2.992 5.52-2.527 5.52-2.07 5.52-1.61 5.52-1.152 5.52-.687 5.52-.23 5.52.23 5.516.688 5.52 1.152 5.52 1.61 5.52 2.07 5.52 2.527 5.52 2.988 5.52 3.45 5.52 3.9 5.52 4.37 5.516 4.828 5.52 5.29" fill="none" stroke-width=".797" class="D H"/><g clip-path="url(#K)" class="D E H"><path d="M.2 116.512l8.094-11.38 8.094-10.387 8.098-9.398 8.094-8.4 8.094-7.422 8.094-6.43 8.098-5.44 8.094-4.453 8.094-3.46 8.094-2.477 8.094-1.48 8.098-.496 8.094.492 8.094 1.484 8.094 2.477 8.098 3.46 8.094 4.453 8.094 5.44 8.094 6.43 8.094 7.418 8.098 8.4 8.094 9.398 8.094 10.387 8.094 11.38" fill="none" stroke-dasharray="2.98883,2.98883"/></g><g class="F"><use xlink:href="#F" x="185.254" y="74.873"/><use xlink:href="#G" x="34.625" y="11.191"/><use xlink:href="#H" x="40.734" y="12.685"/><use xlink:href="#D" x="45.204" y="11.191"/><use xlink:href="#F" x="49.078" y="11.191"/><use xlink:href="#E" x="54.772" y="11.191"/></g></svg>